%TF.GenerationSoftware,KiCad,Pcbnew,8.0.3*%
%TF.CreationDate,2024-06-24T10:16:25-03:00*%
%TF.ProjectId,esquematico,65737175-656d-4617-9469-636f2e6b6963,rev?*%
%TF.SameCoordinates,Original*%
%TF.FileFunction,Soldermask,Bot*%
%TF.FilePolarity,Negative*%
%FSLAX46Y46*%
G04 Gerber Fmt 4.6, Leading zero omitted, Abs format (unit mm)*
G04 Created by KiCad (PCBNEW 8.0.3) date 2024-06-24 10:16:25*
%MOMM*%
%LPD*%
G01*
G04 APERTURE LIST*
%ADD10C,2.200000*%
%ADD11C,1.600000*%
%ADD12O,1.600000X1.600000*%
%ADD13R,1.800000X1.800000*%
%ADD14C,1.800000*%
%ADD15O,2.000000X1.905000*%
%ADD16R,2.000000X1.905000*%
%ADD17O,3.500000X3.500000*%
%ADD18R,1.600000X1.600000*%
%ADD19R,1.500000X1.500000*%
%ADD20R,0.850000X0.850000*%
%ADD21O,0.850000X0.850000*%
G04 APERTURE END LIST*
D10*
%TO.C,hole3*%
X148000000Y-72500000D03*
%TD*%
%TO.C,hole2*%
X142000000Y-116500000D03*
%TD*%
%TO.C,hole1*%
X110500000Y-81000000D03*
%TD*%
D11*
%TO.C,C2*%
X110300000Y-101200000D03*
X110300000Y-96200000D03*
%TD*%
%TO.C,R5*%
X150300000Y-100280000D03*
D12*
X150300000Y-90120000D03*
%TD*%
D11*
%TO.C,C3*%
X133550000Y-78200000D03*
X136050000Y-78200000D03*
%TD*%
D13*
%TO.C,D1*%
X150300000Y-83660000D03*
D14*
X150300000Y-86200000D03*
%TD*%
D15*
%TO.C,U2*%
X131270000Y-110040000D03*
X131270000Y-107500000D03*
D16*
X131270000Y-104960000D03*
D17*
X147930000Y-107500000D03*
%TD*%
D11*
%TO.C,C1*%
X110300000Y-87700000D03*
X110300000Y-92700000D03*
%TD*%
%TO.C,C6*%
X131000000Y-99000000D03*
X133500000Y-99000000D03*
%TD*%
%TO.C,C4*%
X143300000Y-83450000D03*
X143300000Y-85950000D03*
%TD*%
%TO.C,R2*%
X140880000Y-91200000D03*
D12*
X130720000Y-91200000D03*
%TD*%
D18*
%TO.C,U1*%
X115680000Y-78300000D03*
D12*
X115680000Y-80840000D03*
X115680000Y-83380000D03*
X115680000Y-85920000D03*
X115680000Y-88460000D03*
X115680000Y-91000000D03*
X115680000Y-93540000D03*
X115680000Y-96080000D03*
X115680000Y-98620000D03*
X115680000Y-101160000D03*
X115680000Y-103700000D03*
X115680000Y-106240000D03*
X115680000Y-108780000D03*
X115680000Y-111320000D03*
X123300000Y-111320000D03*
X123300000Y-108780000D03*
X123300000Y-106240000D03*
X123300000Y-103700000D03*
X123300000Y-101160000D03*
X123300000Y-98620000D03*
X123300000Y-96080000D03*
X123300000Y-93540000D03*
X123300000Y-91000000D03*
X123300000Y-88460000D03*
X123300000Y-85920000D03*
X123300000Y-83380000D03*
X123300000Y-80840000D03*
X123300000Y-78300000D03*
%TD*%
D19*
%TO.C,SW1*%
X157300000Y-94660000D03*
D11*
X157300000Y-92120000D03*
X157300000Y-97200000D03*
%TD*%
%TO.C,C5*%
X138550000Y-78200000D03*
X141050000Y-78200000D03*
%TD*%
%TO.C,R4*%
X141080000Y-68300000D03*
D12*
X130920000Y-68300000D03*
%TD*%
D11*
%TO.C,R1*%
X140880000Y-95200000D03*
D12*
X130720000Y-95200000D03*
%TD*%
D11*
%TO.C,R3*%
X141080000Y-72000000D03*
D12*
X130920000Y-72000000D03*
%TD*%
D20*
%TO.C,sd_card*%
X137300000Y-119700000D03*
D21*
X136300000Y-119700000D03*
X135300000Y-119700000D03*
X134300000Y-119700000D03*
X133300000Y-119700000D03*
X132300000Y-119700000D03*
%TD*%
M02*
