M48
; DRILL file {KiCad 8.0.3} date 2024-06-24T10:15:48-0300
; FORMAT={-:-/ absolute / metric / decimal}
; #@! TF.CreationDate,2024-06-24T10:15:48-03:00
; #@! TF.GenerationSoftware,Kicad,Pcbnew,8.0.3
; #@! TF.FileFunction,Plated,1,2,PTH
FMAT,2
METRIC
; #@! TA.AperFunction,Plated,PTH,ComponentDrill
T1C0.500
; #@! TA.AperFunction,Plated,PTH,ComponentDrill
T2C0.800
; #@! TA.AperFunction,Plated,PTH,ComponentDrill
T3C0.900
; #@! TA.AperFunction,Plated,PTH,ComponentDrill
T4C1.100
%
G90
G05
T1
X132.3Y-119.7
X133.3Y-119.7
X134.3Y-119.7
X135.3Y-119.7
X136.3Y-119.7
X137.3Y-119.7
T2
X110.3Y-87.7
X110.3Y-92.7
X110.3Y-96.2
X110.3Y-101.2
X115.68Y-78.3
X115.68Y-80.84
X115.68Y-83.38
X115.68Y-85.92
X115.68Y-88.46
X115.68Y-91.0
X115.68Y-93.54
X115.68Y-96.08
X115.68Y-98.62
X115.68Y-101.16
X115.68Y-103.7
X115.68Y-106.24
X115.68Y-108.78
X115.68Y-111.32
X123.3Y-78.3
X123.3Y-80.84
X123.3Y-83.38
X123.3Y-85.92
X123.3Y-88.46
X123.3Y-91.0
X123.3Y-93.54
X123.3Y-96.08
X123.3Y-98.62
X123.3Y-101.16
X123.3Y-103.7
X123.3Y-106.24
X123.3Y-108.78
X123.3Y-111.32
X130.72Y-91.2
X130.72Y-95.2
X130.92Y-68.3
X130.92Y-72.0
X131.0Y-99.0
X133.5Y-99.0
X133.55Y-78.2
X136.05Y-78.2
X138.55Y-78.2
X140.88Y-91.2
X140.88Y-95.2
X141.05Y-78.2
X141.08Y-68.3
X141.08Y-72.0
X143.3Y-83.45
X143.3Y-85.95
X150.3Y-90.12
X150.3Y-100.28
X157.3Y-92.12
X157.3Y-94.66
X157.3Y-97.2
T3
X150.3Y-83.66
X150.3Y-86.2
T4
X131.27Y-104.96
X131.27Y-107.5
X131.27Y-110.04
M30
