%TF.GenerationSoftware,KiCad,Pcbnew,8.0.3*%
%TF.CreationDate,2024-06-24T10:16:25-03:00*%
%TF.ProjectId,esquematico,65737175-656d-4617-9469-636f2e6b6963,rev?*%
%TF.SameCoordinates,Original*%
%TF.FileFunction,Legend,Top*%
%TF.FilePolarity,Positive*%
%FSLAX46Y46*%
G04 Gerber Fmt 4.6, Leading zero omitted, Abs format (unit mm)*
G04 Created by KiCad (PCBNEW 8.0.3) date 2024-06-24 10:16:25*
%MOMM*%
%LPD*%
G01*
G04 APERTURE LIST*
%ADD10C,0.100000*%
%ADD11C,0.150000*%
%ADD12C,0.120000*%
G04 APERTURE END LIST*
D10*
X143857143Y-76262475D02*
X144428571Y-76262475D01*
X144142857Y-77262475D02*
X144142857Y-76262475D01*
X144761905Y-76738665D02*
X145095238Y-76738665D01*
X145238095Y-77262475D02*
X144761905Y-77262475D01*
X144761905Y-77262475D02*
X144761905Y-76262475D01*
X144761905Y-76262475D02*
X145238095Y-76262475D01*
X145666667Y-77262475D02*
X145666667Y-76262475D01*
X145666667Y-76262475D02*
X146238095Y-77262475D01*
X146238095Y-77262475D02*
X146238095Y-76262475D01*
X146714286Y-77262475D02*
X146714286Y-76262475D01*
X146714286Y-76262475D02*
X147285714Y-77262475D01*
X147285714Y-77262475D02*
X147285714Y-76262475D01*
X147761905Y-77262475D02*
X147761905Y-76262475D01*
X148190476Y-77214856D02*
X148333333Y-77262475D01*
X148333333Y-77262475D02*
X148571428Y-77262475D01*
X148571428Y-77262475D02*
X148666666Y-77214856D01*
X148666666Y-77214856D02*
X148714285Y-77167236D01*
X148714285Y-77167236D02*
X148761904Y-77071998D01*
X148761904Y-77071998D02*
X148761904Y-76976760D01*
X148761904Y-76976760D02*
X148714285Y-76881522D01*
X148714285Y-76881522D02*
X148666666Y-76833903D01*
X148666666Y-76833903D02*
X148571428Y-76786284D01*
X148571428Y-76786284D02*
X148380952Y-76738665D01*
X148380952Y-76738665D02*
X148285714Y-76691046D01*
X148285714Y-76691046D02*
X148238095Y-76643427D01*
X148238095Y-76643427D02*
X148190476Y-76548189D01*
X148190476Y-76548189D02*
X148190476Y-76452951D01*
X148190476Y-76452951D02*
X148238095Y-76357713D01*
X148238095Y-76357713D02*
X148285714Y-76310094D01*
X148285714Y-76310094D02*
X148380952Y-76262475D01*
X148380952Y-76262475D02*
X148619047Y-76262475D01*
X148619047Y-76262475D02*
X148761904Y-76310094D01*
X149809524Y-76262475D02*
X150380952Y-76262475D01*
X150095238Y-77262475D02*
X150095238Y-76262475D01*
X151285714Y-77262475D02*
X150952381Y-76786284D01*
X150714286Y-77262475D02*
X150714286Y-76262475D01*
X150714286Y-76262475D02*
X151095238Y-76262475D01*
X151095238Y-76262475D02*
X151190476Y-76310094D01*
X151190476Y-76310094D02*
X151238095Y-76357713D01*
X151238095Y-76357713D02*
X151285714Y-76452951D01*
X151285714Y-76452951D02*
X151285714Y-76595808D01*
X151285714Y-76595808D02*
X151238095Y-76691046D01*
X151238095Y-76691046D02*
X151190476Y-76738665D01*
X151190476Y-76738665D02*
X151095238Y-76786284D01*
X151095238Y-76786284D02*
X150714286Y-76786284D01*
X151666667Y-76976760D02*
X152142857Y-76976760D01*
X151571429Y-77262475D02*
X151904762Y-76262475D01*
X151904762Y-76262475D02*
X152238095Y-77262475D01*
X153142857Y-77167236D02*
X153095238Y-77214856D01*
X153095238Y-77214856D02*
X152952381Y-77262475D01*
X152952381Y-77262475D02*
X152857143Y-77262475D01*
X152857143Y-77262475D02*
X152714286Y-77214856D01*
X152714286Y-77214856D02*
X152619048Y-77119617D01*
X152619048Y-77119617D02*
X152571429Y-77024379D01*
X152571429Y-77024379D02*
X152523810Y-76833903D01*
X152523810Y-76833903D02*
X152523810Y-76691046D01*
X152523810Y-76691046D02*
X152571429Y-76500570D01*
X152571429Y-76500570D02*
X152619048Y-76405332D01*
X152619048Y-76405332D02*
X152714286Y-76310094D01*
X152714286Y-76310094D02*
X152857143Y-76262475D01*
X152857143Y-76262475D02*
X152952381Y-76262475D01*
X152952381Y-76262475D02*
X153095238Y-76310094D01*
X153095238Y-76310094D02*
X153142857Y-76357713D01*
X153571429Y-77262475D02*
X153571429Y-76262475D01*
X154142857Y-77262475D02*
X153714286Y-76691046D01*
X154142857Y-76262475D02*
X153571429Y-76833903D01*
X154571429Y-76738665D02*
X154904762Y-76738665D01*
X155047619Y-77262475D02*
X154571429Y-77262475D01*
X154571429Y-77262475D02*
X154571429Y-76262475D01*
X154571429Y-76262475D02*
X155047619Y-76262475D01*
X156047619Y-77262475D02*
X155714286Y-76786284D01*
X155476191Y-77262475D02*
X155476191Y-76262475D01*
X155476191Y-76262475D02*
X155857143Y-76262475D01*
X155857143Y-76262475D02*
X155952381Y-76310094D01*
X155952381Y-76310094D02*
X156000000Y-76357713D01*
X156000000Y-76357713D02*
X156047619Y-76452951D01*
X156047619Y-76452951D02*
X156047619Y-76595808D01*
X156047619Y-76595808D02*
X156000000Y-76691046D01*
X156000000Y-76691046D02*
X155952381Y-76738665D01*
X155952381Y-76738665D02*
X155857143Y-76786284D01*
X155857143Y-76786284D02*
X155476191Y-76786284D01*
X146166666Y-78872419D02*
X146166666Y-77872419D01*
X146166666Y-78253371D02*
X146261904Y-78205752D01*
X146261904Y-78205752D02*
X146452380Y-78205752D01*
X146452380Y-78205752D02*
X146547618Y-78253371D01*
X146547618Y-78253371D02*
X146595237Y-78300990D01*
X146595237Y-78300990D02*
X146642856Y-78396228D01*
X146642856Y-78396228D02*
X146642856Y-78681942D01*
X146642856Y-78681942D02*
X146595237Y-78777180D01*
X146595237Y-78777180D02*
X146547618Y-78824800D01*
X146547618Y-78824800D02*
X146452380Y-78872419D01*
X146452380Y-78872419D02*
X146261904Y-78872419D01*
X146261904Y-78872419D02*
X146166666Y-78824800D01*
X147214285Y-78872419D02*
X147119047Y-78824800D01*
X147119047Y-78824800D02*
X147071428Y-78777180D01*
X147071428Y-78777180D02*
X147023809Y-78681942D01*
X147023809Y-78681942D02*
X147023809Y-78396228D01*
X147023809Y-78396228D02*
X147071428Y-78300990D01*
X147071428Y-78300990D02*
X147119047Y-78253371D01*
X147119047Y-78253371D02*
X147214285Y-78205752D01*
X147214285Y-78205752D02*
X147357142Y-78205752D01*
X147357142Y-78205752D02*
X147452380Y-78253371D01*
X147452380Y-78253371D02*
X147499999Y-78300990D01*
X147499999Y-78300990D02*
X147547618Y-78396228D01*
X147547618Y-78396228D02*
X147547618Y-78681942D01*
X147547618Y-78681942D02*
X147499999Y-78777180D01*
X147499999Y-78777180D02*
X147452380Y-78824800D01*
X147452380Y-78824800D02*
X147357142Y-78872419D01*
X147357142Y-78872419D02*
X147214285Y-78872419D01*
X148404761Y-78872419D02*
X148404761Y-78348609D01*
X148404761Y-78348609D02*
X148357142Y-78253371D01*
X148357142Y-78253371D02*
X148261904Y-78205752D01*
X148261904Y-78205752D02*
X148071428Y-78205752D01*
X148071428Y-78205752D02*
X147976190Y-78253371D01*
X148404761Y-78824800D02*
X148309523Y-78872419D01*
X148309523Y-78872419D02*
X148071428Y-78872419D01*
X148071428Y-78872419D02*
X147976190Y-78824800D01*
X147976190Y-78824800D02*
X147928571Y-78729561D01*
X147928571Y-78729561D02*
X147928571Y-78634323D01*
X147928571Y-78634323D02*
X147976190Y-78539085D01*
X147976190Y-78539085D02*
X148071428Y-78491466D01*
X148071428Y-78491466D02*
X148309523Y-78491466D01*
X148309523Y-78491466D02*
X148404761Y-78443847D01*
X148880952Y-78872419D02*
X148880952Y-78205752D01*
X148880952Y-78396228D02*
X148928571Y-78300990D01*
X148928571Y-78300990D02*
X148976190Y-78253371D01*
X148976190Y-78253371D02*
X149071428Y-78205752D01*
X149071428Y-78205752D02*
X149166666Y-78205752D01*
X149928571Y-78872419D02*
X149928571Y-77872419D01*
X149928571Y-78824800D02*
X149833333Y-78872419D01*
X149833333Y-78872419D02*
X149642857Y-78872419D01*
X149642857Y-78872419D02*
X149547619Y-78824800D01*
X149547619Y-78824800D02*
X149500000Y-78777180D01*
X149500000Y-78777180D02*
X149452381Y-78681942D01*
X149452381Y-78681942D02*
X149452381Y-78396228D01*
X149452381Y-78396228D02*
X149500000Y-78300990D01*
X149500000Y-78300990D02*
X149547619Y-78253371D01*
X149547619Y-78253371D02*
X149642857Y-78205752D01*
X149642857Y-78205752D02*
X149833333Y-78205752D01*
X149833333Y-78205752D02*
X149928571Y-78253371D01*
X151071429Y-78205752D02*
X151309524Y-78872419D01*
X151309524Y-78872419D02*
X151547619Y-78205752D01*
X152452381Y-78872419D02*
X151880953Y-78872419D01*
X152166667Y-78872419D02*
X152166667Y-77872419D01*
X152166667Y-77872419D02*
X152071429Y-78015276D01*
X152071429Y-78015276D02*
X151976191Y-78110514D01*
X151976191Y-78110514D02*
X151880953Y-78158133D01*
X152880953Y-78777180D02*
X152928572Y-78824800D01*
X152928572Y-78824800D02*
X152880953Y-78872419D01*
X152880953Y-78872419D02*
X152833334Y-78824800D01*
X152833334Y-78824800D02*
X152880953Y-78777180D01*
X152880953Y-78777180D02*
X152880953Y-78872419D01*
X153547619Y-77872419D02*
X153642857Y-77872419D01*
X153642857Y-77872419D02*
X153738095Y-77920038D01*
X153738095Y-77920038D02*
X153785714Y-77967657D01*
X153785714Y-77967657D02*
X153833333Y-78062895D01*
X153833333Y-78062895D02*
X153880952Y-78253371D01*
X153880952Y-78253371D02*
X153880952Y-78491466D01*
X153880952Y-78491466D02*
X153833333Y-78681942D01*
X153833333Y-78681942D02*
X153785714Y-78777180D01*
X153785714Y-78777180D02*
X153738095Y-78824800D01*
X153738095Y-78824800D02*
X153642857Y-78872419D01*
X153642857Y-78872419D02*
X153547619Y-78872419D01*
X153547619Y-78872419D02*
X153452381Y-78824800D01*
X153452381Y-78824800D02*
X153404762Y-78777180D01*
X153404762Y-78777180D02*
X153357143Y-78681942D01*
X153357143Y-78681942D02*
X153309524Y-78491466D01*
X153309524Y-78491466D02*
X153309524Y-78253371D01*
X153309524Y-78253371D02*
X153357143Y-78062895D01*
X153357143Y-78062895D02*
X153404762Y-77967657D01*
X153404762Y-77967657D02*
X153452381Y-77920038D01*
X153452381Y-77920038D02*
X153547619Y-77872419D01*
D11*
X145166666Y-69954819D02*
X145166666Y-68954819D01*
X145595237Y-69954819D02*
X145595237Y-69431009D01*
X145595237Y-69431009D02*
X145547618Y-69335771D01*
X145547618Y-69335771D02*
X145452380Y-69288152D01*
X145452380Y-69288152D02*
X145309523Y-69288152D01*
X145309523Y-69288152D02*
X145214285Y-69335771D01*
X145214285Y-69335771D02*
X145166666Y-69383390D01*
X146214285Y-69954819D02*
X146119047Y-69907200D01*
X146119047Y-69907200D02*
X146071428Y-69859580D01*
X146071428Y-69859580D02*
X146023809Y-69764342D01*
X146023809Y-69764342D02*
X146023809Y-69478628D01*
X146023809Y-69478628D02*
X146071428Y-69383390D01*
X146071428Y-69383390D02*
X146119047Y-69335771D01*
X146119047Y-69335771D02*
X146214285Y-69288152D01*
X146214285Y-69288152D02*
X146357142Y-69288152D01*
X146357142Y-69288152D02*
X146452380Y-69335771D01*
X146452380Y-69335771D02*
X146499999Y-69383390D01*
X146499999Y-69383390D02*
X146547618Y-69478628D01*
X146547618Y-69478628D02*
X146547618Y-69764342D01*
X146547618Y-69764342D02*
X146499999Y-69859580D01*
X146499999Y-69859580D02*
X146452380Y-69907200D01*
X146452380Y-69907200D02*
X146357142Y-69954819D01*
X146357142Y-69954819D02*
X146214285Y-69954819D01*
X147119047Y-69954819D02*
X147023809Y-69907200D01*
X147023809Y-69907200D02*
X146976190Y-69811961D01*
X146976190Y-69811961D02*
X146976190Y-68954819D01*
X147880952Y-69907200D02*
X147785714Y-69954819D01*
X147785714Y-69954819D02*
X147595238Y-69954819D01*
X147595238Y-69954819D02*
X147500000Y-69907200D01*
X147500000Y-69907200D02*
X147452381Y-69811961D01*
X147452381Y-69811961D02*
X147452381Y-69431009D01*
X147452381Y-69431009D02*
X147500000Y-69335771D01*
X147500000Y-69335771D02*
X147595238Y-69288152D01*
X147595238Y-69288152D02*
X147785714Y-69288152D01*
X147785714Y-69288152D02*
X147880952Y-69335771D01*
X147880952Y-69335771D02*
X147928571Y-69431009D01*
X147928571Y-69431009D02*
X147928571Y-69526247D01*
X147928571Y-69526247D02*
X147452381Y-69621485D01*
X148261905Y-68954819D02*
X148880952Y-68954819D01*
X148880952Y-68954819D02*
X148547619Y-69335771D01*
X148547619Y-69335771D02*
X148690476Y-69335771D01*
X148690476Y-69335771D02*
X148785714Y-69383390D01*
X148785714Y-69383390D02*
X148833333Y-69431009D01*
X148833333Y-69431009D02*
X148880952Y-69526247D01*
X148880952Y-69526247D02*
X148880952Y-69764342D01*
X148880952Y-69764342D02*
X148833333Y-69859580D01*
X148833333Y-69859580D02*
X148785714Y-69907200D01*
X148785714Y-69907200D02*
X148690476Y-69954819D01*
X148690476Y-69954819D02*
X148404762Y-69954819D01*
X148404762Y-69954819D02*
X148309524Y-69907200D01*
X148309524Y-69907200D02*
X148261905Y-69859580D01*
X144166666Y-114954819D02*
X144166666Y-113954819D01*
X144595237Y-114954819D02*
X144595237Y-114431009D01*
X144595237Y-114431009D02*
X144547618Y-114335771D01*
X144547618Y-114335771D02*
X144452380Y-114288152D01*
X144452380Y-114288152D02*
X144309523Y-114288152D01*
X144309523Y-114288152D02*
X144214285Y-114335771D01*
X144214285Y-114335771D02*
X144166666Y-114383390D01*
X145214285Y-114954819D02*
X145119047Y-114907200D01*
X145119047Y-114907200D02*
X145071428Y-114859580D01*
X145071428Y-114859580D02*
X145023809Y-114764342D01*
X145023809Y-114764342D02*
X145023809Y-114478628D01*
X145023809Y-114478628D02*
X145071428Y-114383390D01*
X145071428Y-114383390D02*
X145119047Y-114335771D01*
X145119047Y-114335771D02*
X145214285Y-114288152D01*
X145214285Y-114288152D02*
X145357142Y-114288152D01*
X145357142Y-114288152D02*
X145452380Y-114335771D01*
X145452380Y-114335771D02*
X145499999Y-114383390D01*
X145499999Y-114383390D02*
X145547618Y-114478628D01*
X145547618Y-114478628D02*
X145547618Y-114764342D01*
X145547618Y-114764342D02*
X145499999Y-114859580D01*
X145499999Y-114859580D02*
X145452380Y-114907200D01*
X145452380Y-114907200D02*
X145357142Y-114954819D01*
X145357142Y-114954819D02*
X145214285Y-114954819D01*
X146119047Y-114954819D02*
X146023809Y-114907200D01*
X146023809Y-114907200D02*
X145976190Y-114811961D01*
X145976190Y-114811961D02*
X145976190Y-113954819D01*
X146880952Y-114907200D02*
X146785714Y-114954819D01*
X146785714Y-114954819D02*
X146595238Y-114954819D01*
X146595238Y-114954819D02*
X146500000Y-114907200D01*
X146500000Y-114907200D02*
X146452381Y-114811961D01*
X146452381Y-114811961D02*
X146452381Y-114431009D01*
X146452381Y-114431009D02*
X146500000Y-114335771D01*
X146500000Y-114335771D02*
X146595238Y-114288152D01*
X146595238Y-114288152D02*
X146785714Y-114288152D01*
X146785714Y-114288152D02*
X146880952Y-114335771D01*
X146880952Y-114335771D02*
X146928571Y-114431009D01*
X146928571Y-114431009D02*
X146928571Y-114526247D01*
X146928571Y-114526247D02*
X146452381Y-114621485D01*
X147309524Y-114050057D02*
X147357143Y-114002438D01*
X147357143Y-114002438D02*
X147452381Y-113954819D01*
X147452381Y-113954819D02*
X147690476Y-113954819D01*
X147690476Y-113954819D02*
X147785714Y-114002438D01*
X147785714Y-114002438D02*
X147833333Y-114050057D01*
X147833333Y-114050057D02*
X147880952Y-114145295D01*
X147880952Y-114145295D02*
X147880952Y-114240533D01*
X147880952Y-114240533D02*
X147833333Y-114383390D01*
X147833333Y-114383390D02*
X147261905Y-114954819D01*
X147261905Y-114954819D02*
X147880952Y-114954819D01*
X109666666Y-78454819D02*
X109666666Y-77454819D01*
X110095237Y-78454819D02*
X110095237Y-77931009D01*
X110095237Y-77931009D02*
X110047618Y-77835771D01*
X110047618Y-77835771D02*
X109952380Y-77788152D01*
X109952380Y-77788152D02*
X109809523Y-77788152D01*
X109809523Y-77788152D02*
X109714285Y-77835771D01*
X109714285Y-77835771D02*
X109666666Y-77883390D01*
X110714285Y-78454819D02*
X110619047Y-78407200D01*
X110619047Y-78407200D02*
X110571428Y-78359580D01*
X110571428Y-78359580D02*
X110523809Y-78264342D01*
X110523809Y-78264342D02*
X110523809Y-77978628D01*
X110523809Y-77978628D02*
X110571428Y-77883390D01*
X110571428Y-77883390D02*
X110619047Y-77835771D01*
X110619047Y-77835771D02*
X110714285Y-77788152D01*
X110714285Y-77788152D02*
X110857142Y-77788152D01*
X110857142Y-77788152D02*
X110952380Y-77835771D01*
X110952380Y-77835771D02*
X110999999Y-77883390D01*
X110999999Y-77883390D02*
X111047618Y-77978628D01*
X111047618Y-77978628D02*
X111047618Y-78264342D01*
X111047618Y-78264342D02*
X110999999Y-78359580D01*
X110999999Y-78359580D02*
X110952380Y-78407200D01*
X110952380Y-78407200D02*
X110857142Y-78454819D01*
X110857142Y-78454819D02*
X110714285Y-78454819D01*
X111619047Y-78454819D02*
X111523809Y-78407200D01*
X111523809Y-78407200D02*
X111476190Y-78311961D01*
X111476190Y-78311961D02*
X111476190Y-77454819D01*
X112380952Y-78407200D02*
X112285714Y-78454819D01*
X112285714Y-78454819D02*
X112095238Y-78454819D01*
X112095238Y-78454819D02*
X112000000Y-78407200D01*
X112000000Y-78407200D02*
X111952381Y-78311961D01*
X111952381Y-78311961D02*
X111952381Y-77931009D01*
X111952381Y-77931009D02*
X112000000Y-77835771D01*
X112000000Y-77835771D02*
X112095238Y-77788152D01*
X112095238Y-77788152D02*
X112285714Y-77788152D01*
X112285714Y-77788152D02*
X112380952Y-77835771D01*
X112380952Y-77835771D02*
X112428571Y-77931009D01*
X112428571Y-77931009D02*
X112428571Y-78026247D01*
X112428571Y-78026247D02*
X111952381Y-78121485D01*
X113380952Y-78454819D02*
X112809524Y-78454819D01*
X113095238Y-78454819D02*
X113095238Y-77454819D01*
X113095238Y-77454819D02*
X113000000Y-77597676D01*
X113000000Y-77597676D02*
X112904762Y-77692914D01*
X112904762Y-77692914D02*
X112809524Y-77740533D01*
X107933333Y-99059580D02*
X107885714Y-99107200D01*
X107885714Y-99107200D02*
X107742857Y-99154819D01*
X107742857Y-99154819D02*
X107647619Y-99154819D01*
X107647619Y-99154819D02*
X107504762Y-99107200D01*
X107504762Y-99107200D02*
X107409524Y-99011961D01*
X107409524Y-99011961D02*
X107361905Y-98916723D01*
X107361905Y-98916723D02*
X107314286Y-98726247D01*
X107314286Y-98726247D02*
X107314286Y-98583390D01*
X107314286Y-98583390D02*
X107361905Y-98392914D01*
X107361905Y-98392914D02*
X107409524Y-98297676D01*
X107409524Y-98297676D02*
X107504762Y-98202438D01*
X107504762Y-98202438D02*
X107647619Y-98154819D01*
X107647619Y-98154819D02*
X107742857Y-98154819D01*
X107742857Y-98154819D02*
X107885714Y-98202438D01*
X107885714Y-98202438D02*
X107933333Y-98250057D01*
X108314286Y-98250057D02*
X108361905Y-98202438D01*
X108361905Y-98202438D02*
X108457143Y-98154819D01*
X108457143Y-98154819D02*
X108695238Y-98154819D01*
X108695238Y-98154819D02*
X108790476Y-98202438D01*
X108790476Y-98202438D02*
X108838095Y-98250057D01*
X108838095Y-98250057D02*
X108885714Y-98345295D01*
X108885714Y-98345295D02*
X108885714Y-98440533D01*
X108885714Y-98440533D02*
X108838095Y-98583390D01*
X108838095Y-98583390D02*
X108266667Y-99154819D01*
X108266667Y-99154819D02*
X108885714Y-99154819D01*
X147333333Y-92954819D02*
X147000000Y-92478628D01*
X146761905Y-92954819D02*
X146761905Y-91954819D01*
X146761905Y-91954819D02*
X147142857Y-91954819D01*
X147142857Y-91954819D02*
X147238095Y-92002438D01*
X147238095Y-92002438D02*
X147285714Y-92050057D01*
X147285714Y-92050057D02*
X147333333Y-92145295D01*
X147333333Y-92145295D02*
X147333333Y-92288152D01*
X147333333Y-92288152D02*
X147285714Y-92383390D01*
X147285714Y-92383390D02*
X147238095Y-92431009D01*
X147238095Y-92431009D02*
X147142857Y-92478628D01*
X147142857Y-92478628D02*
X146761905Y-92478628D01*
X148238095Y-91954819D02*
X147761905Y-91954819D01*
X147761905Y-91954819D02*
X147714286Y-92431009D01*
X147714286Y-92431009D02*
X147761905Y-92383390D01*
X147761905Y-92383390D02*
X147857143Y-92335771D01*
X147857143Y-92335771D02*
X148095238Y-92335771D01*
X148095238Y-92335771D02*
X148190476Y-92383390D01*
X148190476Y-92383390D02*
X148238095Y-92431009D01*
X148238095Y-92431009D02*
X148285714Y-92526247D01*
X148285714Y-92526247D02*
X148285714Y-92764342D01*
X148285714Y-92764342D02*
X148238095Y-92859580D01*
X148238095Y-92859580D02*
X148190476Y-92907200D01*
X148190476Y-92907200D02*
X148095238Y-92954819D01*
X148095238Y-92954819D02*
X147857143Y-92954819D01*
X147857143Y-92954819D02*
X147761905Y-92907200D01*
X147761905Y-92907200D02*
X147714286Y-92859580D01*
X133133333Y-76359580D02*
X133085714Y-76407200D01*
X133085714Y-76407200D02*
X132942857Y-76454819D01*
X132942857Y-76454819D02*
X132847619Y-76454819D01*
X132847619Y-76454819D02*
X132704762Y-76407200D01*
X132704762Y-76407200D02*
X132609524Y-76311961D01*
X132609524Y-76311961D02*
X132561905Y-76216723D01*
X132561905Y-76216723D02*
X132514286Y-76026247D01*
X132514286Y-76026247D02*
X132514286Y-75883390D01*
X132514286Y-75883390D02*
X132561905Y-75692914D01*
X132561905Y-75692914D02*
X132609524Y-75597676D01*
X132609524Y-75597676D02*
X132704762Y-75502438D01*
X132704762Y-75502438D02*
X132847619Y-75454819D01*
X132847619Y-75454819D02*
X132942857Y-75454819D01*
X132942857Y-75454819D02*
X133085714Y-75502438D01*
X133085714Y-75502438D02*
X133133333Y-75550057D01*
X133466667Y-75454819D02*
X134085714Y-75454819D01*
X134085714Y-75454819D02*
X133752381Y-75835771D01*
X133752381Y-75835771D02*
X133895238Y-75835771D01*
X133895238Y-75835771D02*
X133990476Y-75883390D01*
X133990476Y-75883390D02*
X134038095Y-75931009D01*
X134038095Y-75931009D02*
X134085714Y-76026247D01*
X134085714Y-76026247D02*
X134085714Y-76264342D01*
X134085714Y-76264342D02*
X134038095Y-76359580D01*
X134038095Y-76359580D02*
X133990476Y-76407200D01*
X133990476Y-76407200D02*
X133895238Y-76454819D01*
X133895238Y-76454819D02*
X133609524Y-76454819D01*
X133609524Y-76454819D02*
X133514286Y-76407200D01*
X133514286Y-76407200D02*
X133466667Y-76359580D01*
X146761905Y-83954819D02*
X146761905Y-82954819D01*
X146761905Y-82954819D02*
X147000000Y-82954819D01*
X147000000Y-82954819D02*
X147142857Y-83002438D01*
X147142857Y-83002438D02*
X147238095Y-83097676D01*
X147238095Y-83097676D02*
X147285714Y-83192914D01*
X147285714Y-83192914D02*
X147333333Y-83383390D01*
X147333333Y-83383390D02*
X147333333Y-83526247D01*
X147333333Y-83526247D02*
X147285714Y-83716723D01*
X147285714Y-83716723D02*
X147238095Y-83811961D01*
X147238095Y-83811961D02*
X147142857Y-83907200D01*
X147142857Y-83907200D02*
X147000000Y-83954819D01*
X147000000Y-83954819D02*
X146761905Y-83954819D01*
X148285714Y-83954819D02*
X147714286Y-83954819D01*
X148000000Y-83954819D02*
X148000000Y-82954819D01*
X148000000Y-82954819D02*
X147904762Y-83097676D01*
X147904762Y-83097676D02*
X147809524Y-83192914D01*
X147809524Y-83192914D02*
X147714286Y-83240533D01*
X151238095Y-104454819D02*
X151238095Y-105264342D01*
X151238095Y-105264342D02*
X151285714Y-105359580D01*
X151285714Y-105359580D02*
X151333333Y-105407200D01*
X151333333Y-105407200D02*
X151428571Y-105454819D01*
X151428571Y-105454819D02*
X151619047Y-105454819D01*
X151619047Y-105454819D02*
X151714285Y-105407200D01*
X151714285Y-105407200D02*
X151761904Y-105359580D01*
X151761904Y-105359580D02*
X151809523Y-105264342D01*
X151809523Y-105264342D02*
X151809523Y-104454819D01*
X152238095Y-104550057D02*
X152285714Y-104502438D01*
X152285714Y-104502438D02*
X152380952Y-104454819D01*
X152380952Y-104454819D02*
X152619047Y-104454819D01*
X152619047Y-104454819D02*
X152714285Y-104502438D01*
X152714285Y-104502438D02*
X152761904Y-104550057D01*
X152761904Y-104550057D02*
X152809523Y-104645295D01*
X152809523Y-104645295D02*
X152809523Y-104740533D01*
X152809523Y-104740533D02*
X152761904Y-104883390D01*
X152761904Y-104883390D02*
X152190476Y-105454819D01*
X152190476Y-105454819D02*
X152809523Y-105454819D01*
X107833333Y-90559580D02*
X107785714Y-90607200D01*
X107785714Y-90607200D02*
X107642857Y-90654819D01*
X107642857Y-90654819D02*
X107547619Y-90654819D01*
X107547619Y-90654819D02*
X107404762Y-90607200D01*
X107404762Y-90607200D02*
X107309524Y-90511961D01*
X107309524Y-90511961D02*
X107261905Y-90416723D01*
X107261905Y-90416723D02*
X107214286Y-90226247D01*
X107214286Y-90226247D02*
X107214286Y-90083390D01*
X107214286Y-90083390D02*
X107261905Y-89892914D01*
X107261905Y-89892914D02*
X107309524Y-89797676D01*
X107309524Y-89797676D02*
X107404762Y-89702438D01*
X107404762Y-89702438D02*
X107547619Y-89654819D01*
X107547619Y-89654819D02*
X107642857Y-89654819D01*
X107642857Y-89654819D02*
X107785714Y-89702438D01*
X107785714Y-89702438D02*
X107833333Y-89750057D01*
X108785714Y-90654819D02*
X108214286Y-90654819D01*
X108500000Y-90654819D02*
X108500000Y-89654819D01*
X108500000Y-89654819D02*
X108404762Y-89797676D01*
X108404762Y-89797676D02*
X108309524Y-89892914D01*
X108309524Y-89892914D02*
X108214286Y-89940533D01*
X135833333Y-98859580D02*
X135785714Y-98907200D01*
X135785714Y-98907200D02*
X135642857Y-98954819D01*
X135642857Y-98954819D02*
X135547619Y-98954819D01*
X135547619Y-98954819D02*
X135404762Y-98907200D01*
X135404762Y-98907200D02*
X135309524Y-98811961D01*
X135309524Y-98811961D02*
X135261905Y-98716723D01*
X135261905Y-98716723D02*
X135214286Y-98526247D01*
X135214286Y-98526247D02*
X135214286Y-98383390D01*
X135214286Y-98383390D02*
X135261905Y-98192914D01*
X135261905Y-98192914D02*
X135309524Y-98097676D01*
X135309524Y-98097676D02*
X135404762Y-98002438D01*
X135404762Y-98002438D02*
X135547619Y-97954819D01*
X135547619Y-97954819D02*
X135642857Y-97954819D01*
X135642857Y-97954819D02*
X135785714Y-98002438D01*
X135785714Y-98002438D02*
X135833333Y-98050057D01*
X136690476Y-97954819D02*
X136500000Y-97954819D01*
X136500000Y-97954819D02*
X136404762Y-98002438D01*
X136404762Y-98002438D02*
X136357143Y-98050057D01*
X136357143Y-98050057D02*
X136261905Y-98192914D01*
X136261905Y-98192914D02*
X136214286Y-98383390D01*
X136214286Y-98383390D02*
X136214286Y-98764342D01*
X136214286Y-98764342D02*
X136261905Y-98859580D01*
X136261905Y-98859580D02*
X136309524Y-98907200D01*
X136309524Y-98907200D02*
X136404762Y-98954819D01*
X136404762Y-98954819D02*
X136595238Y-98954819D01*
X136595238Y-98954819D02*
X136690476Y-98907200D01*
X136690476Y-98907200D02*
X136738095Y-98859580D01*
X136738095Y-98859580D02*
X136785714Y-98764342D01*
X136785714Y-98764342D02*
X136785714Y-98526247D01*
X136785714Y-98526247D02*
X136738095Y-98431009D01*
X136738095Y-98431009D02*
X136690476Y-98383390D01*
X136690476Y-98383390D02*
X136595238Y-98335771D01*
X136595238Y-98335771D02*
X136404762Y-98335771D01*
X136404762Y-98335771D02*
X136309524Y-98383390D01*
X136309524Y-98383390D02*
X136261905Y-98431009D01*
X136261905Y-98431009D02*
X136214286Y-98526247D01*
X142833333Y-81859580D02*
X142785714Y-81907200D01*
X142785714Y-81907200D02*
X142642857Y-81954819D01*
X142642857Y-81954819D02*
X142547619Y-81954819D01*
X142547619Y-81954819D02*
X142404762Y-81907200D01*
X142404762Y-81907200D02*
X142309524Y-81811961D01*
X142309524Y-81811961D02*
X142261905Y-81716723D01*
X142261905Y-81716723D02*
X142214286Y-81526247D01*
X142214286Y-81526247D02*
X142214286Y-81383390D01*
X142214286Y-81383390D02*
X142261905Y-81192914D01*
X142261905Y-81192914D02*
X142309524Y-81097676D01*
X142309524Y-81097676D02*
X142404762Y-81002438D01*
X142404762Y-81002438D02*
X142547619Y-80954819D01*
X142547619Y-80954819D02*
X142642857Y-80954819D01*
X142642857Y-80954819D02*
X142785714Y-81002438D01*
X142785714Y-81002438D02*
X142833333Y-81050057D01*
X143690476Y-81288152D02*
X143690476Y-81954819D01*
X143452381Y-80907200D02*
X143214286Y-81621485D01*
X143214286Y-81621485D02*
X143833333Y-81621485D01*
X137833333Y-89154819D02*
X137500000Y-88678628D01*
X137261905Y-89154819D02*
X137261905Y-88154819D01*
X137261905Y-88154819D02*
X137642857Y-88154819D01*
X137642857Y-88154819D02*
X137738095Y-88202438D01*
X137738095Y-88202438D02*
X137785714Y-88250057D01*
X137785714Y-88250057D02*
X137833333Y-88345295D01*
X137833333Y-88345295D02*
X137833333Y-88488152D01*
X137833333Y-88488152D02*
X137785714Y-88583390D01*
X137785714Y-88583390D02*
X137738095Y-88631009D01*
X137738095Y-88631009D02*
X137642857Y-88678628D01*
X137642857Y-88678628D02*
X137261905Y-88678628D01*
X138214286Y-88250057D02*
X138261905Y-88202438D01*
X138261905Y-88202438D02*
X138357143Y-88154819D01*
X138357143Y-88154819D02*
X138595238Y-88154819D01*
X138595238Y-88154819D02*
X138690476Y-88202438D01*
X138690476Y-88202438D02*
X138738095Y-88250057D01*
X138738095Y-88250057D02*
X138785714Y-88345295D01*
X138785714Y-88345295D02*
X138785714Y-88440533D01*
X138785714Y-88440533D02*
X138738095Y-88583390D01*
X138738095Y-88583390D02*
X138166667Y-89154819D01*
X138166667Y-89154819D02*
X138785714Y-89154819D01*
X115038095Y-75614819D02*
X115038095Y-76424342D01*
X115038095Y-76424342D02*
X115085714Y-76519580D01*
X115085714Y-76519580D02*
X115133333Y-76567200D01*
X115133333Y-76567200D02*
X115228571Y-76614819D01*
X115228571Y-76614819D02*
X115419047Y-76614819D01*
X115419047Y-76614819D02*
X115514285Y-76567200D01*
X115514285Y-76567200D02*
X115561904Y-76519580D01*
X115561904Y-76519580D02*
X115609523Y-76424342D01*
X115609523Y-76424342D02*
X115609523Y-75614819D01*
X116609523Y-76614819D02*
X116038095Y-76614819D01*
X116323809Y-76614819D02*
X116323809Y-75614819D01*
X116323809Y-75614819D02*
X116228571Y-75757676D01*
X116228571Y-75757676D02*
X116133333Y-75852914D01*
X116133333Y-75852914D02*
X116038095Y-75900533D01*
X133538095Y-80154819D02*
X133538095Y-80964342D01*
X133538095Y-80964342D02*
X133585714Y-81059580D01*
X133585714Y-81059580D02*
X133633333Y-81107200D01*
X133633333Y-81107200D02*
X133728571Y-81154819D01*
X133728571Y-81154819D02*
X133919047Y-81154819D01*
X133919047Y-81154819D02*
X134014285Y-81107200D01*
X134014285Y-81107200D02*
X134061904Y-81059580D01*
X134061904Y-81059580D02*
X134109523Y-80964342D01*
X134109523Y-80964342D02*
X134109523Y-80154819D01*
X134490476Y-80154819D02*
X135109523Y-80154819D01*
X135109523Y-80154819D02*
X134776190Y-80535771D01*
X134776190Y-80535771D02*
X134919047Y-80535771D01*
X134919047Y-80535771D02*
X135014285Y-80583390D01*
X135014285Y-80583390D02*
X135061904Y-80631009D01*
X135061904Y-80631009D02*
X135109523Y-80726247D01*
X135109523Y-80726247D02*
X135109523Y-80964342D01*
X135109523Y-80964342D02*
X135061904Y-81059580D01*
X135061904Y-81059580D02*
X135014285Y-81107200D01*
X135014285Y-81107200D02*
X134919047Y-81154819D01*
X134919047Y-81154819D02*
X134633333Y-81154819D01*
X134633333Y-81154819D02*
X134538095Y-81107200D01*
X134538095Y-81107200D02*
X134490476Y-81059580D01*
X159666667Y-94907200D02*
X159809524Y-94954819D01*
X159809524Y-94954819D02*
X160047619Y-94954819D01*
X160047619Y-94954819D02*
X160142857Y-94907200D01*
X160142857Y-94907200D02*
X160190476Y-94859580D01*
X160190476Y-94859580D02*
X160238095Y-94764342D01*
X160238095Y-94764342D02*
X160238095Y-94669104D01*
X160238095Y-94669104D02*
X160190476Y-94573866D01*
X160190476Y-94573866D02*
X160142857Y-94526247D01*
X160142857Y-94526247D02*
X160047619Y-94478628D01*
X160047619Y-94478628D02*
X159857143Y-94431009D01*
X159857143Y-94431009D02*
X159761905Y-94383390D01*
X159761905Y-94383390D02*
X159714286Y-94335771D01*
X159714286Y-94335771D02*
X159666667Y-94240533D01*
X159666667Y-94240533D02*
X159666667Y-94145295D01*
X159666667Y-94145295D02*
X159714286Y-94050057D01*
X159714286Y-94050057D02*
X159761905Y-94002438D01*
X159761905Y-94002438D02*
X159857143Y-93954819D01*
X159857143Y-93954819D02*
X160095238Y-93954819D01*
X160095238Y-93954819D02*
X160238095Y-94002438D01*
X160571429Y-93954819D02*
X160809524Y-94954819D01*
X160809524Y-94954819D02*
X161000000Y-94240533D01*
X161000000Y-94240533D02*
X161190476Y-94954819D01*
X161190476Y-94954819D02*
X161428572Y-93954819D01*
X162333333Y-94954819D02*
X161761905Y-94954819D01*
X162047619Y-94954819D02*
X162047619Y-93954819D01*
X162047619Y-93954819D02*
X161952381Y-94097676D01*
X161952381Y-94097676D02*
X161857143Y-94192914D01*
X161857143Y-94192914D02*
X161761905Y-94240533D01*
X138333333Y-76359580D02*
X138285714Y-76407200D01*
X138285714Y-76407200D02*
X138142857Y-76454819D01*
X138142857Y-76454819D02*
X138047619Y-76454819D01*
X138047619Y-76454819D02*
X137904762Y-76407200D01*
X137904762Y-76407200D02*
X137809524Y-76311961D01*
X137809524Y-76311961D02*
X137761905Y-76216723D01*
X137761905Y-76216723D02*
X137714286Y-76026247D01*
X137714286Y-76026247D02*
X137714286Y-75883390D01*
X137714286Y-75883390D02*
X137761905Y-75692914D01*
X137761905Y-75692914D02*
X137809524Y-75597676D01*
X137809524Y-75597676D02*
X137904762Y-75502438D01*
X137904762Y-75502438D02*
X138047619Y-75454819D01*
X138047619Y-75454819D02*
X138142857Y-75454819D01*
X138142857Y-75454819D02*
X138285714Y-75502438D01*
X138285714Y-75502438D02*
X138333333Y-75550057D01*
X139238095Y-75454819D02*
X138761905Y-75454819D01*
X138761905Y-75454819D02*
X138714286Y-75931009D01*
X138714286Y-75931009D02*
X138761905Y-75883390D01*
X138761905Y-75883390D02*
X138857143Y-75835771D01*
X138857143Y-75835771D02*
X139095238Y-75835771D01*
X139095238Y-75835771D02*
X139190476Y-75883390D01*
X139190476Y-75883390D02*
X139238095Y-75931009D01*
X139238095Y-75931009D02*
X139285714Y-76026247D01*
X139285714Y-76026247D02*
X139285714Y-76264342D01*
X139285714Y-76264342D02*
X139238095Y-76359580D01*
X139238095Y-76359580D02*
X139190476Y-76407200D01*
X139190476Y-76407200D02*
X139095238Y-76454819D01*
X139095238Y-76454819D02*
X138857143Y-76454819D01*
X138857143Y-76454819D02*
X138761905Y-76407200D01*
X138761905Y-76407200D02*
X138714286Y-76359580D01*
X133413333Y-66254819D02*
X133080000Y-65778628D01*
X132841905Y-66254819D02*
X132841905Y-65254819D01*
X132841905Y-65254819D02*
X133222857Y-65254819D01*
X133222857Y-65254819D02*
X133318095Y-65302438D01*
X133318095Y-65302438D02*
X133365714Y-65350057D01*
X133365714Y-65350057D02*
X133413333Y-65445295D01*
X133413333Y-65445295D02*
X133413333Y-65588152D01*
X133413333Y-65588152D02*
X133365714Y-65683390D01*
X133365714Y-65683390D02*
X133318095Y-65731009D01*
X133318095Y-65731009D02*
X133222857Y-65778628D01*
X133222857Y-65778628D02*
X132841905Y-65778628D01*
X134270476Y-65588152D02*
X134270476Y-66254819D01*
X134032381Y-65207200D02*
X133794286Y-65921485D01*
X133794286Y-65921485D02*
X134413333Y-65921485D01*
X137833333Y-97954819D02*
X137500000Y-97478628D01*
X137261905Y-97954819D02*
X137261905Y-96954819D01*
X137261905Y-96954819D02*
X137642857Y-96954819D01*
X137642857Y-96954819D02*
X137738095Y-97002438D01*
X137738095Y-97002438D02*
X137785714Y-97050057D01*
X137785714Y-97050057D02*
X137833333Y-97145295D01*
X137833333Y-97145295D02*
X137833333Y-97288152D01*
X137833333Y-97288152D02*
X137785714Y-97383390D01*
X137785714Y-97383390D02*
X137738095Y-97431009D01*
X137738095Y-97431009D02*
X137642857Y-97478628D01*
X137642857Y-97478628D02*
X137261905Y-97478628D01*
X138785714Y-97954819D02*
X138214286Y-97954819D01*
X138500000Y-97954819D02*
X138500000Y-96954819D01*
X138500000Y-96954819D02*
X138404762Y-97097676D01*
X138404762Y-97097676D02*
X138309524Y-97192914D01*
X138309524Y-97192914D02*
X138214286Y-97240533D01*
X154347618Y-102256819D02*
X154347618Y-101256819D01*
X154347618Y-101637771D02*
X154442856Y-101590152D01*
X154442856Y-101590152D02*
X154633332Y-101590152D01*
X154633332Y-101590152D02*
X154728570Y-101637771D01*
X154728570Y-101637771D02*
X154776189Y-101685390D01*
X154776189Y-101685390D02*
X154823808Y-101780628D01*
X154823808Y-101780628D02*
X154823808Y-102066342D01*
X154823808Y-102066342D02*
X154776189Y-102161580D01*
X154776189Y-102161580D02*
X154728570Y-102209200D01*
X154728570Y-102209200D02*
X154633332Y-102256819D01*
X154633332Y-102256819D02*
X154442856Y-102256819D01*
X154442856Y-102256819D02*
X154347618Y-102209200D01*
X155680951Y-102256819D02*
X155680951Y-101733009D01*
X155680951Y-101733009D02*
X155633332Y-101637771D01*
X155633332Y-101637771D02*
X155538094Y-101590152D01*
X155538094Y-101590152D02*
X155347618Y-101590152D01*
X155347618Y-101590152D02*
X155252380Y-101637771D01*
X155680951Y-102209200D02*
X155585713Y-102256819D01*
X155585713Y-102256819D02*
X155347618Y-102256819D01*
X155347618Y-102256819D02*
X155252380Y-102209200D01*
X155252380Y-102209200D02*
X155204761Y-102113961D01*
X155204761Y-102113961D02*
X155204761Y-102018723D01*
X155204761Y-102018723D02*
X155252380Y-101923485D01*
X155252380Y-101923485D02*
X155347618Y-101875866D01*
X155347618Y-101875866D02*
X155585713Y-101875866D01*
X155585713Y-101875866D02*
X155680951Y-101828247D01*
X156014285Y-101590152D02*
X156395237Y-101590152D01*
X156157142Y-101256819D02*
X156157142Y-102113961D01*
X156157142Y-102113961D02*
X156204761Y-102209200D01*
X156204761Y-102209200D02*
X156299999Y-102256819D01*
X156299999Y-102256819D02*
X156395237Y-102256819D01*
X156585714Y-101590152D02*
X156966666Y-101590152D01*
X156728571Y-101256819D02*
X156728571Y-102113961D01*
X156728571Y-102113961D02*
X156776190Y-102209200D01*
X156776190Y-102209200D02*
X156871428Y-102256819D01*
X156871428Y-102256819D02*
X156966666Y-102256819D01*
X157680952Y-102209200D02*
X157585714Y-102256819D01*
X157585714Y-102256819D02*
X157395238Y-102256819D01*
X157395238Y-102256819D02*
X157300000Y-102209200D01*
X157300000Y-102209200D02*
X157252381Y-102113961D01*
X157252381Y-102113961D02*
X157252381Y-101733009D01*
X157252381Y-101733009D02*
X157300000Y-101637771D01*
X157300000Y-101637771D02*
X157395238Y-101590152D01*
X157395238Y-101590152D02*
X157585714Y-101590152D01*
X157585714Y-101590152D02*
X157680952Y-101637771D01*
X157680952Y-101637771D02*
X157728571Y-101733009D01*
X157728571Y-101733009D02*
X157728571Y-101828247D01*
X157728571Y-101828247D02*
X157252381Y-101923485D01*
X158157143Y-102256819D02*
X158157143Y-101590152D01*
X158157143Y-101780628D02*
X158204762Y-101685390D01*
X158204762Y-101685390D02*
X158252381Y-101637771D01*
X158252381Y-101637771D02*
X158347619Y-101590152D01*
X158347619Y-101590152D02*
X158442857Y-101590152D01*
X158680953Y-101590152D02*
X158919048Y-102256819D01*
X159157143Y-101590152D02*
X158919048Y-102256819D01*
X158919048Y-102256819D02*
X158823810Y-102494914D01*
X158823810Y-102494914D02*
X158776191Y-102542533D01*
X158776191Y-102542533D02*
X158680953Y-102590152D01*
X159538096Y-101875866D02*
X160300001Y-101875866D01*
X161300000Y-102256819D02*
X160728572Y-102256819D01*
X161014286Y-102256819D02*
X161014286Y-101256819D01*
X161014286Y-101256819D02*
X160919048Y-101399676D01*
X160919048Y-101399676D02*
X160823810Y-101494914D01*
X160823810Y-101494914D02*
X160728572Y-101542533D01*
X153547618Y-82756819D02*
X153547618Y-81756819D01*
X153547618Y-82137771D02*
X153642856Y-82090152D01*
X153642856Y-82090152D02*
X153833332Y-82090152D01*
X153833332Y-82090152D02*
X153928570Y-82137771D01*
X153928570Y-82137771D02*
X153976189Y-82185390D01*
X153976189Y-82185390D02*
X154023808Y-82280628D01*
X154023808Y-82280628D02*
X154023808Y-82566342D01*
X154023808Y-82566342D02*
X153976189Y-82661580D01*
X153976189Y-82661580D02*
X153928570Y-82709200D01*
X153928570Y-82709200D02*
X153833332Y-82756819D01*
X153833332Y-82756819D02*
X153642856Y-82756819D01*
X153642856Y-82756819D02*
X153547618Y-82709200D01*
X154880951Y-82756819D02*
X154880951Y-82233009D01*
X154880951Y-82233009D02*
X154833332Y-82137771D01*
X154833332Y-82137771D02*
X154738094Y-82090152D01*
X154738094Y-82090152D02*
X154547618Y-82090152D01*
X154547618Y-82090152D02*
X154452380Y-82137771D01*
X154880951Y-82709200D02*
X154785713Y-82756819D01*
X154785713Y-82756819D02*
X154547618Y-82756819D01*
X154547618Y-82756819D02*
X154452380Y-82709200D01*
X154452380Y-82709200D02*
X154404761Y-82613961D01*
X154404761Y-82613961D02*
X154404761Y-82518723D01*
X154404761Y-82518723D02*
X154452380Y-82423485D01*
X154452380Y-82423485D02*
X154547618Y-82375866D01*
X154547618Y-82375866D02*
X154785713Y-82375866D01*
X154785713Y-82375866D02*
X154880951Y-82328247D01*
X155214285Y-82090152D02*
X155595237Y-82090152D01*
X155357142Y-81756819D02*
X155357142Y-82613961D01*
X155357142Y-82613961D02*
X155404761Y-82709200D01*
X155404761Y-82709200D02*
X155499999Y-82756819D01*
X155499999Y-82756819D02*
X155595237Y-82756819D01*
X155785714Y-82090152D02*
X156166666Y-82090152D01*
X155928571Y-81756819D02*
X155928571Y-82613961D01*
X155928571Y-82613961D02*
X155976190Y-82709200D01*
X155976190Y-82709200D02*
X156071428Y-82756819D01*
X156071428Y-82756819D02*
X156166666Y-82756819D01*
X156880952Y-82709200D02*
X156785714Y-82756819D01*
X156785714Y-82756819D02*
X156595238Y-82756819D01*
X156595238Y-82756819D02*
X156500000Y-82709200D01*
X156500000Y-82709200D02*
X156452381Y-82613961D01*
X156452381Y-82613961D02*
X156452381Y-82233009D01*
X156452381Y-82233009D02*
X156500000Y-82137771D01*
X156500000Y-82137771D02*
X156595238Y-82090152D01*
X156595238Y-82090152D02*
X156785714Y-82090152D01*
X156785714Y-82090152D02*
X156880952Y-82137771D01*
X156880952Y-82137771D02*
X156928571Y-82233009D01*
X156928571Y-82233009D02*
X156928571Y-82328247D01*
X156928571Y-82328247D02*
X156452381Y-82423485D01*
X157357143Y-82756819D02*
X157357143Y-82090152D01*
X157357143Y-82280628D02*
X157404762Y-82185390D01*
X157404762Y-82185390D02*
X157452381Y-82137771D01*
X157452381Y-82137771D02*
X157547619Y-82090152D01*
X157547619Y-82090152D02*
X157642857Y-82090152D01*
X157880953Y-82090152D02*
X158119048Y-82756819D01*
X158357143Y-82090152D02*
X158119048Y-82756819D01*
X158119048Y-82756819D02*
X158023810Y-82994914D01*
X158023810Y-82994914D02*
X157976191Y-83042533D01*
X157976191Y-83042533D02*
X157880953Y-83090152D01*
X158738096Y-82375866D02*
X159500001Y-82375866D01*
X159119048Y-82756819D02*
X159119048Y-81994914D01*
X160500000Y-82756819D02*
X159928572Y-82756819D01*
X160214286Y-82756819D02*
X160214286Y-81756819D01*
X160214286Y-81756819D02*
X160119048Y-81899676D01*
X160119048Y-81899676D02*
X160023810Y-81994914D01*
X160023810Y-81994914D02*
X159928572Y-82042533D01*
X133413333Y-74754819D02*
X133080000Y-74278628D01*
X132841905Y-74754819D02*
X132841905Y-73754819D01*
X132841905Y-73754819D02*
X133222857Y-73754819D01*
X133222857Y-73754819D02*
X133318095Y-73802438D01*
X133318095Y-73802438D02*
X133365714Y-73850057D01*
X133365714Y-73850057D02*
X133413333Y-73945295D01*
X133413333Y-73945295D02*
X133413333Y-74088152D01*
X133413333Y-74088152D02*
X133365714Y-74183390D01*
X133365714Y-74183390D02*
X133318095Y-74231009D01*
X133318095Y-74231009D02*
X133222857Y-74278628D01*
X133222857Y-74278628D02*
X132841905Y-74278628D01*
X133746667Y-73754819D02*
X134365714Y-73754819D01*
X134365714Y-73754819D02*
X134032381Y-74135771D01*
X134032381Y-74135771D02*
X134175238Y-74135771D01*
X134175238Y-74135771D02*
X134270476Y-74183390D01*
X134270476Y-74183390D02*
X134318095Y-74231009D01*
X134318095Y-74231009D02*
X134365714Y-74326247D01*
X134365714Y-74326247D02*
X134365714Y-74564342D01*
X134365714Y-74564342D02*
X134318095Y-74659580D01*
X134318095Y-74659580D02*
X134270476Y-74707200D01*
X134270476Y-74707200D02*
X134175238Y-74754819D01*
X134175238Y-74754819D02*
X133889524Y-74754819D01*
X133889524Y-74754819D02*
X133794286Y-74707200D01*
X133794286Y-74707200D02*
X133746667Y-74659580D01*
X131809523Y-122407200D02*
X131904761Y-122454819D01*
X131904761Y-122454819D02*
X132095237Y-122454819D01*
X132095237Y-122454819D02*
X132190475Y-122407200D01*
X132190475Y-122407200D02*
X132238094Y-122311961D01*
X132238094Y-122311961D02*
X132238094Y-122264342D01*
X132238094Y-122264342D02*
X132190475Y-122169104D01*
X132190475Y-122169104D02*
X132095237Y-122121485D01*
X132095237Y-122121485D02*
X131952380Y-122121485D01*
X131952380Y-122121485D02*
X131857142Y-122073866D01*
X131857142Y-122073866D02*
X131809523Y-121978628D01*
X131809523Y-121978628D02*
X131809523Y-121931009D01*
X131809523Y-121931009D02*
X131857142Y-121835771D01*
X131857142Y-121835771D02*
X131952380Y-121788152D01*
X131952380Y-121788152D02*
X132095237Y-121788152D01*
X132095237Y-121788152D02*
X132190475Y-121835771D01*
X133095237Y-122454819D02*
X133095237Y-121454819D01*
X133095237Y-122407200D02*
X132999999Y-122454819D01*
X132999999Y-122454819D02*
X132809523Y-122454819D01*
X132809523Y-122454819D02*
X132714285Y-122407200D01*
X132714285Y-122407200D02*
X132666666Y-122359580D01*
X132666666Y-122359580D02*
X132619047Y-122264342D01*
X132619047Y-122264342D02*
X132619047Y-121978628D01*
X132619047Y-121978628D02*
X132666666Y-121883390D01*
X132666666Y-121883390D02*
X132714285Y-121835771D01*
X132714285Y-121835771D02*
X132809523Y-121788152D01*
X132809523Y-121788152D02*
X132999999Y-121788152D01*
X132999999Y-121788152D02*
X133095237Y-121835771D01*
X133333333Y-122550057D02*
X134095237Y-122550057D01*
X134761904Y-122407200D02*
X134666666Y-122454819D01*
X134666666Y-122454819D02*
X134476190Y-122454819D01*
X134476190Y-122454819D02*
X134380952Y-122407200D01*
X134380952Y-122407200D02*
X134333333Y-122359580D01*
X134333333Y-122359580D02*
X134285714Y-122264342D01*
X134285714Y-122264342D02*
X134285714Y-121978628D01*
X134285714Y-121978628D02*
X134333333Y-121883390D01*
X134333333Y-121883390D02*
X134380952Y-121835771D01*
X134380952Y-121835771D02*
X134476190Y-121788152D01*
X134476190Y-121788152D02*
X134666666Y-121788152D01*
X134666666Y-121788152D02*
X134761904Y-121835771D01*
X135619047Y-122454819D02*
X135619047Y-121931009D01*
X135619047Y-121931009D02*
X135571428Y-121835771D01*
X135571428Y-121835771D02*
X135476190Y-121788152D01*
X135476190Y-121788152D02*
X135285714Y-121788152D01*
X135285714Y-121788152D02*
X135190476Y-121835771D01*
X135619047Y-122407200D02*
X135523809Y-122454819D01*
X135523809Y-122454819D02*
X135285714Y-122454819D01*
X135285714Y-122454819D02*
X135190476Y-122407200D01*
X135190476Y-122407200D02*
X135142857Y-122311961D01*
X135142857Y-122311961D02*
X135142857Y-122216723D01*
X135142857Y-122216723D02*
X135190476Y-122121485D01*
X135190476Y-122121485D02*
X135285714Y-122073866D01*
X135285714Y-122073866D02*
X135523809Y-122073866D01*
X135523809Y-122073866D02*
X135619047Y-122026247D01*
X136095238Y-122454819D02*
X136095238Y-121788152D01*
X136095238Y-121978628D02*
X136142857Y-121883390D01*
X136142857Y-121883390D02*
X136190476Y-121835771D01*
X136190476Y-121835771D02*
X136285714Y-121788152D01*
X136285714Y-121788152D02*
X136380952Y-121788152D01*
X137142857Y-122454819D02*
X137142857Y-121454819D01*
X137142857Y-122407200D02*
X137047619Y-122454819D01*
X137047619Y-122454819D02*
X136857143Y-122454819D01*
X136857143Y-122454819D02*
X136761905Y-122407200D01*
X136761905Y-122407200D02*
X136714286Y-122359580D01*
X136714286Y-122359580D02*
X136666667Y-122264342D01*
X136666667Y-122264342D02*
X136666667Y-121978628D01*
X136666667Y-121978628D02*
X136714286Y-121883390D01*
X136714286Y-121883390D02*
X136761905Y-121835771D01*
X136761905Y-121835771D02*
X136857143Y-121788152D01*
X136857143Y-121788152D02*
X137047619Y-121788152D01*
X137047619Y-121788152D02*
X137142857Y-121835771D01*
D12*
%TO.C,C2*%
X109230000Y-96430000D02*
X109245000Y-96430000D01*
X109230000Y-100970000D02*
X109230000Y-96430000D01*
X109230000Y-100970000D02*
X109245000Y-100970000D01*
X111355000Y-96430000D02*
X111370000Y-96430000D01*
X111355000Y-100970000D02*
X111370000Y-100970000D01*
X111370000Y-100970000D02*
X111370000Y-96430000D01*
%TO.C,R5*%
X148930000Y-91930000D02*
X148930000Y-98470000D01*
X148930000Y-98470000D02*
X151670000Y-98470000D01*
X150300000Y-91160000D02*
X150300000Y-91930000D01*
X150300000Y-99240000D02*
X150300000Y-98470000D01*
X151670000Y-91930000D02*
X148930000Y-91930000D01*
X151670000Y-98470000D02*
X151670000Y-91930000D01*
%TO.C,C3*%
X132980000Y-77030000D02*
X132980000Y-77275000D01*
X132980000Y-77030000D02*
X136620000Y-77030000D01*
X132980000Y-79125000D02*
X132980000Y-79370000D01*
X132980000Y-79370000D02*
X136620000Y-79370000D01*
X136620000Y-77030000D02*
X136620000Y-77275000D01*
X136620000Y-79125000D02*
X136620000Y-79370000D01*
%TO.C,D1*%
X149220000Y-83370000D02*
X149064000Y-83370000D01*
X151536000Y-83370000D02*
X151380000Y-83370000D01*
X149220163Y-85971130D02*
G75*
G02*
X149220000Y-83889039I1079837J1041130D01*
G01*
X149221392Y-86602335D02*
G75*
G02*
X149064484Y-83370000I1078608J1672335D01*
G01*
X151380000Y-83889039D02*
G75*
G02*
X151379837Y-85971130I-1080000J-1040961D01*
G01*
X151535516Y-83370000D02*
G75*
G02*
X151378608Y-86602335I-1235516J-1560000D01*
G01*
%TO.C,U2*%
X150850000Y-112620000D02*
X134960000Y-112620000D01*
X150850000Y-102380000D02*
X150850000Y-112620000D01*
X150850000Y-102380000D02*
X134960000Y-102380000D01*
X134960000Y-110040000D02*
X132420000Y-110040000D01*
X134960000Y-107500000D02*
X132420000Y-107500000D01*
X134960000Y-104960000D02*
X132420000Y-104960000D01*
X134960000Y-102380000D02*
X134960000Y-112620000D01*
%TO.C,C1*%
X109230000Y-87930000D02*
X109230000Y-92470000D01*
X109245000Y-87930000D02*
X109230000Y-87930000D01*
X109245000Y-92470000D02*
X109230000Y-92470000D01*
X111370000Y-87930000D02*
X111355000Y-87930000D01*
X111370000Y-87930000D02*
X111370000Y-92470000D01*
X111370000Y-92470000D02*
X111355000Y-92470000D01*
%TO.C,C6*%
X130430000Y-97830000D02*
X130430000Y-98075000D01*
X130430000Y-97830000D02*
X134070000Y-97830000D01*
X130430000Y-99925000D02*
X130430000Y-100170000D01*
X130430000Y-100170000D02*
X134070000Y-100170000D01*
X134070000Y-97830000D02*
X134070000Y-98075000D01*
X134070000Y-99925000D02*
X134070000Y-100170000D01*
%TO.C,C4*%
X142130000Y-82880000D02*
X142130000Y-86520000D01*
X142375000Y-82880000D02*
X142130000Y-82880000D01*
X142375000Y-86520000D02*
X142130000Y-86520000D01*
X144470000Y-82880000D02*
X144225000Y-82880000D01*
X144470000Y-82880000D02*
X144470000Y-86520000D01*
X144470000Y-86520000D02*
X144225000Y-86520000D01*
%TO.C,R2*%
X131760000Y-91200000D02*
X132530000Y-91200000D01*
X132530000Y-89830000D02*
X132530000Y-92570000D01*
X132530000Y-92570000D02*
X139070000Y-92570000D01*
X139070000Y-89830000D02*
X132530000Y-89830000D01*
X139070000Y-92570000D02*
X139070000Y-89830000D01*
X139840000Y-91200000D02*
X139070000Y-91200000D01*
%TO.C,U1*%
X116840000Y-76970000D02*
X116840000Y-112650000D01*
X116840000Y-112650000D02*
X122140000Y-112650000D01*
X118490000Y-76970000D02*
X116840000Y-76970000D01*
X122140000Y-76970000D02*
X120490000Y-76970000D01*
X122140000Y-112650000D02*
X122140000Y-76970000D01*
X120490000Y-76970000D02*
G75*
G02*
X118490000Y-76970000I-1000000J0D01*
G01*
%TO.C,U3*%
X133900000Y-82100000D02*
X133900000Y-82625000D01*
X133900000Y-82100000D02*
X134425000Y-82100000D01*
X133900000Y-85875000D02*
X133900000Y-86100000D01*
X134365000Y-86400000D02*
X134140000Y-86400000D01*
X138200000Y-82100000D02*
X137675000Y-82100000D01*
X138200000Y-82100000D02*
X138200000Y-82625000D01*
X138200000Y-86400000D02*
X137675000Y-86400000D01*
X138200000Y-86400000D02*
X138200000Y-85875000D01*
X133900000Y-86400000D02*
X133570000Y-86640000D01*
X133570000Y-86160000D01*
X133900000Y-86400000D01*
G36*
X133900000Y-86400000D02*
G01*
X133570000Y-86640000D01*
X133570000Y-86160000D01*
X133900000Y-86400000D01*
G37*
%TO.C,SW1*%
X158660000Y-89550000D02*
X155940000Y-89550000D01*
X155940000Y-99770000D01*
X158660000Y-99770000D01*
X158660000Y-89550000D01*
%TO.C,C5*%
X137980000Y-77030000D02*
X137980000Y-77275000D01*
X137980000Y-77030000D02*
X141620000Y-77030000D01*
X137980000Y-79125000D02*
X137980000Y-79370000D01*
X137980000Y-79370000D02*
X141620000Y-79370000D01*
X141620000Y-77030000D02*
X141620000Y-77275000D01*
X141620000Y-79125000D02*
X141620000Y-79370000D01*
%TO.C,R4*%
X131960000Y-68300000D02*
X132730000Y-68300000D01*
X132730000Y-66930000D02*
X132730000Y-69670000D01*
X132730000Y-69670000D02*
X139270000Y-69670000D01*
X139270000Y-66930000D02*
X132730000Y-66930000D01*
X139270000Y-69670000D02*
X139270000Y-66930000D01*
X140040000Y-68300000D02*
X139270000Y-68300000D01*
%TO.C,R1*%
X131760000Y-95200000D02*
X132530000Y-95200000D01*
X132530000Y-93830000D02*
X132530000Y-96570000D01*
X132530000Y-96570000D02*
X139070000Y-96570000D01*
X139070000Y-93830000D02*
X132530000Y-93830000D01*
X139070000Y-96570000D02*
X139070000Y-93830000D01*
X139840000Y-95200000D02*
X139070000Y-95200000D01*
%TO.C,battery-1*%
X155600000Y-102500000D02*
X160000000Y-102500000D01*
X155600000Y-106900000D02*
X155600000Y-102500000D01*
X160000000Y-102500000D02*
X160000000Y-106900000D01*
X160000000Y-106900000D02*
X155600000Y-106900000D01*
%TO.C,battery+1*%
X155600000Y-83000000D02*
X160000000Y-83000000D01*
X155600000Y-87400000D02*
X155600000Y-83000000D01*
X160000000Y-83000000D02*
X160000000Y-87400000D01*
X160000000Y-87400000D02*
X155600000Y-87400000D01*
%TO.C,R3*%
X131960000Y-72000000D02*
X132730000Y-72000000D01*
X132730000Y-70630000D02*
X132730000Y-73370000D01*
X132730000Y-73370000D02*
X139270000Y-73370000D01*
X139270000Y-70630000D02*
X132730000Y-70630000D01*
X139270000Y-73370000D02*
X139270000Y-70630000D01*
X140040000Y-72000000D02*
X139270000Y-72000000D01*
%TO.C,sd_card*%
X131740000Y-119005000D02*
X131740000Y-119305507D01*
X131740000Y-120094493D02*
X131740000Y-120395000D01*
X136615000Y-119005000D02*
X131740000Y-119005000D01*
X136615000Y-119005000D02*
X136615000Y-119091724D01*
X136615000Y-120308276D02*
X136615000Y-120395000D01*
X136615000Y-120395000D02*
X131740000Y-120395000D01*
X137300000Y-119005000D02*
X137985000Y-119005000D01*
X137985000Y-119005000D02*
X137985000Y-119700000D01*
%TD*%
M02*
