%TF.GenerationSoftware,KiCad,Pcbnew,8.0.3*%
%TF.CreationDate,2024-06-24T16:42:43-03:00*%
%TF.ProjectId,kicad_project,6b696361-645f-4707-926f-6a6563742e6b,rev?*%
%TF.SameCoordinates,Original*%
%TF.FileFunction,Paste,Top*%
%TF.FilePolarity,Positive*%
%FSLAX46Y46*%
G04 Gerber Fmt 4.6, Leading zero omitted, Abs format (unit mm)*
G04 Created by KiCad (PCBNEW 8.0.3) date 2024-06-24 16:42:43*
%MOMM*%
%LPD*%
G01*
G04 APERTURE LIST*
G04 Aperture macros list*
%AMRoundRect*
0 Rectangle with rounded corners*
0 $1 Rounding radius*
0 $2 $3 $4 $5 $6 $7 $8 $9 X,Y pos of 4 corners*
0 Add a 4 corners polygon primitive as box body*
4,1,4,$2,$3,$4,$5,$6,$7,$8,$9,$2,$3,0*
0 Add four circle primitives for the rounded corners*
1,1,$1+$1,$2,$3*
1,1,$1+$1,$4,$5*
1,1,$1+$1,$6,$7*
1,1,$1+$1,$8,$9*
0 Add four rect primitives between the rounded corners*
20,1,$1+$1,$2,$3,$4,$5,0*
20,1,$1+$1,$4,$5,$6,$7,0*
20,1,$1+$1,$6,$7,$8,$9,0*
20,1,$1+$1,$8,$9,$2,$3,0*%
%AMFreePoly0*
4,1,14,0.110355,0.410355,0.125000,0.375000,0.125000,-0.375000,0.110355,-0.410355,0.075000,-0.425000,0.045711,-0.425000,0.010356,-0.410355,-0.110355,-0.289644,-0.125000,-0.254289,-0.125000,0.375000,-0.110355,0.410355,-0.075000,0.425000,0.075000,0.425000,0.110355,0.410355,0.110355,0.410355,$1*%
%AMFreePoly1*
4,1,14,0.110355,0.410355,0.125000,0.375000,0.125000,-0.254289,0.110355,-0.289644,-0.010356,-0.410355,-0.045711,-0.425000,-0.075000,-0.425000,-0.110355,-0.410355,-0.125000,-0.375000,-0.125000,0.375000,-0.110355,0.410355,-0.075000,0.425000,0.075000,0.425000,0.110355,0.410355,0.110355,0.410355,$1*%
%AMFreePoly2*
4,1,14,0.410355,0.110355,0.425000,0.075000,0.425000,-0.075000,0.410355,-0.110355,0.375000,-0.125000,-0.375000,-0.125000,-0.410355,-0.110355,-0.425000,-0.075000,-0.425000,-0.045711,-0.410355,-0.010356,-0.289644,0.110355,-0.254289,0.125000,0.375000,0.125000,0.410355,0.110355,0.410355,0.110355,$1*%
%AMFreePoly3*
4,1,14,0.410355,0.110355,0.425000,0.075000,0.425000,-0.075000,0.410355,-0.110355,0.375000,-0.125000,-0.254289,-0.125000,-0.289644,-0.110355,-0.410355,0.010356,-0.425000,0.045711,-0.425000,0.075000,-0.410355,0.110355,-0.375000,0.125000,0.375000,0.125000,0.410355,0.110355,0.410355,0.110355,$1*%
%AMFreePoly4*
4,1,14,-0.010356,0.410355,0.110355,0.289644,0.125000,0.254289,0.125000,-0.375000,0.110355,-0.410355,0.075000,-0.425000,-0.075000,-0.425000,-0.110355,-0.410355,-0.125000,-0.375000,-0.125000,0.375000,-0.110355,0.410355,-0.075000,0.425000,-0.045711,0.425000,-0.010356,0.410355,-0.010356,0.410355,$1*%
%AMFreePoly5*
4,1,14,0.110355,0.410355,0.125000,0.375000,0.125000,-0.375000,0.110355,-0.410355,0.075000,-0.425000,-0.075000,-0.425000,-0.110355,-0.410355,-0.125000,-0.375000,-0.125000,0.254289,-0.110355,0.289644,0.010356,0.410355,0.045711,0.425000,0.075000,0.425000,0.110355,0.410355,0.110355,0.410355,$1*%
%AMFreePoly6*
4,1,14,0.410355,0.110355,0.425000,0.075000,0.425000,0.045711,0.410355,0.010356,0.289644,-0.110355,0.254289,-0.125000,-0.375000,-0.125000,-0.410355,-0.110355,-0.425000,-0.075000,-0.425000,0.075000,-0.410355,0.110355,-0.375000,0.125000,0.375000,0.125000,0.410355,0.110355,0.410355,0.110355,$1*%
%AMFreePoly7*
4,1,14,0.289644,0.110355,0.410355,-0.010356,0.425000,-0.045711,0.425000,-0.075000,0.410355,-0.110355,0.375000,-0.125000,-0.375000,-0.125000,-0.410355,-0.110355,-0.425000,-0.075000,-0.425000,0.075000,-0.410355,0.110355,-0.375000,0.125000,0.254289,0.125000,0.289644,0.110355,0.289644,0.110355,$1*%
G04 Aperture macros list end*
%ADD10C,0.000100*%
%ADD11R,1.300000X1.300000*%
%ADD12R,1.300000X2.000000*%
%ADD13RoundRect,0.135000X0.135000X0.185000X-0.135000X0.185000X-0.135000X-0.185000X0.135000X-0.185000X0*%
%ADD14RoundRect,0.135000X-0.135000X-0.185000X0.135000X-0.185000X0.135000X0.185000X-0.135000X0.185000X0*%
%ADD15RoundRect,0.135000X-0.185000X0.135000X-0.185000X-0.135000X0.185000X-0.135000X0.185000X0.135000X0*%
%ADD16RoundRect,0.135000X0.185000X-0.135000X0.185000X0.135000X-0.185000X0.135000X-0.185000X-0.135000X0*%
%ADD17RoundRect,0.237500X0.237500X-0.250000X0.237500X0.250000X-0.237500X0.250000X-0.237500X-0.250000X0*%
%ADD18RoundRect,0.150000X-0.825000X-0.150000X0.825000X-0.150000X0.825000X0.150000X-0.825000X0.150000X0*%
%ADD19FreePoly0,270.000000*%
%ADD20RoundRect,0.062500X-0.362500X0.062500X-0.362500X-0.062500X0.362500X-0.062500X0.362500X0.062500X0*%
%ADD21FreePoly1,270.000000*%
%ADD22FreePoly2,270.000000*%
%ADD23RoundRect,0.062500X-0.062500X0.362500X-0.062500X-0.362500X0.062500X-0.362500X0.062500X0.362500X0*%
%ADD24FreePoly3,270.000000*%
%ADD25FreePoly4,270.000000*%
%ADD26FreePoly5,270.000000*%
%ADD27FreePoly6,270.000000*%
%ADD28FreePoly7,270.000000*%
%ADD29RoundRect,0.160000X-0.160000X0.160000X-0.160000X-0.160000X0.160000X-0.160000X0.160000X0.160000X0*%
%ADD30RoundRect,0.062500X-0.062500X-0.325000X0.062500X-0.325000X0.062500X0.325000X-0.062500X0.325000X0*%
%ADD31RoundRect,0.062500X-0.325000X-0.062500X0.325000X-0.062500X0.325000X0.062500X-0.325000X0.062500X0*%
%ADD32RoundRect,0.182500X-0.182500X-0.182500X0.182500X-0.182500X0.182500X0.182500X-0.182500X0.182500X0*%
%ADD33R,1.100000X2.250000*%
%ADD34R,1.050000X1.100000*%
%ADD35O,2.900000X1.200000*%
%ADD36RoundRect,0.325000X-1.175000X0.325000X-1.175000X-0.325000X1.175000X-0.325000X1.175000X0.325000X0*%
%ADD37RoundRect,0.175000X0.175000X0.325000X-0.175000X0.325000X-0.175000X-0.325000X0.175000X-0.325000X0*%
%ADD38RoundRect,0.150000X0.200000X0.150000X-0.200000X0.150000X-0.200000X-0.150000X0.200000X-0.150000X0*%
%ADD39RoundRect,0.155000X0.212500X0.155000X-0.212500X0.155000X-0.212500X-0.155000X0.212500X-0.155000X0*%
%ADD40RoundRect,0.155000X-0.212500X-0.155000X0.212500X-0.155000X0.212500X0.155000X-0.212500X0.155000X0*%
G04 APERTURE END LIST*
D10*
%TO.C,U4*%
X141900000Y-70100000D02*
X142800000Y-70100000D01*
X142800000Y-70700000D01*
X141900000Y-70700000D01*
X141900000Y-70800000D01*
X140700000Y-70800000D01*
X140700000Y-70000000D01*
X141900000Y-70000000D01*
X141900000Y-70100000D01*
G36*
X141900000Y-70100000D02*
G01*
X142800000Y-70100000D01*
X142800000Y-70700000D01*
X141900000Y-70700000D01*
X141900000Y-70800000D01*
X140700000Y-70800000D01*
X140700000Y-70000000D01*
X141900000Y-70000000D01*
X141900000Y-70100000D01*
G37*
X141900000Y-72300000D02*
X142800000Y-72300000D01*
X142800000Y-72900000D01*
X141900000Y-72900000D01*
X141900000Y-73000000D01*
X140700000Y-73000000D01*
X140700000Y-72200000D01*
X141900000Y-72200000D01*
X141900000Y-72300000D01*
G36*
X141900000Y-72300000D02*
G01*
X142800000Y-72300000D01*
X142800000Y-72900000D01*
X141900000Y-72900000D01*
X141900000Y-73000000D01*
X140700000Y-73000000D01*
X140700000Y-72200000D01*
X141900000Y-72200000D01*
X141900000Y-72300000D01*
G37*
X141900000Y-71200000D02*
X142800000Y-71200000D01*
X142800000Y-71800000D01*
X141900000Y-71800000D01*
X141900000Y-71900000D01*
X140700000Y-71900000D01*
X140700000Y-71100000D01*
X141900000Y-71100000D01*
X141900000Y-71200000D01*
G36*
X141900000Y-71200000D02*
G01*
X142800000Y-71200000D01*
X142800000Y-71800000D01*
X141900000Y-71800000D01*
X141900000Y-71900000D01*
X140700000Y-71900000D01*
X140700000Y-71100000D01*
X141900000Y-71100000D01*
X141900000Y-71200000D01*
G37*
X141900000Y-67900000D02*
X142800000Y-67900000D01*
X142800000Y-68500000D01*
X141900000Y-68500000D01*
X141900000Y-68600000D01*
X140700000Y-68600000D01*
X140700000Y-67800000D01*
X141900000Y-67800000D01*
X141900000Y-67900000D01*
G36*
X141900000Y-67900000D02*
G01*
X142800000Y-67900000D01*
X142800000Y-68500000D01*
X141900000Y-68500000D01*
X141900000Y-68600000D01*
X140700000Y-68600000D01*
X140700000Y-67800000D01*
X141900000Y-67800000D01*
X141900000Y-67900000D01*
G37*
X141900000Y-69000000D02*
X142800000Y-69000000D01*
X142800000Y-69600000D01*
X141900000Y-69600000D01*
X141900000Y-69700000D01*
X140700000Y-69700000D01*
X140700000Y-68900000D01*
X141900000Y-68900000D01*
X141900000Y-69000000D01*
G36*
X141900000Y-69000000D02*
G01*
X142800000Y-69000000D01*
X142800000Y-69600000D01*
X141900000Y-69600000D01*
X141900000Y-69700000D01*
X140700000Y-69700000D01*
X140700000Y-68900000D01*
X141900000Y-68900000D01*
X141900000Y-69000000D01*
G37*
X141900000Y-65700000D02*
X142800000Y-65700000D01*
X142800000Y-66300000D01*
X141900000Y-66300000D01*
X141900000Y-66400000D01*
X140700000Y-66400000D01*
X140700000Y-65600000D01*
X141900000Y-65600000D01*
X141900000Y-65700000D01*
G36*
X141900000Y-65700000D02*
G01*
X142800000Y-65700000D01*
X142800000Y-66300000D01*
X141900000Y-66300000D01*
X141900000Y-66400000D01*
X140700000Y-66400000D01*
X140700000Y-65600000D01*
X141900000Y-65600000D01*
X141900000Y-65700000D01*
G37*
X141900000Y-66800000D02*
X142800000Y-66800000D01*
X142800000Y-67400000D01*
X141900000Y-67400000D01*
X141900000Y-67500000D01*
X140700000Y-67500000D01*
X140700000Y-66700000D01*
X141900000Y-66700000D01*
X141900000Y-66800000D01*
G36*
X141900000Y-66800000D02*
G01*
X142800000Y-66800000D01*
X142800000Y-67400000D01*
X141900000Y-67400000D01*
X141900000Y-67500000D01*
X140700000Y-67500000D01*
X140700000Y-66700000D01*
X141900000Y-66700000D01*
X141900000Y-66800000D01*
G37*
X155300000Y-77100000D02*
X154100000Y-77100000D01*
X154100000Y-77000000D01*
X153200000Y-77000000D01*
X153200000Y-76400000D01*
X154100000Y-76400000D01*
X154100000Y-76300000D01*
X155300000Y-76300000D01*
X155300000Y-77100000D01*
G36*
X155300000Y-77100000D02*
G01*
X154100000Y-77100000D01*
X154100000Y-77000000D01*
X153200000Y-77000000D01*
X153200000Y-76400000D01*
X154100000Y-76400000D01*
X154100000Y-76300000D01*
X155300000Y-76300000D01*
X155300000Y-77100000D01*
G37*
X155300000Y-76000000D02*
X154100000Y-76000000D01*
X154100000Y-75900000D01*
X153200000Y-75900000D01*
X153200000Y-75300000D01*
X154100000Y-75300000D01*
X154100000Y-75200000D01*
X155300000Y-75200000D01*
X155300000Y-76000000D01*
G36*
X155300000Y-76000000D02*
G01*
X154100000Y-76000000D01*
X154100000Y-75900000D01*
X153200000Y-75900000D01*
X153200000Y-75300000D01*
X154100000Y-75300000D01*
X154100000Y-75200000D01*
X155300000Y-75200000D01*
X155300000Y-76000000D01*
G37*
X155300000Y-79300000D02*
X154100000Y-79300000D01*
X154100000Y-79200000D01*
X153200000Y-79200000D01*
X153200000Y-78600000D01*
X154100000Y-78600000D01*
X154100000Y-78500000D01*
X155300000Y-78500000D01*
X155300000Y-79300000D01*
G36*
X155300000Y-79300000D02*
G01*
X154100000Y-79300000D01*
X154100000Y-79200000D01*
X153200000Y-79200000D01*
X153200000Y-78600000D01*
X154100000Y-78600000D01*
X154100000Y-78500000D01*
X155300000Y-78500000D01*
X155300000Y-79300000D01*
G37*
X155300000Y-78200000D02*
X154100000Y-78200000D01*
X154100000Y-78100000D01*
X153200000Y-78100000D01*
X153200000Y-77500000D01*
X154100000Y-77500000D01*
X154100000Y-77400000D01*
X155300000Y-77400000D01*
X155300000Y-78200000D01*
G36*
X155300000Y-78200000D02*
G01*
X154100000Y-78200000D01*
X154100000Y-78100000D01*
X153200000Y-78100000D01*
X153200000Y-77500000D01*
X154100000Y-77500000D01*
X154100000Y-77400000D01*
X155300000Y-77400000D01*
X155300000Y-78200000D01*
G37*
X155300000Y-80400000D02*
X154100000Y-80400000D01*
X154100000Y-80300000D01*
X153200000Y-80300000D01*
X153200000Y-79700000D01*
X154100000Y-79700000D01*
X154100000Y-79600000D01*
X155300000Y-79600000D01*
X155300000Y-80400000D01*
G36*
X155300000Y-80400000D02*
G01*
X154100000Y-80400000D01*
X154100000Y-80300000D01*
X153200000Y-80300000D01*
X153200000Y-79700000D01*
X154100000Y-79700000D01*
X154100000Y-79600000D01*
X155300000Y-79600000D01*
X155300000Y-80400000D01*
G37*
X141900000Y-75300000D02*
X142800000Y-75300000D01*
X142800000Y-75900000D01*
X141900000Y-75900000D01*
X141900000Y-76000000D01*
X140700000Y-76000000D01*
X140700000Y-75200000D01*
X141900000Y-75200000D01*
X141900000Y-75300000D01*
G36*
X141900000Y-75300000D02*
G01*
X142800000Y-75300000D01*
X142800000Y-75900000D01*
X141900000Y-75900000D01*
X141900000Y-76000000D01*
X140700000Y-76000000D01*
X140700000Y-75200000D01*
X141900000Y-75200000D01*
X141900000Y-75300000D01*
G37*
X141900000Y-76400000D02*
X142800000Y-76400000D01*
X142800000Y-77000000D01*
X141900000Y-77000000D01*
X141900000Y-77100000D01*
X140700000Y-77100000D01*
X140700000Y-76300000D01*
X141900000Y-76300000D01*
X141900000Y-76400000D01*
G36*
X141900000Y-76400000D02*
G01*
X142800000Y-76400000D01*
X142800000Y-77000000D01*
X141900000Y-77000000D01*
X141900000Y-77100000D01*
X140700000Y-77100000D01*
X140700000Y-76300000D01*
X141900000Y-76300000D01*
X141900000Y-76400000D01*
G37*
X141900000Y-77500000D02*
X142800000Y-77500000D01*
X142800000Y-78100000D01*
X141900000Y-78100000D01*
X141900000Y-78200000D01*
X140700000Y-78200000D01*
X140700000Y-77400000D01*
X141900000Y-77400000D01*
X141900000Y-77500000D01*
G36*
X141900000Y-77500000D02*
G01*
X142800000Y-77500000D01*
X142800000Y-78100000D01*
X141900000Y-78100000D01*
X141900000Y-78200000D01*
X140700000Y-78200000D01*
X140700000Y-77400000D01*
X141900000Y-77400000D01*
X141900000Y-77500000D01*
G37*
X141900000Y-78600000D02*
X142800000Y-78600000D01*
X142800000Y-79200000D01*
X141900000Y-79200000D01*
X141900000Y-79300000D01*
X140700000Y-79300000D01*
X140700000Y-78500000D01*
X141900000Y-78500000D01*
X141900000Y-78600000D01*
G36*
X141900000Y-78600000D02*
G01*
X142800000Y-78600000D01*
X142800000Y-79200000D01*
X141900000Y-79200000D01*
X141900000Y-79300000D01*
X140700000Y-79300000D01*
X140700000Y-78500000D01*
X141900000Y-78500000D01*
X141900000Y-78600000D01*
G37*
X141900000Y-79700000D02*
X142800000Y-79700000D01*
X142800000Y-80300000D01*
X141900000Y-80300000D01*
X141900000Y-80400000D01*
X140700000Y-80400000D01*
X140700000Y-79600000D01*
X141900000Y-79600000D01*
X141900000Y-79700000D01*
G36*
X141900000Y-79700000D02*
G01*
X142800000Y-79700000D01*
X142800000Y-80300000D01*
X141900000Y-80300000D01*
X141900000Y-80400000D01*
X140700000Y-80400000D01*
X140700000Y-79600000D01*
X141900000Y-79600000D01*
X141900000Y-79700000D01*
G37*
X155300000Y-73000000D02*
X154100000Y-73000000D01*
X154100000Y-72900000D01*
X153200000Y-72900000D01*
X153200000Y-72300000D01*
X154100000Y-72300000D01*
X154100000Y-72200000D01*
X155300000Y-72200000D01*
X155300000Y-73000000D01*
G36*
X155300000Y-73000000D02*
G01*
X154100000Y-73000000D01*
X154100000Y-72900000D01*
X153200000Y-72900000D01*
X153200000Y-72300000D01*
X154100000Y-72300000D01*
X154100000Y-72200000D01*
X155300000Y-72200000D01*
X155300000Y-73000000D01*
G37*
X155300000Y-71900000D02*
X154100000Y-71900000D01*
X154100000Y-71800000D01*
X153200000Y-71800000D01*
X153200000Y-71200000D01*
X154100000Y-71200000D01*
X154100000Y-71100000D01*
X155300000Y-71100000D01*
X155300000Y-71900000D01*
G36*
X155300000Y-71900000D02*
G01*
X154100000Y-71900000D01*
X154100000Y-71800000D01*
X153200000Y-71800000D01*
X153200000Y-71200000D01*
X154100000Y-71200000D01*
X154100000Y-71100000D01*
X155300000Y-71100000D01*
X155300000Y-71900000D01*
G37*
X155300000Y-70800000D02*
X154100000Y-70800000D01*
X154100000Y-70700000D01*
X153200000Y-70700000D01*
X153200000Y-70100000D01*
X154100000Y-70100000D01*
X154100000Y-70000000D01*
X155300000Y-70000000D01*
X155300000Y-70800000D01*
G36*
X155300000Y-70800000D02*
G01*
X154100000Y-70800000D01*
X154100000Y-70700000D01*
X153200000Y-70700000D01*
X153200000Y-70100000D01*
X154100000Y-70100000D01*
X154100000Y-70000000D01*
X155300000Y-70000000D01*
X155300000Y-70800000D01*
G37*
X155300000Y-69700000D02*
X154100000Y-69700000D01*
X154100000Y-69600000D01*
X153200000Y-69600000D01*
X153200000Y-69000000D01*
X154100000Y-69000000D01*
X154100000Y-68900000D01*
X155300000Y-68900000D01*
X155300000Y-69700000D01*
G36*
X155300000Y-69700000D02*
G01*
X154100000Y-69700000D01*
X154100000Y-69600000D01*
X153200000Y-69600000D01*
X153200000Y-69000000D01*
X154100000Y-69000000D01*
X154100000Y-68900000D01*
X155300000Y-68900000D01*
X155300000Y-69700000D01*
G37*
X155300000Y-68600000D02*
X154100000Y-68600000D01*
X154100000Y-68500000D01*
X153200000Y-68500000D01*
X153200000Y-67900000D01*
X154100000Y-67900000D01*
X154100000Y-67800000D01*
X155300000Y-67800000D01*
X155300000Y-68600000D01*
G36*
X155300000Y-68600000D02*
G01*
X154100000Y-68600000D01*
X154100000Y-68500000D01*
X153200000Y-68500000D01*
X153200000Y-67900000D01*
X154100000Y-67900000D01*
X154100000Y-67800000D01*
X155300000Y-67800000D01*
X155300000Y-68600000D01*
G37*
X155300000Y-67500000D02*
X154100000Y-67500000D01*
X154100000Y-67400000D01*
X153200000Y-67400000D01*
X153200000Y-66800000D01*
X154100000Y-66800000D01*
X154100000Y-66700000D01*
X155300000Y-66700000D01*
X155300000Y-67500000D01*
G36*
X155300000Y-67500000D02*
G01*
X154100000Y-67500000D01*
X154100000Y-67400000D01*
X153200000Y-67400000D01*
X153200000Y-66800000D01*
X154100000Y-66800000D01*
X154100000Y-66700000D01*
X155300000Y-66700000D01*
X155300000Y-67500000D01*
G37*
X155300000Y-66400000D02*
X154100000Y-66400000D01*
X154100000Y-66300000D01*
X153200000Y-66300000D01*
X153200000Y-65700000D01*
X154100000Y-65700000D01*
X154100000Y-65600000D01*
X155300000Y-65600000D01*
X155300000Y-66400000D01*
G36*
X155300000Y-66400000D02*
G01*
X154100000Y-66400000D01*
X154100000Y-66300000D01*
X153200000Y-66300000D01*
X153200000Y-65700000D01*
X154100000Y-65700000D01*
X154100000Y-65600000D01*
X155300000Y-65600000D01*
X155300000Y-66400000D01*
G37*
%TD*%
D11*
%TO.C,RV1*%
X162400000Y-80150000D03*
D12*
X167600000Y-79000000D03*
D11*
X162400000Y-77850000D03*
%TD*%
D13*
%TO.C,R3*%
X178665000Y-81000000D03*
X177645000Y-81000000D03*
%TD*%
%TO.C,R2*%
X178665000Y-79500000D03*
X177645000Y-79500000D03*
%TD*%
%TO.C,R1*%
X178665000Y-78000000D03*
X177645000Y-78000000D03*
%TD*%
D14*
%TO.C,R6*%
X104645000Y-78000000D03*
X105665000Y-78000000D03*
%TD*%
%TO.C,R5*%
X102455000Y-78000000D03*
X103475000Y-78000000D03*
%TD*%
D15*
%TO.C,R7*%
X99500000Y-72990000D03*
X99500000Y-74010000D03*
%TD*%
D13*
%TO.C,R8*%
X122665000Y-73500000D03*
X121645000Y-73500000D03*
%TD*%
D16*
%TO.C,R9*%
X118500000Y-75500000D03*
X118500000Y-74480000D03*
%TD*%
D13*
%TO.C,R10*%
X120165000Y-82500000D03*
X119145000Y-82500000D03*
%TD*%
D14*
%TO.C,R11*%
X121645000Y-82500000D03*
X122665000Y-82500000D03*
%TD*%
D17*
%TO.C,R4*%
X159000000Y-82412500D03*
X159000000Y-80587500D03*
%TD*%
D18*
%TO.C,U5*%
X111525000Y-72460000D03*
X111525000Y-73730000D03*
X111525000Y-75000000D03*
X111525000Y-76270000D03*
X116475000Y-76270000D03*
X116475000Y-75000000D03*
X116475000Y-73730000D03*
X116475000Y-72460000D03*
%TD*%
D19*
%TO.C,U3*%
X105400000Y-73000000D03*
D20*
X105400000Y-73450000D03*
X105400000Y-73900000D03*
X105400000Y-74350000D03*
D21*
X105400000Y-74800000D03*
D22*
X104850000Y-75350000D03*
D23*
X104400000Y-75350000D03*
X103950000Y-75350000D03*
X103500000Y-75350000D03*
D24*
X103050000Y-75350000D03*
D25*
X102500000Y-74800000D03*
D20*
X102500000Y-74350000D03*
X102500000Y-73900000D03*
X102500000Y-73450000D03*
D26*
X102500000Y-73000000D03*
D27*
X103050000Y-72450000D03*
D23*
X103500000Y-72450000D03*
X103950000Y-72450000D03*
X104400000Y-72450000D03*
D28*
X104850000Y-72450000D03*
D29*
X103550000Y-74300000D03*
X104350000Y-74300000D03*
X103550000Y-73500000D03*
X104350000Y-73500000D03*
%TD*%
D30*
%TO.C,U2*%
X181262500Y-79262500D03*
X181762500Y-79262500D03*
X182262500Y-79262500D03*
X182762500Y-79262500D03*
D31*
X183500000Y-80000000D03*
X183500000Y-80500000D03*
X183500000Y-81000000D03*
X183500000Y-81500000D03*
D30*
X182762500Y-82237500D03*
X182262500Y-82237500D03*
X181762500Y-82237500D03*
X181262500Y-82237500D03*
D31*
X180525000Y-81500000D03*
X180525000Y-81000000D03*
X180525000Y-80500000D03*
X180525000Y-80000000D03*
D32*
X182462500Y-81200000D03*
X182462500Y-80300000D03*
X181562500Y-81200000D03*
X181562500Y-80300000D03*
%TD*%
D33*
%TO.C,J3*%
X136025000Y-66500000D03*
X138975000Y-66500000D03*
D34*
X137500000Y-68050000D03*
%TD*%
D35*
%TO.C,J1*%
X92040000Y-67100000D03*
X92040000Y-79900000D03*
D36*
X95740000Y-70000000D03*
X95740000Y-72500000D03*
X95740000Y-74500000D03*
X95740000Y-77000000D03*
%TD*%
D37*
%TO.C,D1*%
X101000000Y-77750000D03*
D38*
X101000000Y-76050000D03*
X99000000Y-76050000D03*
X99000000Y-77950000D03*
%TD*%
D39*
%TO.C,C4*%
X105500000Y-68500000D03*
X106635000Y-68500000D03*
%TD*%
%TO.C,C3*%
X105500000Y-67500000D03*
X106635000Y-67500000D03*
%TD*%
D40*
%TO.C,C2*%
X102500000Y-68500000D03*
X101365000Y-68500000D03*
%TD*%
%TO.C,C1*%
X102500000Y-67500000D03*
X101365000Y-67500000D03*
%TD*%
M02*
