M48
; DRILL file {KiCad 8.0.3} date 2024-06-24T17:14:17-0300
; FORMAT={-:-/ absolute / inch / decimal}
; #@! TF.CreationDate,2024-06-24T17:14:17-03:00
; #@! TF.GenerationSoftware,Kicad,Pcbnew,8.0.3
; #@! TF.FileFunction,Plated,1,2,PTH
FMAT,2
INCH
; #@! TA.AperFunction,Plated,PTH,ViaDrill
T1C0.0118
; #@! TA.AperFunction,Plated,PTH,ComponentDrill
T2C0.0236
; #@! TA.AperFunction,Plated,PTH,ComponentDrill
T3C0.0295
; #@! TA.AperFunction,Plated,PTH,ComponentDrill
T4C0.0394
; #@! TA.AperFunction,Plated,PTH,ComponentDrill
T5C0.0551
; #@! TA.AperFunction,Plated,PTH,ComponentDrill
T6C0.1378
%
G90
G05
T1
X3.8602Y-2.9331
X3.8976Y-2.815
X3.937Y-2.7559
X3.937Y-3.0315
X3.9567Y-2.8937
X3.9764Y-2.8681
X3.9779Y-2.917
X4.0157Y-3.1102
X4.0592Y-3.0356
X4.1535Y-2.7559
X4.2126Y-2.9528
X4.311Y-2.9028
X5.2165Y-2.6181
X5.748Y-2.9134
X5.8268Y-2.6575
X5.9646Y-3.1299
X6.2992Y-2.6772
X6.3091Y-3.1201
X6.5945Y-2.9724
X6.8701Y-2.8937
X7.6969Y-2.6969
T3
X4.7622Y-2.7953
X4.8122Y-2.7953
X4.8622Y-2.7953
T4
X3.3858Y-3.9623
X3.3858Y-4.1198
X3.3858Y-4.3954
X3.3858Y-4.5529
X5.1969Y-2.7953
X5.1969Y-3.0945
X6.1583Y-3.4111
X6.2583Y-3.4111
X6.3583Y-3.4111
X6.4583Y-3.4111
X6.5583Y-3.4111
X6.6583Y-3.4111
X6.7583Y-3.4111
X6.8583Y-3.4111
X6.9583Y-3.4111
X7.0583Y-3.4111
X7.1583Y-3.4111
X7.2583Y-3.4111
X7.3583Y-3.4111
X7.4583Y-3.4111
X7.5583Y-3.4111
X7.6583Y-3.4111
T5
X7.9127Y-2.5425
X7.9127Y-2.6984
X7.9127Y-2.8543
X7.9127Y-3.0102
X7.9127Y-3.1661
T6
X3.4252Y-3.4505
X3.4252Y-4.9072
X7.9528Y-3.4505
X7.9528Y-4.9072
T2
G00X3.6571Y-2.6417
M15
G01X3.5902Y-2.6417
M16
G05
G00X3.6571Y-3.1457
M15
G01X3.5902Y-3.1457
M16
G05
M30
