M48
;Layer_Color=9474304
;FILE_FORMAT=4:4
METRIC,LZ
;TYPE=PLATED
T01F00S00C0.4000
T02F00S00C0.5000
T03F00S00C0.7112
T04F00S00C0.8128
T05F00S00C0.9000
T06F00S00C2.5000
T07F00S00C3.0000
%
T01
X0046609Y00294363
X0062738Y0029464
X0079375
X0091275Y0038481
X010033Y0030861
X0101473Y003175
X00879769Y00460961
X00856689Y004572
X0091929Y00562763
X0092564Y00573784
X0093007Y0058801
T02
X0041795Y0037465
X0043295
X0046875Y0037592
X0048375
X0080772Y0047752
X0082169
X0083566
X0084836Y0049149
Y0050673
Y0051943
X0083439Y0053467
X0082042
X0080772
X0079121Y0051943
Y0050546
Y0049149
X0048121Y0060706
X0046621
X0042775
X0041275
T03
X0086868Y0044069
X00909515Y00617567
X0052324Y0057785
T04
X009906Y0033341
Y0035941
Y0038541
X0099314Y0042104
Y0044704
Y0047304
Y0049978
Y0052578
Y0055178
Y0057725
Y0060325
Y0062925
T05
X0036449Y0027051
X0038989
X0041529
X0044069
X0046609
X0052451
X0054991
X0057531
X0060071
X0062611
X0069088
X0071628
X0074168
X0076708
X0079248
X008509
X008763
X009017
X009271
X009525
X0110998Y0036068
Y0038608
Y0041148
Y0043688
Y0046228
Y0048768
Y0051318
Y0053858
Y0056398
Y0058948
T06
X0027813Y0040934
Y0045934
X0028067Y0057317
Y0062317
T07
X0029083Y0028829
X0112649
M30
