%TF.GenerationSoftware,Altium Limited,Altium Designer,24.6.1 (21)*%
G04 Layer_Physical_Order=2*
G04 Layer_Color=16711680*
%FSLAX45Y45*%
%MOMM*%
%TF.SameCoordinates,C77CD831-7174-4571-8234-5D84135F7459*%
%TF.FilePolarity,Positive*%
%TF.FileFunction,Copper,L2,Bot,Signal*%
%TF.Part,Single*%
G01*
G75*
%TA.AperFunction,SMDPad,CuDef*%
%ADD11R,1.25000X1.25000*%
%ADD12R,3.75000X12.00000*%
%ADD13R,1.07000X2.16000*%
%ADD14R,8.33000X6.99000*%
%TA.AperFunction,Conductor*%
%ADD21C,0.25400*%
%ADD22C,1.00000*%
%TA.AperFunction,ViaPad*%
%ADD23C,0.80000*%
%ADD24C,4.00000*%
%TA.AperFunction,ComponentPad*%
%ADD25R,1.32080X1.32080*%
%ADD26C,1.32080*%
%ADD27C,1.00000*%
%ADD28R,1.00000X1.00000*%
%ADD29R,4.00000X4.00000*%
%ADD30C,4.00000*%
%ADD31C,1.50000*%
%ADD32R,1.50000X1.50000*%
%ADD33R,1.50000X1.50000*%
%TA.AperFunction,ViaPad*%
%ADD34C,1.27000*%
G36*
X11493328Y6789614D02*
X11524948Y6777788D01*
X11553656Y6760024D01*
X11578350Y6737005D01*
X11598084Y6709613D01*
X11612099Y6678901D01*
X11619859Y6646045D01*
X11620462Y6629176D01*
Y2718044D01*
X11619888Y2701933D01*
X11612756Y2670488D01*
X11599890Y2640923D01*
X11581740Y2614274D01*
X11558942Y2591473D01*
X11532294Y2573320D01*
X11502731Y2560450D01*
X11471287Y2553314D01*
X11455176Y2552738D01*
X2718044D01*
X2701933Y2553312D01*
X2670488Y2560444D01*
X2640923Y2573310D01*
X2614274Y2591460D01*
X2591473Y2614258D01*
X2573320Y2640905D01*
X2560450Y2670469D01*
X2553314Y2701912D01*
X2552738Y2718024D01*
Y3856608D01*
X2555900Y3867998D01*
X2565438Y3867998D01*
X2768600D01*
Y4093398D01*
Y4318798D01*
X2565438D01*
X2555900Y4318798D01*
X2552738Y4330188D01*
Y4524232D01*
X2564562Y4527655D01*
X2581553Y4486635D01*
X2606220Y4449718D01*
X2637616Y4418322D01*
X2674533Y4393655D01*
X2715553Y4376664D01*
X2759100Y4368002D01*
X2803500D01*
X2847047Y4376664D01*
X2888067Y4393655D01*
X2924984Y4418322D01*
X2956380Y4449718D01*
X2981047Y4486635D01*
X2998038Y4527655D01*
X3006700Y4571202D01*
Y4615602D01*
X2998038Y4659149D01*
X2981047Y4700169D01*
X2956380Y4737086D01*
X2924984Y4768482D01*
X2888067Y4793149D01*
X2857351Y4805872D01*
Y5091521D01*
X2871379Y5105549D01*
X3230723D01*
X3250406Y5108141D01*
X3268748Y5115738D01*
X3284498Y5127824D01*
X3343076Y5186402D01*
X3355162Y5202152D01*
X3362759Y5220494D01*
X3365351Y5240177D01*
Y6173119D01*
X3363873Y6184345D01*
X3362760Y6192800D01*
X3362760Y6192801D01*
X3362759Y6192803D01*
X3359008Y6201860D01*
X3355163Y6211142D01*
X3355162Y6211144D01*
X3355162Y6211145D01*
X3350238Y6217562D01*
X3343078Y6226893D01*
X3284501Y6285476D01*
X3284499Y6285477D01*
X3284498Y6285478D01*
X3277227Y6291057D01*
X3268751Y6297562D01*
X3268749Y6297563D01*
X3268748Y6297564D01*
X3257784Y6302105D01*
X3250409Y6305160D01*
X3250408D01*
X3250406Y6305161D01*
X3238879Y6306679D01*
X3230726Y6307753D01*
X3230724Y6307752D01*
X3230723Y6307753D01*
X3019170D01*
X3006447Y6338469D01*
X2981780Y6375386D01*
X2950384Y6406782D01*
X2913467Y6431449D01*
X2872447Y6448440D01*
X2828900Y6457102D01*
X2784500D01*
X2740953Y6448440D01*
X2699933Y6431449D01*
X2663016Y6406782D01*
X2631620Y6375386D01*
X2606953Y6338469D01*
X2589962Y6297449D01*
X2581300Y6253902D01*
Y6209502D01*
X2589962Y6165955D01*
X2606953Y6124935D01*
X2631620Y6088018D01*
X2663016Y6056622D01*
X2699933Y6031955D01*
X2740953Y6014964D01*
X2784500Y6006302D01*
X2828900D01*
X2872447Y6014964D01*
X2913467Y6031955D01*
X2950384Y6056622D01*
X2981780Y6088018D01*
X3006447Y6124935D01*
X3019170Y6155651D01*
X3199219D01*
X3213249Y6141620D01*
Y5271679D01*
X3199221Y5257651D01*
X2839877D01*
X2820194Y5255059D01*
X2801852Y5247462D01*
X2786102Y5235376D01*
X2727524Y5176798D01*
X2715438Y5161048D01*
X2707841Y5142706D01*
X2705249Y5123023D01*
Y4805872D01*
X2674533Y4793149D01*
X2637616Y4768482D01*
X2606220Y4737086D01*
X2581553Y4700169D01*
X2564562Y4659149D01*
X2552738Y4662572D01*
Y6629177D01*
X2553314Y6645287D01*
X2560449Y6676728D01*
X2573317Y6706289D01*
X2591467Y6732935D01*
X2614265Y6755732D01*
X2640911Y6773883D01*
X2670472Y6786751D01*
X2701913Y6793886D01*
X2718023Y6794462D01*
X11442700D01*
X11443139Y6794469D01*
X11460009Y6795050D01*
X11493328Y6789614D01*
D02*
G37*
%LPC*%
G36*
X4887501Y6146000D02*
X4824801D01*
Y6083300D01*
X4887501D01*
Y6146000D01*
D02*
G37*
G36*
X4352902D02*
X4290202D01*
Y6083300D01*
X4352902D01*
Y6146000D01*
D02*
G37*
G36*
X4887501Y6057900D02*
X4824801D01*
Y5995200D01*
X4887501D01*
Y6057900D01*
D02*
G37*
G36*
X4352902D02*
X4290202D01*
Y5995200D01*
X4352902D01*
Y6057900D01*
D02*
G37*
G36*
X9943438Y6123940D02*
X9919362D01*
X9896105Y6117708D01*
X9875255Y6105670D01*
X9858230Y6088645D01*
X9846192Y6067795D01*
X9839960Y6044538D01*
Y6020462D01*
X9846192Y5997205D01*
X9858230Y5976355D01*
X9875255Y5959330D01*
X9896105Y5947292D01*
X9919362Y5941060D01*
X9943438D01*
X9966695Y5947292D01*
X9987545Y5959330D01*
X10004570Y5976355D01*
X10016608Y5997205D01*
X10022840Y6020462D01*
Y6044538D01*
X10016608Y6067795D01*
X10004570Y6088645D01*
X9987545Y6105670D01*
X9966695Y6117708D01*
X9943438Y6123940D01*
D02*
G37*
G36*
X10022840Y5863941D02*
X9944100D01*
Y5785201D01*
X10022840D01*
Y5863941D01*
D02*
G37*
G36*
X9918700D02*
X9839960D01*
Y5785201D01*
X9918700D01*
Y5863941D01*
D02*
G37*
G36*
X3032100Y5957098D02*
X2819400D01*
Y5744398D01*
X3032100D01*
Y5957098D01*
D02*
G37*
G36*
X2794000D02*
X2581300D01*
Y5744398D01*
X2794000D01*
Y5957098D01*
D02*
G37*
G36*
X4432300Y6451451D02*
X3822700D01*
X3803017Y6448859D01*
X3784675Y6441262D01*
X3768924Y6429176D01*
X3413324Y6073576D01*
X3401238Y6057825D01*
X3393641Y6039483D01*
X3391049Y6019800D01*
Y4000500D01*
X3393641Y3980817D01*
X3401238Y3962475D01*
X3413324Y3946724D01*
X3667324Y3692724D01*
X3683075Y3680638D01*
X3701417Y3673041D01*
X3721100Y3670449D01*
X4179499D01*
X4184442Y3671100D01*
X4189425D01*
X4194239Y3672390D01*
X4199182Y3673041D01*
X4203788Y3674948D01*
X4208602Y3676238D01*
X4212920Y3678731D01*
X4217524Y3680638D01*
X4221478Y3683672D01*
X4225795Y3686165D01*
X4229321Y3689690D01*
X4233275Y3692724D01*
X4236309Y3696678D01*
X4239834Y3700203D01*
X4252184Y3696194D01*
X4254101Y3694745D01*
Y3671100D01*
X4316801D01*
Y3746500D01*
Y3821900D01*
X4254101D01*
Y3798255D01*
X4252184Y3796806D01*
X4239834Y3792797D01*
X4236309Y3796322D01*
X4233275Y3800276D01*
X4229321Y3803310D01*
X4225795Y3806835D01*
X4221478Y3809328D01*
X4217524Y3812362D01*
X4212920Y3814269D01*
X4208602Y3816762D01*
X4203788Y3818052D01*
X4199182Y3819959D01*
X4194239Y3820610D01*
X4189425Y3821900D01*
X4184442D01*
X4179499Y3822551D01*
X3752601D01*
X3543151Y4032001D01*
Y5988299D01*
X3854201Y6299349D01*
X4400799D01*
X4586048Y6114100D01*
Y6096751D01*
X4583464Y6090506D01*
X4579643Y6081282D01*
X4579641Y6081270D01*
X4579638Y6081261D01*
X4578404Y6071872D01*
X4577052Y6061598D01*
Y5867400D01*
Y5791200D01*
Y5728191D01*
X4574202Y5716671D01*
X4562503D01*
Y5716671D01*
X4496303D01*
Y5583271D01*
X4470903D01*
Y5716671D01*
X4404703D01*
Y5599470D01*
X4392003Y5593964D01*
Y5716671D01*
X4234203D01*
Y5716671D01*
X4222000D01*
Y5716671D01*
X4204630D01*
X4203551Y5718077D01*
Y5995200D01*
X4264802D01*
Y6070600D01*
Y6146000D01*
X4202102D01*
Y6122355D01*
X4200185Y6120906D01*
X4187835Y6116897D01*
X4184310Y6120422D01*
X4181276Y6124376D01*
X4177322Y6127410D01*
X4173797Y6130935D01*
X4169479Y6133428D01*
X4165525Y6136462D01*
X4160921Y6138369D01*
X4156603Y6140862D01*
X4151789Y6142152D01*
X4147183Y6144059D01*
X4142240Y6144710D01*
X4137427Y6146000D01*
X4132443D01*
X4127500Y6146651D01*
X4122557Y6146000D01*
X4117573D01*
X4112760Y6144710D01*
X4107817Y6144059D01*
X4103211Y6142152D01*
X4098397Y6140862D01*
X4094079Y6138369D01*
X4089475Y6136462D01*
X4085521Y6133428D01*
X4081203Y6130935D01*
X4077678Y6127410D01*
X4073724Y6124376D01*
X4070690Y6120422D01*
X4067165Y6116897D01*
X4064672Y6112579D01*
X4061638Y6108625D01*
X4059731Y6104021D01*
X4057238Y6099703D01*
X4055948Y6094889D01*
X4054041Y6090283D01*
X4053390Y6085340D01*
X4052100Y6080527D01*
Y6075543D01*
X4051449Y6070600D01*
Y5689661D01*
X4054041Y5669977D01*
X4061638Y5651636D01*
X4063550Y5649144D01*
Y5641269D01*
X4064201Y5636326D01*
Y5465753D01*
X3758200D01*
Y5477602D01*
X3582400D01*
Y5301802D01*
X3758200D01*
Y5313652D01*
X4367007D01*
X4386690Y5316243D01*
X4400167Y5321825D01*
X5370102D01*
Y4320540D01*
X5371357Y4314233D01*
Y4310255D01*
X5371854Y4307753D01*
Y4305203D01*
X5375378Y4287490D01*
X5376354Y4285132D01*
X5376852Y4282631D01*
X5383763Y4265945D01*
X5385180Y4263825D01*
X5386156Y4261468D01*
X5396190Y4246452D01*
X5397994Y4244648D01*
X5399411Y4242527D01*
X5412181Y4229756D01*
X5414303Y4228339D01*
X5416106Y4226535D01*
X5431123Y4216501D01*
X5433480Y4215525D01*
X5435600Y4214109D01*
X5452285Y4207197D01*
X5454787Y4206699D01*
X5457144Y4205723D01*
X5474857Y4202200D01*
X5477408D01*
X5479910Y4201702D01*
X5485719D01*
X5489740Y4200902D01*
X5871000D01*
X5880911Y4202874D01*
X5889312Y4208488D01*
X5894926Y4216889D01*
X5896898Y4226800D01*
Y5526800D01*
X5894926Y5536711D01*
X5889312Y5545112D01*
X5880911Y5550726D01*
X5871000Y5552698D01*
X5490127D01*
X5487685Y5553183D01*
X5478655D01*
X5476153Y5552686D01*
X5473602D01*
X5455889Y5549162D01*
X5453532Y5548186D01*
X5451031Y5547688D01*
X5434345Y5540777D01*
X5432225Y5539360D01*
X5429868Y5538384D01*
X5414852Y5528350D01*
X5413048Y5526546D01*
X5410927Y5525129D01*
X5398156Y5512359D01*
X5396739Y5510237D01*
X5394935Y5508434D01*
X5384901Y5493417D01*
X5383925Y5491060D01*
X5382509Y5488940D01*
X5376290Y5473927D01*
X4901999D01*
Y5570571D01*
X4823099D01*
Y5595971D01*
X4901999D01*
Y5715149D01*
X4939799D01*
X4943072Y5712638D01*
X4961413Y5705041D01*
X4981097Y5702449D01*
X5186324D01*
X5198086Y5695658D01*
X5220696Y5689600D01*
X5244104D01*
X5266714Y5695658D01*
X5278476Y5702449D01*
X6213198D01*
X6342377Y5573270D01*
X6342373Y5562705D01*
X6332318Y5552674D01*
X6321054Y5552698D01*
X6321027Y5552692D01*
X6321000Y5552698D01*
X6316064Y5551716D01*
X6311140Y5550747D01*
X6311117Y5550732D01*
X6311089Y5550726D01*
X6306911Y5547934D01*
X6302726Y5545151D01*
X6302711Y5545128D01*
X6302688Y5545112D01*
X6299897Y5540936D01*
X6297095Y5536761D01*
X6297089Y5536734D01*
X6297074Y5536711D01*
X6296093Y5531781D01*
X6295102Y5526854D01*
X6295108Y5526827D01*
X6295102Y5526800D01*
Y4226800D01*
X6297074Y4216889D01*
X6302688Y4208488D01*
X6311089Y4202874D01*
X6321000Y4200902D01*
X6701873D01*
X6704315Y4200417D01*
X6713345D01*
X6715846Y4200914D01*
X6718397D01*
X6736110Y4204438D01*
X6738468Y4205414D01*
X6740969Y4205912D01*
X6757655Y4212823D01*
X6759775Y4214240D01*
X6762131Y4215216D01*
X6777148Y4225250D01*
X6778952Y4227054D01*
X6781073Y4228471D01*
X6793844Y4241241D01*
X6795261Y4243363D01*
X6797064Y4245166D01*
X6807098Y4260183D01*
X6808075Y4262540D01*
X6809491Y4264660D01*
X6816403Y4281345D01*
X6816900Y4283847D01*
X6817877Y4286204D01*
X6821400Y4303917D01*
Y4306468D01*
X6821898Y4308970D01*
Y4318000D01*
Y5433060D01*
X6820643Y5439367D01*
Y5443345D01*
X6820146Y5445846D01*
Y5448397D01*
X6816622Y5466111D01*
X6815646Y5468468D01*
X6815148Y5470969D01*
X6808237Y5487655D01*
X6806820Y5489775D01*
X6805844Y5492131D01*
X6795810Y5507148D01*
X6794006Y5508952D01*
X6792589Y5511073D01*
X6779819Y5523844D01*
X6777697Y5525261D01*
X6775894Y5527064D01*
X6760877Y5537098D01*
X6758520Y5538075D01*
X6756400Y5539491D01*
X6739714Y5546403D01*
X6737213Y5546900D01*
X6734856Y5547877D01*
X6717143Y5551400D01*
X6714592D01*
X6712090Y5551898D01*
X6703114D01*
X6497049Y5552329D01*
Y5602200D01*
X6494458Y5621884D01*
X6490007Y5632628D01*
X6486861Y5640225D01*
X6474774Y5655976D01*
X6298475Y5832276D01*
X6282724Y5844362D01*
X6264382Y5851959D01*
X6244699Y5854551D01*
X5278476D01*
X5266714Y5861342D01*
X5244104Y5867400D01*
X5220696D01*
X5198086Y5861342D01*
X5186324Y5854551D01*
X5009695D01*
X5006422Y5857062D01*
X4988080Y5864659D01*
X4968397Y5867251D01*
X4760803D01*
X4729153Y5898901D01*
Y5985627D01*
X4736701Y5995200D01*
X4799401D01*
Y6070600D01*
Y6146000D01*
X4738097D01*
X4735558Y6165285D01*
X4731108Y6176029D01*
X4727961Y6183626D01*
X4715875Y6199377D01*
X4486076Y6429176D01*
X4470325Y6441262D01*
X4451983Y6448859D01*
X4432300Y6451451D01*
D02*
G37*
G36*
X10022840Y5759801D02*
X9944100D01*
Y5681061D01*
X10022840D01*
Y5759801D01*
D02*
G37*
G36*
X9918700D02*
X9839960D01*
Y5681061D01*
X9918700D01*
Y5759801D01*
D02*
G37*
G36*
X11113018Y5740201D02*
X11086582D01*
X11061047Y5733359D01*
X11038153Y5720141D01*
X11033864Y5715851D01*
X10796001D01*
X10776317Y5713260D01*
X10765573Y5708810D01*
X10757975Y5705663D01*
X10742225Y5693577D01*
X10642498Y5593850D01*
X9982556D01*
X9966695Y5603008D01*
X9943438Y5609239D01*
X9919362D01*
X9896105Y5603008D01*
X9875255Y5590970D01*
X9858230Y5573945D01*
X9846192Y5553094D01*
X9839960Y5529838D01*
Y5505761D01*
X9846192Y5482505D01*
X9858230Y5461654D01*
X9875255Y5444629D01*
X9896105Y5432591D01*
X9919362Y5426359D01*
X9943438D01*
X9966695Y5432591D01*
X9982556Y5441749D01*
X10673999D01*
X10693683Y5444340D01*
X10712025Y5451938D01*
X10727775Y5464024D01*
X10827502Y5563750D01*
X11033864D01*
X11038153Y5559461D01*
X11061047Y5546243D01*
X11086582Y5539401D01*
X11113018D01*
X11138553Y5546243D01*
X11161447Y5559461D01*
X11180140Y5578154D01*
X11193358Y5601048D01*
X11200200Y5626583D01*
Y5653019D01*
X11193358Y5678554D01*
X11180140Y5701448D01*
X11161447Y5720141D01*
X11138553Y5733359D01*
X11113018Y5740201D01*
D02*
G37*
G36*
X3032100Y5718998D02*
X2819400D01*
Y5506298D01*
X3032100D01*
Y5718998D01*
D02*
G37*
G36*
X2794000D02*
X2581300D01*
Y5506298D01*
X2794000D01*
Y5718998D01*
D02*
G37*
G36*
X9943438Y6383939D02*
X9919362D01*
X9896105Y6377708D01*
X9875255Y6365670D01*
X9858230Y6348645D01*
X9846192Y6327794D01*
X9839960Y6304538D01*
Y6280461D01*
X9846192Y6257205D01*
X9858230Y6236354D01*
X9875255Y6219329D01*
X9896105Y6207291D01*
X9919362Y6201059D01*
X9943438D01*
X9966695Y6207291D01*
X9982556Y6216449D01*
X11009721D01*
X11023749Y6202421D01*
Y5960738D01*
X11019460Y5956449D01*
X11006242Y5933555D01*
X10999400Y5908019D01*
Y5881584D01*
X11006242Y5856048D01*
X11019460Y5833154D01*
X11038153Y5814462D01*
X11061047Y5801244D01*
X11086582Y5794402D01*
X11113018D01*
X11138553Y5801244D01*
X11161447Y5814462D01*
X11180140Y5833154D01*
X11193358Y5856048D01*
X11200200Y5881584D01*
Y5908019D01*
X11193358Y5933555D01*
X11180140Y5956449D01*
X11175851Y5960738D01*
Y6202421D01*
X11189879Y6216449D01*
X11314521D01*
X11328549Y6202421D01*
Y5517901D01*
X11271499Y5460851D01*
X11166737D01*
X11161447Y5466141D01*
X11138553Y5479359D01*
X11113018Y5486201D01*
X11086582D01*
X11061047Y5479359D01*
X11038153Y5466141D01*
X11019460Y5447448D01*
X11006242Y5424554D01*
X10999400Y5399019D01*
Y5372583D01*
X11006242Y5347048D01*
X11019460Y5324154D01*
X11038153Y5305461D01*
X11061047Y5292243D01*
X11086582Y5285401D01*
X11113018D01*
X11138553Y5292243D01*
X11161447Y5305461D01*
X11164736Y5308749D01*
X11271499D01*
X11327615Y5252634D01*
Y4983566D01*
X11296899Y4952851D01*
X11165736D01*
X11161447Y4957140D01*
X11138553Y4970358D01*
X11113018Y4977200D01*
X11086582D01*
X11061047Y4970358D01*
X11038153Y4957140D01*
X11019460Y4938447D01*
X11006242Y4915553D01*
X10999400Y4890018D01*
Y4863582D01*
X11006242Y4838047D01*
X11019460Y4815153D01*
X11038153Y4796460D01*
X11061047Y4783242D01*
X11086582Y4776400D01*
X11113018D01*
X11138553Y4783242D01*
X11161447Y4796460D01*
X11165736Y4800749D01*
X11296899D01*
X11327615Y4770034D01*
Y4500967D01*
X11271499Y4444851D01*
X11165736D01*
X11161447Y4449140D01*
X11138553Y4462358D01*
X11113018Y4469200D01*
X11086582D01*
X11061047Y4462358D01*
X11038153Y4449140D01*
X11019460Y4430447D01*
X11006242Y4407553D01*
X10999400Y4382018D01*
Y4355582D01*
X11006242Y4330047D01*
X11019460Y4307153D01*
X11038153Y4288460D01*
X11061047Y4275242D01*
X11086582Y4268400D01*
X11113018D01*
X11138553Y4275242D01*
X11161447Y4288460D01*
X11165736Y4292749D01*
X11271499D01*
X11328549Y4235699D01*
Y4070101D01*
X11195299Y3936851D01*
X11165736D01*
X11161447Y3941140D01*
X11138553Y3954358D01*
X11113018Y3961200D01*
X11086582D01*
X11061047Y3954358D01*
X11038153Y3941140D01*
X11019460Y3922447D01*
X11006242Y3899553D01*
X10999400Y3874018D01*
Y3847582D01*
X11006242Y3822047D01*
X11019460Y3799153D01*
X11038153Y3780460D01*
X11061047Y3767242D01*
X11086582Y3760400D01*
X11113018D01*
X11138553Y3767242D01*
X11161447Y3780460D01*
X11165736Y3784749D01*
X11226800D01*
X11246483Y3787341D01*
X11264825Y3794938D01*
X11280576Y3807024D01*
X11458376Y3984824D01*
X11470462Y4000575D01*
X11478059Y4018917D01*
X11480651Y4038600D01*
Y4267200D01*
Y4368800D01*
Y4470400D01*
X11479716Y4477500D01*
Y4801535D01*
Y4876800D01*
Y4952065D01*
Y5295900D01*
Y5384800D01*
Y5479300D01*
X11480651Y5486400D01*
Y6233922D01*
X11478059Y6253605D01*
X11470462Y6271947D01*
X11458376Y6287698D01*
X11399798Y6346275D01*
X11384048Y6358361D01*
X11365706Y6365959D01*
X11346023Y6368550D01*
X9982556D01*
X9966695Y6377708D01*
X9943438Y6383939D01*
D02*
G37*
G36*
X8191500Y5411004D02*
X8178956Y5407643D01*
X8164043Y5399033D01*
X8151867Y5386857D01*
X8148032Y5380215D01*
X8133368D01*
X8129533Y5386857D01*
X8117357Y5399033D01*
X8102444Y5407643D01*
X8089900Y5411004D01*
Y5346700D01*
Y5282396D01*
X8102444Y5285757D01*
X8117357Y5294367D01*
X8129533Y5306543D01*
X8133368Y5313185D01*
X8148032D01*
X8151867Y5306543D01*
X8164043Y5294367D01*
X8178956Y5285757D01*
X8191500Y5282396D01*
Y5346700D01*
Y5411004D01*
D02*
G37*
G36*
X8331200D02*
X8318656Y5407643D01*
X8303743Y5399033D01*
X8291567Y5386857D01*
X8282957Y5371944D01*
X8280624Y5363237D01*
X8267476D01*
X8265143Y5371944D01*
X8256533Y5386857D01*
X8244357Y5399033D01*
X8229444Y5407643D01*
X8216900Y5411004D01*
Y5346700D01*
Y5282396D01*
X8229444Y5285757D01*
X8244357Y5294367D01*
X8256533Y5306543D01*
X8265143Y5321456D01*
X8267476Y5330163D01*
X8280624D01*
X8282957Y5321456D01*
X8291567Y5306543D01*
X8303743Y5294367D01*
X8318656Y5285757D01*
X8331200Y5282396D01*
Y5346700D01*
Y5411004D01*
D02*
G37*
G36*
X8356600D02*
Y5359400D01*
X8408204D01*
X8404843Y5371944D01*
X8396233Y5386857D01*
X8384057Y5399033D01*
X8369144Y5407643D01*
X8356600Y5411004D01*
D02*
G37*
G36*
X8064500D02*
X8051956Y5407643D01*
X8037043Y5399033D01*
X8024867Y5386857D01*
X8016257Y5371944D01*
X8012896Y5359400D01*
X8064500D01*
Y5411004D01*
D02*
G37*
G36*
X8408204Y5334000D02*
X8356600D01*
Y5282396D01*
X8369144Y5285757D01*
X8384057Y5294367D01*
X8396233Y5306543D01*
X8404843Y5321456D01*
X8408204Y5334000D01*
D02*
G37*
G36*
X8064500D02*
X8012896D01*
X8016257Y5321456D01*
X8024867Y5306543D01*
X8037043Y5294367D01*
X8051956Y5285757D01*
X8064500Y5282396D01*
Y5334000D01*
D02*
G37*
G36*
X8496300Y5258604D02*
Y5207000D01*
X8547904D01*
X8544543Y5219544D01*
X8535933Y5234457D01*
X8523757Y5246633D01*
X8508844Y5255243D01*
X8496300Y5258604D01*
D02*
G37*
G36*
X8470900D02*
X8458356Y5255243D01*
X8443443Y5246633D01*
X8431267Y5234457D01*
X8422657Y5219544D01*
X8419296Y5207000D01*
X8470900D01*
Y5258604D01*
D02*
G37*
G36*
X7924800D02*
Y5207000D01*
X7976404D01*
X7973043Y5219544D01*
X7964433Y5234457D01*
X7952257Y5246633D01*
X7937344Y5255243D01*
X7924800Y5258604D01*
D02*
G37*
G36*
X7899400D02*
X7886856Y5255243D01*
X7871943Y5246633D01*
X7859767Y5234457D01*
X7851157Y5219544D01*
X7847796Y5207000D01*
X7899400D01*
Y5258604D01*
D02*
G37*
G36*
X9943438Y5349240D02*
X9919362D01*
X9896105Y5343008D01*
X9875255Y5330970D01*
X9858230Y5313945D01*
X9846192Y5293095D01*
X9839960Y5269838D01*
Y5245762D01*
X9846192Y5222505D01*
X9858230Y5201655D01*
X9875255Y5184630D01*
X9896105Y5172592D01*
X9919362Y5166360D01*
X9943438D01*
X9966695Y5172592D01*
X9987545Y5184630D01*
X10004570Y5201655D01*
X10016608Y5222505D01*
X10022840Y5245762D01*
Y5269838D01*
X10016608Y5293095D01*
X10004570Y5313945D01*
X9987545Y5330970D01*
X9966695Y5343008D01*
X9943438Y5349240D01*
D02*
G37*
G36*
X8547904Y5181600D02*
X8419296D01*
X8422657Y5169056D01*
X8431267Y5154143D01*
X8443443Y5141967D01*
X8450085Y5138132D01*
Y5123468D01*
X8443443Y5119633D01*
X8431267Y5107457D01*
X8422657Y5092544D01*
X8419296Y5080000D01*
X8547904D01*
X8544543Y5092544D01*
X8535933Y5107457D01*
X8523757Y5119633D01*
X8517115Y5123468D01*
Y5138132D01*
X8523757Y5141967D01*
X8535933Y5154143D01*
X8544543Y5169056D01*
X8547904Y5181600D01*
D02*
G37*
G36*
X7976404D02*
X7847796D01*
X7851157Y5169056D01*
X7859767Y5154143D01*
X7871943Y5141967D01*
X7886856Y5133357D01*
X7895563Y5131024D01*
Y5117876D01*
X7886856Y5115543D01*
X7871943Y5106933D01*
X7859767Y5094757D01*
X7851157Y5079844D01*
X7847796Y5067300D01*
X7976404D01*
X7973043Y5079844D01*
X7964433Y5094757D01*
X7952257Y5106933D01*
X7937344Y5115543D01*
X7928637Y5117876D01*
Y5131024D01*
X7937344Y5133357D01*
X7952257Y5141967D01*
X7964433Y5154143D01*
X7973043Y5169056D01*
X7976404Y5181600D01*
D02*
G37*
G36*
X3758200Y5137598D02*
X3683000D01*
Y5062398D01*
X3758200D01*
Y5137598D01*
D02*
G37*
G36*
X3657600D02*
X3582400D01*
Y5062398D01*
X3657600D01*
Y5137598D01*
D02*
G37*
G36*
X11113018Y5232201D02*
X11086582D01*
X11061047Y5225359D01*
X11038153Y5212141D01*
X11024298Y5198286D01*
X10888035D01*
X10868352Y5195694D01*
X10850010Y5188097D01*
X10834259Y5176011D01*
X10464698Y4806450D01*
X9982556D01*
X9966695Y4815608D01*
X9943438Y4821839D01*
X9919362D01*
X9896105Y4815608D01*
X9875255Y4803570D01*
X9858230Y4786545D01*
X9846192Y4765694D01*
X9839960Y4742438D01*
Y4718361D01*
X9846192Y4695105D01*
X9858230Y4674254D01*
X9875255Y4657229D01*
X9896105Y4645191D01*
X9919362Y4638959D01*
X9943438D01*
X9966695Y4645191D01*
X9982556Y4654349D01*
X10496199D01*
X10515883Y4656940D01*
X10534225Y4664538D01*
X10549975Y4676624D01*
X10919536Y5046184D01*
X11047292D01*
X11061047Y5038243D01*
X11086582Y5031401D01*
X11113018D01*
X11138553Y5038243D01*
X11161447Y5051461D01*
X11180140Y5070154D01*
X11193358Y5093048D01*
X11200200Y5118583D01*
Y5145019D01*
X11193358Y5170554D01*
X11180140Y5193448D01*
X11161447Y5212141D01*
X11138553Y5225359D01*
X11113018Y5232201D01*
D02*
G37*
G36*
X10022840Y5089241D02*
X9944100D01*
Y5010501D01*
X10022840D01*
Y5089241D01*
D02*
G37*
G36*
X9918700D02*
X9839960D01*
Y5010501D01*
X9918700D01*
Y5089241D01*
D02*
G37*
G36*
X8547904Y5054600D02*
X8496300D01*
Y5002996D01*
X8508844Y5006357D01*
X8523757Y5014967D01*
X8535933Y5027143D01*
X8544543Y5042056D01*
X8547904Y5054600D01*
D02*
G37*
G36*
X8470900D02*
X8419296D01*
X8422657Y5042056D01*
X8431267Y5027143D01*
X8443443Y5014967D01*
X8458356Y5006357D01*
X8470900Y5002996D01*
Y5054600D01*
D02*
G37*
G36*
X3758200Y5036998D02*
X3683000D01*
Y4961798D01*
X3758200D01*
Y5036998D01*
D02*
G37*
G36*
X3657600D02*
X3582400D01*
Y4961798D01*
X3657600D01*
Y5036998D01*
D02*
G37*
G36*
X8496300Y4979204D02*
Y4927600D01*
X8547904D01*
X8544543Y4940144D01*
X8535933Y4955057D01*
X8523757Y4967233D01*
X8508844Y4975843D01*
X8496300Y4979204D01*
D02*
G37*
G36*
X8470900D02*
X8458356Y4975843D01*
X8443443Y4967233D01*
X8431267Y4955057D01*
X8422657Y4940144D01*
X8419296Y4927600D01*
X8470900D01*
Y4979204D01*
D02*
G37*
G36*
X7976404Y5041900D02*
X7847796D01*
X7851157Y5029356D01*
X7859767Y5014443D01*
X7871943Y5002267D01*
X7886856Y4993657D01*
X7895563Y4991324D01*
Y4978176D01*
X7886856Y4975843D01*
X7871943Y4967233D01*
X7859767Y4955057D01*
X7851157Y4940144D01*
X7847796Y4927600D01*
X7976404D01*
X7973043Y4940144D01*
X7964433Y4955057D01*
X7952257Y4967233D01*
X7937344Y4975843D01*
X7928637Y4978176D01*
Y4991324D01*
X7937344Y4993657D01*
X7952257Y5002267D01*
X7964433Y5014443D01*
X7973043Y5029356D01*
X7976404Y5041900D01*
D02*
G37*
G36*
X10022840Y4985101D02*
X9944100D01*
Y4906361D01*
X10022840D01*
Y4985101D01*
D02*
G37*
G36*
X9918700D02*
X9839960D01*
Y4906361D01*
X9918700D01*
Y4985101D01*
D02*
G37*
G36*
X8547904Y4902200D02*
X8496300D01*
Y4850596D01*
X8508844Y4853957D01*
X8523757Y4862567D01*
X8535933Y4874743D01*
X8544543Y4889656D01*
X8547904Y4902200D01*
D02*
G37*
G36*
X8470900D02*
X8419296D01*
X8422657Y4889656D01*
X8431267Y4874743D01*
X8443443Y4862567D01*
X8458356Y4853957D01*
X8470900Y4850596D01*
Y4902200D01*
D02*
G37*
G36*
X7976404D02*
X7924800D01*
Y4850596D01*
X7937344Y4853957D01*
X7952257Y4862567D01*
X7964433Y4874743D01*
X7973043Y4889656D01*
X7976404Y4902200D01*
D02*
G37*
G36*
X7899400D02*
X7847796D01*
X7851157Y4889656D01*
X7859767Y4874743D01*
X7871943Y4862567D01*
X7886856Y4853957D01*
X7899400Y4850596D01*
Y4902200D01*
D02*
G37*
G36*
X8343900Y4839504D02*
X8331356Y4836143D01*
X8316443Y4827533D01*
X8304267Y4815357D01*
X8295657Y4800444D01*
X8293324Y4791737D01*
X8280176D01*
X8277843Y4800444D01*
X8269233Y4815357D01*
X8257057Y4827533D01*
X8242144Y4836143D01*
X8229600Y4839504D01*
Y4775200D01*
Y4710896D01*
X8242144Y4714257D01*
X8257057Y4722867D01*
X8269233Y4735043D01*
X8277843Y4749956D01*
X8280176Y4758663D01*
X8293324D01*
X8295657Y4749956D01*
X8304267Y4735043D01*
X8316443Y4722867D01*
X8331356Y4714257D01*
X8343900Y4710896D01*
Y4775200D01*
Y4839504D01*
D02*
G37*
G36*
X8204200D02*
X8191656Y4836143D01*
X8176743Y4827533D01*
X8164567Y4815357D01*
X8155957Y4800444D01*
X8153624Y4791737D01*
X8140476D01*
X8138143Y4800444D01*
X8129533Y4815357D01*
X8117357Y4827533D01*
X8102444Y4836143D01*
X8089900Y4839504D01*
Y4775200D01*
Y4710896D01*
X8102444Y4714257D01*
X8117357Y4722867D01*
X8129533Y4735043D01*
X8138143Y4749956D01*
X8140476Y4758663D01*
X8153624D01*
X8155957Y4749956D01*
X8164567Y4735043D01*
X8176743Y4722867D01*
X8191656Y4714257D01*
X8204200Y4710896D01*
Y4775200D01*
Y4839504D01*
D02*
G37*
G36*
X8369300D02*
Y4787900D01*
X8420904D01*
X8417543Y4800444D01*
X8408933Y4815357D01*
X8396757Y4827533D01*
X8381844Y4836143D01*
X8369300Y4839504D01*
D02*
G37*
G36*
X8064500D02*
X8051956Y4836143D01*
X8037043Y4827533D01*
X8024867Y4815357D01*
X8016257Y4800444D01*
X8012896Y4787900D01*
X8064500D01*
Y4839504D01*
D02*
G37*
G36*
X8420904Y4762500D02*
X8369300D01*
Y4710896D01*
X8381844Y4714257D01*
X8396757Y4722867D01*
X8408933Y4735043D01*
X8417543Y4749956D01*
X8420904Y4762500D01*
D02*
G37*
G36*
X8064500D02*
X8012896D01*
X8016257Y4749956D01*
X8024867Y4735043D01*
X8037043Y4722867D01*
X8051956Y4714257D01*
X8064500Y4710896D01*
Y4762500D01*
D02*
G37*
G36*
X9106855Y6264575D02*
X9083447D01*
X9060837Y6258516D01*
X9040565Y6246813D01*
X9024013Y6230261D01*
X9012309Y6209989D01*
X9008794Y6196869D01*
X8633024Y5821100D01*
X8620938Y5805349D01*
X8613341Y5787007D01*
X8610749Y5767324D01*
Y4690210D01*
X8608828Y4685572D01*
X8606237Y4665888D01*
Y4637499D01*
X8595238Y4631149D01*
X8592131Y4632943D01*
X8575497Y4637400D01*
X8558277D01*
X8541644Y4632943D01*
X8526731Y4624333D01*
X8514554Y4612157D01*
X8505944Y4597244D01*
X8501487Y4580610D01*
Y4563390D01*
X8505944Y4546756D01*
X8514554Y4531843D01*
X8526731Y4519667D01*
X8532553Y4516305D01*
Y3557100D01*
X8535510Y3542234D01*
X8543931Y3529631D01*
X9232153Y2841409D01*
Y2798604D01*
X9209353Y2785440D01*
X9190660Y2766747D01*
X9177442Y2743853D01*
X9170600Y2718318D01*
Y2691882D01*
X9177442Y2666347D01*
X9190660Y2643453D01*
X9209353Y2624760D01*
X9232247Y2611542D01*
X9257782Y2604700D01*
X9284218D01*
X9309753Y2611542D01*
X9332647Y2624760D01*
X9351340Y2643453D01*
X9364558Y2666347D01*
X9371400Y2691882D01*
Y2718318D01*
X9364558Y2743853D01*
X9351340Y2766747D01*
X9332647Y2785440D01*
X9309847Y2798604D01*
Y2857500D01*
X9306889Y2872366D01*
X9298469Y2884969D01*
X8610246Y3573191D01*
Y4339769D01*
X8622946Y4345030D01*
X8632214Y4335762D01*
X8652486Y4324058D01*
X8675096Y4318000D01*
X8698504D01*
X8721114Y4324058D01*
X8741386Y4335762D01*
X8746141Y4340517D01*
X8758841Y4335257D01*
Y3902312D01*
X8761798Y3887447D01*
X8770219Y3874844D01*
X8824431Y3820631D01*
X8837034Y3812211D01*
X8851900Y3809253D01*
X9074410D01*
X9075167Y3807943D01*
X9087343Y3795767D01*
X9102256Y3787157D01*
X9118890Y3782700D01*
X9136110D01*
X9152743Y3787157D01*
X9155755Y3788896D01*
X9166753Y3782546D01*
Y3613058D01*
X9169710Y3598192D01*
X9178131Y3585590D01*
X9486153Y3277567D01*
Y2805500D01*
X9424600D01*
Y2604700D01*
X9625400D01*
Y2805500D01*
X9563847D01*
Y3255123D01*
X9575580Y3259983D01*
X9776931Y3058631D01*
X9789534Y3050211D01*
X9804400Y3047253D01*
X9979911D01*
X9980667Y3045943D01*
X9992843Y3033767D01*
X10007756Y3025157D01*
X10024390Y3020700D01*
X10041610D01*
X10058244Y3025157D01*
X10073157Y3033767D01*
X10085333Y3045943D01*
X10093943Y3060856D01*
X10098400Y3077490D01*
Y3094710D01*
X10093943Y3111344D01*
X10093124Y3112762D01*
X10099489Y3127137D01*
X10102106Y3127704D01*
X10107143Y3122667D01*
X10122056Y3114057D01*
X10138690Y3109600D01*
X10155910D01*
X10172544Y3114057D01*
X10187457Y3122667D01*
X10199633Y3134843D01*
X10208243Y3149756D01*
X10212700Y3166390D01*
Y3183610D01*
X10208243Y3200244D01*
X10199633Y3215157D01*
X10187457Y3227333D01*
X10172544Y3235943D01*
X10155910Y3240400D01*
X10138690D01*
X10122056Y3235943D01*
X10107143Y3227333D01*
X10094967Y3215157D01*
X10094211Y3213847D01*
X9803433D01*
X9386047Y3631233D01*
Y5833600D01*
X9383089Y5848466D01*
X9374669Y5861068D01*
X9365708Y5870029D01*
X9366100Y5871490D01*
Y5888710D01*
X9361643Y5905344D01*
X9353033Y5920257D01*
X9340856Y5932433D01*
X9325943Y5941043D01*
X9309310Y5945500D01*
X9292090D01*
X9275456Y5941043D01*
X9260543Y5932433D01*
X9248367Y5920257D01*
X9239757Y5905344D01*
X9235300Y5888710D01*
Y5871490D01*
X9239757Y5854856D01*
X9248367Y5839943D01*
X9260543Y5827767D01*
X9275456Y5819157D01*
X9292090Y5814700D01*
X9308353D01*
Y5794972D01*
X9302304Y5792466D01*
X9295653Y5790697D01*
X9281643Y5798786D01*
X9265010Y5803243D01*
X9247790D01*
X9231156Y5798786D01*
X9216243Y5790176D01*
X9204067Y5778000D01*
X9195457Y5763087D01*
X9191000Y5746453D01*
Y5729233D01*
X9195457Y5712599D01*
X9199421Y5705733D01*
X9192089Y5693033D01*
X9184290D01*
X9167656Y5688576D01*
X9152743Y5679966D01*
X9140567Y5667790D01*
X9131957Y5652876D01*
X9127500Y5636243D01*
Y5619023D01*
X9131957Y5602389D01*
X9140567Y5587476D01*
X9152743Y5575300D01*
X9154053Y5574544D01*
Y4619308D01*
X9157010Y4604442D01*
X9165431Y4591839D01*
X9166753Y4590517D01*
Y3913654D01*
X9155755Y3907304D01*
X9152743Y3909043D01*
X9136110Y3913500D01*
X9118890D01*
X9102256Y3909043D01*
X9087343Y3900433D01*
X9075167Y3888257D01*
X9074410Y3886947D01*
X8867991D01*
X8836534Y3918403D01*
Y4556521D01*
X8837844Y4557277D01*
X8850020Y4569453D01*
X8858630Y4584366D01*
X8863087Y4601000D01*
Y4618220D01*
X8858630Y4634854D01*
X8850020Y4649767D01*
X8837844Y4661943D01*
X8822931Y4670553D01*
X8806298Y4675010D01*
X8789077D01*
X8775551Y4671385D01*
X8766781Y4675940D01*
X8762851Y4679679D01*
Y5735823D01*
X9116345Y6089318D01*
X9129465Y6092833D01*
X9149737Y6104537D01*
X9166289Y6121089D01*
X9177992Y6141361D01*
X9184051Y6163971D01*
Y6187379D01*
X9177992Y6209989D01*
X9166289Y6230261D01*
X9149737Y6246813D01*
X9129465Y6258516D01*
X9106855Y6264575D01*
D02*
G37*
G36*
X4925000Y4890669D02*
X4495800D01*
Y4528469D01*
X4925000D01*
Y4890669D01*
D02*
G37*
G36*
X4470400D02*
X4041200D01*
Y4528469D01*
X4470400D01*
Y4890669D01*
D02*
G37*
G36*
X11113018Y4723200D02*
X11086582D01*
X11061047Y4716358D01*
X11038153Y4703140D01*
X11029683Y4694670D01*
X10874802D01*
X10864867Y4693362D01*
X10855121Y4692079D01*
X10855120Y4692079D01*
X10855118Y4692078D01*
X10847635Y4688979D01*
X10836779Y4684483D01*
X10836776Y4684481D01*
X10821028Y4672397D01*
X10753926Y4605300D01*
X10753925Y4605299D01*
X10753924Y4605298D01*
X10748965Y4598835D01*
X10741840Y4589550D01*
X10741839Y4589548D01*
X10741838Y4589548D01*
X10734241Y4571209D01*
X10734241Y4571208D01*
X10734241Y4571206D01*
X10732848Y4560627D01*
X10731649Y4551525D01*
X10731650Y4551524D01*
X10731649Y4551523D01*
Y4108201D01*
X10553598Y3930150D01*
X9957156D01*
X9941295Y3939308D01*
X9918038Y3945539D01*
X9893962D01*
X9870705Y3939308D01*
X9849855Y3927270D01*
X9832830Y3910245D01*
X9820792Y3889394D01*
X9814560Y3866138D01*
Y3842061D01*
X9820792Y3818805D01*
X9832830Y3797954D01*
X9849855Y3780929D01*
X9870705Y3768891D01*
X9893962Y3762659D01*
X9918038D01*
X9941295Y3768891D01*
X9957156Y3778049D01*
X10585099D01*
X10604783Y3780640D01*
X10623125Y3788238D01*
X10638875Y3800324D01*
X10861476Y4022924D01*
X10873562Y4038675D01*
X10881159Y4057017D01*
X10883751Y4076700D01*
Y4520020D01*
X10906301Y4542569D01*
X11038044D01*
X11038153Y4542460D01*
X11061047Y4529242D01*
X11086582Y4522400D01*
X11113018D01*
X11138553Y4529242D01*
X11161447Y4542460D01*
X11180140Y4561153D01*
X11193358Y4584047D01*
X11200200Y4609582D01*
Y4636018D01*
X11193358Y4661553D01*
X11180140Y4684447D01*
X11161447Y4703140D01*
X11138553Y4716358D01*
X11113018Y4723200D01*
D02*
G37*
G36*
X9943438Y4561840D02*
X9919362D01*
X9896105Y4555608D01*
X9875255Y4543570D01*
X9858230Y4526545D01*
X9846192Y4505695D01*
X9839960Y4482438D01*
Y4458362D01*
X9846192Y4435105D01*
X9858230Y4414255D01*
X9875255Y4397230D01*
X9896105Y4385192D01*
X9919362Y4378960D01*
X9943438D01*
X9966695Y4385192D01*
X9987545Y4397230D01*
X10004570Y4414255D01*
X10016608Y4435105D01*
X10022840Y4458362D01*
Y4482438D01*
X10016608Y4505695D01*
X10004570Y4526545D01*
X9987545Y4543570D01*
X9966695Y4555608D01*
X9943438Y4561840D01*
D02*
G37*
G36*
X10022840Y4301841D02*
X9944100D01*
Y4223101D01*
X10022840D01*
Y4301841D01*
D02*
G37*
G36*
X9918700D02*
X9839960D01*
Y4223101D01*
X9918700D01*
Y4301841D01*
D02*
G37*
G36*
X4925000Y4503069D02*
X4495800D01*
Y4140870D01*
X4880601D01*
X4883100Y4140372D01*
X5023100D01*
X5033011Y4142344D01*
X5041412Y4147958D01*
X5047026Y4156359D01*
X5048998Y4166270D01*
Y4357270D01*
X5047026Y4367180D01*
X5041412Y4375582D01*
X5033011Y4381196D01*
X5023100Y4383168D01*
X4925000D01*
Y4503069D01*
D02*
G37*
G36*
X4470400D02*
X4041200D01*
Y4383168D01*
X3943100D01*
X3933189Y4381196D01*
X3924788Y4375582D01*
X3919174Y4367180D01*
X3917202Y4357270D01*
Y4166270D01*
X3919174Y4156359D01*
X3924788Y4147958D01*
X3933189Y4142344D01*
X3943100Y4140372D01*
X4093100D01*
X4095599Y4140870D01*
X4470400D01*
Y4503069D01*
D02*
G37*
G36*
X10022840Y4197701D02*
X9944100D01*
Y4118961D01*
X10022840D01*
Y4197701D01*
D02*
G37*
G36*
X9918700D02*
X9839960D01*
Y4118961D01*
X9918700D01*
Y4197701D01*
D02*
G37*
G36*
X2794000Y4318798D02*
Y4106098D01*
X3006700D01*
Y4318798D01*
X2794000D01*
D02*
G37*
G36*
X11113018Y4215200D02*
X11086582D01*
X11061047Y4208358D01*
X11038153Y4195140D01*
X11019460Y4176447D01*
X11006242Y4153553D01*
X10999400Y4128018D01*
Y4101582D01*
X11006242Y4076047D01*
X11019460Y4053153D01*
X11038153Y4034460D01*
X11061047Y4021242D01*
X11086582Y4014400D01*
X11113018D01*
X11138553Y4021242D01*
X11161447Y4034460D01*
X11180140Y4053153D01*
X11193358Y4076047D01*
X11200200Y4101582D01*
Y4128018D01*
X11193358Y4153553D01*
X11180140Y4176447D01*
X11161447Y4195140D01*
X11138553Y4208358D01*
X11113018Y4215200D01*
D02*
G37*
G36*
X3006700Y4080698D02*
X2794000D01*
Y3867998D01*
X3006700D01*
Y4080698D01*
D02*
G37*
G36*
X4912901Y3834600D02*
X4850201D01*
Y3771900D01*
X4912901D01*
Y3834600D01*
D02*
G37*
G36*
X4404901Y3821900D02*
X4342201D01*
Y3759200D01*
X4404901D01*
Y3821900D01*
D02*
G37*
G36*
X4912901Y3746500D02*
X4850201D01*
Y3683800D01*
X4912901D01*
Y3746500D01*
D02*
G37*
G36*
X4404901Y3733800D02*
X4342201D01*
Y3671100D01*
X4404901D01*
Y3733800D01*
D02*
G37*
G36*
X11200200Y3707200D02*
X10999400D01*
Y3506400D01*
X11200200D01*
Y3707200D01*
D02*
G37*
G36*
X9918038Y3685540D02*
X9893962D01*
X9870705Y3679308D01*
X9849855Y3667270D01*
X9832830Y3650245D01*
X9820792Y3629395D01*
X9814560Y3606138D01*
Y3582062D01*
X9820792Y3558805D01*
X9832830Y3537955D01*
X9849855Y3520930D01*
X9870705Y3508892D01*
X9893962Y3502660D01*
X9918038D01*
X9941295Y3508892D01*
X9962145Y3520930D01*
X9979170Y3537955D01*
X9991208Y3558805D01*
X9997440Y3582062D01*
Y3606138D01*
X9991208Y3629395D01*
X9979170Y3650245D01*
X9962145Y3667270D01*
X9941295Y3679308D01*
X9918038Y3685540D01*
D02*
G37*
G36*
X9997440Y3425541D02*
X9918700D01*
Y3346801D01*
X9997440D01*
Y3425541D01*
D02*
G37*
G36*
X9893300D02*
X9814560D01*
Y3346801D01*
X9893300D01*
Y3425541D01*
D02*
G37*
G36*
X9997440Y3321401D02*
X9918700D01*
Y3242661D01*
X9997440D01*
Y3321401D01*
D02*
G37*
G36*
X9893300D02*
X9814560D01*
Y3242661D01*
X9893300D01*
Y3321401D01*
D02*
G37*
G36*
X9030218Y2805500D02*
X9029700D01*
Y2717800D01*
X9117400D01*
Y2718318D01*
X9110558Y2743853D01*
X9097340Y2766747D01*
X9078647Y2785440D01*
X9055753Y2798658D01*
X9030218Y2805500D01*
D02*
G37*
G36*
X5766318D02*
X5765800D01*
Y2717800D01*
X5853500D01*
Y2718318D01*
X5846658Y2743853D01*
X5833440Y2766747D01*
X5814747Y2785440D01*
X5791853Y2798658D01*
X5766318Y2805500D01*
D02*
G37*
G36*
X4166118D02*
X4165600D01*
Y2717800D01*
X4253300D01*
Y2718318D01*
X4246458Y2743853D01*
X4233240Y2766747D01*
X4214547Y2785440D01*
X4191653Y2798658D01*
X4166118Y2805500D01*
D02*
G37*
G36*
X7430018D02*
X7429500D01*
Y2717800D01*
X7517200D01*
Y2718318D01*
X7510358Y2743853D01*
X7497140Y2766747D01*
X7478447Y2785440D01*
X7455553Y2798658D01*
X7430018Y2805500D01*
D02*
G37*
G36*
X9004300D02*
X9003782D01*
X8978247Y2798658D01*
X8955353Y2785440D01*
X8936660Y2766747D01*
X8923442Y2743853D01*
X8916600Y2718318D01*
Y2717800D01*
X9004300D01*
Y2805500D01*
D02*
G37*
G36*
X5740400D02*
X5739882D01*
X5714347Y2798658D01*
X5691453Y2785440D01*
X5672760Y2766747D01*
X5659542Y2743853D01*
X5652700Y2718318D01*
Y2717800D01*
X5740400D01*
Y2805500D01*
D02*
G37*
G36*
X4140200D02*
X4139682D01*
X4114147Y2798658D01*
X4091253Y2785440D01*
X4072560Y2766747D01*
X4059342Y2743853D01*
X4052500Y2718318D01*
Y2717800D01*
X4140200D01*
Y2805500D01*
D02*
G37*
G36*
X7404100D02*
X7403582D01*
X7378047Y2798658D01*
X7355153Y2785440D01*
X7336460Y2766747D01*
X7323242Y2743853D01*
X7316400Y2718318D01*
Y2717800D01*
X7404100D01*
Y2805500D01*
D02*
G37*
G36*
X11287100Y3108300D02*
X11242700D01*
X11199153Y3099638D01*
X11158133Y3082647D01*
X11121216Y3057980D01*
X11089820Y3026584D01*
X11065153Y2989667D01*
X11048162Y2948647D01*
X11039500Y2905100D01*
Y2860700D01*
X11048162Y2817153D01*
X11065153Y2776133D01*
X11089820Y2739216D01*
X11121216Y2707820D01*
X11158133Y2683153D01*
X11199153Y2666162D01*
X11242700Y2657500D01*
X11287100D01*
X11330647Y2666162D01*
X11371667Y2683153D01*
X11408584Y2707820D01*
X11439980Y2739216D01*
X11464647Y2776133D01*
X11481638Y2817153D01*
X11490300Y2860700D01*
Y2905100D01*
X11481638Y2948647D01*
X11464647Y2989667D01*
X11439980Y3026584D01*
X11408584Y3057980D01*
X11371667Y3082647D01*
X11330647Y3099638D01*
X11287100Y3108300D01*
D02*
G37*
G36*
X2930500D02*
X2886100D01*
X2842553Y3099638D01*
X2801533Y3082647D01*
X2764616Y3057980D01*
X2733220Y3026584D01*
X2708553Y2989667D01*
X2691562Y2948647D01*
X2682900Y2905100D01*
Y2860700D01*
X2691562Y2817153D01*
X2708553Y2776133D01*
X2733220Y2739216D01*
X2764616Y2707820D01*
X2801533Y2683153D01*
X2842553Y2666162D01*
X2886100Y2657500D01*
X2930500D01*
X2974047Y2666162D01*
X3015067Y2683153D01*
X3051984Y2707820D01*
X3083380Y2739216D01*
X3108047Y2776133D01*
X3125038Y2817153D01*
X3133700Y2860700D01*
Y2905100D01*
X3125038Y2948647D01*
X3108047Y2989667D01*
X3083380Y3026584D01*
X3051984Y3057980D01*
X3015067Y3082647D01*
X2974047Y3099638D01*
X2930500Y3108300D01*
D02*
G37*
G36*
X9117400Y2692400D02*
X9029700D01*
Y2604700D01*
X9030218D01*
X9055753Y2611542D01*
X9078647Y2624760D01*
X9097340Y2643453D01*
X9110558Y2666347D01*
X9117400Y2691882D01*
Y2692400D01*
D02*
G37*
G36*
X9004300D02*
X8916600D01*
Y2691882D01*
X8923442Y2666347D01*
X8936660Y2643453D01*
X8955353Y2624760D01*
X8978247Y2611542D01*
X9003782Y2604700D01*
X9004300D01*
Y2692400D01*
D02*
G37*
G36*
X8776218Y2805500D02*
X8749782D01*
X8724247Y2798658D01*
X8701353Y2785440D01*
X8682660Y2766747D01*
X8669442Y2743853D01*
X8662600Y2718318D01*
Y2691882D01*
X8669442Y2666347D01*
X8682660Y2643453D01*
X8701353Y2624760D01*
X8724247Y2611542D01*
X8749782Y2604700D01*
X8776218D01*
X8801753Y2611542D01*
X8824647Y2624760D01*
X8843340Y2643453D01*
X8856558Y2666347D01*
X8863400Y2691882D01*
Y2718318D01*
X8856558Y2743853D01*
X8843340Y2766747D01*
X8824647Y2785440D01*
X8801753Y2798658D01*
X8776218Y2805500D01*
D02*
G37*
G36*
X4687499Y3835251D02*
X4682556Y3834600D01*
X4677572D01*
X4672758Y3833310D01*
X4667815Y3832659D01*
X4663210Y3830752D01*
X4658396Y3829462D01*
X4654078Y3826969D01*
X4649474Y3825062D01*
X4645520Y3822028D01*
X4641202Y3819535D01*
X4637677Y3816010D01*
X4633723Y3812976D01*
X4630689Y3809022D01*
X4627164Y3805497D01*
X4624671Y3801179D01*
X4621637Y3797225D01*
X4619730Y3792621D01*
X4617237Y3788303D01*
X4615947Y3783489D01*
X4614040Y3778883D01*
X4613389Y3773940D01*
X4612099Y3769127D01*
Y3764143D01*
X4611448Y3759200D01*
Y3179428D01*
X4567098Y3135078D01*
X3703479D01*
X3683795Y3132486D01*
X3673051Y3128036D01*
X3665453Y3124889D01*
X3649703Y3112803D01*
X3591124Y3054224D01*
X3579038Y3038474D01*
X3571441Y3020132D01*
X3568849Y3000448D01*
Y2771036D01*
X3564560Y2766747D01*
X3551342Y2743853D01*
X3544500Y2718318D01*
Y2691882D01*
X3551342Y2666347D01*
X3564560Y2643453D01*
X3583253Y2624760D01*
X3606147Y2611542D01*
X3631682Y2604700D01*
X3658118D01*
X3683653Y2611542D01*
X3706547Y2624760D01*
X3725240Y2643453D01*
X3738458Y2666347D01*
X3745300Y2691882D01*
Y2718318D01*
X3738458Y2743853D01*
X3725240Y2766747D01*
X3720951Y2771036D01*
Y2968947D01*
X3734980Y2982977D01*
X4595401D01*
X4601751Y2971978D01*
X4599957Y2968871D01*
X4595500Y2952237D01*
Y2935017D01*
X4599957Y2918384D01*
X4608567Y2903470D01*
X4620743Y2891294D01*
X4622053Y2890538D01*
Y2805500D01*
X4560500D01*
Y2604700D01*
X4761300D01*
Y2805500D01*
X4699747D01*
Y2890538D01*
X4701057Y2891294D01*
X4713233Y2903470D01*
X4721843Y2918384D01*
X4726300Y2935017D01*
Y2952237D01*
X4721843Y2968871D01*
X4720049Y2971978D01*
X4726399Y2982977D01*
X5129782D01*
X5130875Y2982138D01*
X5143443Y2976932D01*
X5169049Y2951326D01*
Y2771036D01*
X5164760Y2766747D01*
X5151542Y2743853D01*
X5144700Y2718318D01*
Y2691882D01*
X5151542Y2666347D01*
X5164760Y2643453D01*
X5183453Y2624760D01*
X5206347Y2611542D01*
X5231882Y2604700D01*
X5258318D01*
X5283853Y2611542D01*
X5306747Y2624760D01*
X5325440Y2643453D01*
X5338658Y2666347D01*
X5345500Y2691882D01*
Y2718318D01*
X5338658Y2743853D01*
X5325440Y2766747D01*
X5321151Y2771036D01*
Y2951326D01*
X5352801Y2982977D01*
X6206700D01*
X6211125Y2975311D01*
X6212491Y2970276D01*
X6208400Y2955010D01*
Y2937790D01*
X6212857Y2921156D01*
X6221467Y2906243D01*
X6233643Y2894067D01*
X6234953Y2893311D01*
Y2805500D01*
X6160700D01*
Y2604700D01*
X6361500D01*
Y2805500D01*
X6312647D01*
Y2893311D01*
X6313957Y2894067D01*
X6326133Y2906243D01*
X6334743Y2921156D01*
X6339200Y2937790D01*
Y2955010D01*
X6335109Y2970276D01*
X6336474Y2975311D01*
X6340900Y2982977D01*
X6788399D01*
X6829624Y2941751D01*
X6832749Y2939353D01*
Y2771036D01*
X6828460Y2766747D01*
X6815242Y2743853D01*
X6808400Y2718318D01*
Y2691882D01*
X6815242Y2666347D01*
X6828460Y2643453D01*
X6847153Y2624760D01*
X6870047Y2611542D01*
X6895582Y2604700D01*
X6922018D01*
X6947553Y2611542D01*
X6970447Y2624760D01*
X6989140Y2643453D01*
X7002358Y2666347D01*
X7009200Y2691882D01*
Y2718318D01*
X7002358Y2743853D01*
X6989140Y2766747D01*
X6984851Y2771036D01*
Y2939353D01*
X6987976Y2941751D01*
X7029201Y2982977D01*
X7870400D01*
X7874825Y2975311D01*
X7876191Y2970276D01*
X7872100Y2955010D01*
Y2937790D01*
X7876557Y2921156D01*
X7885167Y2906243D01*
X7897343Y2894067D01*
X7898653Y2893311D01*
Y2805500D01*
X7824400D01*
Y2604700D01*
X8025200D01*
Y2805500D01*
X7976347D01*
Y2893311D01*
X7977657Y2894067D01*
X7989833Y2906243D01*
X7998443Y2921156D01*
X8002900Y2937790D01*
Y2955010D01*
X7998809Y2970276D01*
X8000174Y2975311D01*
X8004600Y2982977D01*
X8418920D01*
X8432949Y2968947D01*
Y2771036D01*
X8428660Y2766747D01*
X8415442Y2743853D01*
X8408600Y2718318D01*
Y2691882D01*
X8415442Y2666347D01*
X8428660Y2643453D01*
X8447353Y2624760D01*
X8470247Y2611542D01*
X8495782Y2604700D01*
X8522218D01*
X8547753Y2611542D01*
X8570647Y2624760D01*
X8589340Y2643453D01*
X8602558Y2666347D01*
X8609400Y2691882D01*
Y2718318D01*
X8602558Y2743853D01*
X8589340Y2766747D01*
X8585051Y2771036D01*
Y3000448D01*
X8582459Y3020132D01*
X8578009Y3030876D01*
X8574862Y3038474D01*
X8562776Y3054224D01*
X8504197Y3112803D01*
X8488447Y3124889D01*
X8470105Y3132486D01*
X8450421Y3135078D01*
X8005422D01*
X8004984Y3135259D01*
X7985300Y3137851D01*
X7889700D01*
X7870016Y3135259D01*
X7869578Y3135078D01*
X6341722D01*
X6341284Y3135259D01*
X6321600Y3137851D01*
X6226000D01*
X6206316Y3135259D01*
X6205878Y3135078D01*
X4807900D01*
X4763550Y3179428D01*
Y3683800D01*
X4824801D01*
Y3759200D01*
Y3834600D01*
X4762101D01*
Y3810955D01*
X4760184Y3809506D01*
X4747834Y3805497D01*
X4744309Y3809022D01*
X4741275Y3812976D01*
X4737321Y3816010D01*
X4733795Y3819535D01*
X4729478Y3822028D01*
X4725524Y3825062D01*
X4720920Y3826969D01*
X4716602Y3829462D01*
X4711788Y3830752D01*
X4707182Y3832659D01*
X4702239Y3833310D01*
X4697425Y3834600D01*
X4692442D01*
X4687499Y3835251D01*
D02*
G37*
G36*
X7684018Y2805500D02*
X7657582D01*
X7632047Y2798658D01*
X7609153Y2785440D01*
X7590460Y2766747D01*
X7577242Y2743853D01*
X7570400Y2718318D01*
Y2691882D01*
X7577242Y2666347D01*
X7590460Y2643453D01*
X7609153Y2624760D01*
X7632047Y2611542D01*
X7657582Y2604700D01*
X7684018D01*
X7709553Y2611542D01*
X7732447Y2624760D01*
X7751140Y2643453D01*
X7764358Y2666347D01*
X7771200Y2691882D01*
Y2718318D01*
X7764358Y2743853D01*
X7751140Y2766747D01*
X7732447Y2785440D01*
X7709553Y2798658D01*
X7684018Y2805500D01*
D02*
G37*
G36*
X7517200Y2692400D02*
X7429500D01*
Y2604700D01*
X7430018D01*
X7455553Y2611542D01*
X7478447Y2624760D01*
X7497140Y2643453D01*
X7510358Y2666347D01*
X7517200Y2691882D01*
Y2692400D01*
D02*
G37*
G36*
X7404100D02*
X7316400D01*
Y2691882D01*
X7323242Y2666347D01*
X7336460Y2643453D01*
X7355153Y2624760D01*
X7378047Y2611542D01*
X7403582Y2604700D01*
X7404100D01*
Y2692400D01*
D02*
G37*
G36*
X7176018Y2805500D02*
X7149582D01*
X7124047Y2798658D01*
X7101153Y2785440D01*
X7082460Y2766747D01*
X7069242Y2743853D01*
X7062400Y2718318D01*
Y2691882D01*
X7069242Y2666347D01*
X7082460Y2643453D01*
X7101153Y2624760D01*
X7124047Y2611542D01*
X7149582Y2604700D01*
X7176018D01*
X7201553Y2611542D01*
X7224447Y2624760D01*
X7243140Y2643453D01*
X7256358Y2666347D01*
X7263200Y2691882D01*
Y2718318D01*
X7256358Y2743853D01*
X7243140Y2766747D01*
X7224447Y2785440D01*
X7201553Y2798658D01*
X7176018Y2805500D01*
D02*
G37*
G36*
X6020318D02*
X5993882D01*
X5968347Y2798658D01*
X5945453Y2785440D01*
X5926760Y2766747D01*
X5913542Y2743853D01*
X5906700Y2718318D01*
Y2691882D01*
X5913542Y2666347D01*
X5926760Y2643453D01*
X5945453Y2624760D01*
X5968347Y2611542D01*
X5993882Y2604700D01*
X6020318D01*
X6045853Y2611542D01*
X6068747Y2624760D01*
X6087440Y2643453D01*
X6100658Y2666347D01*
X6107500Y2691882D01*
Y2718318D01*
X6100658Y2743853D01*
X6087440Y2766747D01*
X6068747Y2785440D01*
X6045853Y2798658D01*
X6020318Y2805500D01*
D02*
G37*
G36*
X5853500Y2692400D02*
X5765800D01*
Y2604700D01*
X5766318D01*
X5791853Y2611542D01*
X5814747Y2624760D01*
X5833440Y2643453D01*
X5846658Y2666347D01*
X5853500Y2691882D01*
Y2692400D01*
D02*
G37*
G36*
X5740400D02*
X5652700D01*
Y2691882D01*
X5659542Y2666347D01*
X5672760Y2643453D01*
X5691453Y2624760D01*
X5714347Y2611542D01*
X5739882Y2604700D01*
X5740400D01*
Y2692400D01*
D02*
G37*
G36*
X5512318Y2805500D02*
X5485882D01*
X5460347Y2798658D01*
X5437453Y2785440D01*
X5418760Y2766747D01*
X5405542Y2743853D01*
X5398700Y2718318D01*
Y2691882D01*
X5405542Y2666347D01*
X5418760Y2643453D01*
X5437453Y2624760D01*
X5460347Y2611542D01*
X5485882Y2604700D01*
X5512318D01*
X5537853Y2611542D01*
X5560747Y2624760D01*
X5579440Y2643453D01*
X5592658Y2666347D01*
X5599500Y2691882D01*
Y2718318D01*
X5592658Y2743853D01*
X5579440Y2766747D01*
X5560747Y2785440D01*
X5537853Y2798658D01*
X5512318Y2805500D01*
D02*
G37*
G36*
X4420118D02*
X4393682D01*
X4368147Y2798658D01*
X4345253Y2785440D01*
X4326560Y2766747D01*
X4313342Y2743853D01*
X4306500Y2718318D01*
Y2691882D01*
X4313342Y2666347D01*
X4326560Y2643453D01*
X4345253Y2624760D01*
X4368147Y2611542D01*
X4393682Y2604700D01*
X4420118D01*
X4445653Y2611542D01*
X4468547Y2624760D01*
X4487240Y2643453D01*
X4500458Y2666347D01*
X4507300Y2691882D01*
Y2718318D01*
X4500458Y2743853D01*
X4487240Y2766747D01*
X4468547Y2785440D01*
X4445653Y2798658D01*
X4420118Y2805500D01*
D02*
G37*
G36*
X4253300Y2692400D02*
X4165600D01*
Y2604700D01*
X4166118D01*
X4191653Y2611542D01*
X4214547Y2624760D01*
X4233240Y2643453D01*
X4246458Y2666347D01*
X4253300Y2691882D01*
Y2692400D01*
D02*
G37*
G36*
X4140200D02*
X4052500D01*
Y2691882D01*
X4059342Y2666347D01*
X4072560Y2643453D01*
X4091253Y2624760D01*
X4114147Y2611542D01*
X4139682Y2604700D01*
X4140200D01*
Y2692400D01*
D02*
G37*
G36*
X3912118Y2805500D02*
X3885682D01*
X3860147Y2798658D01*
X3837253Y2785440D01*
X3818560Y2766747D01*
X3805342Y2743853D01*
X3798500Y2718318D01*
Y2691882D01*
X3805342Y2666347D01*
X3818560Y2643453D01*
X3837253Y2624760D01*
X3860147Y2611542D01*
X3885682Y2604700D01*
X3912118D01*
X3937653Y2611542D01*
X3960547Y2624760D01*
X3979240Y2643453D01*
X3992458Y2666347D01*
X3999300Y2691882D01*
Y2718318D01*
X3992458Y2743853D01*
X3979240Y2766747D01*
X3960547Y2785440D01*
X3937653Y2798658D01*
X3912118Y2805500D01*
D02*
G37*
%LPD*%
G36*
X5487200Y5526800D02*
X5871000D01*
Y4226800D01*
X5489740D01*
X5488940Y4227600D01*
X5479910D01*
X5462196Y4231123D01*
X5445511Y4238035D01*
X5430494Y4248068D01*
X5417723Y4260839D01*
X5407689Y4275856D01*
X5400778Y4292542D01*
X5397254Y4310255D01*
Y4319285D01*
X5396000Y4320540D01*
Y5435600D01*
Y5444630D01*
X5399523Y5462344D01*
X5406435Y5479029D01*
X5416468Y5494046D01*
X5429239Y5506817D01*
X5444256Y5516851D01*
X5460942Y5523762D01*
X5478655Y5527286D01*
X5487685D01*
X5487200Y5526800D01*
D02*
G37*
G36*
X6703060Y5526000D02*
X6712090D01*
X6729804Y5522477D01*
X6746489Y5515565D01*
X6761506Y5505531D01*
X6774277Y5492761D01*
X6784311Y5477744D01*
X6791222Y5461058D01*
X6794746Y5443345D01*
Y5434315D01*
X6796000Y5433060D01*
Y4318000D01*
Y4308970D01*
X6792477Y4291256D01*
X6785565Y4274571D01*
X6775531Y4259554D01*
X6762761Y4246783D01*
X6747744Y4236749D01*
X6731058Y4229838D01*
X6713345Y4226314D01*
X6704315D01*
X6704800Y4226800D01*
X6321000D01*
Y5526800D01*
X6703060Y5526000D01*
D02*
G37*
G36*
X5023100Y4166270D02*
X4883100D01*
Y4357270D01*
X5023100D01*
Y4166270D01*
D02*
G37*
G36*
X4093100D02*
X3943100D01*
Y4357270D01*
X4093100D01*
Y4166270D01*
D02*
G37*
D11*
X3670300Y5389702D02*
D03*
Y5049698D02*
D03*
D12*
X5633502Y4876800D02*
D03*
X6558498D02*
D03*
D13*
X4143101Y5583271D02*
D03*
X4313103D02*
D03*
X4483603D02*
D03*
X4653102D02*
D03*
X4823099D02*
D03*
D14*
X4483100Y4515769D02*
D03*
D21*
X4660900Y2705100D02*
Y2943627D01*
X6261100Y2705100D02*
X6273800Y2717800D01*
Y2946400D01*
X7937500Y2717800D02*
Y2946400D01*
X7924800Y2705100D02*
X7937500Y2717800D01*
X9271000Y2705100D02*
Y2857500D01*
X8571400Y3557100D02*
X9271000Y2857500D01*
Y3619500D02*
Y5695664D01*
X9192900Y4619308D02*
X9205600Y4606608D01*
X9192900Y4619308D02*
Y5627633D01*
X9266847Y5699817D02*
Y5727396D01*
X9256400Y5737843D02*
X9266847Y5727396D01*
Y5699817D02*
X9271000Y5695664D01*
Y3619500D02*
X9804400Y3086100D01*
X9205600Y3613058D02*
Y4606608D01*
X9347200Y3615142D02*
Y5833600D01*
Y3615142D02*
X9787342Y3175000D01*
X9300700Y5880100D02*
X9347200Y5833600D01*
X8851900Y3848100D02*
X9127500D01*
X9205600Y3613058D02*
X9525000Y3293658D01*
Y2705100D02*
Y3293658D01*
X9804400Y3086100D02*
X10033000D01*
X9787342Y3175000D02*
X10147300D01*
X8566887Y4572000D02*
X8571400Y4567487D01*
Y3557100D02*
Y4567487D01*
X8797688Y3902312D02*
X8851900Y3848100D01*
X8797688Y3902312D02*
Y4609610D01*
D22*
X6997700Y3059027D02*
X7886927D01*
X6819900D02*
X6997700D01*
X6908800Y2995527D02*
X6934200D01*
X6997700Y3059027D01*
X4776399D02*
X5157873D01*
X5321300D01*
X4610100D02*
X4776399D01*
X4981097Y5778500D02*
X6244699D01*
X4127500Y5689661D02*
Y6070600D01*
Y5689661D02*
X4139601Y5677560D01*
X4143101Y5583271D02*
Y5637769D01*
X4139601Y5641269D02*
Y5677560D01*
Y5641269D02*
X4143101Y5637769D01*
X4968397Y5791200D02*
X4981097Y5778500D01*
X6420999Y5014300D02*
Y5602200D01*
X6244699Y5778500D02*
X6420999Y5602200D01*
Y5014300D02*
X6558498Y4876800D01*
X4724400Y5791200D02*
X4968397D01*
X6324373Y3059027D02*
X6819900D01*
X6226000Y3061800D02*
X6321600D01*
X5321300Y3059027D02*
X6223227D01*
X6321600Y3061800D02*
X6324373Y3059027D01*
X6223227D02*
X6226000Y3061800D01*
X7889700D02*
X7985300D01*
X7988073Y3059027D01*
X7886927D02*
X7889700Y3061800D01*
X7988073Y3059027D02*
X8450421D01*
X5157873D02*
X5168900Y3048000D01*
X5179927D01*
X6908800Y2705100D02*
Y2995527D01*
X8509000Y2705100D02*
Y3000448D01*
X3644900Y2705100D02*
Y3000448D01*
X8450421Y3059027D02*
X8509000Y3000448D01*
X3703479Y3059027D02*
X4610100D01*
X4687499Y3147927D02*
Y3759200D01*
X6883400Y2995527D02*
X6908800D01*
X6819900Y3059027D02*
X6883400Y2995527D01*
X3644900Y3000448D02*
X3703479Y3059027D01*
X5179927Y3048000D02*
X5245100Y2982827D01*
Y2705100D02*
Y2982827D01*
X4610100Y3059027D02*
Y3070528D01*
X4687499Y3147927D02*
X4776399Y3059027D01*
X5245100Y2982827D02*
X5321300Y3059027D01*
X4610100Y3070528D02*
X4687499Y3147927D01*
X8682287Y4411413D02*
X8686800Y4406900D01*
Y4670401D02*
Y5767324D01*
X8682287Y4665888D02*
X8686800Y4670401D01*
X8682287Y4411413D02*
Y4665888D01*
X8686800Y5767324D02*
X9095151Y6175675D01*
X11158377Y6292499D02*
X11346023D01*
X11303000Y4368800D02*
X11404600Y4470400D01*
X11158377Y6292499D02*
X11188700D01*
X3721100Y3746500D02*
X4179499D01*
X3467100Y4000500D02*
Y6019800D01*
Y4000500D02*
X3721100Y3746500D01*
X3467100Y6019800D02*
X3822700Y6375400D01*
X4432300D02*
X4662099Y6145601D01*
X3822700Y6375400D02*
X4432300D01*
X4662099Y6070600D02*
Y6145601D01*
X3670300Y5389702D02*
X4367007D01*
X4375180Y5397876D01*
X11095619Y4618619D02*
X11099800Y4622800D01*
X10874802Y4618619D02*
X11095619D01*
X10807700Y4551523D02*
X10874802Y4618619D01*
X10807700Y4076700D02*
Y4551523D01*
X10585099Y3854099D02*
X10807700Y4076700D01*
X9906000Y3854099D02*
X10585099D01*
X11090234Y5122235D02*
X11099800Y5131801D01*
X10888035Y5122235D02*
X11090234D01*
X10496199Y4730399D02*
X10888035Y5122235D01*
X9931400Y4730399D02*
X10496199D01*
X10673999Y5517799D02*
X10796001Y5639801D01*
X11099800D01*
X9931400Y5517799D02*
X10673999D01*
X11041223Y6292499D02*
X11158377D01*
X11099800Y6233922D02*
X11158377Y6292499D01*
X11403665Y5295900D02*
Y5384800D01*
Y4952065D02*
Y5295900D01*
X11303000Y5384800D02*
X11391900Y5295900D01*
X11403665D01*
Y5485465D02*
X11404600Y5486400D01*
X11303000Y5384800D02*
X11403665Y5485465D01*
Y5384800D02*
Y5485465D01*
X11303000Y5384800D02*
X11403665D01*
Y4469465D02*
Y4801535D01*
X11328400Y4876800D02*
X11403665Y4801535D01*
Y4876800D01*
Y4952065D01*
X11328400Y4876800D02*
X11403665D01*
X11099800D02*
X11328400D01*
X11403665Y4952065D01*
X11404600Y4267200D02*
Y4368800D01*
Y4038600D02*
Y4267200D01*
X11303000Y4368800D02*
X11404600Y4267200D01*
Y4368800D02*
Y4470400D01*
X11303000Y4368800D02*
X11404600D01*
X11099800D02*
X11303000D01*
X11226800Y3860800D02*
X11404600Y4038600D01*
X11099800Y3860800D02*
X11226800D01*
X11099800Y5385801D02*
X11100801Y5384800D01*
X11303000D01*
X11346023Y6292499D02*
X11404600Y6233922D01*
Y5486400D02*
Y6233922D01*
X9931400Y6292499D02*
X11041223D01*
X11099800Y5894802D02*
Y6233922D01*
X11041223Y6292499D02*
X11099800Y6233922D01*
X5633502Y4876800D02*
Y5260376D01*
X4316598Y5456453D02*
Y5579770D01*
X5496001Y5397876D02*
X5633502Y5260376D01*
X4316598Y5456453D02*
X4375180Y5397876D01*
X4313103Y5583271D02*
X4316598Y5579770D01*
X4375180Y5397876D02*
X5496001D01*
X4653102Y5719902D02*
Y5791200D01*
Y5583271D02*
Y5719902D01*
X4724400Y5791200D01*
X4653102D02*
X4724400D01*
X4653102Y5867400D02*
Y6061598D01*
Y5791200D02*
Y5867400D01*
X4724400Y5796102D01*
Y5791200D02*
Y5796102D01*
X4653102Y6061598D02*
X4662099Y6070600D01*
X2839877Y5181600D02*
X3230723D01*
X3289300Y5240177D02*
Y6173119D01*
X3230723Y6231702D02*
X3289300Y6173119D01*
X2806700Y6231702D02*
X3230723D01*
Y5181600D02*
X3289300Y5240177D01*
X2781300Y4593402D02*
Y5123023D01*
X2839877Y5181600D01*
D23*
X7912100Y5194300D02*
D03*
Y5054600D02*
D03*
Y4914900D02*
D03*
X8077200Y4775200D02*
D03*
X8216900D02*
D03*
X8356600D02*
D03*
X8483600Y4914900D02*
D03*
Y5067300D02*
D03*
Y5194300D02*
D03*
X8343900Y5346700D02*
D03*
X8204200D02*
D03*
X8077200D02*
D03*
X4660900Y2943627D02*
D03*
X6273800Y2946400D02*
D03*
X7937500D02*
D03*
X9192900Y5627633D02*
D03*
X9127500Y3848100D02*
D03*
X9256400Y5737843D02*
D03*
X9300700Y5880100D02*
D03*
X10033000Y3086100D02*
D03*
X10147300Y3175000D02*
D03*
X8566887Y4572000D02*
D03*
X8797688Y4609610D02*
D03*
D24*
X2908300Y2882900D02*
D03*
X11264900D02*
D03*
D25*
X9931400Y5772501D02*
D03*
Y4210401D02*
D03*
X9906000Y3334101D02*
D03*
X9931400Y4997801D02*
D03*
D26*
Y6032500D02*
D03*
Y6292499D02*
D03*
Y4730399D02*
D03*
Y4470400D02*
D03*
X9906000Y3854099D02*
D03*
Y3594100D02*
D03*
X9931400Y5517799D02*
D03*
Y5257800D02*
D03*
D27*
X4687499Y3759200D02*
D03*
X4179499Y3746500D02*
D03*
X4662099Y6070600D02*
D03*
X4127500D02*
D03*
D28*
X4837501Y3759200D02*
D03*
X4329501Y3746500D02*
D03*
X4812101Y6070600D02*
D03*
X4277502D02*
D03*
D29*
X2806700Y5731698D02*
D03*
X2781300Y4093398D02*
D03*
D30*
X2806700Y6231702D02*
D03*
X2781300Y4593402D02*
D03*
D31*
X6908800Y2705100D02*
D03*
X7162800D02*
D03*
X7416800D02*
D03*
X7670800D02*
D03*
X5245100D02*
D03*
X5499100D02*
D03*
X5753100D02*
D03*
X6007100D02*
D03*
X3644900D02*
D03*
X3898900D02*
D03*
X4152900D02*
D03*
X4406900D02*
D03*
X8509000D02*
D03*
X8763000D02*
D03*
X9017000D02*
D03*
X9271000D02*
D03*
X11099800Y4876800D02*
D03*
Y3860800D02*
D03*
Y4114800D02*
D03*
Y4368800D02*
D03*
Y4622800D02*
D03*
Y5131801D02*
D03*
Y5639801D02*
D03*
Y5385801D02*
D03*
Y5894802D02*
D03*
D32*
X7924800Y2705100D02*
D03*
X6261100D02*
D03*
X4660900D02*
D03*
X9525000D02*
D03*
D33*
X11099800Y3606800D02*
D03*
D34*
X5232400Y5778500D02*
D03*
X8686800Y4406900D02*
D03*
X9095151Y6175675D02*
D03*
%TF.MD5,a9212f000dd5411c43b7f605f229715c*%
M02*
