%TF.GenerationSoftware,Altium Limited,Altium Designer,24.6.1 (21)*%
G04 Layer_Color=8421504*
%FSLAX45Y45*%
%MOMM*%
%TF.SameCoordinates,C77CD831-7174-4571-8234-5D84135F7459*%
%TF.FilePolarity,Positive*%
%TF.FileFunction,Paste,Top*%
%TF.Part,Single*%
G01*
G75*
%TA.AperFunction,SMDPad,CuDef*%
%ADD10R,1.40000X0.95000*%
%ADD11R,1.25000X1.25000*%
%ADD12R,3.75000X12.00000*%
%ADD13R,1.07000X2.16000*%
%ADD15R,0.90000X2.50000*%
%ADD16R,2.50000X0.90000*%
%TA.AperFunction,BGAPad,CuDef*%
%ADD17R,0.90000X0.90000*%
%TA.AperFunction,SMDPad,CuDef*%
%ADD18R,1.52000X0.93000*%
%ADD19R,1.20000X1.20000*%
%ADD20R,0.95000X1.40000*%
G36*
X5024120Y5412390D02*
X4795520D01*
Y5562250D01*
X5024120D01*
Y5412390D01*
D02*
G37*
G36*
X4754880D02*
X4526280D01*
Y5562250D01*
X4754880D01*
Y5412390D01*
D02*
G37*
G36*
X4485640D02*
X4257040D01*
Y5562250D01*
X4485640D01*
Y5412390D01*
D02*
G37*
G36*
X4216400D02*
X3987800D01*
Y5562250D01*
X4216400D01*
Y5412390D01*
D02*
G37*
G36*
X4904740Y5158390D02*
X4528820D01*
Y5371750D01*
X4904740D01*
Y5158390D01*
D02*
G37*
G36*
X4488180D02*
X4112260D01*
Y5371750D01*
X4488180D01*
Y5158390D01*
D02*
G37*
G36*
X4904740Y4904390D02*
X4528820D01*
Y5117750D01*
X4904740D01*
Y4904390D01*
D02*
G37*
G36*
X4488180D02*
X4112260D01*
Y5117750D01*
X4488180D01*
Y4904390D01*
D02*
G37*
G36*
X6731058Y5523762D02*
X6747744Y5516851D01*
X6762761Y5506817D01*
X6775531Y5494046D01*
X6785565Y5479029D01*
X6792477Y5462344D01*
X6796000Y5444630D01*
Y5435600D01*
Y4320540D01*
X6794746Y4319285D01*
Y4310255D01*
X6791222Y4292542D01*
X6784311Y4275856D01*
X6774277Y4260839D01*
X6761506Y4248068D01*
X6746489Y4238035D01*
X6729804Y4231123D01*
X6712090Y4227600D01*
X6703060D01*
X6321000Y4226800D01*
Y5526800D01*
X6704800D01*
X6704315Y5527286D01*
X6713345D01*
X6731058Y5523762D01*
D02*
G37*
G36*
X5871000Y4226800D02*
X5487200D01*
X5487685Y4226314D01*
X5478655D01*
X5460942Y4229838D01*
X5444256Y4236749D01*
X5429239Y4246783D01*
X5416468Y4259554D01*
X5406435Y4274571D01*
X5399523Y4291256D01*
X5396000Y4308970D01*
Y4318000D01*
Y5433060D01*
X5397254Y5434315D01*
Y5443345D01*
X5400778Y5461058D01*
X5407689Y5477744D01*
X5417723Y5492761D01*
X5430494Y5505531D01*
X5445511Y5515565D01*
X5462196Y5522477D01*
X5479910Y5526000D01*
X5488940D01*
X5489740Y5526800D01*
X5871000D01*
Y4226800D01*
D02*
G37*
D10*
X9436100Y5724098D02*
D03*
Y5909102D02*
D03*
X5232400Y3889802D02*
D03*
Y3704798D02*
D03*
Y4829602D02*
D03*
Y4644598D02*
D03*
X3289300Y4626402D02*
D03*
Y4441398D02*
D03*
X9436100Y4766102D02*
D03*
Y4581098D02*
D03*
Y6290102D02*
D03*
Y6105098D02*
D03*
Y4385102D02*
D03*
Y4200098D02*
D03*
X9448800Y3851702D02*
D03*
Y3666698D02*
D03*
X9436100Y5515402D02*
D03*
Y5330398D02*
D03*
X9448800Y3470702D02*
D03*
Y3285698D02*
D03*
X9436100Y5121702D02*
D03*
Y4936698D02*
D03*
D11*
X3657590Y4399102D02*
D03*
Y4059098D02*
D03*
D12*
X5633502Y4876800D02*
D03*
X6558498D02*
D03*
D13*
X4168501Y4164899D02*
D03*
X4338498D02*
D03*
X4508998D02*
D03*
X4678502D02*
D03*
X4848499D02*
D03*
D15*
X8760927Y6108898D02*
D03*
X8633927D02*
D03*
X8506927D02*
D03*
X8379927D02*
D03*
X8252927D02*
D03*
X8125927D02*
D03*
X7998927D02*
D03*
X7871927D02*
D03*
X7744927D02*
D03*
X7617927D02*
D03*
X7490927D02*
D03*
X7363927D02*
D03*
D16*
X7137425Y5933902D02*
D03*
Y5806902D02*
D03*
Y5679902D02*
D03*
Y5552902D02*
D03*
Y5425902D02*
D03*
Y5298902D02*
D03*
Y5171902D02*
D03*
Y5044902D02*
D03*
Y4917902D02*
D03*
Y4790902D02*
D03*
Y4663902D02*
D03*
Y4536902D02*
D03*
Y4409902D02*
D03*
Y4282902D02*
D03*
X8987424Y5933902D02*
D03*
Y5806902D02*
D03*
Y5679902D02*
D03*
Y5552902D02*
D03*
Y5425902D02*
D03*
Y5298902D02*
D03*
Y5171902D02*
D03*
Y5044902D02*
D03*
Y4917902D02*
D03*
Y4790902D02*
D03*
Y4663902D02*
D03*
Y4536902D02*
D03*
Y4409902D02*
D03*
Y4282902D02*
D03*
D17*
X8072425Y4914900D02*
D03*
Y5054900D02*
D03*
Y5194899D02*
D03*
X8212425D02*
D03*
X8352424D02*
D03*
Y5054900D02*
D03*
Y4914900D02*
D03*
X8212425D02*
D03*
Y5054900D02*
D03*
D18*
X3289300Y5611800D02*
D03*
Y5411800D02*
D03*
D19*
X5232400Y4359499D02*
D03*
Y4149501D02*
D03*
Y5324699D02*
D03*
Y5114701D02*
D03*
X3289300Y5070699D02*
D03*
Y4860701D02*
D03*
D20*
X10404902Y4787900D02*
D03*
X10219898D02*
D03*
X10417602Y6286500D02*
D03*
X10232598D02*
D03*
X10760502Y3162300D02*
D03*
X10575498D02*
D03*
Y2908300D02*
D03*
X10760502D02*
D03*
X10404902Y3835400D02*
D03*
X10219898D02*
D03*
X10417602Y5511800D02*
D03*
X10232598D02*
D03*
X10756900Y3632200D02*
D03*
X10571902D02*
D03*
X10575498Y3390900D02*
D03*
X10760502D02*
D03*
%TF.MD5,73299d0ce36302ff9d1b7654bec688df*%
M02*
