%TF.GenerationSoftware,Altium Limited,Altium Designer,24.6.1 (21)*%
G04 Layer_Color=32896*
%FSLAX45Y45*%
%MOMM*%
%TF.SameCoordinates,C77CD831-7174-4571-8234-5D84135F7459*%
%TF.FilePolarity,Positive*%
%TF.FileFunction,Legend,Bot*%
%TF.Part,Single*%
G01*
G75*
%TA.AperFunction,NonConductor*%
%ADD36C,0.10000*%
%ADD37C,0.20000*%
%ADD38C,0.25400*%
G36*
X4063100Y5209520D02*
X4003100D01*
Y5279520D01*
X4063100D01*
Y5209520D01*
D02*
G37*
G36*
X3610195Y4948857D02*
X3611830Y4946480D01*
X3613613Y4944251D01*
X3615396Y4942171D01*
X3617030Y4940536D01*
X3618368Y4939199D01*
X3619259Y4938307D01*
X3619408Y4938159D01*
X3619556Y4938010D01*
X3622380Y4935633D01*
X3625351Y4933404D01*
X3628323Y4931472D01*
X3630998Y4929838D01*
X3633375Y4928500D01*
X3634415Y4928055D01*
X3635307Y4927609D01*
X3635901Y4927163D01*
X3636496Y4926866D01*
X3636793Y4926717D01*
X3636941D01*
Y4914979D01*
X3634861Y4915870D01*
X3632632Y4916910D01*
X3630552Y4917802D01*
X3628620Y4918842D01*
X3626986Y4919734D01*
X3625649Y4920477D01*
X3624757Y4921071D01*
X3624608Y4921220D01*
X3624460D01*
X3621934Y4922705D01*
X3619705Y4924340D01*
X3617773Y4925677D01*
X3616139Y4927015D01*
X3614802Y4928055D01*
X3613761Y4928798D01*
X3613167Y4929392D01*
X3613018Y4929541D01*
Y4853165D01*
X3600983D01*
Y4951235D01*
X3608858D01*
X3610195Y4948857D01*
D02*
G37*
G36*
X3739617Y4853165D02*
X3704550D01*
X3701281Y4853314D01*
X3698309Y4853462D01*
X3695634Y4853760D01*
X3693406Y4854057D01*
X3691474Y4854354D01*
X3690137Y4854503D01*
X3689245Y4854800D01*
X3688948D01*
X3686422Y4855543D01*
X3684193Y4856286D01*
X3682261Y4857029D01*
X3680627Y4857772D01*
X3679290Y4858515D01*
X3678249Y4859109D01*
X3677506Y4859406D01*
X3677358Y4859555D01*
X3675575Y4860892D01*
X3673940Y4862378D01*
X3672306Y4863864D01*
X3671117Y4865201D01*
X3669928Y4866538D01*
X3669185Y4867579D01*
X3668591Y4868173D01*
X3668442Y4868470D01*
X3666957Y4870699D01*
X3665619Y4873076D01*
X3664431Y4875454D01*
X3663539Y4877683D01*
X3662796Y4879763D01*
X3662202Y4881249D01*
X3662053Y4881843D01*
X3661905Y4882289D01*
X3661756Y4882586D01*
Y4882735D01*
X3660864Y4886004D01*
X3660270Y4889421D01*
X3659676Y4892839D01*
X3659379Y4895811D01*
X3659230Y4898485D01*
Y4899674D01*
X3659081Y4900566D01*
Y4901457D01*
Y4902051D01*
Y4902349D01*
Y4902497D01*
X3659230Y4907252D01*
X3659676Y4911561D01*
X3660270Y4915425D01*
X3660716Y4917208D01*
X3661013Y4918842D01*
X3661310Y4920328D01*
X3661756Y4921665D01*
X3662053Y4922854D01*
X3662350Y4923746D01*
X3662647Y4924488D01*
X3662796Y4925083D01*
X3662945Y4925380D01*
Y4925529D01*
X3664579Y4929243D01*
X3666362Y4932512D01*
X3668294Y4935336D01*
X3670226Y4937713D01*
X3671860Y4939645D01*
X3673197Y4941131D01*
X3674238Y4942022D01*
X3674386Y4942319D01*
X3674535D01*
X3676912Y4944102D01*
X3679290Y4945588D01*
X3681667Y4946777D01*
X3683896Y4947669D01*
X3685828Y4948411D01*
X3687462Y4948857D01*
X3688056Y4949154D01*
X3688354D01*
X3688651Y4949303D01*
X3688799D01*
X3691177Y4949749D01*
X3694000Y4950195D01*
X3696972Y4950492D01*
X3699646Y4950640D01*
X3702172Y4950789D01*
X3739617D01*
Y4853165D01*
D02*
G37*
G36*
X6046891Y4923457D02*
X6048525Y4921080D01*
X6050308Y4918851D01*
X6052092Y4916771D01*
X6053726Y4915136D01*
X6055063Y4913799D01*
X6055955Y4912907D01*
X6056103Y4912759D01*
X6056252Y4912610D01*
X6059075Y4910233D01*
X6062047Y4908004D01*
X6065019Y4906072D01*
X6067693Y4904438D01*
X6070071Y4903100D01*
X6071111Y4902655D01*
X6072003Y4902209D01*
X6072597Y4901763D01*
X6073191Y4901466D01*
X6073488Y4901317D01*
X6073637D01*
Y4889579D01*
X6071557Y4890470D01*
X6069328Y4891510D01*
X6067248Y4892402D01*
X6065316Y4893442D01*
X6063682Y4894334D01*
X6062344Y4895077D01*
X6061453Y4895671D01*
X6061304Y4895820D01*
X6061156D01*
X6058629Y4897305D01*
X6056401Y4898940D01*
X6054469Y4900277D01*
X6052834Y4901615D01*
X6051497Y4902655D01*
X6050457Y4903398D01*
X6049863Y4903992D01*
X6049714Y4904141D01*
Y4827765D01*
X6037678D01*
Y4925835D01*
X6045554D01*
X6046891Y4923457D01*
D02*
G37*
G36*
X6154321Y4827765D02*
X6093400D01*
Y4839207D01*
X6141394D01*
Y4925389D01*
X6154321D01*
Y4827765D01*
D02*
G37*
G36*
X3989381Y5838080D02*
X3991016Y5835703D01*
X3992799Y5833474D01*
X3994582Y5831394D01*
X3996216Y5829759D01*
X3997554Y5828422D01*
X3998445Y5827530D01*
X3998594Y5827382D01*
X3998742Y5827233D01*
X4001566Y5824856D01*
X4004537Y5822627D01*
X4007509Y5820695D01*
X4010184Y5819061D01*
X4012561Y5817723D01*
X4013601Y5817278D01*
X4014493Y5816832D01*
X4015087Y5816386D01*
X4015682Y5816089D01*
X4015979Y5815940D01*
X4016127D01*
Y5804202D01*
X4014047Y5805093D01*
X4011818Y5806133D01*
X4009738Y5807025D01*
X4007806Y5808065D01*
X4006172Y5808957D01*
X4004835Y5809700D01*
X4003943Y5810294D01*
X4003794Y5810443D01*
X4003646D01*
X4001120Y5811928D01*
X3998891Y5813563D01*
X3996959Y5814900D01*
X3995325Y5816238D01*
X3993987Y5817278D01*
X3992947Y5818021D01*
X3992353Y5818615D01*
X3992204Y5818764D01*
Y5742388D01*
X3980169D01*
Y5840458D01*
X3988044D01*
X3989381Y5838080D01*
D02*
G37*
G36*
X4081358Y5841349D02*
X4085816Y5840755D01*
X4089828Y5839715D01*
X4091611Y5839269D01*
X4093246Y5838675D01*
X4094731Y5838080D01*
X4096217Y5837635D01*
X4097406Y5837040D01*
X4098298Y5836594D01*
X4099189Y5836297D01*
X4099784Y5836000D01*
X4100081Y5835703D01*
X4100229D01*
X4103944Y5833325D01*
X4107362Y5830502D01*
X4110185Y5827679D01*
X4112414Y5824856D01*
X4114345Y5822330D01*
X4115088Y5821290D01*
X4115683Y5820398D01*
X4116128Y5819507D01*
X4116426Y5818912D01*
X4116723Y5818615D01*
Y5818466D01*
X4118654Y5814157D01*
X4120140Y5809551D01*
X4121032Y5805093D01*
X4121775Y5800933D01*
X4122072Y5799001D01*
X4122221Y5797367D01*
X4122369Y5795732D01*
Y5794395D01*
X4122518Y5793355D01*
Y5792612D01*
Y5792017D01*
Y5791869D01*
X4122369Y5786668D01*
X4121775Y5781913D01*
X4120883Y5777456D01*
X4120438Y5775375D01*
X4119992Y5773592D01*
X4119546Y5771809D01*
X4119100Y5770323D01*
X4118654Y5768986D01*
X4118209Y5767797D01*
X4117911Y5766906D01*
X4117614Y5766311D01*
X4117466Y5765866D01*
Y5765717D01*
X4115385Y5761408D01*
X4112859Y5757693D01*
X4110482Y5754424D01*
X4107956Y5751898D01*
X4105876Y5749818D01*
X4104093Y5748332D01*
X4103350Y5747886D01*
X4102904Y5747440D01*
X4102607Y5747292D01*
X4102458Y5747143D01*
X4100526Y5745954D01*
X4098446Y5745063D01*
X4094286Y5743428D01*
X4089977Y5742388D01*
X4085816Y5741497D01*
X4084033Y5741348D01*
X4082250Y5741051D01*
X4080764Y5740902D01*
X4079427D01*
X4078238Y5740754D01*
X4076752D01*
X4073929Y5740902D01*
X4071254Y5741051D01*
X4066351Y5742091D01*
X4064122Y5742685D01*
X4061893Y5743428D01*
X4059961Y5744171D01*
X4058178Y5744914D01*
X4056544Y5745657D01*
X4055207Y5746400D01*
X4054018Y5747143D01*
X4052978Y5747738D01*
X4052086Y5748332D01*
X4051492Y5748778D01*
X4051195Y5748926D01*
X4051046Y5749075D01*
X4049114Y5750709D01*
X4047331Y5752492D01*
X4044359Y5756356D01*
X4041685Y5760368D01*
X4039753Y5764380D01*
X4038862Y5766163D01*
X4038267Y5767797D01*
X4037673Y5769432D01*
X4037079Y5770620D01*
X4036781Y5771809D01*
X4036484Y5772552D01*
X4036336Y5773146D01*
Y5773295D01*
X4049263Y5776564D01*
X4050452Y5772255D01*
X4051938Y5768392D01*
X4053721Y5765271D01*
X4055355Y5762597D01*
X4056990Y5760665D01*
X4058327Y5759179D01*
X4059218Y5758287D01*
X4059367Y5758139D01*
X4059516Y5757990D01*
X4062487Y5755910D01*
X4065459Y5754424D01*
X4068580Y5753235D01*
X4071403Y5752492D01*
X4073929Y5752047D01*
X4075118Y5751898D01*
X4076009D01*
X4076752Y5751749D01*
X4077792D01*
X4081061Y5751898D01*
X4084182Y5752492D01*
X4087005Y5753235D01*
X4089382Y5753978D01*
X4091462Y5754870D01*
X4093097Y5755464D01*
X4093691Y5755761D01*
X4094137Y5756059D01*
X4094286Y5756207D01*
X4094434D01*
X4097109Y5758139D01*
X4099338Y5760368D01*
X4101269Y5762597D01*
X4102904Y5764974D01*
X4104093Y5766906D01*
X4104836Y5768689D01*
X4105133Y5769283D01*
X4105430Y5769729D01*
X4105579Y5770026D01*
Y5770175D01*
X4106767Y5773741D01*
X4107659Y5777456D01*
X4108253Y5781170D01*
X4108699Y5784588D01*
X4108848Y5786074D01*
X4108996Y5787411D01*
Y5788748D01*
X4109145Y5789789D01*
Y5790680D01*
Y5791274D01*
Y5791720D01*
Y5791869D01*
X4108996Y5795435D01*
X4108699Y5798853D01*
X4108253Y5801973D01*
X4107659Y5804796D01*
X4107064Y5807174D01*
X4106916Y5808214D01*
X4106619Y5808957D01*
X4106470Y5809700D01*
X4106321Y5810145D01*
X4106173Y5810443D01*
Y5810591D01*
X4104836Y5813860D01*
X4103201Y5816832D01*
X4101418Y5819209D01*
X4099784Y5821290D01*
X4098149Y5822924D01*
X4096812Y5824113D01*
X4095920Y5824856D01*
X4095772Y5825153D01*
X4095623D01*
X4092651Y5826936D01*
X4089531Y5828273D01*
X4086410Y5829313D01*
X4083439Y5829908D01*
X4080764Y5830354D01*
X4079724Y5830502D01*
X4078684D01*
X4077941Y5830651D01*
X4076901D01*
X4073334Y5830502D01*
X4070214Y5829908D01*
X4067391Y5829165D01*
X4065162Y5828273D01*
X4063230Y5827233D01*
X4061893Y5826490D01*
X4061002Y5825896D01*
X4060704Y5825747D01*
X4058327Y5823667D01*
X4056395Y5821290D01*
X4054612Y5818615D01*
X4053275Y5816089D01*
X4052235Y5813860D01*
X4051789Y5812820D01*
X4051343Y5811928D01*
X4051046Y5811185D01*
X4050897Y5810591D01*
X4050749Y5810294D01*
Y5810145D01*
X4037970Y5813117D01*
X4039753Y5817872D01*
X4040793Y5820101D01*
X4041833Y5822033D01*
X4043022Y5823964D01*
X4044211Y5825747D01*
X4045251Y5827233D01*
X4046440Y5828719D01*
X4047480Y5829908D01*
X4048520Y5830948D01*
X4049560Y5831988D01*
X4050303Y5832731D01*
X4051046Y5833325D01*
X4051492Y5833771D01*
X4051789Y5833920D01*
X4051938Y5834068D01*
X4053869Y5835406D01*
X4055801Y5836594D01*
X4057881Y5837635D01*
X4059961Y5838526D01*
X4064122Y5839863D01*
X4067985Y5840755D01*
X4069768Y5841052D01*
X4071403Y5841201D01*
X4072889Y5841349D01*
X4074077Y5841498D01*
X4075118Y5841646D01*
X4076603D01*
X4081358Y5841349D01*
D02*
G37*
G36*
X4300231Y5742388D02*
X4287304D01*
Y5785777D01*
X4270662D01*
X4269176Y5785628D01*
X4267987D01*
X4266947Y5785479D01*
X4266204Y5785331D01*
X4265610D01*
X4265313Y5785182D01*
X4265164D01*
X4262935Y5784439D01*
X4261152Y5783548D01*
X4260409Y5783102D01*
X4259815Y5782805D01*
X4259518Y5782656D01*
X4259369Y5782508D01*
X4258180Y5781765D01*
X4257140Y5780725D01*
X4254911Y5778644D01*
X4254169Y5777604D01*
X4253426Y5776713D01*
X4252980Y5776118D01*
X4252831Y5775970D01*
X4251345Y5774038D01*
X4249859Y5771958D01*
X4248225Y5769729D01*
X4246739Y5767500D01*
X4245402Y5765568D01*
X4244362Y5764082D01*
X4244064Y5763488D01*
X4243767Y5763042D01*
X4243470Y5762745D01*
Y5762597D01*
X4230543Y5742388D01*
X4214346D01*
X4231286Y5768837D01*
X4233217Y5771661D01*
X4235149Y5774187D01*
X4236932Y5776415D01*
X4238567Y5778347D01*
X4239904Y5779833D01*
X4240944Y5781022D01*
X4241687Y5781616D01*
X4241984Y5781913D01*
X4243024Y5782805D01*
X4244362Y5783696D01*
X4246888Y5785331D01*
X4247928Y5785925D01*
X4248819Y5786371D01*
X4249414Y5786668D01*
X4249711Y5786817D01*
X4247185Y5787262D01*
X4244807Y5787708D01*
X4242579Y5788303D01*
X4240647Y5789046D01*
X4238715Y5789789D01*
X4237081Y5790531D01*
X4235446Y5791274D01*
X4234109Y5792017D01*
X4232920Y5792760D01*
X4231880Y5793355D01*
X4230988Y5794098D01*
X4230246Y5794543D01*
X4229800Y5795138D01*
X4229354Y5795435D01*
X4229057Y5795732D01*
X4227868Y5797069D01*
X4226828Y5798555D01*
X4225045Y5801527D01*
X4223856Y5804350D01*
X4223113Y5807174D01*
X4222519Y5809551D01*
X4222370Y5810591D01*
Y5811483D01*
X4222222Y5812226D01*
Y5812820D01*
Y5813117D01*
Y5813266D01*
X4222370Y5816238D01*
X4222816Y5818912D01*
X4223559Y5821438D01*
X4224302Y5823667D01*
X4225045Y5825450D01*
X4225788Y5826787D01*
X4226234Y5827679D01*
X4226382Y5827976D01*
X4228017Y5830354D01*
X4229800Y5832285D01*
X4231583Y5833920D01*
X4233366Y5835108D01*
X4234852Y5836149D01*
X4236041Y5836892D01*
X4236932Y5837189D01*
X4237081Y5837337D01*
X4237229D01*
X4238567Y5837783D01*
X4240052Y5838229D01*
X4243173Y5838823D01*
X4246442Y5839418D01*
X4249562Y5839715D01*
X4252534Y5839863D01*
X4253723D01*
X4254911Y5840012D01*
X4300231D01*
Y5742388D01*
D02*
G37*
G36*
X4209294Y5828571D02*
X4177199D01*
Y5742388D01*
X4164272D01*
Y5828571D01*
X4132176D01*
Y5840012D01*
X4209294D01*
Y5828571D01*
D02*
G37*
%LPC*%
G36*
X3726690Y4939348D02*
X3706333D01*
X3702321Y4939199D01*
X3698903Y4939050D01*
X3696080Y4938753D01*
X3693703Y4938307D01*
X3691920Y4937862D01*
X3690731Y4937564D01*
X3689988Y4937416D01*
X3689691Y4937267D01*
X3687165Y4935930D01*
X3684787Y4934295D01*
X3682707Y4932512D01*
X3680924Y4930581D01*
X3679438Y4928946D01*
X3678398Y4927460D01*
X3677952Y4926866D01*
X3677804Y4926420D01*
X3677506Y4926272D01*
Y4926123D01*
X3676615Y4924488D01*
X3675872Y4922705D01*
X3674535Y4918991D01*
X3673643Y4915127D01*
X3673049Y4911264D01*
X3672900Y4909629D01*
X3672752Y4907995D01*
X3672603Y4906509D01*
X3672454Y4905172D01*
Y4904132D01*
Y4903389D01*
Y4902794D01*
Y4902646D01*
X3672603Y4898634D01*
X3672900Y4895068D01*
X3673346Y4891799D01*
X3673792Y4888975D01*
X3674238Y4886747D01*
X3674535Y4885855D01*
X3674683Y4885112D01*
X3674832Y4884518D01*
X3674980Y4884072D01*
X3675129Y4883923D01*
Y4883775D01*
X3676169Y4881100D01*
X3677358Y4878574D01*
X3678547Y4876494D01*
X3679587Y4874711D01*
X3680627Y4873374D01*
X3681518Y4872333D01*
X3682113Y4871590D01*
X3682261Y4871442D01*
X3683599Y4870253D01*
X3684936Y4869213D01*
X3686422Y4868470D01*
X3687908Y4867727D01*
X3689097Y4867133D01*
X3690137Y4866687D01*
X3690731Y4866538D01*
X3691028Y4866390D01*
X3693257Y4865795D01*
X3695634Y4865350D01*
X3698160Y4865053D01*
X3700538Y4864904D01*
X3702767Y4864755D01*
X3704401Y4864607D01*
X3726690D01*
Y4939348D01*
D02*
G37*
G36*
X4287304Y5829165D02*
X4256546D01*
X4252683Y5829016D01*
X4249414Y5828422D01*
X4246739Y5827828D01*
X4244510Y5826936D01*
X4242876Y5826193D01*
X4241538Y5825450D01*
X4240944Y5824856D01*
X4240647Y5824707D01*
X4239012Y5822924D01*
X4237675Y5820992D01*
X4236783Y5819061D01*
X4236189Y5817278D01*
X4235892Y5815643D01*
X4235595Y5814454D01*
Y5813563D01*
Y5813414D01*
Y5813266D01*
X4235743Y5811483D01*
X4236041Y5809848D01*
X4236486Y5808362D01*
X4236932Y5807174D01*
X4237378Y5805985D01*
X4237824Y5805242D01*
X4238121Y5804648D01*
X4238269Y5804499D01*
X4239310Y5803162D01*
X4240498Y5801973D01*
X4241836Y5800933D01*
X4243024Y5800041D01*
X4244064Y5799447D01*
X4244956Y5799001D01*
X4245550Y5798853D01*
X4245847Y5798704D01*
X4247779Y5798110D01*
X4250008Y5797664D01*
X4252385Y5797367D01*
X4254614Y5797218D01*
X4256546Y5797069D01*
X4258180Y5796921D01*
X4287304D01*
Y5829165D01*
D02*
G37*
%LPD*%
D36*
X3640303Y5244699D02*
X3700302D01*
X3642802Y5202199D02*
X3670300Y5244699D01*
X3697798Y5202199D01*
X3642802D02*
X3697798D01*
X3580298Y5019700D02*
Y5419700D01*
X3760302Y5019700D02*
Y5419700D01*
X3580298Y5299700D02*
X3760302D01*
D37*
X4863099Y5209520D02*
X5003099D01*
X4863099D02*
Y5449519D01*
X4783099Y5209520D02*
Y5449519D01*
X4693102Y5209520D02*
X4783099D01*
X4693102D02*
Y5449519D01*
X4613102Y5209520D02*
Y5449519D01*
X4523100Y5209520D02*
X4613102D01*
X4523100D02*
Y5449519D01*
X4443100Y5209520D02*
Y5449519D01*
X4353098Y5209520D02*
X4443100D01*
X4353098D02*
Y5449519D01*
X4273098Y5209520D02*
Y5449519D01*
X4183101Y5209520D02*
X4273098D01*
X4183101D02*
Y5449519D01*
X4103101Y5209520D02*
Y5449519D01*
X3963101Y5209520D02*
X4103101D01*
X3963101Y4389521D02*
Y5209520D01*
X5003099Y4389521D02*
Y5209520D01*
X8051800Y2577602D02*
Y2835102D01*
X6779301D02*
X8051800D01*
X6779301Y2575098D02*
Y2835102D01*
Y2575098D02*
X8049301D01*
X6388100Y2577602D02*
Y2835102D01*
X5115601D02*
X6388100D01*
X5115601Y2575098D02*
Y2835102D01*
Y2575098D02*
X6385601D01*
X4787900Y2577602D02*
Y2835102D01*
X3515401D02*
X4787900D01*
X3515401Y2575098D02*
Y2835102D01*
Y2575098D02*
X4785401D01*
X9652000Y2577602D02*
Y2835102D01*
X8379501D02*
X9652000D01*
X8379501Y2575103D02*
Y2835102D01*
Y2575103D02*
X9649501D01*
X10979800Y3481299D02*
X11219800D01*
Y6032500D01*
X10979800D02*
X11219800D01*
X10979800Y3481299D02*
Y6032500D01*
D38*
X5896000Y4236801D02*
X6296000D01*
X5896000Y5516799D02*
X6296000D01*
%TF.MD5,71b56cb28edc4a648b9950b33f0d535f*%
M02*
