%TF.GenerationSoftware,Altium Limited,Altium Designer,24.6.1 (21)*%
G04 Layer_Color=8388736*
%FSLAX45Y45*%
%MOMM*%
%TF.SameCoordinates,C77CD831-7174-4571-8234-5D84135F7459*%
%TF.FilePolarity,Negative*%
%TF.FileFunction,Soldermask,Top*%
%TF.Part,Single*%
G01*
G75*
%TA.AperFunction,ComponentPad*%
%ADD25R,1.32080X1.32080*%
%ADD26C,1.32080*%
%TA.AperFunction,SMDPad,CuDef*%
%ADD39R,1.60320X1.15320*%
%ADD40R,1.45320X1.45320*%
%ADD41R,3.95320X12.20320*%
%ADD42R,1.17160X2.26160*%
%ADD43R,8.43160X7.09160*%
%ADD44R,1.10320X2.70320*%
%ADD45R,2.70320X1.10320*%
%TA.AperFunction,BGAPad,CuDef*%
%ADD46R,1.10320X1.10320*%
%TA.AperFunction,SMDPad,CuDef*%
%ADD47R,1.72320X1.13320*%
%ADD48R,1.40320X1.40320*%
%ADD49R,1.15320X1.60320*%
%TA.AperFunction,ViaPad*%
%ADD50C,1.00320*%
%ADD51C,4.20320*%
%TA.AperFunction,ComponentPad*%
%ADD52C,1.20320*%
%ADD53R,1.20320X1.20320*%
%ADD54R,4.20320X4.20320*%
%ADD55C,4.20320*%
%ADD56C,1.70320*%
%ADD57R,1.70320X1.70320*%
%ADD58R,1.70320X1.70320*%
%TA.AperFunction,ViaPad*%
%ADD59C,1.47320*%
G36*
X5053580Y5385820D02*
X4903420D01*
Y5586980D01*
X5053580D01*
Y5385820D01*
D02*
G37*
G36*
X4123580D02*
X3963420D01*
Y5586980D01*
X4123580D01*
Y5385820D01*
D02*
G37*
G36*
X6713678Y5537446D02*
X6714011D01*
X6714341Y5537402D01*
X6714674Y5537380D01*
X6715000Y5537316D01*
X6715331Y5537272D01*
X6733045Y5533748D01*
X6733368Y5533662D01*
X6733693Y5533597D01*
X6734008Y5533490D01*
X6734331Y5533404D01*
X6734639Y5533276D01*
X6734955Y5533169D01*
X6751640Y5526257D01*
X6751938Y5526110D01*
X6752247Y5525982D01*
X6752536Y5525815D01*
X6752835Y5525668D01*
X6753110Y5525484D01*
X6753400Y5525317D01*
X6768417Y5515283D01*
X6768683Y5515079D01*
X6768959Y5514894D01*
X6769208Y5514676D01*
X6769474Y5514472D01*
X6769711Y5514235D01*
X6769960Y5514016D01*
X6782731Y5501246D01*
X6782950Y5500996D01*
X6783187Y5500759D01*
X6783390Y5500494D01*
X6783609Y5500245D01*
X6783794Y5499967D01*
X6783997Y5499703D01*
X6794031Y5484686D01*
X6794199Y5484395D01*
X6794383Y5484120D01*
X6794530Y5483822D01*
X6794697Y5483532D01*
X6794825Y5483224D01*
X6794972Y5482926D01*
X6801883Y5466240D01*
X6801990Y5465926D01*
X6802118Y5465616D01*
X6802205Y5465294D01*
X6802312Y5464979D01*
X6802377Y5464652D01*
X6802463Y5464330D01*
X6805986Y5446617D01*
X6806030Y5446285D01*
X6806095Y5445959D01*
X6806117Y5445627D01*
X6806160Y5445296D01*
Y5444963D01*
X6806182Y5444630D01*
Y5435600D01*
Y4320540D01*
X6806095Y4319211D01*
X6805835Y4317905D01*
X6805407Y4316643D01*
X6804927Y4315671D01*
Y4310255D01*
X6804906Y4309922D01*
Y4309589D01*
X6804862Y4309259D01*
X6804840Y4308926D01*
X6804776Y4308600D01*
X6804732Y4308268D01*
X6801208Y4290555D01*
X6801122Y4290232D01*
X6801057Y4289906D01*
X6800950Y4289592D01*
X6800864Y4289269D01*
X6800736Y4288961D01*
X6800629Y4288645D01*
X6793717Y4271959D01*
X6793570Y4271661D01*
X6793442Y4271353D01*
X6793275Y4271063D01*
X6793128Y4270765D01*
X6792944Y4270490D01*
X6792777Y4270199D01*
X6782743Y4255182D01*
X6782539Y4254917D01*
X6782354Y4254641D01*
X6782136Y4254391D01*
X6781932Y4254126D01*
X6781695Y4253889D01*
X6781476Y4253639D01*
X6768706Y4240869D01*
X6768456Y4240650D01*
X6768219Y4240413D01*
X6767954Y4240210D01*
X6767705Y4239991D01*
X6767427Y4239805D01*
X6767163Y4239603D01*
X6752146Y4229569D01*
X6751855Y4229401D01*
X6751580Y4229217D01*
X6751282Y4229070D01*
X6750992Y4228903D01*
X6750684Y4228775D01*
X6750386Y4228628D01*
X6733700Y4221716D01*
X6733385Y4221609D01*
X6733076Y4221482D01*
X6732755Y4221395D01*
X6732439Y4221288D01*
X6732112Y4221223D01*
X6731790Y4221137D01*
X6714076Y4217614D01*
X6713745Y4217570D01*
X6713419Y4217505D01*
X6713087Y4217483D01*
X6712756Y4217440D01*
X6712423D01*
X6712090Y4217418D01*
X6703081D01*
X6321021Y4216618D01*
X6321010Y4216619D01*
X6321000Y4216618D01*
X6320360Y4216660D01*
X6319692Y4216703D01*
X6319682Y4216705D01*
X6319671Y4216705D01*
X6319061Y4216827D01*
X6318385Y4216960D01*
X6318374Y4216963D01*
X6318365Y4216965D01*
X6317757Y4217172D01*
X6317124Y4217385D01*
X6317114Y4217390D01*
X6317104Y4217393D01*
X6316502Y4217690D01*
X6315928Y4217972D01*
X6315919Y4217978D01*
X6315909Y4217982D01*
X6315350Y4218356D01*
X6314819Y4218709D01*
X6314811Y4218716D01*
X6314802Y4218722D01*
X6314301Y4219162D01*
X6313815Y4219585D01*
X6313808Y4219594D01*
X6313800Y4219600D01*
X6313390Y4220069D01*
X6312935Y4220585D01*
X6312929Y4220594D01*
X6312922Y4220602D01*
X6312579Y4221115D01*
X6312193Y4221691D01*
X6312188Y4221700D01*
X6312182Y4221709D01*
X6311897Y4222287D01*
X6311601Y4222884D01*
X6311598Y4222894D01*
X6311593Y4222904D01*
X6311379Y4223535D01*
X6311171Y4224144D01*
X6311169Y4224154D01*
X6311165Y4224165D01*
X6311035Y4224819D01*
X6310908Y4225450D01*
X6310907Y4225461D01*
X6310905Y4225471D01*
X6310863Y4226118D01*
X6310818Y4226779D01*
X6310819Y4226790D01*
X6310818Y4226800D01*
Y5526800D01*
X6310905Y5528129D01*
X6311165Y5529435D01*
X6311593Y5530696D01*
X6312182Y5531891D01*
X6312922Y5532998D01*
X6313800Y5534000D01*
X6314802Y5534878D01*
X6315909Y5535618D01*
X6317104Y5536207D01*
X6318365Y5536635D01*
X6319671Y5536895D01*
X6321000Y5536982D01*
X6701271D01*
X6701679Y5537120D01*
X6702986Y5537380D01*
X6704315Y5537467D01*
X6713345D01*
X6713678Y5537446D01*
D02*
G37*
G36*
X5872329Y5536895D02*
X5873635Y5536635D01*
X5874896Y5536207D01*
X5876091Y5535618D01*
X5877198Y5534878D01*
X5878200Y5534000D01*
X5879078Y5532998D01*
X5879818Y5531891D01*
X5880407Y5530696D01*
X5880835Y5529435D01*
X5881095Y5528129D01*
X5881182Y5526800D01*
Y4226800D01*
X5881095Y4225471D01*
X5880835Y4224165D01*
X5880407Y4222904D01*
X5879818Y4221709D01*
X5879078Y4220602D01*
X5878200Y4219600D01*
X5877198Y4218722D01*
X5876091Y4217982D01*
X5874896Y4217393D01*
X5873635Y4216965D01*
X5872329Y4216705D01*
X5871000Y4216618D01*
X5490729D01*
X5490321Y4216480D01*
X5489014Y4216220D01*
X5487685Y4216133D01*
X5478655D01*
X5478322Y4216154D01*
X5477989D01*
X5477659Y4216198D01*
X5477326Y4216220D01*
X5477000Y4216284D01*
X5476669Y4216328D01*
X5458955Y4219851D01*
X5458632Y4219938D01*
X5458306Y4220003D01*
X5457992Y4220109D01*
X5457669Y4220196D01*
X5457361Y4220324D01*
X5457045Y4220431D01*
X5440359Y4227343D01*
X5440061Y4227490D01*
X5439753Y4227617D01*
X5439463Y4227785D01*
X5439165Y4227932D01*
X5438890Y4228116D01*
X5438599Y4228283D01*
X5423582Y4238317D01*
X5423317Y4238521D01*
X5423041Y4238705D01*
X5422791Y4238924D01*
X5422526Y4239128D01*
X5422289Y4239364D01*
X5422039Y4239583D01*
X5409269Y4252354D01*
X5409050Y4252604D01*
X5408813Y4252840D01*
X5408610Y4253105D01*
X5408391Y4253355D01*
X5408205Y4253633D01*
X5408003Y4253897D01*
X5397969Y4268914D01*
X5397801Y4269204D01*
X5397617Y4269480D01*
X5397470Y4269778D01*
X5397303Y4270067D01*
X5397175Y4270376D01*
X5397028Y4270674D01*
X5390116Y4287359D01*
X5390009Y4287675D01*
X5389882Y4287984D01*
X5389795Y4288305D01*
X5389688Y4288621D01*
X5389623Y4288948D01*
X5389537Y4289270D01*
X5386014Y4306983D01*
X5385970Y4307314D01*
X5385905Y4307641D01*
X5385883Y4307973D01*
X5385840Y4308304D01*
Y4308636D01*
X5385818Y4308970D01*
Y4318000D01*
Y5433060D01*
X5385905Y5434389D01*
X5386165Y5435695D01*
X5386593Y5436957D01*
X5387073Y5437929D01*
Y5443345D01*
X5387094Y5443678D01*
Y5444011D01*
X5387138Y5444341D01*
X5387160Y5444674D01*
X5387224Y5445000D01*
X5387268Y5445331D01*
X5390791Y5463044D01*
X5390878Y5463367D01*
X5390943Y5463693D01*
X5391049Y5464008D01*
X5391136Y5464331D01*
X5391264Y5464639D01*
X5391371Y5464955D01*
X5398283Y5481640D01*
X5398430Y5481938D01*
X5398557Y5482247D01*
X5398725Y5482536D01*
X5398872Y5482835D01*
X5399056Y5483110D01*
X5399223Y5483400D01*
X5409257Y5498417D01*
X5409461Y5498683D01*
X5409645Y5498959D01*
X5409864Y5499208D01*
X5410068Y5499474D01*
X5410304Y5499711D01*
X5410523Y5499960D01*
X5423294Y5512731D01*
X5423544Y5512950D01*
X5423780Y5513187D01*
X5424045Y5513390D01*
X5424295Y5513609D01*
X5424573Y5513794D01*
X5424837Y5513997D01*
X5439854Y5524031D01*
X5440144Y5524199D01*
X5440420Y5524383D01*
X5440718Y5524530D01*
X5441007Y5524697D01*
X5441316Y5524825D01*
X5441614Y5524972D01*
X5458299Y5531883D01*
X5458614Y5531990D01*
X5458923Y5532118D01*
X5459246Y5532205D01*
X5459561Y5532312D01*
X5459887Y5532377D01*
X5460210Y5532463D01*
X5477923Y5535986D01*
X5478255Y5536030D01*
X5478581Y5536095D01*
X5478913Y5536117D01*
X5479244Y5536160D01*
X5479576D01*
X5479910Y5536182D01*
X5485793D01*
X5485843Y5536207D01*
X5487105Y5536635D01*
X5488411Y5536895D01*
X5489740Y5536982D01*
X5871000D01*
X5872329Y5536895D01*
D02*
G37*
D25*
X9931400Y5772501D02*
D03*
Y4210401D02*
D03*
X9906000Y3334101D02*
D03*
X9931400Y4997801D02*
D03*
D26*
Y6032500D02*
D03*
Y6292499D02*
D03*
Y4730399D02*
D03*
Y4470400D02*
D03*
X9906000Y3854099D02*
D03*
Y3594100D02*
D03*
X9931400Y5517799D02*
D03*
Y5257800D02*
D03*
D39*
X9436100Y5724098D02*
D03*
Y5909102D02*
D03*
X5232400Y3889802D02*
D03*
Y3704798D02*
D03*
Y4829602D02*
D03*
Y4644598D02*
D03*
X3289300Y4626402D02*
D03*
Y4441398D02*
D03*
X9436100Y4766102D02*
D03*
Y4581098D02*
D03*
Y6290102D02*
D03*
Y6105098D02*
D03*
Y4385102D02*
D03*
Y4200098D02*
D03*
X9448800Y3851702D02*
D03*
Y3666698D02*
D03*
X9436100Y5515402D02*
D03*
Y5330398D02*
D03*
X9448800Y3470702D02*
D03*
Y3285698D02*
D03*
X9436100Y5121702D02*
D03*
Y4936698D02*
D03*
D40*
X3657590Y4399102D02*
D03*
Y4059098D02*
D03*
D41*
X5633502Y4876800D02*
D03*
X6558498D02*
D03*
D42*
X4168501Y4164899D02*
D03*
X4338498D02*
D03*
X4508998D02*
D03*
X4678502D02*
D03*
X4848499D02*
D03*
D43*
X4508500Y5232400D02*
D03*
D44*
X8760927Y6108898D02*
D03*
X8633927D02*
D03*
X8506927D02*
D03*
X8379927D02*
D03*
X8252927D02*
D03*
X8125927D02*
D03*
X7998927D02*
D03*
X7871927D02*
D03*
X7744927D02*
D03*
X7617927D02*
D03*
X7490927D02*
D03*
X7363927D02*
D03*
D45*
X7137425Y5933902D02*
D03*
Y5806902D02*
D03*
Y5679902D02*
D03*
Y5552902D02*
D03*
Y5425902D02*
D03*
Y5298902D02*
D03*
Y5171902D02*
D03*
Y5044902D02*
D03*
Y4917902D02*
D03*
Y4790902D02*
D03*
Y4663902D02*
D03*
Y4536902D02*
D03*
Y4409902D02*
D03*
Y4282902D02*
D03*
X8987424Y5933902D02*
D03*
Y5806902D02*
D03*
Y5679902D02*
D03*
Y5552902D02*
D03*
Y5425902D02*
D03*
Y5298902D02*
D03*
Y5171902D02*
D03*
Y5044902D02*
D03*
Y4917902D02*
D03*
Y4790902D02*
D03*
Y4663902D02*
D03*
Y4536902D02*
D03*
Y4409902D02*
D03*
Y4282902D02*
D03*
D46*
X8072425Y4914900D02*
D03*
Y5054900D02*
D03*
Y5194899D02*
D03*
X8212425D02*
D03*
X8352424D02*
D03*
Y5054900D02*
D03*
Y4914900D02*
D03*
X8212425D02*
D03*
Y5054900D02*
D03*
D47*
X3289300Y5611800D02*
D03*
Y5411800D02*
D03*
D48*
X5232400Y4359499D02*
D03*
Y4149501D02*
D03*
Y5324699D02*
D03*
Y5114701D02*
D03*
X3289300Y5070699D02*
D03*
Y4860701D02*
D03*
D49*
X10404902Y4787900D02*
D03*
X10219898D02*
D03*
X10417602Y6286500D02*
D03*
X10232598D02*
D03*
X10760502Y3162300D02*
D03*
X10575498D02*
D03*
Y2908300D02*
D03*
X10760502D02*
D03*
X10404902Y3835400D02*
D03*
X10219898D02*
D03*
X10417602Y5511800D02*
D03*
X10232598D02*
D03*
X10756900Y3632200D02*
D03*
X10571902D02*
D03*
X10575498Y3390900D02*
D03*
X10760502D02*
D03*
D50*
X7912100Y5194300D02*
D03*
Y5054600D02*
D03*
Y4914900D02*
D03*
X8077200Y4775200D02*
D03*
X8216900D02*
D03*
X8356600D02*
D03*
X8483600Y4914900D02*
D03*
Y5067300D02*
D03*
Y5194300D02*
D03*
X8343900Y5346700D02*
D03*
X8204200D02*
D03*
X8077200D02*
D03*
X4660900Y2943627D02*
D03*
X6273800Y2946400D02*
D03*
X7937500D02*
D03*
X9192900Y5627633D02*
D03*
X9127500Y3848100D02*
D03*
X9256400Y5737843D02*
D03*
X9300700Y5880100D02*
D03*
X10033000Y3086100D02*
D03*
X10147300Y3175000D02*
D03*
X8566887Y4572000D02*
D03*
X8797688Y4609610D02*
D03*
D51*
X2908300Y2882900D02*
D03*
X11264900D02*
D03*
D52*
X4687499Y3759200D02*
D03*
X4179499Y3746500D02*
D03*
X4662099Y6070600D02*
D03*
X4127500D02*
D03*
D53*
X4837501Y3759200D02*
D03*
X4329501Y3746500D02*
D03*
X4812101Y6070600D02*
D03*
X4277502D02*
D03*
D54*
X2806700Y5731698D02*
D03*
X2781300Y4093398D02*
D03*
D55*
X2806700Y6231702D02*
D03*
X2781300Y4593402D02*
D03*
D56*
X6908800Y2705100D02*
D03*
X7162800D02*
D03*
X7416800D02*
D03*
X7670800D02*
D03*
X5245100D02*
D03*
X5499100D02*
D03*
X5753100D02*
D03*
X6007100D02*
D03*
X3644900D02*
D03*
X3898900D02*
D03*
X4152900D02*
D03*
X4406900D02*
D03*
X8509000D02*
D03*
X8763000D02*
D03*
X9017000D02*
D03*
X9271000D02*
D03*
X11099800Y4876800D02*
D03*
Y3860800D02*
D03*
Y4114800D02*
D03*
Y4368800D02*
D03*
Y4622800D02*
D03*
Y5131801D02*
D03*
Y5639801D02*
D03*
Y5385801D02*
D03*
Y5894802D02*
D03*
D57*
X7924800Y2705100D02*
D03*
X6261100D02*
D03*
X4660900D02*
D03*
X9525000D02*
D03*
D58*
X11099800Y3606800D02*
D03*
D59*
X5232400Y5778500D02*
D03*
X8686800Y4406900D02*
D03*
X9095151Y6175675D02*
D03*
%TF.MD5,8ec74df3e18daa09c9d070f3668a9006*%
M02*
