%TF.GenerationSoftware,KiCad,Pcbnew,8.0.1*%
%TF.CreationDate,2024-06-25T09:58:30-03:00*%
%TF.ProjectId,EA075_Optisort,45413037-355f-44f7-9074-69736f72742e,rev?*%
%TF.SameCoordinates,Original*%
%TF.FileFunction,Copper,L1,Top*%
%TF.FilePolarity,Positive*%
%FSLAX46Y46*%
G04 Gerber Fmt 4.6, Leading zero omitted, Abs format (unit mm)*
G04 Created by KiCad (PCBNEW 8.0.1) date 2024-06-25 09:58:30*
%MOMM*%
%LPD*%
G01*
G04 APERTURE LIST*
G04 Aperture macros list*
%AMRoundRect*
0 Rectangle with rounded corners*
0 $1 Rounding radius*
0 $2 $3 $4 $5 $6 $7 $8 $9 X,Y pos of 4 corners*
0 Add a 4 corners polygon primitive as box body*
4,1,4,$2,$3,$4,$5,$6,$7,$8,$9,$2,$3,0*
0 Add four circle primitives for the rounded corners*
1,1,$1+$1,$2,$3*
1,1,$1+$1,$4,$5*
1,1,$1+$1,$6,$7*
1,1,$1+$1,$8,$9*
0 Add four rect primitives between the rounded corners*
20,1,$1+$1,$2,$3,$4,$5,0*
20,1,$1+$1,$4,$5,$6,$7,0*
20,1,$1+$1,$6,$7,$8,$9,0*
20,1,$1+$1,$8,$9,$2,$3,0*%
G04 Aperture macros list end*
%TA.AperFunction,SMDPad,CuDef*%
%ADD10R,0.298000X1.000000*%
%TD*%
%TA.AperFunction,SMDPad,CuDef*%
%ADD11R,1.100000X0.500000*%
%TD*%
%TA.AperFunction,SMDPad,CuDef*%
%ADD12R,2.030000X1.820000*%
%TD*%
%TA.AperFunction,SMDPad,CuDef*%
%ADD13R,0.750000X1.380000*%
%TD*%
%TA.AperFunction,BGAPad,CuDef*%
%ADD14C,0.270000*%
%TD*%
%TA.AperFunction,SMDPad,CuDef*%
%ADD15RoundRect,0.200000X-0.200000X-0.275000X0.200000X-0.275000X0.200000X0.275000X-0.200000X0.275000X0*%
%TD*%
%TA.AperFunction,ComponentPad*%
%ADD16C,2.000000*%
%TD*%
%TA.AperFunction,ComponentPad*%
%ADD17R,3.000000X3.000000*%
%TD*%
%TA.AperFunction,ComponentPad*%
%ADD18C,3.000000*%
%TD*%
%TA.AperFunction,SMDPad,CuDef*%
%ADD19RoundRect,0.150000X0.825000X0.150000X-0.825000X0.150000X-0.825000X-0.150000X0.825000X-0.150000X0*%
%TD*%
%TA.AperFunction,ComponentPad*%
%ADD20R,1.600000X1.600000*%
%TD*%
%TA.AperFunction,ComponentPad*%
%ADD21C,1.600000*%
%TD*%
%TA.AperFunction,SMDPad,CuDef*%
%ADD22RoundRect,0.200000X0.200000X0.275000X-0.200000X0.275000X-0.200000X-0.275000X0.200000X-0.275000X0*%
%TD*%
%TA.AperFunction,SMDPad,CuDef*%
%ADD23RoundRect,0.200000X0.275000X-0.200000X0.275000X0.200000X-0.275000X0.200000X-0.275000X-0.200000X0*%
%TD*%
%TA.AperFunction,ComponentPad*%
%ADD24O,1.524000X3.048000*%
%TD*%
%TA.AperFunction,SMDPad,CuDef*%
%ADD25R,0.900000X1.000000*%
%TD*%
%TA.AperFunction,SMDPad,CuDef*%
%ADD26RoundRect,0.218750X-0.256250X0.218750X-0.256250X-0.218750X0.256250X-0.218750X0.256250X0.218750X0*%
%TD*%
%TA.AperFunction,SMDPad,CuDef*%
%ADD27R,0.300000X0.800000*%
%TD*%
%TA.AperFunction,SMDPad,CuDef*%
%ADD28R,0.400000X0.800000*%
%TD*%
%TA.AperFunction,SMDPad,CuDef*%
%ADD29R,0.400000X0.950000*%
%TD*%
%TA.AperFunction,SMDPad,CuDef*%
%ADD30R,0.300000X0.650000*%
%TD*%
%TA.AperFunction,SMDPad,CuDef*%
%ADD31R,0.240000X0.350000*%
%TD*%
%TA.AperFunction,SMDPad,CuDef*%
%ADD32R,0.300000X0.420000*%
%TD*%
%TA.AperFunction,SMDPad,CuDef*%
%ADD33R,1.100000X0.650000*%
%TD*%
%TA.AperFunction,SMDPad,CuDef*%
%ADD34R,0.650000X0.650000*%
%TD*%
%TA.AperFunction,SMDPad,CuDef*%
%ADD35R,0.650000X1.100000*%
%TD*%
%TA.AperFunction,SMDPad,CuDef*%
%ADD36R,0.500000X0.840000*%
%TD*%
%TA.AperFunction,SMDPad,CuDef*%
%ADD37R,0.840000X0.500000*%
%TD*%
%TA.AperFunction,SMDPad,CuDef*%
%ADD38R,0.180000X0.230000*%
%TD*%
%TA.AperFunction,SMDPad,CuDef*%
%ADD39R,2.740000X2.000000*%
%TD*%
%TA.AperFunction,SMDPad,CuDef*%
%ADD40R,0.350000X0.500000*%
%TD*%
%TA.AperFunction,SMDPad,CuDef*%
%ADD41RoundRect,0.225000X0.375000X-0.225000X0.375000X0.225000X-0.375000X0.225000X-0.375000X-0.225000X0*%
%TD*%
%TA.AperFunction,SMDPad,CuDef*%
%ADD42RoundRect,0.140000X0.140000X0.170000X-0.140000X0.170000X-0.140000X-0.170000X0.140000X-0.170000X0*%
%TD*%
%TA.AperFunction,SMDPad,CuDef*%
%ADD43RoundRect,0.140000X-0.140000X-0.170000X0.140000X-0.170000X0.140000X0.170000X-0.140000X0.170000X0*%
%TD*%
%TA.AperFunction,SMDPad,CuDef*%
%ADD44RoundRect,0.140000X0.170000X-0.140000X0.170000X0.140000X-0.170000X0.140000X-0.170000X-0.140000X0*%
%TD*%
%TA.AperFunction,SMDPad,CuDef*%
%ADD45RoundRect,0.140000X-0.170000X0.140000X-0.170000X-0.140000X0.170000X-0.140000X0.170000X0.140000X0*%
%TD*%
%TA.AperFunction,ViaPad*%
%ADD46C,0.100000*%
%TD*%
%TA.AperFunction,Conductor*%
%ADD47C,0.050000*%
%TD*%
G04 APERTURE END LIST*
D10*
%TO.P,J7,A7,DA-*%
%TO.N,USB_DN*%
X116655000Y-31350000D03*
%TO.P,J7,B5,CC2*%
%TO.N,Net-(J7-CC2)*%
X116155000Y-31350000D03*
%TO.P,J7,A8,SBU1*%
%TO.N,unconnected-(J7-SBU1-PadA8)*%
X115655000Y-31350000D03*
%TO.P,J7,B4,VBUS3*%
%TO.N,+5V*%
X115155000Y-31350000D03*
%TO.P,J7,A9,VBUS2*%
X114655000Y-31350000D03*
%TO.P,J7,B1,GND3*%
%TO.N,Com*%
X114155000Y-31350000D03*
%TO.P,J7,A5,CC1*%
%TO.N,Net-(J7-CC1)*%
X119155000Y-31350000D03*
%TO.P,J7,B12,GND4*%
%TO.N,Com*%
X120655000Y-31350000D03*
%TO.P,J7,A4,VBUS1*%
%TO.N,+5V*%
X120155000Y-31350000D03*
%TO.P,J7,B9,VBUS4*%
X119655000Y-31350000D03*
%TO.P,J7,B8,SBU2*%
%TO.N,unconnected-(J7-SBU2-PadB8)*%
X118655000Y-31350000D03*
%TO.P,J7,A6,DA+*%
%TO.N,USB_DP*%
X118155000Y-31350000D03*
%TO.P,J7,B7,DB-*%
%TO.N,USB_DN*%
X117655000Y-31350000D03*
%TO.P,J7,B6,DB+*%
%TO.N,USB_DP*%
X117155000Y-31350000D03*
%TO.P,J7,A12,GND2*%
%TO.N,Com*%
X113655000Y-31350000D03*
%TO.P,J7,A1,GND1*%
X121155000Y-31350000D03*
%TD*%
D11*
%TO.P,D2,1,K*%
%TO.N,Net-(D2-K)*%
X121425000Y-74085000D03*
D12*
%TO.P,D2,2,A*%
%TO.N,Net-(D2-A)*%
X121425000Y-75490000D03*
D13*
%TO.P,D2,3*%
%TO.N,N/C*%
X121425000Y-77800000D03*
%TD*%
D14*
%TO.P,U1,A1,VSS*%
%TO.N,Com*%
X113425000Y-83300000D03*
%TO.P,U1,A2,PE2*%
%TO.N,unconnected-(U1-PE2-PadA2)*%
X113925000Y-83300000D03*
%TO.P,U1,A3,VDDLDO*%
%TO.N,+2V8*%
X114425000Y-83300000D03*
%TO.P,U1,A4,VCAP*%
%TO.N,Net-(U1-VCAPDSI)*%
X114925000Y-83300000D03*
%TO.P,U1,A5,PB5*%
%TO.N,unconnected-(U1-PB5-PadA5)*%
X115425000Y-83300000D03*
%TO.P,U1,A6,PB3*%
%TO.N,unconnected-(U1-PB3-PadA6)*%
X115925000Y-83300000D03*
%TO.P,U1,A7,VSS*%
%TO.N,Com*%
X116425000Y-83300000D03*
%TO.P,U1,A8,PD7*%
%TO.N,unconnected-(U1-PD7-PadA8)*%
X116925000Y-83300000D03*
%TO.P,U1,A9,VDD*%
%TO.N,+2V8*%
X117425000Y-83300000D03*
%TO.P,U1,A10,PD3*%
%TO.N,D5*%
X117925000Y-83300000D03*
%TO.P,U1,A11,PA14*%
%TO.N,unconnected-(U1-PA14-PadA11)*%
X118425000Y-83300000D03*
%TO.P,U1,A12,VSS*%
%TO.N,Com*%
X118925000Y-83300000D03*
%TO.P,U1,A13,PA10*%
%TO.N,unconnected-(U1-PA10-PadA13)*%
X119425000Y-83300000D03*
%TO.P,U1,B1,VBAT*%
%TO.N,Com*%
X113425000Y-83800000D03*
%TO.P,U1,B2,VDD*%
%TO.N,+2V8*%
X113925000Y-83800000D03*
%TO.P,U1,B3,PDR_ON*%
X114425000Y-83800000D03*
%TO.P,U1,B4,VSS*%
%TO.N,Com*%
X114925000Y-83800000D03*
%TO.P,U1,B5,BOOT0*%
%TO.N,Net-(SW1-A)*%
X115425000Y-83800000D03*
%TO.P,U1,B6,PB4*%
%TO.N,SPI1_MISO*%
X115925000Y-83800000D03*
%TO.P,U1,B7,VDD*%
%TO.N,+2V8*%
X116425000Y-83800000D03*
%TO.P,U1,B8,PD6*%
%TO.N,unconnected-(U1-PD6-PadB8)*%
X116925000Y-83800000D03*
%TO.P,U1,B9,VSS*%
%TO.N,Com*%
X117425000Y-83800000D03*
%TO.P,U1,B10,PA15*%
%TO.N,unconnected-(U1-PA15-PadB10)*%
X117925000Y-83800000D03*
%TO.P,U1,B11,PA13*%
%TO.N,unconnected-(U1-PA13-PadB11)*%
X118425000Y-83800000D03*
%TO.P,U1,B12,VDD*%
%TO.N,+2V8*%
X118925000Y-83800000D03*
%TO.P,U1,B13,VDDLDO*%
X119425000Y-83800000D03*
%TO.P,U1,C1,PC14*%
%TO.N,unconnected-(U1-PC14-PadC1)*%
X113425000Y-84300000D03*
%TO.P,U1,C2,PE6*%
%TO.N,D7*%
X113925000Y-84300000D03*
%TO.P,U1,C3,PE3*%
%TO.N,unconnected-(U1-PE3-PadC3)*%
X114425000Y-84300000D03*
%TO.P,U1,C4,PE1*%
%TO.N,UART8_TX*%
X114925000Y-84300000D03*
%TO.P,U1,C5,PB7*%
%TO.N,I2C1_SDA*%
X115425000Y-84300000D03*
%TO.P,U1,C6,PG15*%
%TO.N,NC9*%
X115925000Y-84300000D03*
%TO.P,U1,C7,PG9*%
%TO.N,DCMI_VSYNC*%
X116425000Y-84300000D03*
%TO.P,U1,C8,PD5*%
%TO.N,unconnected-(U1-PD5-PadC8)*%
X116925000Y-84300000D03*
%TO.P,U1,C9,PD1*%
%TO.N,unconnected-(U1-PD1-PadC9)*%
X117425000Y-84300000D03*
%TO.P,U1,C10,PD0*%
%TO.N,NC4*%
X117925000Y-84300000D03*
%TO.P,U1,C11,PC10*%
%TO.N,unconnected-(U1-PC10-PadC11)*%
X118425000Y-84300000D03*
%TO.P,U1,C12,VSS*%
%TO.N,Com*%
X118925000Y-84300000D03*
%TO.P,U1,C13,VCAP*%
%TO.N,Net-(U1-VCAPDSI)*%
X119425000Y-84300000D03*
%TO.P,U1,D1,VSS*%
%TO.N,Com*%
X113425000Y-84800000D03*
%TO.P,U1,D2,PC15*%
%TO.N,unconnected-(U1-PC15-PadD2)*%
X113925000Y-84800000D03*
%TO.P,U1,D3,PE4*%
%TO.N,unconnected-(U1-PE4-PadD3)*%
X114425000Y-84800000D03*
%TO.P,U1,D4,PE0*%
%TO.N,UART8_RX*%
X114925000Y-84800000D03*
%TO.P,U1,D5,PB8*%
%TO.N,unconnected-(U1-PB8-PadD5)*%
X115425000Y-84800000D03*
%TO.P,U1,D6,PB9*%
%TO.N,unconnected-(U1-PB9-PadD6)*%
X115925000Y-84800000D03*
%TO.P,U1,D7,PG10*%
%TO.N,unconnected-(U1-PG10-PadD7)*%
X116425000Y-84800000D03*
%TO.P,U1,D8,PD4*%
%TO.N,unconnected-(U1-PD4-PadD8)*%
X116925000Y-84800000D03*
%TO.P,U1,D9,PC12*%
%TO.N,unconnected-(U1-PC12-PadD9)*%
X117425000Y-84800000D03*
%TO.P,U1,D10,PA8*%
%TO.N,SPI_VSYNC*%
X117925000Y-84800000D03*
%TO.P,U1,D11,PA9*%
%TO.N,SPI_PWCTRL*%
X118425000Y-84800000D03*
%TO.P,U1,D12,PA11*%
%TO.N,USB_DN*%
X118925000Y-84800000D03*
%TO.P,U1,D13,PA12*%
%TO.N,USB_DP*%
X119425000Y-84800000D03*
%TO.P,U1,E1,VLXSMPS*%
%TO.N,Com*%
X113425000Y-85300000D03*
%TO.P,U1,E2,VDD*%
%TO.N,+2V8*%
X113925000Y-85300000D03*
%TO.P,U1,E3,PC13*%
%TO.N,unconnected-(U1-PC13-PadE3)*%
X114425000Y-85300000D03*
%TO.P,U1,E4,PE5*%
%TO.N,D6*%
X114925000Y-85300000D03*
%TO.P,U1,E5,PB6*%
%TO.N,I2C1_SCL*%
X115425000Y-85300000D03*
%TO.P,U1,E6,PG14*%
%TO.N,unconnected-(U1-PG14-PadE6)*%
X115925000Y-85300000D03*
%TO.P,U1,E7,PG11*%
%TO.N,unconnected-(U1-PG11-PadE7)*%
X116425000Y-85300000D03*
%TO.P,U1,E8,PD2*%
%TO.N,unconnected-(U1-PD2-PadE8)*%
X116925000Y-85300000D03*
%TO.P,U1,E9,PC11*%
%TO.N,D4*%
X117425000Y-85300000D03*
%TO.P,U1,E10,PC7*%
%TO.N,D1*%
X117925000Y-85300000D03*
%TO.P,U1,E11,PC9*%
%TO.N,D3*%
X118425000Y-85300000D03*
%TO.P,U1,E12,VDD*%
%TO.N,+2V8*%
X118925000Y-85300000D03*
%TO.P,U1,E13,VSS*%
%TO.N,Com*%
X119425000Y-85300000D03*
%TO.P,U1,F1,VDDSMPS*%
X113425000Y-85800000D03*
%TO.P,U1,F2,VSSSMPS*%
X113925000Y-85800000D03*
%TO.P,U1,F3,VFBSMPS*%
X114425000Y-85800000D03*
%TO.P,U1,F4,PF0*%
%TO.N,unconnected-(U1-PF0-PadF4)*%
X114925000Y-85800000D03*
%TO.P,U1,F5,PF1*%
%TO.N,unconnected-(U1-PF1-PadF5)*%
X115425000Y-85800000D03*
%TO.P,U1,F6,PF2*%
%TO.N,unconnected-(U1-PF2-PadF6)*%
X115925000Y-85800000D03*
%TO.P,U1,F7,PG13*%
%TO.N,unconnected-(U1-PG13-PadF7)*%
X116425000Y-85800000D03*
%TO.P,U1,F8,PG7*%
%TO.N,unconnected-(U1-PG7-PadF8)*%
X116925000Y-85800000D03*
%TO.P,U1,F9,PG8*%
%TO.N,unconnected-(U1-PG8-PadF9)*%
X117425000Y-85800000D03*
%TO.P,U1,F10,PC8*%
%TO.N,D2*%
X117925000Y-85800000D03*
%TO.P,U1,F11,PC6*%
%TO.N,D0*%
X118425000Y-85800000D03*
%TO.P,U1,F12,VDD50_USB*%
%TO.N,+5V*%
X118925000Y-85800000D03*
%TO.P,U1,F13,VDD33_USB*%
%TO.N,Com*%
X119425000Y-85800000D03*
%TO.P,U1,G1,PF4*%
%TO.N,unconnected-(U1-PF4-PadG1)*%
X113425000Y-86300000D03*
%TO.P,U1,G2,PF3*%
%TO.N,unconnected-(U1-PF3-PadG2)*%
X113925000Y-86300000D03*
%TO.P,U1,G3,PF5*%
%TO.N,unconnected-(U1-PF5-PadG3)*%
X114425000Y-86300000D03*
%TO.P,U1,G4,PF6*%
%TO.N,unconnected-(U1-PF6-PadG4)*%
X114925000Y-86300000D03*
%TO.P,U1,G5,PF7*%
%TO.N,unconnected-(U1-PF7-PadG5)*%
X115425000Y-86300000D03*
%TO.P,U1,G6,PF8*%
%TO.N,unconnected-(U1-PF8-PadG6)*%
X115925000Y-86300000D03*
%TO.P,U1,G7,PG12*%
%TO.N,unconnected-(U1-PG12-PadG7)*%
X116425000Y-86300000D03*
%TO.P,U1,G8,PG3*%
%TO.N,unconnected-(U1-PG3-PadG8)*%
X116925000Y-86300000D03*
%TO.P,U1,G9,PG5*%
%TO.N,unconnected-(U1-PG5-PadG9)*%
X117425000Y-86300000D03*
%TO.P,U1,G10,PG4*%
%TO.N,unconnected-(U1-PG4-PadG10)*%
X117925000Y-86300000D03*
%TO.P,U1,G11,PG6*%
%TO.N,unconnected-(U1-PG6-PadG11)*%
X118425000Y-86300000D03*
%TO.P,U1,G12,VSSDSI*%
%TO.N,Com*%
X118925000Y-86300000D03*
%TO.P,U1,G13,VSSDSI*%
X119425000Y-86300000D03*
%TO.P,U1,H1,VDD*%
%TO.N,+2V8*%
X113425000Y-86800000D03*
%TO.P,U1,H2,VSS*%
%TO.N,Com*%
X113925000Y-86800000D03*
%TO.P,U1,H3,PF9*%
%TO.N,unconnected-(U1-PF9-PadH3)*%
X114425000Y-86800000D03*
%TO.P,U1,H4,PF10*%
%TO.N,unconnected-(U1-PF10-PadH4)*%
X114925000Y-86800000D03*
%TO.P,U1,H5,NRST*%
%TO.N,Net-(U1-NRST)*%
X115425000Y-86800000D03*
%TO.P,U1,H6,PB1*%
%TO.N,unconnected-(U1-PB1-PadH6)*%
X115925000Y-86800000D03*
%TO.P,U1,H7,PG2*%
%TO.N,unconnected-(U1-PG2-PadH7)*%
X116425000Y-86800000D03*
%TO.P,U1,H8,PE13*%
%TO.N,unconnected-(U1-PE13-PadH8)*%
X116925000Y-86800000D03*
%TO.P,U1,H9,PD14*%
%TO.N,unconnected-(U1-PD14-PadH9)*%
X117425000Y-86800000D03*
%TO.P,U1,H10,PD15*%
%TO.N,unconnected-(U1-PD15-PadH10)*%
X117925000Y-86800000D03*
%TO.P,U1,H11,VSS*%
%TO.N,Com*%
X118425000Y-86800000D03*
%TO.P,U1,H12,DSI_D1P*%
%TO.N,DSI_D1P*%
X118925000Y-86800000D03*
%TO.P,U1,H13,DSI_D1N*%
%TO.N,DSI_D1N*%
X119425000Y-86800000D03*
%TO.P,U1,J1,PH1*%
%TO.N,unconnected-(U1-PH1-PadJ1)*%
X113425000Y-87300000D03*
%TO.P,U1,J2,PH0*%
%TO.N,unconnected-(U1-PH0-PadJ2)*%
X113925000Y-87300000D03*
%TO.P,U1,J3,PC1*%
%TO.N,unconnected-(U1-PC1-PadJ3)*%
X114425000Y-87300000D03*
%TO.P,U1,J4,PC0*%
%TO.N,unconnected-(U1-PC0-PadJ4)*%
X114925000Y-87300000D03*
%TO.P,U1,J5,PA5*%
%TO.N,SPI1_SCK*%
X115425000Y-87300000D03*
%TO.P,U1,J6,PF12*%
%TO.N,unconnected-(U1-PF12-PadJ6)*%
X115925000Y-87300000D03*
%TO.P,U1,J7,PG1*%
%TO.N,unconnected-(U1-PG1-PadJ7)*%
X116425000Y-87300000D03*
%TO.P,U1,J8,PE12*%
%TO.N,unconnected-(U1-PE12-PadJ8)*%
X116925000Y-87300000D03*
%TO.P,U1,J9,PD13*%
%TO.N,I2C4_SDA*%
X117425000Y-87300000D03*
%TO.P,U1,J10,PD12*%
%TO.N,I2C4_SCL*%
X117925000Y-87300000D03*
%TO.P,U1,J11,VSS*%
%TO.N,Com*%
X118425000Y-87300000D03*
%TO.P,U1,J12,DSI_CKP*%
%TO.N,DSI_CKP*%
X118925000Y-87300000D03*
%TO.P,U1,J13,DSI_CKN*%
%TO.N,DSI_CKN*%
X119425000Y-87300000D03*
%TO.P,U1,K1,PC2_C*%
%TO.N,SPI1_CS*%
X113425000Y-87800000D03*
%TO.P,U1,K2,PC3_C*%
%TO.N,unconnected-(U1-PC3_C-PadK2)*%
X113925000Y-87800000D03*
%TO.P,U1,K3,PA0*%
%TO.N,unconnected-(U1-PA0-PadK3)*%
X114425000Y-87800000D03*
%TO.P,U1,K4,PA7*%
%TO.N,SPI1_MOSI*%
X114925000Y-87800000D03*
%TO.P,U1,K5,PC5*%
%TO.N,unconnected-(U1-PC5-PadK5)*%
X115425000Y-87800000D03*
%TO.P,U1,K6,PF11*%
%TO.N,unconnected-(U1-PF11-PadK6)*%
X115925000Y-87800000D03*
%TO.P,U1,K7,PE7*%
%TO.N,unconnected-(U1-PE7-PadK7)*%
X116425000Y-87800000D03*
%TO.P,U1,K8,PE15*%
%TO.N,unconnected-(U1-PE15-PadK8)*%
X116925000Y-87800000D03*
%TO.P,U1,K9,PB10*%
%TO.N,I2C2_SCL*%
X117425000Y-87800000D03*
%TO.P,U1,K10,PD11*%
%TO.N,VALVECTRL*%
X117925000Y-87800000D03*
%TO.P,U1,K11,VSS*%
%TO.N,Com*%
X118425000Y-87800000D03*
%TO.P,U1,K12,DSI_D0P*%
%TO.N,DSI_D0P*%
X118925000Y-87800000D03*
%TO.P,U1,K13,DSI_D0N*%
%TO.N,DSI_D0N*%
X119425000Y-87800000D03*
%TO.P,U1,L1,VREF-*%
%TO.N,Com*%
X113425000Y-88300000D03*
%TO.P,U1,L2,VDDA*%
%TO.N,+2V8*%
X113925000Y-88300000D03*
%TO.P,U1,L3,PA1*%
%TO.N,unconnected-(U1-PA1-PadL3)*%
X114425000Y-88300000D03*
%TO.P,U1,L4,PC4*%
%TO.N,unconnected-(U1-PC4-PadL4)*%
X114925000Y-88300000D03*
%TO.P,U1,L5,PB2*%
%TO.N,unconnected-(U1-PB2-PadL5)*%
X115425000Y-88300000D03*
%TO.P,U1,L6,PG0*%
%TO.N,unconnected-(U1-PG0-PadL6)*%
X115925000Y-88300000D03*
%TO.P,U1,L7,PE10*%
%TO.N,unconnected-(U1-PE10-PadL7)*%
X116425000Y-88300000D03*
%TO.P,U1,L8,PE8*%
%TO.N,unconnected-(U1-PE8-PadL8)*%
X116925000Y-88300000D03*
%TO.P,U1,L9,VDD*%
%TO.N,+2V8*%
X117425000Y-88300000D03*
%TO.P,U1,L10,PB12*%
%TO.N,unconnected-(U1-PB12-PadL10)*%
X117925000Y-88300000D03*
%TO.P,U1,L11,VDD*%
%TO.N,+2V8*%
X118425000Y-88300000D03*
%TO.P,U1,L12,VCAPDSI*%
%TO.N,Net-(U1-VCAPDSI)*%
X118925000Y-88300000D03*
%TO.P,U1,L13,VSS*%
%TO.N,Com*%
X119425000Y-88300000D03*
%TO.P,U1,M1,VREF+*%
%TO.N,+2V8*%
X113425000Y-88800000D03*
%TO.P,U1,M2,VDD*%
X113925000Y-88800000D03*
%TO.P,U1,M3,PA2*%
%TO.N,unconnected-(U1-PA2-PadM3)*%
X114425000Y-88800000D03*
%TO.P,U1,M4,PA6*%
%TO.N,DCMI_PIXCLK*%
X114925000Y-88800000D03*
%TO.P,U1,M5,PF13*%
%TO.N,unconnected-(U1-PF13-PadM5)*%
X115425000Y-88800000D03*
%TO.P,U1,M6,VSS*%
%TO.N,Com*%
X115925000Y-88800000D03*
%TO.P,U1,M7,PF15*%
%TO.N,unconnected-(U1-PF15-PadM7)*%
X116425000Y-88800000D03*
%TO.P,U1,M8,PE14*%
%TO.N,unconnected-(U1-PE14-PadM8)*%
X116925000Y-88800000D03*
%TO.P,U1,M9,VSS*%
%TO.N,Com*%
X117425000Y-88800000D03*
%TO.P,U1,M10,PB13*%
%TO.N,unconnected-(U1-PB13-PadM10)*%
X117925000Y-88800000D03*
%TO.P,U1,M11,PB15*%
%TO.N,unconnected-(U1-PB15-PadM11)*%
X118425000Y-88800000D03*
%TO.P,U1,M12,PD9*%
%TO.N,unconnected-(U1-PD9-PadM12)*%
X118925000Y-88800000D03*
%TO.P,U1,M13,VDDDSI*%
%TO.N,+2V8*%
X119425000Y-88800000D03*
%TO.P,U1,N1,VSS*%
%TO.N,Com*%
X113425000Y-89300000D03*
%TO.P,U1,N2,PA3*%
%TO.N,unconnected-(U1-PA3-PadN2)*%
X113925000Y-89300000D03*
%TO.P,U1,N3,PA4*%
%TO.N,DCMI_HSYNC*%
X114425000Y-89300000D03*
%TO.P,U1,N4,PB0*%
%TO.N,MASTERCLOCK_LEPTON*%
X114925000Y-89300000D03*
%TO.P,U1,N5,PF14*%
%TO.N,INTERRUPT_REQUEST*%
X115425000Y-89300000D03*
%TO.P,U1,N6,PE9*%
%TO.N,LCD_RESET*%
X115925000Y-89300000D03*
%TO.P,U1,N7,PE11*%
%TO.N,unconnected-(U1-PE11-PadN7)*%
X116425000Y-89300000D03*
%TO.P,U1,N8,PB11*%
%TO.N,I2C2_SDA*%
X116925000Y-89300000D03*
%TO.P,U1,N9,VCAP*%
%TO.N,Net-(U1-VCAPDSI)*%
X117425000Y-89300000D03*
%TO.P,U1,N10,VDDLDO*%
%TO.N,+2V8*%
X117925000Y-89300000D03*
%TO.P,U1,N11,PB14*%
%TO.N,MASTERCLOCK*%
X118425000Y-89300000D03*
%TO.P,U1,N12,PD8*%
%TO.N,unconnected-(U1-PD8-PadN12)*%
X118925000Y-89300000D03*
%TO.P,U1,N13,PD10*%
%TO.N,LCD_ON*%
X119425000Y-89300000D03*
%TD*%
D15*
%TO.P,R22,1*%
%TO.N,+2V8*%
X68300000Y-104000000D03*
%TO.P,R22,2*%
%TO.N,LCD_RESET*%
X69950000Y-104000000D03*
%TD*%
D16*
%TO.P,SW2,1,1*%
%TO.N,Com*%
X90400000Y-83900000D03*
X96900000Y-83900000D03*
%TO.P,SW2,2,2*%
%TO.N,Net-(U1-NRST)*%
X90400000Y-88400000D03*
X96900000Y-88400000D03*
%TD*%
D17*
%TO.P,J8,1,Pin_1*%
%TO.N,Com*%
X104580000Y-44400000D03*
D18*
%TO.P,J8,2,Pin_2*%
%TO.N,+12V*%
X99500000Y-44400000D03*
%TO.P,J8,3,Pin_3*%
%TO.N,+5V*%
X94420000Y-44400000D03*
%TO.P,J8,4,Pin_4*%
%TO.N,+2V8*%
X89340000Y-44400000D03*
%TO.P,J8,5,Pin_5*%
%TO.N,+1V8*%
X84260000Y-44400000D03*
%TO.P,J8,6,Pin_6*%
%TO.N,+1V2*%
X79180000Y-44400000D03*
%TD*%
D19*
%TO.P,U2,8,VCC*%
%TO.N,+5V*%
X143750000Y-65810000D03*
%TO.P,U2,7,B*%
%TO.N,Net-(J1-Pin_2)*%
X143750000Y-64540000D03*
%TO.P,U2,6,A*%
%TO.N,Net-(J1-Pin_1)*%
X143750000Y-63270000D03*
%TO.P,U2,5,GND*%
%TO.N,Com*%
X143750000Y-62000000D03*
%TO.P,U2,4,DI*%
%TO.N,UART8_TX*%
X148700000Y-62000000D03*
%TO.P,U2,3,DE*%
X148700000Y-63270000D03*
%TO.P,U2,2,~{RE}*%
X148700000Y-64540000D03*
%TO.P,U2,1,RO*%
%TO.N,UART8_RX*%
X148700000Y-65810000D03*
%TD*%
D20*
%TO.P,SW1,1,A*%
%TO.N,Net-(SW1-A)*%
X135100000Y-72200000D03*
D21*
%TO.P,SW1,2,B*%
%TO.N,+2V8*%
X132600000Y-72200000D03*
%TO.P,SW1,3*%
%TO.N,N/C*%
X130100000Y-72200000D03*
%TO.P,SW1,4*%
X135100000Y-69000000D03*
%TO.P,SW1,5*%
X132600000Y-69000000D03*
%TO.P,SW1,6*%
X130100000Y-69000000D03*
%TD*%
D22*
%TO.P,R25,2*%
%TO.N,Com*%
X113775000Y-34600000D03*
%TO.P,R25,1*%
%TO.N,Net-(J7-CC2)*%
X115425000Y-34600000D03*
%TD*%
D15*
%TO.P,R24,1*%
%TO.N,Net-(J7-CC1)*%
X119775000Y-35775000D03*
%TO.P,R24,2*%
%TO.N,Com*%
X121425000Y-35775000D03*
%TD*%
%TO.P,R23,1*%
%TO.N,Net-(SW1-A)*%
X105850000Y-78600000D03*
%TO.P,R23,2*%
%TO.N,Com*%
X107500000Y-78600000D03*
%TD*%
D22*
%TO.P,R21,1*%
%TO.N,+2V8*%
X170425000Y-109400000D03*
%TO.P,R21,2*%
%TO.N,LCD_RESET*%
X168775000Y-109400000D03*
%TD*%
D15*
%TO.P,R20,2*%
%TO.N,LCD_ON*%
X161125000Y-104000000D03*
%TO.P,R20,1*%
%TO.N,+2V8*%
X159475000Y-104000000D03*
%TD*%
%TO.P,R19,1*%
%TO.N,+2V8*%
X105775000Y-88810000D03*
%TO.P,R19,2*%
%TO.N,I2C2_SDA*%
X107425000Y-88810000D03*
%TD*%
%TO.P,R18,1*%
%TO.N,+2V8*%
X105775000Y-86300000D03*
%TO.P,R18,2*%
%TO.N,I2C2_SCL*%
X107425000Y-86300000D03*
%TD*%
%TO.P,R17,1*%
%TO.N,+2V8*%
X105775000Y-83790000D03*
%TO.P,R17,2*%
%TO.N,I2C1_SCL*%
X107425000Y-83790000D03*
%TD*%
%TO.P,R16,1*%
%TO.N,+2V8*%
X66100000Y-68075000D03*
%TO.P,R16,2*%
%TO.N,I2C1_SDA*%
X67750000Y-68075000D03*
%TD*%
%TO.P,R15,2*%
%TO.N,LEDK*%
X160525000Y-97300000D03*
%TO.P,R15,1*%
%TO.N,Com*%
X158875000Y-97300000D03*
%TD*%
D22*
%TO.P,R14,1*%
%TO.N,Net-(IC1-RSET)*%
X166525000Y-97300000D03*
%TO.P,R14,2*%
%TO.N,Com*%
X164875000Y-97300000D03*
%TD*%
D15*
%TO.P,R13,1*%
%TO.N,+2V8*%
X59900000Y-98500000D03*
%TO.P,R13,2*%
%TO.N,INTERRUPT_REQUEST*%
X61550000Y-98500000D03*
%TD*%
%TO.P,R12,1*%
%TO.N,+2V8*%
X59950000Y-103400000D03*
%TO.P,R12,2*%
%TO.N,I2C4_SCL*%
X61600000Y-103400000D03*
%TD*%
%TO.P,R11,1*%
%TO.N,+2V8*%
X60000000Y-108000000D03*
%TO.P,R11,2*%
%TO.N,I2C4_SDA*%
X61650000Y-108000000D03*
%TD*%
D23*
%TO.P,R10,2*%
%TO.N,Com*%
X155800000Y-77100000D03*
%TO.P,R10,1*%
%TO.N,VALVECTRL*%
X155800000Y-78750000D03*
%TD*%
D22*
%TO.P,R9,1*%
%TO.N,Net-(J1-Pin_3)*%
X160750000Y-64800000D03*
%TO.P,R9,2*%
%TO.N,Com*%
X159100000Y-64800000D03*
%TD*%
D15*
%TO.P,R8,1*%
%TO.N,Net-(C5-Pad2)*%
X81300000Y-85100000D03*
%TO.P,R8,2*%
%TO.N,+2V8*%
X82950000Y-85100000D03*
%TD*%
%TO.P,R7,1*%
%TO.N,+5V*%
X154100000Y-54800000D03*
%TO.P,R7,2*%
%TO.N,Net-(J1-Pin_1)*%
X155750000Y-54800000D03*
%TD*%
%TO.P,R6,1*%
%TO.N,Net-(J1-Pin_2)*%
X154100000Y-64800000D03*
%TO.P,R6,2*%
%TO.N,Com*%
X155750000Y-64800000D03*
%TD*%
%TO.P,R5,1*%
%TO.N,Net-(J1-Pin_1)*%
X154275000Y-59800000D03*
%TO.P,R5,2*%
%TO.N,Net-(J1-Pin_2)*%
X155925000Y-59800000D03*
%TD*%
%TO.P,R4,1*%
%TO.N,SPI_PWCTRL*%
X81450000Y-90000000D03*
%TO.P,R4,2*%
%TO.N,+2V8*%
X83100000Y-90000000D03*
%TD*%
%TO.P,R3,1*%
%TO.N,Com*%
X81400000Y-97700000D03*
%TO.P,R3,2*%
%TO.N,SPI1_MOSI*%
X83050000Y-97700000D03*
%TD*%
D23*
%TO.P,R2,1*%
%TO.N,SPI1_MISO*%
X125200000Y-83525000D03*
%TO.P,R2,2*%
%TO.N,Net-(J2-Pad12)*%
X125200000Y-81875000D03*
%TD*%
D15*
%TO.P,R1,1*%
%TO.N,UART8_TX*%
X154100000Y-69800000D03*
%TO.P,R1,2*%
%TO.N,Com*%
X155750000Y-69800000D03*
%TD*%
D24*
%TO.P,Q1,3*%
%TO.N,Com*%
X163000000Y-87100000D03*
%TO.P,Q1,2*%
%TO.N,Net-(D1-A)*%
X160460000Y-87100000D03*
%TO.P,Q1,1*%
%TO.N,VALVECTRL*%
X157920000Y-87100000D03*
%TD*%
D25*
%TO.P,L2,1,1*%
%TO.N,+5V*%
X168100000Y-93900000D03*
%TO.P,L2,2,2*%
%TO.N,Net-(IC1-VI)*%
X169700000Y-93900000D03*
%TD*%
D26*
%TO.P,L1,2,2*%
%TO.N,Net-(D2-A)*%
X170200000Y-100775000D03*
%TO.P,L1,1,1*%
%TO.N,Net-(IC1-VI)*%
X170200000Y-99200000D03*
%TD*%
D27*
%TO.P,J6,1,1*%
%TO.N,+2V8*%
X68135000Y-108550000D03*
%TO.P,J6,2,2*%
%TO.N,INTERRUPT_REQUEST*%
X68635000Y-108550000D03*
%TO.P,J6,3,3*%
%TO.N,I2C4_SCL*%
X69135000Y-108550000D03*
%TO.P,J6,4,4*%
%TO.N,I2C4_SDA*%
X69635000Y-108550000D03*
%TO.P,J6,5,5*%
%TO.N,LCD_RESET*%
X70135000Y-108550000D03*
%TO.P,J6,6,6*%
%TO.N,Com*%
X70635000Y-108550000D03*
D28*
%TO.P,J6,7,7*%
X67135000Y-111050000D03*
%TO.P,J6,8,8*%
X71635000Y-111050000D03*
%TD*%
D18*
%TO.P,J5,2,Pin_2*%
%TO.N,Net-(D1-A)*%
X167500000Y-75900000D03*
D17*
%TO.P,J5,1,Pin_1*%
%TO.N,+12V*%
X167500000Y-80980000D03*
%TD*%
D29*
%TO.P,J4,MP2,MP2*%
%TO.N,Com*%
X160625000Y-113825000D03*
%TO.P,J4,MP1,MP1*%
X169225000Y-113825000D03*
D27*
%TO.P,J4,25,25*%
X161325000Y-113550000D03*
D30*
%TO.P,J4,24,24*%
%TO.N,LEDA*%
X161625000Y-116425000D03*
D27*
%TO.P,J4,23,23*%
%TO.N,LEDK*%
X161925000Y-113550000D03*
D30*
%TO.P,J4,22,22*%
%TO.N,DSI_TE*%
X162225000Y-116425000D03*
D27*
%TO.P,J4,21,21*%
%TO.N,+2V8*%
X162525000Y-113550000D03*
D30*
%TO.P,J4,20,20*%
%TO.N,unconnected-(J4-Pad20)*%
X162825000Y-116425000D03*
D27*
%TO.P,J4,19,19*%
%TO.N,Com*%
X163125000Y-113550000D03*
D30*
%TO.P,J4,18,18*%
%TO.N,DSI_D1P*%
X163425000Y-116425000D03*
D27*
%TO.P,J4,17,17*%
%TO.N,unconnected-(J4-Pad17)*%
X163725000Y-113550000D03*
D30*
%TO.P,J4,16,16*%
%TO.N,DSI_D1N*%
X164025000Y-116425000D03*
D27*
%TO.P,J4,15,15*%
%TO.N,Com*%
X164325000Y-113550000D03*
D30*
%TO.P,J4,14,14*%
%TO.N,DSI_CKP*%
X164625000Y-116425000D03*
D27*
%TO.P,J4,13,13*%
%TO.N,unconnected-(J4-Pad13)*%
X164925000Y-113550000D03*
D30*
%TO.P,J4,12,12*%
%TO.N,DSI_CKN*%
X165225000Y-116425000D03*
D27*
%TO.P,J4,11,11*%
%TO.N,Com*%
X165525000Y-113550000D03*
D30*
%TO.P,J4,10,10*%
%TO.N,DSI_D0P*%
X165825000Y-116425000D03*
D27*
%TO.P,J4,9,9*%
%TO.N,unconnected-(J4-Pad9)*%
X166125000Y-113550000D03*
D30*
%TO.P,J4,8,8*%
%TO.N,DSI_D0N*%
X166425000Y-116425000D03*
D27*
%TO.P,J4,7,7*%
%TO.N,Com*%
X166725000Y-113550000D03*
D30*
%TO.P,J4,6,6*%
%TO.N,+2V8*%
X167025000Y-116425000D03*
D27*
%TO.P,J4,5,5*%
%TO.N,LCD_RESET*%
X167325000Y-113550000D03*
D30*
%TO.P,J4,4,4*%
%TO.N,Com*%
X167625000Y-116425000D03*
D27*
%TO.P,J4,3,3*%
%TO.N,LCD_ON*%
X167925000Y-113550000D03*
D30*
%TO.P,J4,2,2*%
%TO.N,Com*%
X168225000Y-116425000D03*
D27*
%TO.P,J4,1,1*%
%TO.N,unconnected-(J4-Pad1)*%
X168525000Y-113550000D03*
%TD*%
D31*
%TO.P,J3,1,AGND*%
%TO.N,Com*%
X128875000Y-101999999D03*
%TO.P,J3,2,AVDD2.8V*%
%TO.N,+2V8*%
X129275000Y-101999999D03*
%TO.P,J3,3,GND*%
%TO.N,Com*%
X129675000Y-101999999D03*
%TO.P,J3,4,NC*%
%TO.N,NC4*%
X130075000Y-101999999D03*
%TO.P,J3,5,FVLD*%
%TO.N,DCMI_VSYNC*%
X130475000Y-101999999D03*
%TO.P,J3,6,LVLD*%
%TO.N,DCMI_HSYNC*%
X130875000Y-101999999D03*
%TO.P,J3,7,SCL*%
%TO.N,I2C2_SCL*%
X131275000Y-101999999D03*
%TO.P,J3,8,SDA*%
%TO.N,I2C2_SDA*%
X131675000Y-101999999D03*
%TO.P,J3,9,NC*%
%TO.N,NC9*%
X132075000Y-101999999D03*
%TO.P,J3,10,DGND*%
%TO.N,Com*%
X132475000Y-101999999D03*
%TO.P,J3,11,IOVDD1.8V*%
%TO.N,+1V8*%
X132875000Y-101999999D03*
%TO.P,J3,12,DVDD1.8V*%
X133275000Y-101999999D03*
%TO.P,J3,13,DGND*%
%TO.N,Com*%
X133275000Y-99950001D03*
%TO.P,J3,14,MCLK*%
%TO.N,MASTERCLOCK*%
X132875000Y-99950001D03*
%TO.P,J3,15,DGND*%
%TO.N,Com*%
X132475000Y-99950001D03*
%TO.P,J3,16,PCLK*%
%TO.N,DCMI_PIXCLK*%
X132075000Y-99950001D03*
%TO.P,J3,17,D0*%
%TO.N,D0*%
X131675000Y-99950001D03*
%TO.P,J3,18,D1*%
%TO.N,D1*%
X131275000Y-99950001D03*
%TO.P,J3,19,D2*%
%TO.N,D2*%
X130875000Y-99950001D03*
%TO.P,J3,20,D3*%
%TO.N,D3*%
X130475000Y-99950001D03*
%TO.P,J3,21,D4*%
%TO.N,D4*%
X130075000Y-99950001D03*
%TO.P,J3,22,D5*%
%TO.N,D5*%
X129675000Y-99950001D03*
%TO.P,J3,23,D6*%
%TO.N,D6*%
X129275000Y-99950001D03*
%TO.P,J3,24,D7*%
%TO.N,D7*%
X128875000Y-99950001D03*
D32*
%TO.P,J3,25,M1*%
%TO.N,Com*%
X133905000Y-101455000D03*
%TO.P,J3,26,M2*%
X128245000Y-101455000D03*
%TO.P,J3,27,M3*%
X133905000Y-100495000D03*
%TO.P,J3,28,M4*%
X128245000Y-100495000D03*
%TD*%
D33*
%TO.P,J2,P36,SHIELD*%
%TO.N,Com*%
X69080000Y-87170000D03*
D34*
%TO.P,J2,P35,SHIELD*%
X70205000Y-87170000D03*
%TO.P,J2,P34,SHIELD*%
X71105000Y-87170000D03*
%TO.P,J2,P33,SHIELD*%
X72005000Y-87170000D03*
%TO.P,J2,P32,SHIELD*%
X72905000Y-87170000D03*
%TO.P,J2,P31,SHIELD*%
X73805000Y-87170000D03*
%TO.P,J2,P30,SHIELD*%
X74705000Y-87170000D03*
%TO.P,J2,P29,SHIELD*%
X75605000Y-87170000D03*
D33*
%TO.P,J2,P28,SHIELD*%
X76730000Y-87170000D03*
D35*
%TO.P,J2,P27,SHIELD*%
X78210000Y-88650000D03*
D34*
%TO.P,J2,P26,SHIELD*%
X78210000Y-89775000D03*
%TO.P,J2,P25,SHIELD*%
X78210000Y-90675000D03*
%TO.P,J2,P24,SHIELD*%
X78210000Y-91575000D03*
%TO.P,J2,P23,SHIELD*%
X78210000Y-92475000D03*
%TO.P,J2,P22,SHIELD*%
X78210000Y-93375000D03*
%TO.P,J2,P21,SHIELD*%
X78210000Y-94275000D03*
%TO.P,J2,P20,SHIELD*%
X78210000Y-95175000D03*
D35*
%TO.P,J2,P19,SHIELD*%
X78210000Y-96300000D03*
D33*
%TO.P,J2,P18,SHIELD*%
X76730000Y-97780000D03*
D34*
%TO.P,J2,P17,SHIELD*%
X75605000Y-97780000D03*
%TO.P,J2,P16,SHIELD*%
X74705000Y-97780000D03*
%TO.P,J2,P15,SHIELD*%
X73805000Y-97780000D03*
%TO.P,J2,P14,SHIELD*%
X72905000Y-97780000D03*
%TO.P,J2,P13,SHIELD*%
X72005000Y-97780000D03*
%TO.P,J2,P12,SHIELD*%
X71105000Y-97780000D03*
%TO.P,J2,P11,SHIELD*%
X70205000Y-97780000D03*
D33*
%TO.P,J2,P10,SHIELD*%
X69080000Y-97780000D03*
D35*
%TO.P,J2,P9,SHIELD*%
X67600000Y-96300000D03*
D34*
%TO.P,J2,P8,SHIELD*%
X67600000Y-95175000D03*
%TO.P,J2,P7,SHIELD*%
X67600000Y-94275000D03*
%TO.P,J2,P6,SHIELD*%
X67600000Y-93375000D03*
%TO.P,J2,P5,SHIELD*%
X67600000Y-92475000D03*
%TO.P,J2,P4,SHIELD*%
X67600000Y-91575000D03*
%TO.P,J2,P3,SHIELD*%
X67600000Y-90675000D03*
%TO.P,J2,P2,SHIELD*%
X67600000Y-89775000D03*
D35*
%TO.P,J2,P1,SHIELD*%
X67600000Y-88650000D03*
D36*
%TO.P,J2,32,32*%
%TO.N,unconnected-(J2-Pad32)*%
X69755000Y-88165000D03*
%TO.P,J2,31,31*%
%TO.N,unconnected-(J2-Pad31)*%
X70655000Y-88165000D03*
%TO.P,J2,30,30*%
%TO.N,Com*%
X71555000Y-88165000D03*
%TO.P,J2,29,29*%
%TO.N,unconnected-(J2-Pad29)*%
X72455000Y-88165000D03*
%TO.P,J2,28,28*%
%TO.N,unconnected-(J2-Pad28)*%
X73355000Y-88165000D03*
%TO.P,J2,27,27*%
%TO.N,Com*%
X74255000Y-88165000D03*
%TO.P,J2,26,26*%
%TO.N,MASTERCLOCK_LEPTON*%
X75155000Y-88165000D03*
%TO.P,J2,25,25*%
%TO.N,Com*%
X76055000Y-88165000D03*
D37*
%TO.P,J2,24,24*%
%TO.N,Net-(C5-Pad2)*%
X77215000Y-89325000D03*
%TO.P,J2,23,23*%
%TO.N,SPI_PWCTRL*%
X77215000Y-90225000D03*
%TO.P,J2,22,22*%
%TO.N,I2C1_SDA*%
X77215000Y-91125000D03*
%TO.P,J2,21,21*%
%TO.N,I2C1_SCL*%
X77215000Y-92025000D03*
%TO.P,J2,20,20*%
%TO.N,Com*%
X77215000Y-92925000D03*
%TO.P,J2,19,19*%
%TO.N,+2V8*%
X77215000Y-93825000D03*
%TO.P,J2,18,18*%
%TO.N,Com*%
X77215000Y-94725000D03*
%TO.P,J2,17,17*%
%TO.N,unconnected-(J2-Pad17)*%
X77215000Y-95625000D03*
D36*
%TO.P,J2,16,16*%
%TO.N,+2V8*%
X76055000Y-96785000D03*
%TO.P,J2,15,15*%
%TO.N,Com*%
X75155000Y-96785000D03*
%TO.P,J2,14,14*%
%TO.N,SPI1_CS*%
X74255000Y-96785000D03*
%TO.P,J2,13,13*%
%TO.N,SPI1_SCK*%
X73355000Y-96785000D03*
%TO.P,J2,12,12*%
%TO.N,Net-(J2-Pad12)*%
X72455000Y-96785000D03*
%TO.P,J2,11,11*%
%TO.N,SPI1_MOSI*%
X71555000Y-96785000D03*
%TO.P,J2,10,10*%
%TO.N,Com*%
X70655000Y-96785000D03*
%TO.P,J2,9,09*%
X69755000Y-96785000D03*
D37*
%TO.P,J2,8,08*%
X68595000Y-95625000D03*
%TO.P,J2,7,07*%
%TO.N,+1V2*%
X68595000Y-94725000D03*
%TO.P,J2,6,06*%
%TO.N,Com*%
X68595000Y-93825000D03*
%TO.P,J2,5,05*%
%TO.N,unconnected-(J2-05-Pad5)*%
X68595000Y-92925000D03*
%TO.P,J2,4,04*%
%TO.N,unconnected-(J2-04-Pad4)*%
X68595000Y-92025000D03*
%TO.P,J2,3,03*%
%TO.N,unconnected-(J2-03-Pad3)*%
X68595000Y-91125000D03*
%TO.P,J2,2,02*%
%TO.N,SPI_VSYNC*%
X68595000Y-90225000D03*
%TO.P,J2,1,01*%
%TO.N,Com*%
X68595000Y-89325000D03*
%TD*%
D17*
%TO.P,J1,1,Pin_1*%
%TO.N,Net-(J1-Pin_1)*%
X167925000Y-54800000D03*
D18*
%TO.P,J1,2,Pin_2*%
%TO.N,Net-(J1-Pin_2)*%
X167925000Y-59880000D03*
%TO.P,J1,3,Pin_3*%
%TO.N,Net-(J1-Pin_3)*%
X167925000Y-64960000D03*
%TD*%
D38*
%TO.P,IC1,13,EP_5*%
%TO.N,Com*%
X164780000Y-103050000D03*
%TO.P,IC1,12,EP_4*%
X164780000Y-102400000D03*
%TO.P,IC1,11,EP_3*%
X167700000Y-102400000D03*
%TO.P,IC1,10,EP_2*%
X167700000Y-103050000D03*
D39*
%TO.P,IC1,9,EP_1*%
X166240000Y-102725000D03*
D40*
%TO.P,IC1,8,SW*%
%TO.N,Net-(D2-A)*%
X167215000Y-104025000D03*
%TO.P,IC1,7,EN*%
%TO.N,LCD_ON*%
X166565000Y-104025000D03*
%TO.P,IC1,6,VO*%
%TO.N,Net-(D2-K)*%
X165915000Y-104025000D03*
%TO.P,IC1,5,N.C.*%
%TO.N,unconnected-(IC1-N.C.-Pad5)*%
X165265000Y-104025000D03*
%TO.P,IC1,4,FB*%
%TO.N,LEDK*%
X165265000Y-101425000D03*
%TO.P,IC1,3,GND*%
%TO.N,Com*%
X165915000Y-101425000D03*
%TO.P,IC1,2,RSET*%
%TO.N,Net-(IC1-RSET)*%
X166565000Y-101425000D03*
%TO.P,IC1,1,VI*%
%TO.N,Net-(IC1-VI)*%
X167215000Y-101425000D03*
%TD*%
D41*
%TO.P,D1,2,A*%
%TO.N,Net-(D1-A)*%
X160500000Y-76400000D03*
%TO.P,D1,1,K*%
%TO.N,+12V*%
X160500000Y-79700000D03*
%TD*%
D42*
%TO.P,C22,2*%
%TO.N,+5V*%
X116700000Y-71500000D03*
%TO.P,C22,1*%
%TO.N,Com*%
X117660000Y-71500000D03*
%TD*%
D43*
%TO.P,C21,1*%
%TO.N,Com*%
X121115000Y-110650000D03*
%TO.P,C21,2*%
%TO.N,Net-(U1-NRST)*%
X122075000Y-110650000D03*
%TD*%
D42*
%TO.P,C20,1*%
%TO.N,Com*%
X165380000Y-108500000D03*
%TO.P,C20,2*%
%TO.N,+2V8*%
X164420000Y-108500000D03*
%TD*%
D44*
%TO.P,C19,1*%
%TO.N,Com*%
X159400000Y-109560000D03*
%TO.P,C19,2*%
%TO.N,+2V8*%
X159400000Y-108600000D03*
%TD*%
D45*
%TO.P,C18,2*%
%TO.N,Net-(D2-K)*%
X170100000Y-104760000D03*
%TO.P,C18,1*%
%TO.N,Com*%
X170100000Y-103800000D03*
%TD*%
D43*
%TO.P,C17,2*%
%TO.N,Net-(IC1-VI)*%
X164280000Y-92400000D03*
%TO.P,C17,1*%
%TO.N,Com*%
X163320000Y-92400000D03*
%TD*%
%TO.P,C16,1*%
%TO.N,Com*%
X72840000Y-104100000D03*
%TO.P,C16,2*%
%TO.N,+2V8*%
X73800000Y-104100000D03*
%TD*%
%TO.P,C15,1*%
%TO.N,Com*%
X113240000Y-76900000D03*
%TO.P,C15,2*%
%TO.N,Net-(U1-VCAPDSI)*%
X114200000Y-76900000D03*
%TD*%
%TO.P,C14,1*%
%TO.N,Com*%
X109965000Y-86300000D03*
%TO.P,C14,2*%
%TO.N,Net-(C12-Pad1)*%
X110925000Y-86300000D03*
%TD*%
%TO.P,C13,1*%
%TO.N,Com*%
X109945000Y-87800000D03*
%TO.P,C13,2*%
%TO.N,+2V8*%
X110905000Y-87800000D03*
%TD*%
%TO.P,C12,1*%
%TO.N,Net-(C12-Pad1)*%
X109945000Y-84800000D03*
%TO.P,C12,2*%
%TO.N,+2V8*%
X110905000Y-84800000D03*
%TD*%
%TO.P,C11,1*%
%TO.N,Com*%
X109925000Y-81800000D03*
%TO.P,C11,2*%
%TO.N,Net-(U1-VCAPDSI)*%
X110885000Y-81800000D03*
%TD*%
D42*
%TO.P,C10,2*%
%TO.N,Com*%
X120905000Y-68800000D03*
%TO.P,C10,1*%
%TO.N,+2V8*%
X121865000Y-68800000D03*
%TD*%
D43*
%TO.P,C9,1*%
%TO.N,Com*%
X109445000Y-91800000D03*
%TO.P,C9,2*%
%TO.N,+2V8*%
X110405000Y-91800000D03*
%TD*%
D45*
%TO.P,C8,2*%
%TO.N,+1V8*%
X135295000Y-102305000D03*
%TO.P,C8,1*%
%TO.N,Com*%
X135295000Y-101345000D03*
%TD*%
D43*
%TO.P,C7,2*%
%TO.N,+1V8*%
X133275000Y-103805000D03*
%TO.P,C7,1*%
%TO.N,Com*%
X132315000Y-103805000D03*
%TD*%
%TO.P,C6,2*%
%TO.N,+2V8*%
X129775000Y-103805000D03*
%TO.P,C6,1*%
%TO.N,Com*%
X128815000Y-103805000D03*
%TD*%
%TO.P,C5,1*%
%TO.N,Com*%
X81700000Y-93800000D03*
%TO.P,C5,2*%
%TO.N,Net-(C5-Pad2)*%
X82660000Y-93800000D03*
%TD*%
%TO.P,C4,1*%
%TO.N,Com*%
X78840000Y-83400000D03*
%TO.P,C4,2*%
%TO.N,+2V8*%
X79800000Y-83400000D03*
%TD*%
D42*
%TO.P,C3,1*%
%TO.N,Com*%
X76600000Y-99400000D03*
%TO.P,C3,2*%
%TO.N,+2V8*%
X75640000Y-99400000D03*
%TD*%
D46*
%TO.N,Com*%
X120650000Y-34500000D03*
X120650000Y-33875000D03*
%TO.N,USB_DP*%
X126463000Y-34250000D03*
X118825000Y-34225000D03*
%TO.N,Net-(J2-Pad12)*%
X84200000Y-87100000D03*
X81425000Y-87100000D03*
X80775000Y-87100000D03*
X79475000Y-87100000D03*
X77725000Y-87925000D03*
X116225000Y-80475000D03*
X75175000Y-89325000D03*
X75175000Y-88825000D03*
%TO.N,USB_DP*%
X121125000Y-83700000D03*
X118500000Y-32725000D03*
%TO.N,USB_DN*%
X118125000Y-85050000D03*
X119050000Y-82475000D03*
X119525000Y-82475000D03*
X117650000Y-33000000D03*
X117525000Y-32425000D03*
X117750000Y-32050000D03*
%TO.N,UART8_RX*%
X120305800Y-65392600D03*
X115175000Y-84844900D03*
%TO.N,Net-(SW1-A)*%
X133606100Y-82785000D03*
%TO.N,UART8_TX*%
X151683900Y-63905000D03*
X152656800Y-69838400D03*
X147123800Y-76755000D03*
X116797000Y-76755000D03*
X115175100Y-84130300D03*
%TO.N,VALVECTRL*%
X156704600Y-78767300D03*
X118863700Y-86550000D03*
X118300000Y-87025000D03*
%TO.N,Net-(J7-CC1)*%
X120255700Y-35775000D03*
X119149200Y-31926700D03*
%TO.N,Net-(J7-CC2)*%
X115916500Y-34600000D03*
X116155000Y-31927300D03*
%TO.N,INTERRUPT_REQUEST*%
X68397200Y-108550000D03*
X68098800Y-99601400D03*
%TO.N,I2C4_SCL*%
X68603300Y-103400000D03*
X68885000Y-108530300D03*
X115840500Y-87050000D03*
X114814100Y-89699800D03*
X93938800Y-89699800D03*
X88663000Y-100293700D03*
%TO.N,I2C4_SDA*%
X117150000Y-87450000D03*
X110640900Y-107788700D03*
%TO.N,DSI_D0N*%
X119175000Y-87807200D03*
X130997500Y-115722900D03*
%TO.N,DSI_D1P*%
X160102800Y-116023300D03*
X154279800Y-87050000D03*
%TO.N,LCD_RESET*%
X167325000Y-114026700D03*
X167578800Y-109522400D03*
X69919100Y-108073300D03*
X69511000Y-104439000D03*
X162112100Y-98695500D03*
%TO.N,DSI_D0P*%
X164965200Y-115831600D03*
X155105400Y-88133600D03*
X119650000Y-88133600D03*
X119170300Y-87619600D03*
%TO.N,DSI_CKN*%
X154413200Y-87300000D03*
X165013000Y-116023300D03*
%TO.N,DSI_D1N*%
X119749400Y-86800000D03*
X132394400Y-115921600D03*
%TO.N,DSI_CKP*%
X138094400Y-116826700D03*
X128576500Y-87511700D03*
%TO.N,D3*%
X121917300Y-85016000D03*
X130671700Y-99950000D03*
%TO.N,D1*%
X124640400Y-85550000D03*
X131078300Y-99950000D03*
%TO.N,DCMI_HSYNC*%
X130675000Y-102000000D03*
X128115500Y-99368000D03*
X116989200Y-99368000D03*
X114675000Y-89356000D03*
%TO.N,MASTERCLOCK*%
X130771200Y-89680400D03*
X132875000Y-99690400D03*
%TO.N,D6*%
X117189900Y-99698300D03*
X115196200Y-85408800D03*
%TO.N,I2C2_SCL*%
X131475000Y-102000000D03*
X130771200Y-91664600D03*
X121846700Y-91664600D03*
X118229500Y-88047400D03*
X110339300Y-87131600D03*
X110283300Y-86807000D03*
%TO.N,DCMI_VSYNC*%
X129871700Y-102054100D03*
X121191900Y-84580600D03*
X118292300Y-84580600D03*
X116675000Y-84380900D03*
%TO.N,D4*%
X125969300Y-100208300D03*
X122987800Y-86680500D03*
X119861100Y-86680500D03*
X117675000Y-85327500D03*
%TO.N,D2*%
X118075800Y-85950800D03*
X121732800Y-99554500D03*
%TO.N,D7*%
X121171800Y-99950000D03*
X114175000Y-84289900D03*
%TO.N,D0*%
X118965500Y-86050000D03*
X119600000Y-87630500D03*
X127723800Y-87630500D03*
X131422500Y-99692700D03*
%TO.N,DCMI_PIXCLK*%
X115150000Y-88967100D03*
X116219100Y-99143100D03*
%TO.N,I2C2_SDA*%
X131871700Y-102000000D03*
X131559300Y-92656700D03*
%TO.N,D5*%
X120123600Y-83076900D03*
X129478300Y-99950000D03*
%TO.N,NC4*%
X129573400Y-102251700D03*
X117767700Y-84142700D03*
X118787500Y-83555400D03*
X119500400Y-83555400D03*
%TO.N,NC9*%
X130258000Y-102251700D03*
X124131900Y-88031900D03*
X119090000Y-87980000D03*
X116175000Y-84289900D03*
%TO.N,SPI_PWCTRL*%
X107663300Y-90772700D03*
X113756500Y-84562900D03*
%TO.N,MASTERCLOCK_LEPTON*%
X75472300Y-87668300D03*
X77029300Y-90675000D03*
%TO.N,SPI1_CS*%
X74667200Y-96785000D03*
X80297600Y-90878400D03*
X96742100Y-90878400D03*
X99593100Y-87265300D03*
%TO.N,I2C1_SDA*%
X74520100Y-91125000D03*
X74067600Y-69838400D03*
X74067600Y-81743600D03*
X114403500Y-83054300D03*
X115175000Y-84380900D03*
%TO.N,SPI1_SCK*%
X75613400Y-96288300D03*
X80069200Y-91832500D03*
X113818900Y-90053700D03*
X115175000Y-87278100D03*
%TO.N,I2C1_SCL*%
X81614700Y-85891900D03*
X77760000Y-92025000D03*
X113336200Y-83550000D03*
X115700000Y-85150000D03*
%TO.N,SPI1_MOSI*%
X74799200Y-97281700D03*
X76341500Y-98495800D03*
X108452800Y-96193700D03*
X114675000Y-87817700D03*
%TO.N,Net-(J1-Pin_1)*%
X153720300Y-60354700D03*
X154822300Y-54956900D03*
%TO.N,Net-(J1-Pin_2)*%
X155371400Y-59880000D03*
X155246500Y-64563400D03*
%TO.N,LEDK*%
X161925000Y-114026700D03*
X162302300Y-101585600D03*
%TO.N,LCD_ON*%
X166306600Y-104387400D03*
X167703800Y-113073300D03*
X119942900Y-88947100D03*
X123436400Y-98802800D03*
%TO.N,Net-(D2-A)*%
X126698100Y-75490000D03*
X132610600Y-83727800D03*
X162604800Y-83727800D03*
X168667800Y-100687700D03*
%TO.N,Net-(D1-A)*%
X161280200Y-76400000D03*
%TO.N,+12V*%
X115096700Y-79517100D03*
%TO.N,Net-(U1-NRST)*%
X121717600Y-110650000D03*
X115713300Y-86880000D03*
X117082700Y-89059400D03*
X117808400Y-89542100D03*
%TO.N,Net-(D2-K)*%
X160859500Y-77066100D03*
X165663300Y-104025000D03*
X165748200Y-104760000D03*
%TO.N,Net-(U1-VCAPDSI)*%
X119034100Y-88497400D03*
X120176400Y-89813800D03*
X117643500Y-82267500D03*
X119155900Y-84269000D03*
X120375000Y-88525000D03*
X119942900Y-84389700D03*
%TO.N,+1V8*%
X133472700Y-102000000D03*
X128005800Y-68256400D03*
X88839000Y-62897700D03*
%TO.N,Net-(C5-Pad2)*%
X79864400Y-85100000D03*
X77775000Y-89375000D03*
X78664505Y-92018705D03*
%TO.N,+2V8*%
X165225000Y-114223300D03*
X163599600Y-108600000D03*
X162714800Y-105554000D03*
X123043300Y-70600000D03*
X119942900Y-83899400D03*
X87994800Y-63885800D03*
X80037900Y-90671000D03*
X77711700Y-93825000D03*
X68370800Y-108788300D03*
X67750300Y-104270800D03*
X60478300Y-103400000D03*
X60469300Y-98609300D03*
X60519300Y-108196200D03*
X81031200Y-83727800D03*
X165025000Y-110010200D03*
X75649600Y-99787300D03*
X75793200Y-97281700D03*
X113638200Y-86800000D03*
X114175000Y-88050000D03*
X113863200Y-84075000D03*
X113477200Y-85050000D03*
X76057200Y-102577700D03*
X82346600Y-84487900D03*
X82620100Y-89900400D03*
X111734600Y-91800000D03*
X114175000Y-83425000D03*
X118722100Y-85203500D03*
X117675100Y-83550000D03*
X129075000Y-102000000D03*
X124693200Y-88800000D03*
X118768200Y-83948200D03*
%TO.N,+1V2*%
X70877200Y-94317200D03*
%TO.N,+5V*%
X150667200Y-55771200D03*
X117061100Y-71500000D03*
X118703500Y-85800000D03*
X167573300Y-93900000D03*
X163322400Y-66576800D03*
X149086800Y-66576800D03*
X95953200Y-36107000D03*
X120494400Y-66193400D03*
X111668400Y-34913300D03*
%TO.N,Com*%
X70655000Y-96288300D03*
X70755900Y-104100000D03*
X70635000Y-108073300D03*
X121571200Y-110258000D03*
X121766000Y-105554000D03*
X163681100Y-92400000D03*
X115913800Y-71887200D03*
X113720000Y-76783100D03*
X117675000Y-88800000D03*
X165335100Y-108111900D03*
X164780000Y-103243300D03*
X70972500Y-110573300D03*
X163599600Y-96625100D03*
X155278100Y-76743300D03*
X155268900Y-69838400D03*
X114255800Y-34600000D03*
X113866200Y-31926700D03*
X106896000Y-37099100D03*
X155246500Y-64770000D03*
X118135700Y-88390100D03*
X118774700Y-84449300D03*
X119175000Y-85383800D03*
X120746700Y-35157300D03*
X121268200Y-68580300D03*
X150667200Y-60649000D03*
X109858800Y-91800000D03*
X110270800Y-88120600D03*
X113675000Y-85800000D03*
X113822100Y-86596000D03*
X110274500Y-86609500D03*
X111702700Y-78600000D03*
X113636900Y-83293900D03*
X118675000Y-86282000D03*
X160659800Y-77775200D03*
X77808300Y-90675000D03*
X77660900Y-89775000D03*
X126363000Y-61324500D03*
X114438800Y-88550000D03*
X77808300Y-91662500D03*
%TD*%
D47*
%TO.N,Net-(U1-VCAPDSI)*%
X119061700Y-88525000D02*
X119034100Y-88497400D01*
X120375000Y-88525000D02*
X119061700Y-88525000D01*
%TO.N,DSI_D0P*%
X155105400Y-88133600D02*
X119650000Y-88133600D01*
%TO.N,VALVECTRL*%
X118175000Y-87150000D02*
X118175000Y-87550000D01*
X118175000Y-87550000D02*
X117925000Y-87800000D01*
X118300000Y-87025000D02*
X118175000Y-87150000D01*
%TO.N,I2C4_SDA*%
X117300000Y-87300000D02*
X117425000Y-87300000D01*
X117150000Y-87450000D02*
X117300000Y-87300000D01*
%TO.N,SPI1_SCK*%
X73555700Y-96225000D02*
X75550100Y-96225000D01*
X73356500Y-96289800D02*
X73490900Y-96289800D01*
X73355000Y-96288300D02*
X73356500Y-96289800D01*
X73490900Y-96289800D02*
X73555700Y-96225000D01*
X73355000Y-96785000D02*
X73355000Y-96288300D01*
X75550100Y-96225000D02*
X75613400Y-96288300D01*
%TO.N,SPI_VSYNC*%
X69091700Y-90225000D02*
X68595000Y-90225000D01*
X70391700Y-88925000D02*
X69091700Y-90225000D01*
X77650000Y-88925000D02*
X70391700Y-88925000D01*
X77750000Y-89226900D02*
X77750000Y-89025000D01*
X77750000Y-89025000D02*
X77650000Y-88925000D01*
X77845500Y-89322400D02*
X77750000Y-89226900D01*
X78822500Y-89322400D02*
X77845500Y-89322400D01*
X114495300Y-86050000D02*
X111792300Y-86050000D01*
X111792300Y-86050000D02*
X110917900Y-86924400D01*
X81220500Y-86924400D02*
X78822500Y-89322400D01*
X114636700Y-85908600D02*
X114495300Y-86050000D01*
X110917900Y-86924400D02*
X81220500Y-86924400D01*
X114824300Y-85040600D02*
X114636700Y-85228200D01*
X117684400Y-85040600D02*
X114824300Y-85040600D01*
X117925000Y-84800000D02*
X117684400Y-85040600D01*
X114636700Y-85228200D02*
X114636700Y-85908600D01*
%TO.N,Com*%
X70655000Y-96785000D02*
X70655000Y-97281700D01*
X70205000Y-97281700D02*
X70655000Y-97281700D01*
X69755000Y-96785000D02*
X69755000Y-97281700D01*
X69755000Y-97281700D02*
X70205000Y-97281700D01*
%TO.N,SPI1_MOSI*%
X71555000Y-97325000D02*
X74755900Y-97325000D01*
X74755900Y-97325000D02*
X74799200Y-97281700D01*
X71555000Y-96785000D02*
X71555000Y-97325000D01*
%TO.N,Net-(C5-Pad2)*%
X78664505Y-92018705D02*
X80878705Y-92018705D01*
X80878705Y-92018705D02*
X82660000Y-93800000D01*
%TO.N,Com*%
X77660900Y-89775000D02*
X78210000Y-89775000D01*
%TO.N,Net-(C5-Pad2)*%
X77725000Y-89325000D02*
X77775000Y-89375000D01*
X77215000Y-89325000D02*
X77725000Y-89325000D01*
%TO.N,NC9*%
X119141900Y-88031900D02*
X124131900Y-88031900D01*
X119090000Y-87980000D02*
X119141900Y-88031900D01*
%TO.N,DCMI_PIXCLK*%
X115092100Y-88967100D02*
X115150000Y-88967100D01*
X114925000Y-88800000D02*
X115092100Y-88967100D01*
%TO.N,Com*%
X115675000Y-88550000D02*
X115925000Y-88800000D01*
X114175000Y-88736500D02*
X114175000Y-88883200D01*
X114175000Y-88883200D02*
X114026300Y-89031900D01*
X114438800Y-88550000D02*
X114361500Y-88550000D01*
X114438800Y-88550000D02*
X115675000Y-88550000D01*
X114361500Y-88550000D02*
X114175000Y-88736500D01*
X114026300Y-89031900D02*
X113425000Y-89031900D01*
%TO.N,D0*%
X119600000Y-87630500D02*
X127723800Y-87630500D01*
%TO.N,DSI_D0N*%
X119417800Y-87807200D02*
X119425000Y-87800000D01*
X119175000Y-87807200D02*
X119417800Y-87807200D01*
%TO.N,I2C1_SCL*%
X115550000Y-85300000D02*
X115425000Y-85300000D01*
X115700000Y-85150000D02*
X115550000Y-85300000D01*
%TO.N,+2V8*%
X114175000Y-83425000D02*
X114300000Y-83425000D01*
X114300000Y-83425000D02*
X114425000Y-83300000D01*
X113925000Y-84013200D02*
X113925000Y-83800000D01*
X113863200Y-84075000D02*
X113925000Y-84013200D01*
%TO.N,D7*%
X114175000Y-84289900D02*
X113935100Y-84289900D01*
X113935100Y-84289900D02*
X113925000Y-84300000D01*
%TO.N,NC9*%
X115935100Y-84289900D02*
X115925000Y-84300000D01*
X116175000Y-84289900D02*
X115935100Y-84289900D01*
%TO.N,D4*%
X117452500Y-85327500D02*
X117425000Y-85300000D01*
X117675000Y-85327500D02*
X117452500Y-85327500D01*
%TO.N,Com*%
X114155000Y-31926700D02*
X113866200Y-31926700D01*
X114155000Y-31350000D02*
X114155000Y-31926700D01*
X120650000Y-35060600D02*
X120746700Y-35157300D01*
X120650000Y-34500000D02*
X120650000Y-35060600D01*
X120655000Y-33870000D02*
X120650000Y-33875000D01*
X120655000Y-31926700D02*
X120655000Y-33870000D01*
%TO.N,USB_DP*%
X126438000Y-34225000D02*
X126463000Y-34250000D01*
X118825000Y-34225000D02*
X126438000Y-34225000D01*
%TO.N,Net-(J2-Pad12)*%
X117625000Y-81875000D02*
X125200000Y-81875000D01*
X116225000Y-80475000D02*
X117625000Y-81875000D01*
X79475000Y-87100000D02*
X80775000Y-87100000D01*
X76825000Y-88825000D02*
X77725000Y-87925000D01*
X75175000Y-88825000D02*
X76825000Y-88825000D01*
X72455000Y-92045000D02*
X75175000Y-89325000D01*
X81425000Y-87100000D02*
X84200000Y-87100000D01*
X72455000Y-96785000D02*
X72455000Y-92045000D01*
%TO.N,USB_DP*%
X121375000Y-84800000D02*
X119425000Y-84800000D01*
X121475000Y-84700000D02*
X121375000Y-84800000D01*
X121475000Y-84050000D02*
X121475000Y-84700000D01*
X121125000Y-83700000D02*
X121475000Y-84050000D01*
X118500000Y-32450000D02*
X118500000Y-32725000D01*
%TO.N,USB_DN*%
X118533578Y-85050000D02*
X118783578Y-84800000D01*
X118125000Y-85050000D02*
X118533578Y-85050000D01*
X118783578Y-84800000D02*
X118925000Y-84800000D01*
X117537500Y-32887500D02*
X117650000Y-33000000D01*
X119525000Y-82475000D02*
X119050000Y-82475000D01*
X117525000Y-32875000D02*
X117537500Y-32887500D01*
X116655000Y-31905000D02*
X117525000Y-32775000D01*
X116655000Y-31350000D02*
X116655000Y-31905000D01*
X117525000Y-32775000D02*
X117525000Y-32875000D01*
X117525000Y-32425000D02*
X117525000Y-32775000D01*
X117655000Y-31955000D02*
X117750000Y-32050000D01*
X117655000Y-31350000D02*
X117655000Y-31955000D01*
%TO.N,USB_DP*%
X117654000Y-32200000D02*
X118250000Y-32200000D01*
X117155000Y-31701000D02*
X117654000Y-32200000D01*
X118250000Y-32200000D02*
X118500000Y-32450000D01*
X117155000Y-31350000D02*
X117155000Y-31701000D01*
X118155000Y-32105000D02*
X118250000Y-32200000D01*
X118155000Y-31350000D02*
X118155000Y-32105000D01*
%TO.N,+5V*%
X118456700Y-33125000D02*
X119655000Y-31926700D01*
X116379200Y-33125000D02*
X118456700Y-33125000D01*
X115155000Y-31900800D02*
X116379200Y-33125000D01*
%TO.N,UART8_RX*%
X114969900Y-84844900D02*
X114925000Y-84800000D01*
X115175000Y-84844900D02*
X114969900Y-84844900D01*
X148282600Y-65392600D02*
X120305800Y-65392600D01*
X148700000Y-65810000D02*
X148282600Y-65392600D01*
%TO.N,Net-(SW1-A)*%
X115175000Y-83550000D02*
X115425000Y-83800000D01*
X115640600Y-82785000D02*
X133606100Y-82785000D01*
X115175000Y-83250600D02*
X115640600Y-82785000D01*
X115175000Y-83550000D02*
X115175000Y-83250600D01*
X108451300Y-81201300D02*
X105850000Y-78600000D01*
X110167500Y-81201300D02*
X108451300Y-81201300D01*
X110413900Y-81447700D02*
X110167500Y-81201300D01*
X110413900Y-81961800D02*
X110413900Y-81447700D01*
X111049600Y-82597500D02*
X110413900Y-81961800D01*
X114090600Y-82597500D02*
X111049600Y-82597500D01*
X114675000Y-83181900D02*
X114090600Y-82597500D01*
X114675000Y-83383100D02*
X114675000Y-83181900D01*
X114841900Y-83550000D02*
X114675000Y-83383100D01*
X115175000Y-83550000D02*
X114841900Y-83550000D01*
%TO.N,SPI1_MISO*%
X124561700Y-82886700D02*
X125200000Y-83525000D01*
X115979800Y-82886700D02*
X124561700Y-82886700D01*
X115676500Y-83190000D02*
X115979800Y-82886700D01*
X115676500Y-83551500D02*
X115676500Y-83190000D01*
X115925000Y-83800000D02*
X115676500Y-83551500D01*
%TO.N,UART8_TX*%
X148700000Y-63270000D02*
X148700000Y-62000000D01*
X148700000Y-64540000D02*
X148700000Y-63905000D01*
X148700000Y-63905000D02*
X148700000Y-63270000D01*
X154061600Y-69838400D02*
X154100000Y-69800000D01*
X152656800Y-69838400D02*
X154061600Y-69838400D01*
X148700000Y-63905000D02*
X151683900Y-63905000D01*
X115094700Y-84130300D02*
X114925000Y-84300000D01*
X115175100Y-84130300D02*
X115094700Y-84130300D01*
X147123800Y-76755000D02*
X116797000Y-76755000D01*
%TO.N,VALVECTRL*%
X155817300Y-78767300D02*
X155800000Y-78750000D01*
X156704600Y-78767300D02*
X155817300Y-78767300D01*
X156531300Y-86550000D02*
X118863700Y-86550000D01*
X157081300Y-87100000D02*
X156531300Y-86550000D01*
X157920000Y-87100000D02*
X157081300Y-87100000D01*
%TO.N,Net-(J7-CC1)*%
X119155000Y-31350000D02*
X119155000Y-31926700D01*
X119149200Y-31926700D02*
X119155000Y-31926700D01*
X119775000Y-35775000D02*
X120255700Y-35775000D01*
%TO.N,Net-(J7-CC2)*%
X116155000Y-31927300D02*
X116155000Y-31350000D01*
X115425000Y-34600000D02*
X115916500Y-34600000D01*
%TO.N,USB_DP*%
X118155000Y-31061600D02*
X118155000Y-31350000D01*
%TO.N,INTERRUPT_REQUEST*%
X68635000Y-108550000D02*
X68397200Y-108550000D01*
X62651400Y-99601400D02*
X61550000Y-98500000D01*
X68098800Y-99601400D02*
X62651400Y-99601400D01*
X115425000Y-89383700D02*
X115425000Y-89300000D01*
X104996900Y-99811800D02*
X115425000Y-89383700D01*
X76391300Y-99811800D02*
X104996900Y-99811800D01*
X76138400Y-99558900D02*
X76391300Y-99811800D01*
X76138400Y-99267400D02*
X76138400Y-99558900D01*
X75880100Y-99009100D02*
X76138400Y-99267400D01*
X68691100Y-99009100D02*
X75880100Y-99009100D01*
X68098800Y-99601400D02*
X68691100Y-99009100D01*
%TO.N,I2C4_SCL*%
X69115300Y-108530300D02*
X69135000Y-108550000D01*
X68885000Y-108530300D02*
X69115300Y-108530300D01*
X61600000Y-103400000D02*
X68603300Y-103400000D01*
X71709600Y-100293700D02*
X68603300Y-103400000D01*
X88663000Y-100293700D02*
X71709600Y-100293700D01*
X114814100Y-89699800D02*
X93938800Y-89699800D01*
X117675000Y-87050000D02*
X117925000Y-87300000D01*
X115840500Y-87050000D02*
X117675000Y-87050000D01*
%TO.N,I2C4_SDA*%
X69635000Y-108550000D02*
X69635000Y-108073300D01*
X69561700Y-108000000D02*
X69635000Y-108073300D01*
X61650000Y-108000000D02*
X69561700Y-108000000D01*
X69919600Y-107788700D02*
X69635000Y-108073300D01*
X110640900Y-107788700D02*
X69919600Y-107788700D01*
%TO.N,DSI_D0N*%
X166425000Y-116425000D02*
X166425000Y-116023300D01*
X166124600Y-115722900D02*
X166425000Y-116023300D01*
X130997500Y-115722900D02*
X166124600Y-115722900D01*
%TO.N,DSI_D1P*%
X119175000Y-87050000D02*
X118925000Y-86800000D01*
X154279800Y-87050000D02*
X119175000Y-87050000D01*
X163425000Y-116023300D02*
X160102800Y-116023300D01*
X163425000Y-116425000D02*
X163425000Y-116023300D01*
%TO.N,LCD_RESET*%
X168652600Y-109522400D02*
X168775000Y-109400000D01*
X167578800Y-109522400D02*
X168652600Y-109522400D01*
X167325000Y-113550000D02*
X167325000Y-114026700D01*
X69511000Y-104439000D02*
X69950000Y-104000000D01*
X70135000Y-108550000D02*
X70135000Y-108073300D01*
X70135000Y-108073300D02*
X69919100Y-108073300D01*
X100618900Y-104606100D02*
X115925000Y-89300000D01*
X69678100Y-104606100D02*
X100618900Y-104606100D01*
X69511000Y-104439000D02*
X69678100Y-104606100D01*
X125320500Y-98695500D02*
X115925000Y-89300000D01*
X162112100Y-98695500D02*
X125320500Y-98695500D01*
%TO.N,DSI_D0P*%
X164965200Y-115831700D02*
X164965200Y-115831600D01*
X165633400Y-115831700D02*
X164965200Y-115831700D01*
X165825000Y-116023300D02*
X165633400Y-115831700D01*
X119105400Y-87619600D02*
X119170300Y-87619600D01*
X118925000Y-87800000D02*
X119105400Y-87619600D01*
X165825000Y-116425000D02*
X165825000Y-116023300D01*
%TO.N,DSI_CKN*%
X165225000Y-116425000D02*
X165225000Y-116023300D01*
X119425000Y-87300000D02*
X154413200Y-87300000D01*
X165225000Y-116023300D02*
X165013000Y-116023300D01*
%TO.N,DSI_D1N*%
X164025000Y-116425000D02*
X164025000Y-116023300D01*
X119425000Y-86800000D02*
X119749400Y-86800000D01*
X163923300Y-115921600D02*
X132394400Y-115921600D01*
X164025000Y-116023300D02*
X163923300Y-115921600D01*
%TO.N,DSI_CKP*%
X164625000Y-116425000D02*
X164625000Y-116826700D01*
X164625000Y-116826700D02*
X138094400Y-116826700D01*
X119136700Y-87511700D02*
X128576500Y-87511700D01*
X118925000Y-87300000D02*
X119136700Y-87511700D01*
%TO.N,D3*%
X130475000Y-99950000D02*
X130671700Y-99950000D01*
X118709000Y-85016000D02*
X121917300Y-85016000D01*
X118425000Y-85300000D02*
X118709000Y-85016000D01*
%TO.N,D1*%
X131275000Y-99950000D02*
X131078300Y-99950000D01*
X118175000Y-85550000D02*
X124640400Y-85550000D01*
X117925000Y-85300000D02*
X118175000Y-85550000D01*
%TO.N,DCMI_HSYNC*%
X114481000Y-89356000D02*
X114425000Y-89300000D01*
X114675000Y-89356000D02*
X114481000Y-89356000D01*
X116989200Y-99368000D02*
X128115500Y-99368000D01*
X130875000Y-102000000D02*
X130675000Y-102000000D01*
%TO.N,MASTERCLOCK*%
X132875000Y-99690400D02*
X132875000Y-99950000D01*
X118805400Y-89680400D02*
X118425000Y-89300000D01*
X130771200Y-89680400D02*
X118805400Y-89680400D01*
%TO.N,D6*%
X115033800Y-85408800D02*
X114925000Y-85300000D01*
X115196200Y-85408800D02*
X115033800Y-85408800D01*
X129275000Y-99950000D02*
X129275000Y-99698300D01*
X129275000Y-99698300D02*
X117189900Y-99698300D01*
%TO.N,I2C2_SCL*%
X131275000Y-102000000D02*
X131475000Y-102000000D01*
X117672400Y-88047400D02*
X117425000Y-87800000D01*
X118229500Y-88047400D02*
X117672400Y-88047400D01*
X107932000Y-86807000D02*
X107425000Y-86300000D01*
X110283300Y-86807000D02*
X107932000Y-86807000D01*
X112942700Y-87131600D02*
X110339300Y-87131600D01*
X113396600Y-87585500D02*
X112942700Y-87131600D01*
X117210500Y-87585500D02*
X113396600Y-87585500D01*
X117425000Y-87800000D02*
X117210500Y-87585500D01*
X130771200Y-91664600D02*
X121846700Y-91664600D01*
%TO.N,DCMI_VSYNC*%
X116505900Y-84380900D02*
X116425000Y-84300000D01*
X116675000Y-84380900D02*
X116505900Y-84380900D01*
X129871700Y-101799800D02*
X129871700Y-102054100D01*
X129923200Y-101748300D02*
X129871700Y-101799800D01*
X130475000Y-101748300D02*
X129923200Y-101748300D01*
X130475000Y-102000000D02*
X130475000Y-101748300D01*
X118292300Y-84580600D02*
X121191900Y-84580600D01*
%TO.N,D4*%
X122987800Y-86680500D02*
X119861100Y-86680500D01*
X129820200Y-100208300D02*
X125969300Y-100208300D01*
X129878300Y-100150200D02*
X129820200Y-100208300D01*
X129878300Y-99950000D02*
X129878300Y-100150200D01*
X130075000Y-99950000D02*
X129878300Y-99950000D01*
%TO.N,D2*%
X130875000Y-99950000D02*
X130875000Y-99698300D01*
X117925000Y-85800000D02*
X118075800Y-85950800D01*
X130731200Y-99554500D02*
X130875000Y-99698300D01*
X121732800Y-99554500D02*
X130731200Y-99554500D01*
%TO.N,D7*%
X128875000Y-99950000D02*
X121171800Y-99950000D01*
%TO.N,D0*%
X118675000Y-86050000D02*
X118965500Y-86050000D01*
X118425000Y-85800000D02*
X118675000Y-86050000D01*
X131478300Y-99748500D02*
X131422500Y-99692700D01*
X131478300Y-99950000D02*
X131478300Y-99748500D01*
X131675000Y-99950000D02*
X131478300Y-99950000D01*
%TO.N,DCMI_PIXCLK*%
X132075000Y-99950000D02*
X132075000Y-99698300D01*
X131519800Y-99143100D02*
X132075000Y-99698300D01*
X116219100Y-99143100D02*
X131519800Y-99143100D01*
%TO.N,I2C2_SDA*%
X131675000Y-102000000D02*
X131871700Y-102000000D01*
X120281700Y-92656700D02*
X131559300Y-92656700D01*
X116925000Y-89300000D02*
X120281700Y-92656700D01*
X116677100Y-89052100D02*
X116925000Y-89300000D01*
X114373500Y-89052100D02*
X116677100Y-89052100D01*
X114175000Y-89250600D02*
X114373500Y-89052100D01*
X114175000Y-89402900D02*
X114175000Y-89250600D01*
X114027700Y-89550200D02*
X114175000Y-89402900D01*
X108165200Y-89550200D02*
X114027700Y-89550200D01*
X107425000Y-88810000D02*
X108165200Y-89550200D01*
%TO.N,D5*%
X129675000Y-99950000D02*
X129478300Y-99950000D01*
X118148100Y-83076900D02*
X120123600Y-83076900D01*
X117925000Y-83300000D02*
X118148100Y-83076900D01*
%TO.N,NC4*%
X130075000Y-102000000D02*
X130075000Y-102251700D01*
X130075000Y-102251700D02*
X129573400Y-102251700D01*
X117925000Y-84300000D02*
X117767700Y-84142700D01*
X118787500Y-83555400D02*
X119500400Y-83555400D01*
%TO.N,NC9*%
X132075000Y-102000000D02*
X132075000Y-102251700D01*
X130258000Y-102251700D02*
X132075000Y-102251700D01*
%TO.N,SPI_PWCTRL*%
X81225000Y-90225000D02*
X79892500Y-90225000D01*
X81450000Y-90000000D02*
X81225000Y-90225000D01*
X79892500Y-90225000D02*
X77215000Y-90225000D01*
X79964600Y-90772700D02*
X107663300Y-90772700D01*
X79892500Y-90700600D02*
X79964600Y-90772700D01*
X79892500Y-90225000D02*
X79892500Y-90700600D01*
X118367800Y-84800000D02*
X118425000Y-84800000D01*
X118130700Y-84562900D02*
X118367800Y-84800000D01*
X113756500Y-84562900D02*
X118130700Y-84562900D01*
%TO.N,MASTERCLOCK_LEPTON*%
X75155000Y-88165000D02*
X75155000Y-87668300D01*
X75155000Y-87668300D02*
X75472300Y-87668300D01*
X77610000Y-90675000D02*
X77029300Y-90675000D01*
X77760000Y-90825000D02*
X77610000Y-90675000D01*
X77760000Y-91050000D02*
X77760000Y-90825000D01*
X77849500Y-91139500D02*
X77760000Y-91050000D01*
X107486600Y-91139500D02*
X77849500Y-91139500D01*
X108775700Y-89850400D02*
X107486600Y-91139500D01*
X114807500Y-89850400D02*
X108775700Y-89850400D01*
X114925000Y-89732900D02*
X114807500Y-89850400D01*
X114925000Y-89300000D02*
X114925000Y-89732900D01*
%TO.N,SPI1_CS*%
X80297600Y-90878400D02*
X96742100Y-90878400D01*
X74255000Y-96785000D02*
X74667200Y-96785000D01*
X112890300Y-87265300D02*
X113425000Y-87800000D01*
X99593100Y-87265300D02*
X112890300Y-87265300D01*
%TO.N,I2C1_SDA*%
X69513400Y-69838400D02*
X67750000Y-68075000D01*
X74067600Y-69838400D02*
X69513400Y-69838400D01*
X77215000Y-91125000D02*
X74520100Y-91125000D01*
X111362500Y-83054300D02*
X114403500Y-83054300D01*
X110312200Y-82004000D02*
X111362500Y-83054300D01*
X110312200Y-81560600D02*
X110312200Y-82004000D01*
X110156000Y-81404400D02*
X110312200Y-81560600D01*
X74406800Y-81404400D02*
X110156000Y-81404400D01*
X74067600Y-81743600D02*
X74406800Y-81404400D01*
X115344100Y-84380900D02*
X115425000Y-84300000D01*
X115175000Y-84380900D02*
X115344100Y-84380900D01*
%TO.N,SPI1_SCK*%
X115403100Y-87278100D02*
X115425000Y-87300000D01*
X115175000Y-87278100D02*
X115403100Y-87278100D01*
X109096600Y-90053700D02*
X113818900Y-90053700D01*
X107317800Y-91832500D02*
X109096600Y-90053700D01*
X80069200Y-91832500D02*
X107317800Y-91832500D01*
%TO.N,I2C1_SCL*%
X77760000Y-92025000D02*
X77215000Y-92025000D01*
X107425000Y-83550000D02*
X107425000Y-83790000D01*
X107096900Y-83221900D02*
X107425000Y-83550000D01*
X105330300Y-83221900D02*
X107096900Y-83221900D01*
X102660300Y-85891900D02*
X105330300Y-83221900D01*
X81614700Y-85891900D02*
X102660300Y-85891900D01*
X107425000Y-83550000D02*
X113336200Y-83550000D01*
%TO.N,SPI1_MOSI*%
X82254200Y-98495800D02*
X83050000Y-97700000D01*
X76341500Y-98495800D02*
X82254200Y-98495800D01*
X84556300Y-96193700D02*
X108452800Y-96193700D01*
X83050000Y-97700000D02*
X84556300Y-96193700D01*
X114907300Y-87817700D02*
X114925000Y-87800000D01*
X114675000Y-87817700D02*
X114907300Y-87817700D01*
%TO.N,Net-(J1-Pin_1)*%
X167925000Y-54800000D02*
X155750000Y-54800000D01*
X153720300Y-60354700D02*
X154275000Y-59800000D01*
X155593100Y-54956900D02*
X155750000Y-54800000D01*
X154822300Y-54956900D02*
X155593100Y-54956900D01*
X153123200Y-60951800D02*
X153720300Y-60354700D01*
X147988100Y-60951800D02*
X153123200Y-60951800D01*
X145669900Y-63270000D02*
X147988100Y-60951800D01*
X143750000Y-63270000D02*
X145669900Y-63270000D01*
%TO.N,Net-(J1-Pin_2)*%
X153912500Y-64987500D02*
X154100000Y-64800000D01*
X144197500Y-64987500D02*
X153912500Y-64987500D01*
X143750000Y-64540000D02*
X144197500Y-64987500D01*
X167925000Y-59880000D02*
X157940300Y-59880000D01*
X156005000Y-59880000D02*
X155925000Y-59800000D01*
X157940300Y-59880000D02*
X156005000Y-59880000D01*
X154336600Y-64563400D02*
X154100000Y-64800000D01*
X155246500Y-64563400D02*
X154336600Y-64563400D01*
X157940300Y-59880000D02*
X155371400Y-59880000D01*
%TO.N,Net-(J1-Pin_3)*%
X160910000Y-64960000D02*
X160750000Y-64800000D01*
X167925000Y-64960000D02*
X160910000Y-64960000D01*
%TO.N,Net-(IC1-RSET)*%
X166565000Y-97340000D02*
X166525000Y-97300000D01*
X166565000Y-101425000D02*
X166565000Y-97340000D01*
%TO.N,LEDK*%
X160888300Y-97300000D02*
X160525000Y-97300000D01*
X165013300Y-101425000D02*
X160888300Y-97300000D01*
X165265000Y-101425000D02*
X165013300Y-101425000D01*
X164852700Y-101585600D02*
X165013300Y-101425000D01*
X162302300Y-101585600D02*
X164852700Y-101585600D01*
X161925000Y-113550000D02*
X161925000Y-114026700D01*
%TO.N,LCD_ON*%
X166565000Y-104025000D02*
X166313300Y-104025000D01*
X167925000Y-113550000D02*
X167925000Y-113073300D01*
X167925000Y-113073300D02*
X167703800Y-113073300D01*
X161512400Y-104387400D02*
X166306600Y-104387400D01*
X161125000Y-104000000D02*
X161512400Y-104387400D01*
X166313300Y-104380700D02*
X166306600Y-104387400D01*
X166313300Y-104025000D02*
X166313300Y-104380700D01*
X119777900Y-88947100D02*
X119942900Y-88947100D01*
X119425000Y-89300000D02*
X119777900Y-88947100D01*
X155927800Y-98802800D02*
X161125000Y-104000000D01*
X123436400Y-98802800D02*
X155927800Y-98802800D01*
%TO.N,Net-(D2-A)*%
X170200000Y-101291700D02*
X167466700Y-104025000D01*
X170200000Y-100775000D02*
X170200000Y-101291700D01*
X167215000Y-104025000D02*
X167466700Y-104025000D01*
X170112700Y-100687700D02*
X170200000Y-100775000D01*
X168667800Y-100687700D02*
X170112700Y-100687700D01*
X132610600Y-83727800D02*
X162604800Y-83727800D01*
X121425000Y-75490000D02*
X126698100Y-75490000D01*
%TO.N,Net-(D1-A)*%
X167000000Y-76400000D02*
X161280200Y-76400000D01*
X167500000Y-75900000D02*
X167000000Y-76400000D01*
X161280200Y-76400000D02*
X160500000Y-76400000D01*
%TO.N,+12V*%
X167500000Y-80980000D02*
X165923300Y-80980000D01*
X164643300Y-79700000D02*
X165923300Y-80980000D01*
X160500000Y-79700000D02*
X164643300Y-79700000D01*
X160317100Y-79517100D02*
X115096700Y-79517100D01*
X160500000Y-79700000D02*
X160317100Y-79517100D01*
%TO.N,Net-(U1-NRST)*%
X96900000Y-88400000D02*
X90400000Y-88400000D01*
X122075000Y-110650000D02*
X121717600Y-110650000D01*
X117537700Y-89059400D02*
X117082700Y-89059400D01*
X117636700Y-89158400D02*
X117537700Y-89059400D01*
X117636700Y-89370400D02*
X117636700Y-89158400D01*
X117808400Y-89542100D02*
X117636700Y-89370400D01*
X115425000Y-86880000D02*
X115425000Y-86800000D01*
X115277600Y-87027400D02*
X115425000Y-86880000D01*
X98272600Y-87027400D02*
X115277600Y-87027400D01*
X96900000Y-88400000D02*
X98272600Y-87027400D01*
X115425000Y-86880000D02*
X115713300Y-86880000D01*
%TO.N,Net-(D2-K)*%
X156944800Y-77066100D02*
X160859500Y-77066100D01*
X153963700Y-74085000D02*
X156944800Y-77066100D01*
X121425000Y-74085000D02*
X153963700Y-74085000D01*
X165915000Y-104025000D02*
X165663300Y-104025000D01*
X170100000Y-104760000D02*
X165748200Y-104760000D01*
%TO.N,Net-(IC1-VI)*%
X167673300Y-92400000D02*
X169173300Y-93900000D01*
X164280000Y-92400000D02*
X167673300Y-92400000D01*
X169700000Y-93900000D02*
X169173300Y-93900000D01*
X167215000Y-101425000D02*
X167466700Y-101425000D01*
X169700000Y-99200000D02*
X169700000Y-93900000D01*
X169691700Y-99200000D02*
X169700000Y-99200000D01*
X167466700Y-101425000D02*
X169691700Y-99200000D01*
X169700000Y-99200000D02*
X170200000Y-99200000D01*
%TO.N,Net-(C12-Pad1)*%
X109945000Y-85320000D02*
X110925000Y-86300000D01*
X109945000Y-84800000D02*
X109945000Y-85320000D01*
%TO.N,Net-(U1-VCAPDSI)*%
X117866900Y-89813800D02*
X120176400Y-89813800D01*
X117425000Y-89371900D02*
X117866900Y-89813800D01*
X117425000Y-89300000D02*
X117425000Y-89371900D01*
X119394000Y-84269000D02*
X119425000Y-84300000D01*
X119155900Y-84269000D02*
X119394000Y-84269000D01*
X114925000Y-83300000D02*
X114925000Y-82267500D01*
X113947300Y-81289700D02*
X114925000Y-82267500D01*
X114200000Y-81037000D02*
X113947300Y-81289700D01*
X114200000Y-76900000D02*
X114200000Y-81037000D01*
X113437000Y-81800000D02*
X110885000Y-81800000D01*
X113947300Y-81289700D02*
X113437000Y-81800000D01*
X119034100Y-88409100D02*
X119034100Y-88497400D01*
X118925000Y-88300000D02*
X119034100Y-88409100D01*
X119514700Y-84389700D02*
X119425000Y-84300000D01*
X119942900Y-84389700D02*
X119514700Y-84389700D01*
X114925000Y-82267500D02*
X117643500Y-82267500D01*
%TO.N,+1V8*%
X133776700Y-103303300D02*
X133776700Y-102305000D01*
X133275000Y-103805000D02*
X133776700Y-103303300D01*
X135295000Y-102305000D02*
X133776700Y-102305000D01*
X133373400Y-102000000D02*
X133275000Y-102000000D01*
X133275000Y-102000000D02*
X132875000Y-102000000D01*
X133373400Y-102000000D02*
X133422600Y-102000000D01*
X94197700Y-68256400D02*
X88839000Y-62897700D01*
X128005800Y-68256400D02*
X94197700Y-68256400D01*
X133422600Y-102000000D02*
X133472700Y-102000000D01*
X133472700Y-102001000D02*
X133472700Y-102000000D01*
X133776700Y-102305000D02*
X133472700Y-102001000D01*
%TO.N,Net-(C5-Pad2)*%
X81300000Y-85100000D02*
X79864400Y-85100000D01*
%TO.N,+2V8*%
X76055000Y-94488300D02*
X76718300Y-93825000D01*
X76055000Y-96785000D02*
X76055000Y-94488300D01*
X77215000Y-93825000D02*
X76718300Y-93825000D01*
X167025000Y-116425000D02*
X167025000Y-116023300D01*
X162525000Y-113550000D02*
X162525000Y-114026700D01*
X167025000Y-116023300D02*
X165225000Y-114223300D01*
X165028400Y-114026700D02*
X162525000Y-114026700D01*
X165225000Y-114223300D02*
X165028400Y-114026700D01*
X159400000Y-108600000D02*
X163599600Y-108600000D01*
X164320000Y-108600000D02*
X164420000Y-108500000D01*
X163599600Y-108600000D02*
X164320000Y-108600000D01*
X131000000Y-70600000D02*
X123043300Y-70600000D01*
X132600000Y-72200000D02*
X131000000Y-70600000D01*
X123043300Y-69978300D02*
X123043300Y-70600000D01*
X121865000Y-68800000D02*
X123043300Y-69978300D01*
X70289200Y-63885800D02*
X66100000Y-68075000D01*
X87994800Y-63885800D02*
X70289200Y-63885800D01*
X77215000Y-93825000D02*
X77711700Y-93825000D01*
X68135000Y-108550000D02*
X68135000Y-108788300D01*
X68135000Y-108788300D02*
X68135000Y-109026700D01*
X68029200Y-104270800D02*
X68300000Y-104000000D01*
X67750300Y-104270800D02*
X68029200Y-104270800D01*
X68135000Y-108788300D02*
X68370800Y-108788300D01*
X60009300Y-98609300D02*
X59900000Y-98500000D01*
X60469300Y-98609300D02*
X60009300Y-98609300D01*
X59950000Y-103400000D02*
X60478300Y-103400000D01*
X60196200Y-108196200D02*
X60000000Y-108000000D01*
X60519300Y-108196200D02*
X60196200Y-108196200D01*
X61349800Y-109026700D02*
X60519300Y-108196200D01*
X68135000Y-109026700D02*
X61349800Y-109026700D01*
X80703400Y-83400000D02*
X79800000Y-83400000D01*
X81031200Y-83727800D02*
X80703400Y-83400000D01*
X105775000Y-83790000D02*
X105775000Y-84400900D01*
X105775000Y-84400900D02*
X105775000Y-86300000D01*
X169814800Y-110010200D02*
X165025000Y-110010200D01*
X170425000Y-109400000D02*
X169814800Y-110010200D01*
X76055000Y-96785000D02*
X76055000Y-97281700D01*
X75793200Y-97281700D02*
X76055000Y-97281700D01*
X129471700Y-103501700D02*
X129471700Y-102000000D01*
X129775000Y-103805000D02*
X129471700Y-103501700D01*
X113925000Y-88800000D02*
X113425000Y-88800000D01*
X113925000Y-88800000D02*
X113925000Y-88300000D01*
X118175000Y-88550000D02*
X118425000Y-88300000D01*
X118175000Y-89050000D02*
X118175000Y-88550000D01*
X117925000Y-89300000D02*
X118175000Y-89050000D01*
X119175000Y-89050000D02*
X119425000Y-88800000D01*
X118175000Y-89050000D02*
X119175000Y-89050000D01*
X113675000Y-88050000D02*
X113925000Y-88300000D01*
X111155000Y-88050000D02*
X113675000Y-88050000D01*
X110905000Y-87800000D02*
X111155000Y-88050000D01*
X117675000Y-88550000D02*
X118175000Y-88550000D01*
X117425000Y-88300000D02*
X117675000Y-88550000D01*
X75640000Y-99777700D02*
X75649600Y-99787300D01*
X75640000Y-99400000D02*
X75640000Y-99777700D01*
X113925000Y-88300000D02*
X114175000Y-88050000D01*
X117175000Y-88050000D02*
X117425000Y-88300000D01*
X114175000Y-88050000D02*
X117175000Y-88050000D01*
X113425000Y-86800000D02*
X113638200Y-86800000D01*
X119524400Y-83899400D02*
X119425000Y-83800000D01*
X119942900Y-83899400D02*
X119524400Y-83899400D01*
X114636700Y-84011700D02*
X114425000Y-83800000D01*
X116213300Y-84011700D02*
X114636700Y-84011700D01*
X116425000Y-83800000D02*
X116213300Y-84011700D01*
X111155000Y-85050000D02*
X113477200Y-85050000D01*
X110905000Y-84800000D02*
X111155000Y-85050000D01*
X113727200Y-85300000D02*
X113925000Y-85300000D01*
X113477200Y-85050000D02*
X113727200Y-85300000D01*
X114425000Y-83800000D02*
X113925000Y-83800000D01*
X73117100Y-103417100D02*
X73800000Y-104100000D01*
X68882900Y-103417100D02*
X73117100Y-103417100D01*
X68300000Y-104000000D02*
X68882900Y-103417100D01*
X75322300Y-102577700D02*
X73800000Y-104100000D01*
X76057200Y-102577700D02*
X75322300Y-102577700D01*
X81586500Y-83727800D02*
X82346600Y-84487900D01*
X81031200Y-83727800D02*
X81586500Y-83727800D01*
X82346600Y-84496600D02*
X82346600Y-84487900D01*
X82950000Y-85100000D02*
X82346600Y-84496600D01*
X110405000Y-91800000D02*
X111734600Y-91800000D01*
X83000400Y-89900400D02*
X82620100Y-89900400D01*
X83100000Y-90000000D02*
X83000400Y-89900400D01*
X105012100Y-89572900D02*
X105775000Y-88810000D01*
X83527100Y-89572900D02*
X105012100Y-89572900D01*
X83100000Y-90000000D02*
X83527100Y-89572900D01*
X159475000Y-104000000D02*
X159475000Y-104214300D01*
X160814700Y-105554000D02*
X159475000Y-104214300D01*
X162714800Y-105554000D02*
X160814700Y-105554000D01*
X130175900Y-103404100D02*
X129775000Y-103805000D01*
X132591600Y-103404100D02*
X130175900Y-103404100D01*
X132726300Y-103538800D02*
X132591600Y-103404100D01*
X132726300Y-103897300D02*
X132726300Y-103538800D01*
X133043300Y-104214300D02*
X132726300Y-103897300D01*
X159475000Y-104214300D02*
X133043300Y-104214300D01*
X129373400Y-102000000D02*
X129471700Y-102000000D01*
X110494200Y-87389200D02*
X110905000Y-87800000D01*
X107195800Y-87389200D02*
X110494200Y-87389200D01*
X105775000Y-88810000D02*
X107195800Y-87389200D01*
X110505900Y-84400900D02*
X110905000Y-84800000D01*
X105775000Y-84400900D02*
X110505900Y-84400900D01*
X118818600Y-85300000D02*
X118722100Y-85203500D01*
X118925000Y-85300000D02*
X118818600Y-85300000D01*
X117161800Y-83036800D02*
X117425000Y-83300000D01*
X116356000Y-83036800D02*
X117161800Y-83036800D01*
X116175000Y-83217800D02*
X116356000Y-83036800D01*
X116175000Y-83550000D02*
X116175000Y-83217800D01*
X116425000Y-83800000D02*
X116175000Y-83550000D01*
X117675000Y-83550000D02*
X117675100Y-83550000D01*
X117425000Y-83300000D02*
X117675000Y-83550000D01*
X129373400Y-102000000D02*
X129275000Y-102000000D01*
X129275000Y-102000000D02*
X129075000Y-102000000D01*
X119425000Y-83800000D02*
X118925000Y-83800000D01*
X118916400Y-83800000D02*
X118768200Y-83948200D01*
X118925000Y-83800000D02*
X118916400Y-83800000D01*
X82429000Y-90671000D02*
X80037900Y-90671000D01*
X83100000Y-90000000D02*
X82429000Y-90671000D01*
X119425000Y-88800000D02*
X124693200Y-88800000D01*
%TO.N,+1V2*%
X68595000Y-94725000D02*
X69091700Y-94725000D01*
X69499500Y-94317200D02*
X70877200Y-94317200D01*
X69091700Y-94725000D02*
X69499500Y-94317200D01*
%TO.N,+5V*%
X153128800Y-55771200D02*
X154100000Y-54800000D01*
X150667200Y-55771200D02*
X153128800Y-55771200D01*
X116700000Y-71500000D02*
X117061100Y-71500000D01*
X168100000Y-93900000D02*
X167573300Y-93900000D01*
X149086800Y-66576800D02*
X163322400Y-66576800D01*
X143750000Y-65810000D02*
X143750000Y-66193400D01*
X144133400Y-66576800D02*
X143750000Y-66193400D01*
X149086800Y-66576800D02*
X144133400Y-66576800D01*
X143750000Y-66193400D02*
X120494400Y-66193400D01*
X110474700Y-36107000D02*
X111668400Y-34913300D01*
X95953200Y-36107000D02*
X110474700Y-36107000D01*
X111668400Y-34913300D02*
X114655000Y-31926700D01*
X118703500Y-85800000D02*
X118925000Y-85800000D01*
X119655000Y-31926700D02*
X120155000Y-31926700D01*
X120155000Y-31350000D02*
X120155000Y-31926700D01*
X119655000Y-31350000D02*
X119655000Y-31900800D01*
X119655000Y-31900800D02*
X119655000Y-31925200D01*
X119655000Y-31925200D02*
X119655000Y-31926700D01*
X114655000Y-31350000D02*
X114655000Y-31638300D01*
X114655000Y-31638300D02*
X114655000Y-31926700D01*
X115155000Y-31350000D02*
X115155000Y-31900800D01*
X114917500Y-31900800D02*
X115155000Y-31900800D01*
X114655000Y-31638300D02*
X114917500Y-31900800D01*
%TO.N,Com*%
X70655000Y-96785000D02*
X70655000Y-96288300D01*
X76103300Y-98903300D02*
X76103300Y-97780000D01*
X76600000Y-99400000D02*
X76103300Y-98903300D01*
X78210000Y-93375000D02*
X78611700Y-93375000D01*
X70635000Y-108550000D02*
X70635000Y-108073300D01*
X72840000Y-104100000D02*
X70755900Y-104100000D01*
X127066000Y-105554000D02*
X128815000Y-103805000D01*
X121766000Y-105554000D02*
X127066000Y-105554000D01*
X128875000Y-103805000D02*
X128815000Y-103805000D01*
X129308100Y-104238100D02*
X128875000Y-103805000D01*
X131881900Y-104238100D02*
X129308100Y-104238100D01*
X132315000Y-103805000D02*
X131881900Y-104238100D01*
X128875000Y-103805000D02*
X128875000Y-102000000D01*
X163320000Y-92400000D02*
X163681100Y-92400000D01*
X113356900Y-76783100D02*
X113240000Y-76900000D01*
X113720000Y-76783100D02*
X113356900Y-76783100D01*
X118205000Y-71500000D02*
X117660000Y-71500000D01*
X120905000Y-68800000D02*
X118205000Y-71500000D01*
X117272800Y-71887200D02*
X115913800Y-71887200D01*
X117660000Y-71500000D02*
X117272800Y-71887200D01*
X165595000Y-101751700D02*
X164946700Y-102400000D01*
X165915000Y-101751700D02*
X165595000Y-101751700D01*
X165915000Y-101425000D02*
X165915000Y-101751700D01*
X164780000Y-102400000D02*
X164946700Y-102400000D01*
X167700000Y-102725000D02*
X166240000Y-102725000D01*
X167700000Y-102725000D02*
X167700000Y-102400000D01*
X166240000Y-102725000D02*
X165755900Y-102725000D01*
X165271700Y-102725000D02*
X164946700Y-102400000D01*
X165755900Y-102725000D02*
X165271700Y-102725000D01*
X165271700Y-102725000D02*
X164946700Y-103050000D01*
X165755900Y-102725000D02*
X165271700Y-102725000D01*
X164780000Y-103050000D02*
X164946700Y-103050000D01*
X68098300Y-89678400D02*
X68001700Y-89775000D01*
X68098300Y-89325000D02*
X68098300Y-89678400D01*
X68595000Y-89325000D02*
X68098300Y-89325000D01*
X68001700Y-93728400D02*
X68001700Y-93375000D01*
X68098300Y-93825000D02*
X68001700Y-93728400D01*
X68001700Y-95528400D02*
X68001700Y-95175000D01*
X68098300Y-95625000D02*
X68001700Y-95528400D01*
X70205000Y-97281700D02*
X70205000Y-97780000D01*
X77808300Y-94821600D02*
X77808300Y-95175000D01*
X77711700Y-94725000D02*
X77808300Y-94821600D01*
X77808300Y-93021600D02*
X77808300Y-93375000D01*
X77711700Y-92925000D02*
X77808300Y-93021600D01*
X78210000Y-93375000D02*
X77808300Y-93375000D01*
X75958400Y-87571700D02*
X75605000Y-87571700D01*
X76055000Y-87668300D02*
X75958400Y-87571700D01*
X76055000Y-88165000D02*
X76055000Y-87668300D01*
X74351600Y-87571700D02*
X74705000Y-87571700D01*
X74255000Y-87668300D02*
X74351600Y-87571700D01*
X74255000Y-88165000D02*
X74255000Y-87668300D01*
X71651600Y-87571700D02*
X72005000Y-87571700D01*
X71555000Y-87668300D02*
X71651600Y-87571700D01*
X71555000Y-88165000D02*
X71555000Y-87668300D01*
X72005000Y-87170000D02*
X72005000Y-87571700D01*
X68050000Y-89276700D02*
X68098300Y-89325000D01*
X67600000Y-89276700D02*
X68050000Y-89276700D01*
X67600000Y-89775000D02*
X67800900Y-89775000D01*
X67800900Y-89775000D02*
X68001700Y-89775000D01*
X67600000Y-89975900D02*
X67600000Y-90675000D01*
X67800900Y-89775000D02*
X67600000Y-89975900D01*
X67600000Y-90675000D02*
X67600000Y-91575000D01*
X67600000Y-93375000D02*
X67604500Y-93375000D01*
X67604500Y-93375000D02*
X68001700Y-93375000D01*
X67600000Y-91575000D02*
X67600000Y-92475000D01*
X67604500Y-92881200D02*
X67604500Y-93375000D01*
X67600000Y-92876700D02*
X67604500Y-92881200D01*
X67600000Y-92475000D02*
X67600000Y-92876700D01*
X68595000Y-93825000D02*
X68124200Y-93825000D01*
X68124200Y-93825000D02*
X68098300Y-93825000D01*
X68001700Y-93921600D02*
X68001700Y-94275000D01*
X68098300Y-93825000D02*
X68001700Y-93921600D01*
X67600000Y-94275000D02*
X67800900Y-94275000D01*
X67800900Y-94275000D02*
X68001700Y-94275000D01*
X67800900Y-94275000D02*
X67800900Y-95175000D01*
X67600000Y-95175000D02*
X67800900Y-95175000D01*
X67800900Y-95175000D02*
X68001700Y-95175000D01*
X68346700Y-95625000D02*
X68275000Y-95625000D01*
X68275000Y-95625000D02*
X68098300Y-95625000D01*
X68226700Y-95673300D02*
X67600000Y-95673300D01*
X68275000Y-95625000D02*
X68226700Y-95673300D01*
X67600000Y-96300000D02*
X67600000Y-95673300D01*
X68470900Y-95625000D02*
X68346700Y-95625000D01*
X68470900Y-95625000D02*
X68595000Y-95625000D01*
X69991700Y-95625000D02*
X70655000Y-96288300D01*
X68595000Y-95625000D02*
X69991700Y-95625000D01*
X69080000Y-97780000D02*
X70205000Y-97780000D01*
X70205000Y-97780000D02*
X71105000Y-97780000D01*
X71105000Y-97780000D02*
X72005000Y-97780000D01*
X72005000Y-97780000D02*
X72905000Y-97780000D01*
X72905000Y-97780000D02*
X73805000Y-97780000D01*
X73805000Y-97780000D02*
X74705000Y-97780000D01*
X76730000Y-97780000D02*
X76103300Y-97780000D01*
X75605000Y-97780000D02*
X76103300Y-97780000D01*
X67600000Y-88650000D02*
X67600000Y-88963300D01*
X67600000Y-88963300D02*
X67600000Y-89276700D01*
X68453300Y-88110000D02*
X68453300Y-87170000D01*
X67600000Y-88963300D02*
X68453300Y-88110000D01*
X69080000Y-87170000D02*
X68453300Y-87170000D01*
X78210000Y-96300000D02*
X78210000Y-96926700D01*
X77215000Y-94725000D02*
X77685900Y-94725000D01*
X77685900Y-94725000D02*
X77711700Y-94725000D01*
X77808300Y-94628400D02*
X77808300Y-94275000D01*
X77711700Y-94725000D02*
X77808300Y-94628400D01*
X78210000Y-94275000D02*
X78009200Y-94275000D01*
X78009200Y-94275000D02*
X77808300Y-94275000D01*
X79036700Y-93800000D02*
X78760500Y-93523700D01*
X81700000Y-93800000D02*
X79036700Y-93800000D01*
X78760500Y-93523700D02*
X78611700Y-93375000D01*
X78009200Y-94275000D02*
X78760500Y-93523700D01*
X77215000Y-92925000D02*
X77685900Y-92925000D01*
X77685900Y-92925000D02*
X77711700Y-92925000D01*
X77808300Y-92828400D02*
X77808300Y-92475000D01*
X77711700Y-92925000D02*
X77808300Y-92828400D01*
X78210000Y-92475000D02*
X78009200Y-92475000D01*
X78009200Y-92475000D02*
X77808300Y-92475000D01*
X78210000Y-95175000D02*
X78009200Y-95175000D01*
X78009200Y-95175000D02*
X77808300Y-95175000D01*
X78210000Y-95375800D02*
X78210000Y-96300000D01*
X78009200Y-95175000D02*
X78210000Y-95375800D01*
X78210000Y-88650000D02*
X78210000Y-88023300D01*
X77043400Y-87170000D02*
X77356700Y-87170000D01*
X77043400Y-87170000D02*
X76730000Y-87170000D01*
X76730000Y-87170000D02*
X75605000Y-87170000D01*
X75605000Y-87370800D02*
X74705000Y-87370800D01*
X74705000Y-87370800D02*
X74705000Y-87571700D01*
X75605000Y-87170000D02*
X75605000Y-87370800D01*
X75605000Y-87370800D02*
X75605000Y-87571700D01*
X74705000Y-87170000D02*
X74705000Y-87270400D01*
X74705000Y-87270400D02*
X74705000Y-87370800D01*
X74307100Y-87270400D02*
X74206700Y-87170000D01*
X74705000Y-87270400D02*
X74307100Y-87270400D01*
X74005900Y-87170000D02*
X74206700Y-87170000D01*
X74005900Y-87170000D02*
X73805000Y-87170000D01*
X73805000Y-87170000D02*
X72905000Y-87170000D01*
X72905000Y-87170000D02*
X72005000Y-87170000D01*
X72005000Y-87170000D02*
X71105000Y-87170000D01*
X71105000Y-87170000D02*
X70205000Y-87170000D01*
X70205000Y-87170000D02*
X69080000Y-87170000D01*
X133905000Y-100495000D02*
X133678300Y-100495000D01*
X133275000Y-99950000D02*
X133471700Y-99950000D01*
X128245000Y-101455000D02*
X128471700Y-101455000D01*
X128875000Y-102000000D02*
X128678300Y-102000000D01*
X133905000Y-100495000D02*
X134131700Y-100495000D01*
X132475000Y-99950000D02*
X132671700Y-99950000D01*
X134018400Y-101455000D02*
X134131700Y-101455000D01*
X134018400Y-101455000D02*
X133905000Y-101455000D01*
X132768300Y-101455000D02*
X132475000Y-101748300D01*
X133905000Y-101455000D02*
X132768300Y-101455000D01*
X133471700Y-100201700D02*
X133471700Y-99950000D01*
X132723200Y-100201700D02*
X133471700Y-100201700D01*
X132671700Y-100150200D02*
X132723200Y-100201700D01*
X132671700Y-99950000D02*
X132671700Y-100150200D01*
X133678300Y-100408300D02*
X133678300Y-100495000D01*
X133471700Y-100201700D02*
X133678300Y-100408300D01*
X132475000Y-102000000D02*
X132475000Y-101774100D01*
X132475000Y-101749800D02*
X132475000Y-101748300D01*
X132475000Y-101774100D02*
X132475000Y-101749800D01*
X129675000Y-102000000D02*
X129675000Y-101748300D01*
X128678300Y-101748300D02*
X128678300Y-102000000D01*
X129675000Y-101748300D02*
X128678300Y-101748300D01*
X128471700Y-101541700D02*
X128471700Y-101455000D01*
X128678300Y-101748300D02*
X128471700Y-101541700D01*
X168225000Y-116826700D02*
X167625000Y-116826700D01*
X167625000Y-116425000D02*
X167625000Y-116826700D01*
X168225000Y-116625800D02*
X168225000Y-116826700D01*
X168225000Y-116625800D02*
X168225000Y-116425000D01*
X168225000Y-115376700D02*
X169225000Y-114376700D01*
X168225000Y-116425000D02*
X168225000Y-115376700D01*
X166725000Y-113073300D02*
X165525000Y-113073300D01*
X166725000Y-113550000D02*
X166725000Y-113073300D01*
X134241700Y-100605000D02*
X134131700Y-100495000D01*
X134241700Y-101345000D02*
X134241700Y-100605000D01*
X135295000Y-101345000D02*
X134241700Y-101345000D01*
X134241700Y-101345000D02*
X134131700Y-101455000D01*
X165525000Y-113550000D02*
X165525000Y-113099100D01*
X165525000Y-113074800D02*
X165525000Y-113073300D01*
X165525000Y-113099100D02*
X165525000Y-113074800D01*
X165523500Y-113073300D02*
X164325000Y-113073300D01*
X165525000Y-113074800D02*
X165523500Y-113073300D01*
X164325000Y-113550000D02*
X164325000Y-113099100D01*
X164325000Y-113074800D02*
X164325000Y-113073300D01*
X164325000Y-113099100D02*
X164325000Y-113074800D01*
X164323500Y-113073300D02*
X163125000Y-113073300D01*
X164325000Y-113074800D02*
X164323500Y-113073300D01*
X163125000Y-113550000D02*
X163125000Y-113099100D01*
X163125000Y-113099100D02*
X163125000Y-113074800D01*
X163125000Y-113074800D02*
X163125000Y-113073300D01*
X163123500Y-113073300D02*
X161325000Y-113073300D01*
X163125000Y-113074800D02*
X163123500Y-113073300D01*
X161325000Y-111485000D02*
X161325000Y-113073300D01*
X159400000Y-109560000D02*
X161325000Y-111485000D01*
X160625000Y-113825000D02*
X160625000Y-113273300D01*
X161325000Y-113273300D02*
X160625000Y-113273300D01*
X161325000Y-113073300D02*
X161325000Y-113273300D01*
X161325000Y-113273300D02*
X161325000Y-113550000D01*
X169225000Y-113825000D02*
X169225000Y-114175800D01*
X169225000Y-114175800D02*
X169225000Y-114376700D01*
X166874100Y-114175800D02*
X166725000Y-114026700D01*
X169225000Y-114175800D02*
X166874100Y-114175800D01*
X166725000Y-113550000D02*
X166725000Y-114026700D01*
X164780000Y-103243300D02*
X164780000Y-103050000D01*
X165335100Y-108500000D02*
X165380000Y-108500000D01*
X164275100Y-109560000D02*
X165335100Y-108500000D01*
X159400000Y-109560000D02*
X164275100Y-109560000D01*
X165335100Y-108500000D02*
X165335100Y-108111900D01*
X71635000Y-111050000D02*
X71635000Y-110573300D01*
X67135000Y-111050000D02*
X67135000Y-110573300D01*
X71635000Y-110573300D02*
X70972500Y-110573300D01*
X70972500Y-110573300D02*
X67135000Y-110573300D01*
X164200100Y-96625100D02*
X164875000Y-97300000D01*
X163599600Y-96625100D02*
X164200100Y-96625100D01*
X155634800Y-77100000D02*
X155278100Y-76743300D01*
X155800000Y-77100000D02*
X155634800Y-77100000D01*
X155711600Y-69838400D02*
X155750000Y-69800000D01*
X155268900Y-69838400D02*
X155711600Y-69838400D01*
X159549900Y-96625100D02*
X163599600Y-96625100D01*
X158875000Y-97300000D02*
X159549900Y-96625100D01*
X113866200Y-31926700D02*
X113655000Y-31926700D01*
X113775000Y-34600000D02*
X114255800Y-34600000D01*
X111275900Y-37099100D02*
X113775000Y-34600000D01*
X106896000Y-37099100D02*
X111275900Y-37099100D01*
X79227500Y-83012500D02*
X78840000Y-83400000D01*
X89512500Y-83012500D02*
X79227500Y-83012500D01*
X90400000Y-83900000D02*
X89512500Y-83012500D01*
X76730000Y-97780000D02*
X77356700Y-97780000D01*
X77716200Y-97420500D02*
X77356700Y-97780000D01*
X78058300Y-97420500D02*
X77716200Y-97420500D01*
X78058300Y-97078400D02*
X78058300Y-97420500D01*
X78210000Y-96926700D02*
X78058300Y-97078400D01*
X78337800Y-97700000D02*
X81400000Y-97700000D01*
X78058300Y-97420500D02*
X78337800Y-97700000D01*
X155720000Y-64770000D02*
X155750000Y-64800000D01*
X155246500Y-64770000D02*
X155720000Y-64770000D01*
X155750000Y-64800000D02*
X159100000Y-64800000D01*
X78840000Y-85686700D02*
X77356700Y-87170000D01*
X78840000Y-83400000D02*
X78840000Y-85686700D01*
X111425000Y-83300000D02*
X109925000Y-81800000D01*
X113425000Y-83300000D02*
X111425000Y-83300000D01*
X117675000Y-88800000D02*
X117425000Y-88800000D01*
X113156900Y-88300000D02*
X113425000Y-88300000D01*
X118425000Y-88050000D02*
X118425000Y-87800000D01*
X77855000Y-87668300D02*
X78210000Y-88023300D01*
X76055000Y-87668300D02*
X77855000Y-87668300D01*
X118425000Y-86800000D02*
X118925000Y-86300000D01*
X119425000Y-86300000D02*
X119425000Y-85800000D01*
X114425000Y-85800000D02*
X114175000Y-85800000D01*
X114175000Y-85800000D02*
X113925000Y-85800000D01*
X113639700Y-85014700D02*
X113425000Y-84800000D01*
X113959700Y-85014700D02*
X113639700Y-85014700D01*
X114175000Y-85230000D02*
X113959700Y-85014700D01*
X114175000Y-85800000D02*
X114175000Y-85230000D01*
X118425000Y-87300000D02*
X118425000Y-87800000D01*
X113425000Y-85800000D02*
X113425000Y-85300000D01*
X116675000Y-83550000D02*
X116425000Y-83300000D01*
X117175000Y-83550000D02*
X116675000Y-83550000D01*
X117425000Y-83800000D02*
X117175000Y-83550000D01*
X119341200Y-85383800D02*
X119425000Y-85300000D01*
X119175000Y-85383800D02*
X119341200Y-85383800D01*
X121155000Y-31926700D02*
X120655000Y-31926700D01*
X120655000Y-31350000D02*
X120655000Y-31926700D01*
X113655000Y-31350000D02*
X113655000Y-31638300D01*
X113655000Y-31638300D02*
X113655000Y-31926700D01*
X121155000Y-31350000D02*
X121155000Y-31612500D01*
X121155000Y-31612500D02*
X121155000Y-31926700D01*
X114813100Y-35157300D02*
X114255800Y-34600000D01*
X120746700Y-35157300D02*
X114813100Y-35157300D01*
X121364400Y-35775000D02*
X121425000Y-35775000D01*
X120746700Y-35157300D02*
X121364400Y-35775000D01*
X121124700Y-68580300D02*
X120905000Y-68800000D01*
X121268200Y-68580300D02*
X121124700Y-68580300D01*
X75155000Y-97780000D02*
X75155000Y-96785000D01*
X74705000Y-97780000D02*
X75155000Y-97780000D01*
X75155000Y-97780000D02*
X75605000Y-97780000D01*
X110265600Y-88120600D02*
X110270800Y-88120600D01*
X109945000Y-87800000D02*
X110265600Y-88120600D01*
X110450200Y-88300000D02*
X113156900Y-88300000D01*
X110270800Y-88120600D02*
X110450200Y-88300000D01*
X109445000Y-91800000D02*
X109858800Y-91800000D01*
X113425000Y-85800000D02*
X113675000Y-85800000D01*
X113675000Y-85800000D02*
X113925000Y-85800000D01*
X113822100Y-86697100D02*
X113925000Y-86800000D01*
X113822100Y-86596000D02*
X113822100Y-86697100D01*
X116175000Y-88550000D02*
X115925000Y-88800000D01*
X117175000Y-88550000D02*
X116175000Y-88550000D01*
X117425000Y-88800000D02*
X117175000Y-88550000D01*
X113425000Y-89031900D02*
X113425000Y-89300000D01*
X113301800Y-89031900D02*
X113425000Y-89031900D01*
X113156900Y-88887000D02*
X113301800Y-89031900D01*
X113156900Y-88300000D02*
X113156900Y-88887000D01*
X113431100Y-83293900D02*
X113425000Y-83300000D01*
X113636900Y-83293900D02*
X113431100Y-83293900D01*
X107500000Y-78600000D02*
X111702700Y-78600000D01*
X111702700Y-78437300D02*
X111702700Y-78600000D01*
X113240000Y-76900000D02*
X111702700Y-78437300D01*
X167700000Y-103050000D02*
X167700000Y-102725000D01*
X169548300Y-104351700D02*
X170100000Y-103800000D01*
X166966300Y-104351700D02*
X169548300Y-104351700D01*
X166963300Y-104348700D02*
X166966300Y-104351700D01*
X166963300Y-103620000D02*
X166963300Y-104348700D01*
X167533300Y-103050000D02*
X166963300Y-103620000D01*
X167700000Y-103050000D02*
X167533300Y-103050000D01*
X118925000Y-86300000D02*
X119425000Y-86300000D01*
X118907000Y-86282000D02*
X118675000Y-86282000D01*
X118925000Y-86300000D02*
X118907000Y-86282000D01*
X156475200Y-77775200D02*
X155800000Y-77100000D01*
X160659800Y-77775200D02*
X156475200Y-77775200D01*
X113654800Y-84029800D02*
X113425000Y-83800000D01*
X113654800Y-84570200D02*
X113654800Y-84029800D01*
X113425000Y-84800000D02*
X113654800Y-84570200D01*
X96900000Y-83900000D02*
X90400000Y-83900000D01*
X128245000Y-101168300D02*
X128245000Y-100781700D01*
X128245000Y-101455000D02*
X128245000Y-101168300D01*
X128245000Y-100495000D02*
X128245000Y-100781700D01*
X143750000Y-61324500D02*
X143750000Y-62000000D01*
X144425500Y-60649000D02*
X143750000Y-61324500D01*
X150667200Y-60649000D02*
X144425500Y-60649000D01*
X143750000Y-61324500D02*
X126363000Y-61324500D01*
X109965000Y-86300000D02*
X110274500Y-86609500D01*
X78210000Y-90675000D02*
X77808300Y-90675000D01*
X78009200Y-92475000D02*
X78009200Y-91662500D01*
X78122500Y-91662500D02*
X78009200Y-91662500D01*
X78210000Y-91575000D02*
X78122500Y-91662500D01*
X78009200Y-91662500D02*
X77808300Y-91662500D01*
X114675000Y-83550000D02*
X114925000Y-83800000D01*
X113437900Y-83550000D02*
X114675000Y-83550000D01*
X113437900Y-83787100D02*
X113437900Y-83550000D01*
X113425000Y-83800000D02*
X113437900Y-83787100D01*
X113437900Y-83312900D02*
X113425000Y-83300000D01*
X113437900Y-83550000D02*
X113437900Y-83312900D01*
X118920300Y-84303700D02*
X118666500Y-84050000D01*
X118924000Y-84300000D02*
X118920300Y-84303700D01*
X118925000Y-84300000D02*
X118924000Y-84300000D01*
X118920300Y-84303700D02*
X118774700Y-84449300D01*
X119231100Y-88300000D02*
X119425000Y-88300000D01*
X118981100Y-88050000D02*
X119231100Y-88300000D01*
X118425000Y-88050000D02*
X118981100Y-88050000D01*
X118470000Y-86845000D02*
X118425000Y-86800000D01*
X118470000Y-87255000D02*
X118470000Y-86845000D01*
X118425000Y-87300000D02*
X118470000Y-87255000D01*
X99000000Y-81800000D02*
X109925000Y-81800000D01*
X96900000Y-83900000D02*
X99000000Y-81800000D01*
X117579600Y-83800000D02*
X117425000Y-83800000D01*
X117791300Y-83588300D02*
X117579600Y-83800000D01*
X118012800Y-83588300D02*
X117791300Y-83588300D01*
X118136700Y-83712200D02*
X118012800Y-83588300D01*
X118136700Y-83888000D02*
X118136700Y-83712200D01*
X118298700Y-84050000D02*
X118136700Y-83888000D01*
X118666500Y-84050000D02*
X118298700Y-84050000D01*
X118370800Y-88050000D02*
X118425000Y-88050000D01*
X118210500Y-88210300D02*
X118370800Y-88050000D01*
X118210500Y-88315300D02*
X118210500Y-88210300D01*
X118135700Y-88390100D02*
X118210500Y-88315300D01*
X121507000Y-110258000D02*
X121115000Y-110650000D01*
X121571200Y-110258000D02*
X121507000Y-110258000D01*
X129776700Y-101646600D02*
X129675000Y-101748300D01*
X132371800Y-101646600D02*
X129776700Y-101646600D01*
X132475000Y-101749800D02*
X132371800Y-101646600D01*
X118666500Y-83532500D02*
X118666500Y-84050000D01*
X118899000Y-83300000D02*
X118666500Y-83532500D01*
X118925000Y-83300000D02*
X118899000Y-83300000D01*
%TD*%
M02*
