%TF.GenerationSoftware,KiCad,Pcbnew,8.0.1*%
%TF.CreationDate,2024-06-25T09:58:30-03:00*%
%TF.ProjectId,EA075_Optisort,45413037-355f-44f7-9074-69736f72742e,rev?*%
%TF.SameCoordinates,Original*%
%TF.FileFunction,Legend,Bot*%
%TF.FilePolarity,Positive*%
%FSLAX46Y46*%
G04 Gerber Fmt 4.6, Leading zero omitted, Abs format (unit mm)*
G04 Created by KiCad (PCBNEW 8.0.1) date 2024-06-25 09:58:30*
%MOMM*%
%LPD*%
G01*
G04 APERTURE LIST*
%ADD10C,0.150000*%
%ADD11C,0.120000*%
G04 APERTURE END LIST*
D10*
X71046666Y-96319580D02*
X71094285Y-96367200D01*
X71094285Y-96367200D02*
X71237142Y-96414819D01*
X71237142Y-96414819D02*
X71332380Y-96414819D01*
X71332380Y-96414819D02*
X71475237Y-96367200D01*
X71475237Y-96367200D02*
X71570475Y-96271961D01*
X71570475Y-96271961D02*
X71618094Y-96176723D01*
X71618094Y-96176723D02*
X71665713Y-95986247D01*
X71665713Y-95986247D02*
X71665713Y-95843390D01*
X71665713Y-95843390D02*
X71618094Y-95652914D01*
X71618094Y-95652914D02*
X71570475Y-95557676D01*
X71570475Y-95557676D02*
X71475237Y-95462438D01*
X71475237Y-95462438D02*
X71332380Y-95414819D01*
X71332380Y-95414819D02*
X71237142Y-95414819D01*
X71237142Y-95414819D02*
X71094285Y-95462438D01*
X71094285Y-95462438D02*
X71046666Y-95510057D01*
X70665713Y-95510057D02*
X70618094Y-95462438D01*
X70618094Y-95462438D02*
X70522856Y-95414819D01*
X70522856Y-95414819D02*
X70284761Y-95414819D01*
X70284761Y-95414819D02*
X70189523Y-95462438D01*
X70189523Y-95462438D02*
X70141904Y-95510057D01*
X70141904Y-95510057D02*
X70094285Y-95605295D01*
X70094285Y-95605295D02*
X70094285Y-95700533D01*
X70094285Y-95700533D02*
X70141904Y-95843390D01*
X70141904Y-95843390D02*
X70713332Y-96414819D01*
X70713332Y-96414819D02*
X70094285Y-96414819D01*
X150149580Y-56683333D02*
X150197200Y-56635714D01*
X150197200Y-56635714D02*
X150244819Y-56492857D01*
X150244819Y-56492857D02*
X150244819Y-56397619D01*
X150244819Y-56397619D02*
X150197200Y-56254762D01*
X150197200Y-56254762D02*
X150101961Y-56159524D01*
X150101961Y-56159524D02*
X150006723Y-56111905D01*
X150006723Y-56111905D02*
X149816247Y-56064286D01*
X149816247Y-56064286D02*
X149673390Y-56064286D01*
X149673390Y-56064286D02*
X149482914Y-56111905D01*
X149482914Y-56111905D02*
X149387676Y-56159524D01*
X149387676Y-56159524D02*
X149292438Y-56254762D01*
X149292438Y-56254762D02*
X149244819Y-56397619D01*
X149244819Y-56397619D02*
X149244819Y-56492857D01*
X149244819Y-56492857D02*
X149292438Y-56635714D01*
X149292438Y-56635714D02*
X149340057Y-56683333D01*
X150244819Y-57635714D02*
X150244819Y-57064286D01*
X150244819Y-57350000D02*
X149244819Y-57350000D01*
X149244819Y-57350000D02*
X149387676Y-57254762D01*
X149387676Y-57254762D02*
X149482914Y-57159524D01*
X149482914Y-57159524D02*
X149530533Y-57064286D01*
D11*
%TO.C,C2*%
X70987836Y-95160000D02*
X70772164Y-95160000D01*
X70987836Y-94440000D02*
X70772164Y-94440000D01*
%TO.C,C1*%
X150590000Y-56957836D02*
X150590000Y-56742164D01*
X151310000Y-56957836D02*
X151310000Y-56742164D01*
%TD*%
M02*
