%TF.GenerationSoftware,KiCad,Pcbnew,8.0.3*%
%TF.CreationDate,2024-06-26T21:10:10-03:00*%
%TF.ProjectId,SmartFeeder,536d6172-7446-4656-9564-65722e6b6963,rev?*%
%TF.SameCoordinates,Original*%
%TF.FileFunction,Legend,Top*%
%TF.FilePolarity,Positive*%
%FSLAX46Y46*%
G04 Gerber Fmt 4.6, Leading zero omitted, Abs format (unit mm)*
G04 Created by KiCad (PCBNEW 8.0.3) date 2024-06-26 21:10:10*
%MOMM*%
%LPD*%
G01*
G04 APERTURE LIST*
%ADD10C,0.150000*%
%ADD11C,0.120000*%
G04 APERTURE END LIST*
D10*
X162666666Y-104279819D02*
X162666666Y-104994104D01*
X162666666Y-104994104D02*
X162619047Y-105136961D01*
X162619047Y-105136961D02*
X162523809Y-105232200D01*
X162523809Y-105232200D02*
X162380952Y-105279819D01*
X162380952Y-105279819D02*
X162285714Y-105279819D01*
X163095238Y-104375057D02*
X163142857Y-104327438D01*
X163142857Y-104327438D02*
X163238095Y-104279819D01*
X163238095Y-104279819D02*
X163476190Y-104279819D01*
X163476190Y-104279819D02*
X163571428Y-104327438D01*
X163571428Y-104327438D02*
X163619047Y-104375057D01*
X163619047Y-104375057D02*
X163666666Y-104470295D01*
X163666666Y-104470295D02*
X163666666Y-104565533D01*
X163666666Y-104565533D02*
X163619047Y-104708390D01*
X163619047Y-104708390D02*
X163047619Y-105279819D01*
X163047619Y-105279819D02*
X163666666Y-105279819D01*
X176666666Y-103509819D02*
X176666666Y-104224104D01*
X176666666Y-104224104D02*
X176619047Y-104366961D01*
X176619047Y-104366961D02*
X176523809Y-104462200D01*
X176523809Y-104462200D02*
X176380952Y-104509819D01*
X176380952Y-104509819D02*
X176285714Y-104509819D01*
X177666666Y-104509819D02*
X177095238Y-104509819D01*
X177380952Y-104509819D02*
X177380952Y-103509819D01*
X177380952Y-103509819D02*
X177285714Y-103652676D01*
X177285714Y-103652676D02*
X177190476Y-103747914D01*
X177190476Y-103747914D02*
X177095238Y-103795533D01*
X179738095Y-83459819D02*
X179738095Y-84269342D01*
X179738095Y-84269342D02*
X179785714Y-84364580D01*
X179785714Y-84364580D02*
X179833333Y-84412200D01*
X179833333Y-84412200D02*
X179928571Y-84459819D01*
X179928571Y-84459819D02*
X180119047Y-84459819D01*
X180119047Y-84459819D02*
X180214285Y-84412200D01*
X180214285Y-84412200D02*
X180261904Y-84364580D01*
X180261904Y-84364580D02*
X180309523Y-84269342D01*
X180309523Y-84269342D02*
X180309523Y-83459819D01*
X180690476Y-83459819D02*
X181309523Y-83459819D01*
X181309523Y-83459819D02*
X180976190Y-83840771D01*
X180976190Y-83840771D02*
X181119047Y-83840771D01*
X181119047Y-83840771D02*
X181214285Y-83888390D01*
X181214285Y-83888390D02*
X181261904Y-83936009D01*
X181261904Y-83936009D02*
X181309523Y-84031247D01*
X181309523Y-84031247D02*
X181309523Y-84269342D01*
X181309523Y-84269342D02*
X181261904Y-84364580D01*
X181261904Y-84364580D02*
X181214285Y-84412200D01*
X181214285Y-84412200D02*
X181119047Y-84459819D01*
X181119047Y-84459819D02*
X180833333Y-84459819D01*
X180833333Y-84459819D02*
X180738095Y-84412200D01*
X180738095Y-84412200D02*
X180690476Y-84364580D01*
X161738095Y-83554819D02*
X161738095Y-84364342D01*
X161738095Y-84364342D02*
X161785714Y-84459580D01*
X161785714Y-84459580D02*
X161833333Y-84507200D01*
X161833333Y-84507200D02*
X161928571Y-84554819D01*
X161928571Y-84554819D02*
X162119047Y-84554819D01*
X162119047Y-84554819D02*
X162214285Y-84507200D01*
X162214285Y-84507200D02*
X162261904Y-84459580D01*
X162261904Y-84459580D02*
X162309523Y-84364342D01*
X162309523Y-84364342D02*
X162309523Y-83554819D01*
X162738095Y-83650057D02*
X162785714Y-83602438D01*
X162785714Y-83602438D02*
X162880952Y-83554819D01*
X162880952Y-83554819D02*
X163119047Y-83554819D01*
X163119047Y-83554819D02*
X163214285Y-83602438D01*
X163214285Y-83602438D02*
X163261904Y-83650057D01*
X163261904Y-83650057D02*
X163309523Y-83745295D01*
X163309523Y-83745295D02*
X163309523Y-83840533D01*
X163309523Y-83840533D02*
X163261904Y-83983390D01*
X163261904Y-83983390D02*
X162690476Y-84554819D01*
X162690476Y-84554819D02*
X163309523Y-84554819D01*
X115094819Y-97091904D02*
X115904342Y-97091904D01*
X115904342Y-97091904D02*
X115999580Y-97044285D01*
X115999580Y-97044285D02*
X116047200Y-96996666D01*
X116047200Y-96996666D02*
X116094819Y-96901428D01*
X116094819Y-96901428D02*
X116094819Y-96710952D01*
X116094819Y-96710952D02*
X116047200Y-96615714D01*
X116047200Y-96615714D02*
X115999580Y-96568095D01*
X115999580Y-96568095D02*
X115904342Y-96520476D01*
X115904342Y-96520476D02*
X115094819Y-96520476D01*
X116094819Y-95520476D02*
X116094819Y-96091904D01*
X116094819Y-95806190D02*
X115094819Y-95806190D01*
X115094819Y-95806190D02*
X115237676Y-95901428D01*
X115237676Y-95901428D02*
X115332914Y-95996666D01*
X115332914Y-95996666D02*
X115380533Y-96091904D01*
X119666666Y-105319819D02*
X119666666Y-106034104D01*
X119666666Y-106034104D02*
X119619047Y-106176961D01*
X119619047Y-106176961D02*
X119523809Y-106272200D01*
X119523809Y-106272200D02*
X119380952Y-106319819D01*
X119380952Y-106319819D02*
X119285714Y-106319819D01*
X120619047Y-105319819D02*
X120142857Y-105319819D01*
X120142857Y-105319819D02*
X120095238Y-105796009D01*
X120095238Y-105796009D02*
X120142857Y-105748390D01*
X120142857Y-105748390D02*
X120238095Y-105700771D01*
X120238095Y-105700771D02*
X120476190Y-105700771D01*
X120476190Y-105700771D02*
X120571428Y-105748390D01*
X120571428Y-105748390D02*
X120619047Y-105796009D01*
X120619047Y-105796009D02*
X120666666Y-105891247D01*
X120666666Y-105891247D02*
X120666666Y-106129342D01*
X120666666Y-106129342D02*
X120619047Y-106224580D01*
X120619047Y-106224580D02*
X120571428Y-106272200D01*
X120571428Y-106272200D02*
X120476190Y-106319819D01*
X120476190Y-106319819D02*
X120238095Y-106319819D01*
X120238095Y-106319819D02*
X120142857Y-106272200D01*
X120142857Y-106272200D02*
X120095238Y-106224580D01*
X101589819Y-85333333D02*
X102304104Y-85333333D01*
X102304104Y-85333333D02*
X102446961Y-85380952D01*
X102446961Y-85380952D02*
X102542200Y-85476190D01*
X102542200Y-85476190D02*
X102589819Y-85619047D01*
X102589819Y-85619047D02*
X102589819Y-85714285D01*
X101923152Y-84428571D02*
X102589819Y-84428571D01*
X101542200Y-84666666D02*
X102256485Y-84904761D01*
X102256485Y-84904761D02*
X102256485Y-84285714D01*
X156166666Y-75819819D02*
X156166666Y-76534104D01*
X156166666Y-76534104D02*
X156119047Y-76676961D01*
X156119047Y-76676961D02*
X156023809Y-76772200D01*
X156023809Y-76772200D02*
X155880952Y-76819819D01*
X155880952Y-76819819D02*
X155785714Y-76819819D01*
X156547619Y-75819819D02*
X157166666Y-75819819D01*
X157166666Y-75819819D02*
X156833333Y-76200771D01*
X156833333Y-76200771D02*
X156976190Y-76200771D01*
X156976190Y-76200771D02*
X157071428Y-76248390D01*
X157071428Y-76248390D02*
X157119047Y-76296009D01*
X157119047Y-76296009D02*
X157166666Y-76391247D01*
X157166666Y-76391247D02*
X157166666Y-76629342D01*
X157166666Y-76629342D02*
X157119047Y-76724580D01*
X157119047Y-76724580D02*
X157071428Y-76772200D01*
X157071428Y-76772200D02*
X156976190Y-76819819D01*
X156976190Y-76819819D02*
X156690476Y-76819819D01*
X156690476Y-76819819D02*
X156595238Y-76772200D01*
X156595238Y-76772200D02*
X156547619Y-76724580D01*
D11*
%TO.C,J2*%
X161670000Y-107595000D02*
X161670000Y-110195000D01*
X161670000Y-107595000D02*
X162240000Y-107595000D01*
X161670000Y-110195000D02*
X162692470Y-110195000D01*
X163000000Y-106200000D02*
X164330000Y-106200000D01*
X163307530Y-110195000D02*
X164330000Y-110195000D01*
X163760000Y-107595000D02*
X164330000Y-107595000D01*
X164330000Y-106200000D02*
X164330000Y-106960000D01*
X164330000Y-107595000D02*
X164330000Y-110195000D01*
%TO.C,J1*%
X175670000Y-106825000D02*
X175670000Y-110695000D01*
X175670000Y-106825000D02*
X176240000Y-106825000D01*
X175670000Y-110695000D02*
X176692470Y-110695000D01*
X177000000Y-105430000D02*
X178330000Y-105430000D01*
X177307530Y-110695000D02*
X178330000Y-110695000D01*
X177760000Y-106825000D02*
X178330000Y-106825000D01*
X178330000Y-105430000D02*
X178330000Y-106190000D01*
X178330000Y-106825000D02*
X178330000Y-110695000D01*
%TO.C,U3*%
X180500000Y-84845000D02*
X178550000Y-84845000D01*
X180500000Y-84845000D02*
X182450000Y-84845000D01*
X180500000Y-94965000D02*
X178550000Y-94965000D01*
X180500000Y-94965000D02*
X182450000Y-94965000D01*
X177775000Y-84900000D02*
X177535000Y-84570000D01*
X178015000Y-84570000D01*
X177775000Y-84900000D01*
G36*
X177775000Y-84900000D02*
G01*
X177535000Y-84570000D01*
X178015000Y-84570000D01*
X177775000Y-84900000D01*
G37*
%TO.C,U2*%
X162500000Y-84940000D02*
X160550000Y-84940000D01*
X162500000Y-84940000D02*
X164450000Y-84940000D01*
X162500000Y-95060000D02*
X160550000Y-95060000D01*
X162500000Y-95060000D02*
X164450000Y-95060000D01*
X159775000Y-84995000D02*
X159535000Y-84665000D01*
X160015000Y-84665000D01*
X159775000Y-84995000D01*
G36*
X159775000Y-84995000D02*
G01*
X159535000Y-84665000D01*
X160015000Y-84665000D01*
X159775000Y-84995000D01*
G37*
%TO.C,U1*%
X117130000Y-72040000D02*
X117130000Y-78200000D01*
X117130000Y-72040000D02*
X135370000Y-72040000D01*
X117130000Y-97000000D02*
X117130000Y-97780000D01*
X117130000Y-97780000D02*
X118130000Y-97780000D01*
X135370000Y-72040000D02*
X135370000Y-78455000D01*
X135370000Y-97000000D02*
X135370000Y-97780000D01*
X135370000Y-97780000D02*
X134370000Y-97780000D01*
X117125000Y-78925000D02*
X116625000Y-78925000D01*
X117125000Y-78425000D01*
X117125000Y-78925000D01*
G36*
X117125000Y-78925000D02*
G01*
X116625000Y-78925000D01*
X117125000Y-78425000D01*
X117125000Y-78925000D01*
G37*
%TO.C,J5*%
X118670000Y-108575000D02*
X118670000Y-108695000D01*
X118670000Y-108695000D02*
X119240000Y-108695000D01*
X120000000Y-107240000D02*
X121330000Y-107240000D01*
X120760000Y-108695000D02*
X121330000Y-108695000D01*
X121330000Y-107240000D02*
X121330000Y-108000000D01*
X121330000Y-108575000D02*
X121330000Y-108695000D01*
%TO.C,J4*%
X99425000Y-83670000D02*
X99305000Y-83670000D01*
X99305000Y-83670000D02*
X99305000Y-84240000D01*
X100760000Y-85000000D02*
X100760000Y-86330000D01*
X99305000Y-85760000D02*
X99305000Y-86330000D01*
X100760000Y-86330000D02*
X100000000Y-86330000D01*
X99425000Y-86330000D02*
X99305000Y-86330000D01*
%TO.C,J3*%
X155170000Y-79075000D02*
X155170000Y-79195000D01*
X155170000Y-79195000D02*
X155740000Y-79195000D01*
X156500000Y-77740000D02*
X157830000Y-77740000D01*
X157260000Y-79195000D02*
X157830000Y-79195000D01*
X157830000Y-77740000D02*
X157830000Y-78500000D01*
X157830000Y-79075000D02*
X157830000Y-79195000D01*
%TD*%
M02*
