%TF.GenerationSoftware,KiCad,Pcbnew,8.0.3*%
%TF.CreationDate,2024-06-26T21:10:10-03:00*%
%TF.ProjectId,SmartFeeder,536d6172-7446-4656-9564-65722e6b6963,rev?*%
%TF.SameCoordinates,Original*%
%TF.FileFunction,Copper,L1,Top*%
%TF.FilePolarity,Positive*%
%FSLAX46Y46*%
G04 Gerber Fmt 4.6, Leading zero omitted, Abs format (unit mm)*
G04 Created by KiCad (PCBNEW 8.0.3) date 2024-06-26 21:10:10*
%MOMM*%
%LPD*%
G01*
G04 APERTURE LIST*
G04 Aperture macros list*
%AMRoundRect*
0 Rectangle with rounded corners*
0 $1 Rounding radius*
0 $2 $3 $4 $5 $6 $7 $8 $9 X,Y pos of 4 corners*
0 Add a 4 corners polygon primitive as box body*
4,1,4,$2,$3,$4,$5,$6,$7,$8,$9,$2,$3,0*
0 Add four circle primitives for the rounded corners*
1,1,$1+$1,$2,$3*
1,1,$1+$1,$4,$5*
1,1,$1+$1,$6,$7*
1,1,$1+$1,$8,$9*
0 Add four rect primitives between the rounded corners*
20,1,$1+$1,$2,$3,$4,$5,0*
20,1,$1+$1,$4,$5,$6,$7,0*
20,1,$1+$1,$6,$7,$8,$9,0*
20,1,$1+$1,$8,$9,$2,$3,0*%
G04 Aperture macros list end*
%TA.AperFunction,ComponentPad*%
%ADD10R,1.000000X1.000000*%
%TD*%
%TA.AperFunction,ComponentPad*%
%ADD11O,1.000000X1.000000*%
%TD*%
%TA.AperFunction,SMDPad,CuDef*%
%ADD12RoundRect,0.150000X-0.850000X-0.150000X0.850000X-0.150000X0.850000X0.150000X-0.850000X0.150000X0*%
%TD*%
%TA.AperFunction,SMDPad,CuDef*%
%ADD13R,1.500000X0.900000*%
%TD*%
%TA.AperFunction,SMDPad,CuDef*%
%ADD14R,0.900000X1.500000*%
%TD*%
%TA.AperFunction,SMDPad,CuDef*%
%ADD15R,0.900000X0.900000*%
%TD*%
%TA.AperFunction,HeatsinkPad*%
%ADD16C,0.600000*%
%TD*%
%TA.AperFunction,SMDPad,CuDef*%
%ADD17R,3.800000X3.800000*%
%TD*%
%TA.AperFunction,Conductor*%
%ADD18C,0.800000*%
%TD*%
G04 APERTURE END LIST*
D10*
%TO.P,J2,1,Pin_1*%
%TO.N,/PWM*%
X163000000Y-106960000D03*
D11*
%TO.P,J2,2,Pin_2*%
%TO.N,+5V*%
X163000000Y-108230000D03*
%TO.P,J2,3,Pin_3*%
%TO.N,GND*%
X163000000Y-109500000D03*
%TD*%
D10*
%TO.P,J1,1,Pin_1*%
%TO.N,+5V*%
X177000000Y-106190000D03*
D11*
%TO.P,J1,2,Pin_2*%
%TO.N,/ECHO*%
X177000000Y-107460000D03*
%TO.P,J1,3,Pin_3*%
%TO.N,/TRIG*%
X177000000Y-108730000D03*
%TO.P,J1,4,Pin_4*%
%TO.N,GND*%
X177000000Y-110000000D03*
%TD*%
D12*
%TO.P,U3,1,VSUP*%
%TO.N,+5V*%
X178000000Y-85460000D03*
%TO.P,U3,2,BASE*%
%TO.N,unconnected-(U3-BASE-Pad2)*%
X178000000Y-86730000D03*
%TO.P,U3,3,AVDD*%
%TO.N,+5V*%
X178000000Y-88000000D03*
%TO.P,U3,4,VFB*%
%TO.N,unconnected-(U3-VFB-Pad4)*%
X178000000Y-89270000D03*
%TO.P,U3,5,AGND*%
%TO.N,GND*%
X178000000Y-90540000D03*
%TO.P,U3,6,VBG*%
%TO.N,unconnected-(U3-VBG-Pad6)*%
X178000000Y-91810000D03*
%TO.P,U3,7,INA-*%
%TO.N,unconnected-(U3-INA--Pad7)*%
X178000000Y-93080000D03*
%TO.P,U3,8,INA+*%
%TO.N,unconnected-(U3-INA+-Pad8)*%
X178000000Y-94350000D03*
%TO.P,U3,9,INB-*%
%TO.N,unconnected-(U3-INB--Pad9)*%
X183000000Y-94350000D03*
%TO.P,U3,10,INB+*%
%TO.N,unconnected-(U3-INB+-Pad10)*%
X183000000Y-93080000D03*
%TO.P,U3,11,PD_SCK*%
%TO.N,Net-(U1-IO21)*%
X183000000Y-91810000D03*
%TO.P,U3,12,DOUT*%
%TO.N,Net-(U1-IO19)*%
X183000000Y-90540000D03*
%TO.P,U3,13,XO*%
%TO.N,unconnected-(U3-XO-Pad13)*%
X183000000Y-89270000D03*
%TO.P,U3,14,XI*%
%TO.N,unconnected-(U3-XI-Pad14)*%
X183000000Y-88000000D03*
%TO.P,U3,15,RATE*%
%TO.N,unconnected-(U3-RATE-Pad15)*%
X183000000Y-86730000D03*
%TO.P,U3,16,DVDD*%
%TO.N,+5V*%
X183000000Y-85460000D03*
%TD*%
%TO.P,U2,1,VSUP*%
%TO.N,+5V*%
X160000000Y-85555000D03*
%TO.P,U2,2,BASE*%
%TO.N,unconnected-(U2-BASE-Pad2)*%
X160000000Y-86825000D03*
%TO.P,U2,3,AVDD*%
%TO.N,+5V*%
X160000000Y-88095000D03*
%TO.P,U2,4,VFB*%
%TO.N,unconnected-(U2-VFB-Pad4)*%
X160000000Y-89365000D03*
%TO.P,U2,5,AGND*%
%TO.N,GND*%
X160000000Y-90635000D03*
%TO.P,U2,6,VBG*%
%TO.N,unconnected-(U2-VBG-Pad6)*%
X160000000Y-91905000D03*
%TO.P,U2,7,INA-*%
%TO.N,unconnected-(U2-INA--Pad7)*%
X160000000Y-93175000D03*
%TO.P,U2,8,INA+*%
%TO.N,unconnected-(U2-INA+-Pad8)*%
X160000000Y-94445000D03*
%TO.P,U2,9,INB-*%
%TO.N,unconnected-(U2-INB--Pad9)*%
X165000000Y-94445000D03*
%TO.P,U2,10,INB+*%
%TO.N,unconnected-(U2-INB+-Pad10)*%
X165000000Y-93175000D03*
%TO.P,U2,11,PD_SCK*%
%TO.N,Net-(U1-IO16)*%
X165000000Y-91905000D03*
%TO.P,U2,12,DOUT*%
%TO.N,Net-(U1-IO15)*%
X165000000Y-90635000D03*
%TO.P,U2,13,XO*%
%TO.N,unconnected-(U2-XO-Pad13)*%
X165000000Y-89365000D03*
%TO.P,U2,14,XI*%
%TO.N,unconnected-(U2-XI-Pad14)*%
X165000000Y-88095000D03*
%TO.P,U2,15,RATE*%
%TO.N,unconnected-(U2-RATE-Pad15)*%
X165000000Y-86825000D03*
%TO.P,U2,16,DVDD*%
%TO.N,+5V*%
X165000000Y-85555000D03*
%TD*%
D13*
%TO.P,U1,1,GND*%
%TO.N,GND*%
X117500000Y-79650000D03*
%TO.P,U1,2,VDD*%
%TO.N,+3.3V*%
X117500000Y-80920000D03*
%TO.P,U1,3,EN*%
X117500000Y-82190000D03*
%TO.P,U1,4,SENSOR_VP*%
%TO.N,unconnected-(U1-SENSOR_VP-Pad4)*%
X117500000Y-83460000D03*
%TO.P,U1,5,SENSOR_VN*%
%TO.N,unconnected-(U1-SENSOR_VN-Pad5)*%
X117500000Y-84730000D03*
%TO.P,U1,6,IO34*%
%TO.N,/ECHO*%
X117500000Y-86000000D03*
%TO.P,U1,7,IO35*%
%TO.N,/TRIG*%
X117500000Y-87270000D03*
%TO.P,U1,8,IO32*%
%TO.N,unconnected-(U1-IO32-Pad8)*%
X117500000Y-88540000D03*
%TO.P,U1,9,IO33*%
%TO.N,unconnected-(U1-IO33-Pad9)*%
X117500000Y-89810000D03*
%TO.P,U1,10,IO25*%
%TO.N,unconnected-(U1-IO25-Pad10)*%
X117500000Y-91080000D03*
%TO.P,U1,11,IO26*%
%TO.N,/PWM*%
X117500000Y-92350000D03*
%TO.P,U1,12,IO27*%
%TO.N,+5V*%
X117500000Y-93620000D03*
%TO.P,U1,13,IO14*%
%TO.N,unconnected-(U1-IO14-Pad13)*%
X117500000Y-94890000D03*
%TO.P,U1,14,IO12*%
%TO.N,unconnected-(U1-IO12-Pad14)*%
X117500000Y-96160000D03*
D14*
%TO.P,U1,15,GND*%
%TO.N,GND*%
X120540000Y-97410000D03*
%TO.P,U1,16,IO13*%
%TO.N,unconnected-(U1-IO13-Pad16)*%
X121810000Y-97410000D03*
%TO.P,U1,17,SHD/SD2*%
%TO.N,unconnected-(U1-SHD{slash}SD2-Pad17)*%
X123080000Y-97410000D03*
%TO.P,U1,18,SWP/SD3*%
%TO.N,unconnected-(U1-SWP{slash}SD3-Pad18)*%
X124350000Y-97410000D03*
%TO.P,U1,19,SCS/CMD*%
%TO.N,unconnected-(U1-SCS{slash}CMD-Pad19)*%
X125620000Y-97410000D03*
%TO.P,U1,20,SCK/CLK*%
%TO.N,unconnected-(U1-SCK{slash}CLK-Pad20)*%
X126890000Y-97410000D03*
%TO.P,U1,21,SDO/SD0*%
%TO.N,unconnected-(U1-SDO{slash}SD0-Pad21)*%
X128160000Y-97410000D03*
%TO.P,U1,22,SDI/SD1*%
%TO.N,unconnected-(U1-SDI{slash}SD1-Pad22)*%
X129430000Y-97410000D03*
%TO.P,U1,23,IO15*%
%TO.N,Net-(U1-IO15)*%
X130700000Y-97410000D03*
%TO.P,U1,24,IO2*%
%TO.N,unconnected-(U1-IO2-Pad24)*%
X131970000Y-97410000D03*
D13*
%TO.P,U1,25,IO0*%
%TO.N,unconnected-(U1-IO0-Pad25)*%
X135000000Y-96160000D03*
%TO.P,U1,26,IO4*%
%TO.N,unconnected-(U1-IO4-Pad26)*%
X135000000Y-94890000D03*
%TO.P,U1,27,IO16*%
%TO.N,Net-(U1-IO16)*%
X135000000Y-93620000D03*
%TO.P,U1,28,IO17*%
%TO.N,unconnected-(U1-IO17-Pad28)*%
X135000000Y-92350000D03*
%TO.P,U1,29,IO5*%
%TO.N,unconnected-(U1-IO5-Pad29)*%
X135000000Y-91080000D03*
%TO.P,U1,30,IO18*%
%TO.N,unconnected-(U1-IO18-Pad30)*%
X135000000Y-89810000D03*
%TO.P,U1,31,IO19*%
%TO.N,Net-(U1-IO19)*%
X135000000Y-88540000D03*
%TO.P,U1,32,NC*%
%TO.N,unconnected-(U1-NC-Pad32)*%
X135000000Y-87270000D03*
%TO.P,U1,33,IO21*%
%TO.N,Net-(U1-IO21)*%
X135000000Y-86000000D03*
%TO.P,U1,34,RXD0/IO3*%
%TO.N,unconnected-(U1-RXD0{slash}IO3-Pad34)*%
X135000000Y-84730000D03*
%TO.P,U1,35,TXD0/IO1*%
%TO.N,unconnected-(U1-TXD0{slash}IO1-Pad35)*%
X135000000Y-83460000D03*
%TO.P,U1,36,IO22*%
%TO.N,unconnected-(U1-IO22-Pad36)*%
X135000000Y-82190000D03*
%TO.P,U1,37,IO23*%
%TO.N,unconnected-(U1-IO23-Pad37)*%
X135000000Y-80920000D03*
%TO.P,U1,38,GND*%
%TO.N,GND*%
X135000000Y-79650000D03*
D15*
%TO.P,U1,39,GND*%
X123350000Y-85970000D03*
D16*
X123350000Y-86670000D03*
D15*
X123350000Y-87370000D03*
D16*
X123350000Y-88070000D03*
D15*
X123350000Y-88770000D03*
D16*
X124050000Y-85970000D03*
X124050000Y-87370000D03*
X124050000Y-88770000D03*
X124725000Y-86670000D03*
X124725000Y-88070000D03*
D15*
X124750000Y-85970000D03*
X124750000Y-87370000D03*
D17*
X124750000Y-87370000D03*
D15*
X124750000Y-88770000D03*
D16*
X125450000Y-85970000D03*
X125450000Y-87370000D03*
X125450000Y-88770000D03*
D15*
X126150000Y-85970000D03*
D16*
X126150000Y-86670000D03*
D15*
X126150000Y-87370000D03*
D16*
X126150000Y-88070000D03*
D15*
X126150000Y-88770000D03*
%TD*%
D10*
%TO.P,J5,1,Pin_1*%
%TO.N,GND*%
X120000000Y-108000000D03*
%TD*%
%TO.P,J4,1,Pin_1*%
%TO.N,+3.3V*%
X100000000Y-85000000D03*
%TD*%
%TO.P,J3,1,Pin_1*%
%TO.N,+5V*%
X156500000Y-78500000D03*
%TD*%
D18*
%TO.N,Net-(U1-IO19)*%
X135780000Y-88540000D02*
X135000000Y-88540000D01*
X147500000Y-100260000D02*
X135780000Y-88540000D01*
X147500000Y-115914214D02*
X147500000Y-100260000D01*
X148085786Y-116500000D02*
X147500000Y-115914214D01*
X183000000Y-116500000D02*
X148085786Y-116500000D01*
X186000001Y-113499999D02*
X183000000Y-116500000D01*
X186000001Y-92395788D02*
X186000001Y-113499999D01*
X184144213Y-90540000D02*
X186000001Y-92395788D01*
X183000000Y-90540000D02*
X184144213Y-90540000D01*
%TO.N,Net-(U1-IO15)*%
X130700000Y-118200000D02*
X130700000Y-97410000D01*
X131000000Y-118500000D02*
X130700000Y-118200000D01*
X184500000Y-77000000D02*
X189500000Y-82000000D01*
X169500000Y-77000000D02*
X184500000Y-77000000D01*
X169500000Y-86929816D02*
X169500000Y-77000000D01*
X189500000Y-82000000D02*
X189500000Y-118000000D01*
X189500000Y-118000000D02*
X189000000Y-118500000D01*
X189000000Y-118500000D02*
X131000000Y-118500000D01*
X165794816Y-90635000D02*
X169500000Y-86929816D01*
X165000000Y-90635000D02*
X165794816Y-90635000D01*
%TO.N,Net-(U1-IO21)*%
X141065786Y-86000000D02*
X135000000Y-86000000D01*
X147565786Y-92500000D02*
X141065786Y-86000000D01*
X148500000Y-93000000D02*
X148000000Y-92500000D01*
X182500000Y-115500000D02*
X148500000Y-115500000D01*
X148500000Y-115500000D02*
X148500000Y-93000000D01*
X185000000Y-113000000D02*
X182500000Y-115500000D01*
X148000000Y-92500000D02*
X147565786Y-92500000D01*
X185000000Y-92810001D02*
X185000000Y-113000000D01*
X183999999Y-91810000D02*
X185000000Y-92810001D01*
X183000000Y-91810000D02*
X183999999Y-91810000D01*
%TO.N,Net-(U1-IO16)*%
X136550000Y-93620000D02*
X135000000Y-93620000D01*
X146500000Y-103570000D02*
X136550000Y-93620000D01*
X146500000Y-117500000D02*
X146500000Y-103570000D01*
X187000000Y-117500000D02*
X146500000Y-117500000D01*
X187500000Y-117000000D02*
X187000000Y-117500000D01*
X185000000Y-79500000D02*
X187500000Y-82000000D01*
X170500000Y-87404999D02*
X170500000Y-79500000D01*
X187500000Y-82000000D02*
X187500000Y-117000000D01*
X170500000Y-79500000D02*
X185000000Y-79500000D01*
X165999999Y-91905000D02*
X170500000Y-87404999D01*
X165000000Y-91905000D02*
X165999999Y-91905000D01*
%TO.N,GND*%
X150500000Y-91135000D02*
X150500000Y-110000000D01*
X150000000Y-90635000D02*
X150500000Y-91135000D01*
X176465184Y-90540000D02*
X178000000Y-90540000D01*
X169500000Y-114000000D02*
X170500000Y-114000000D01*
X169500000Y-114000000D02*
X169500000Y-97505184D01*
X169500000Y-97505184D02*
X176465184Y-90540000D01*
X154500000Y-114000000D02*
X169500000Y-114000000D01*
X170500000Y-114000000D02*
X174500000Y-110000000D01*
X150500000Y-110000000D02*
X154500000Y-114000000D01*
X150500000Y-110000000D02*
X151000000Y-109500000D01*
X174500000Y-110000000D02*
X177000000Y-110000000D01*
X150000000Y-90635000D02*
X147115000Y-90635000D01*
X151000000Y-109500000D02*
X163000000Y-109500000D01*
X160000000Y-90635000D02*
X150000000Y-90635000D01*
X136130000Y-79650000D02*
X135000000Y-79650000D01*
X147115000Y-90635000D02*
X136130000Y-79650000D01*
%TD*%
M02*
