%TF.GenerationSoftware,KiCad,Pcbnew,8.0.3*%
%TF.CreationDate,2024-06-26T21:10:10-03:00*%
%TF.ProjectId,SmartFeeder,536d6172-7446-4656-9564-65722e6b6963,rev?*%
%TF.SameCoordinates,Original*%
%TF.FileFunction,Copper,L2,Bot*%
%TF.FilePolarity,Positive*%
%FSLAX46Y46*%
G04 Gerber Fmt 4.6, Leading zero omitted, Abs format (unit mm)*
G04 Created by KiCad (PCBNEW 8.0.3) date 2024-06-26 21:10:10*
%MOMM*%
%LPD*%
G01*
G04 APERTURE LIST*
%TA.AperFunction,ComponentPad*%
%ADD10R,1.000000X1.000000*%
%TD*%
%TA.AperFunction,ComponentPad*%
%ADD11O,1.000000X1.000000*%
%TD*%
%TA.AperFunction,HeatsinkPad*%
%ADD12C,0.600000*%
%TD*%
%TA.AperFunction,Conductor*%
%ADD13C,0.800000*%
%TD*%
G04 APERTURE END LIST*
D10*
%TO.P,J2,1,Pin_1*%
%TO.N,/PWM*%
X163000000Y-106960000D03*
D11*
%TO.P,J2,2,Pin_2*%
%TO.N,+5V*%
X163000000Y-108230000D03*
%TO.P,J2,3,Pin_3*%
%TO.N,GND*%
X163000000Y-109500000D03*
%TD*%
D10*
%TO.P,J1,1,Pin_1*%
%TO.N,+5V*%
X177000000Y-106190000D03*
D11*
%TO.P,J1,2,Pin_2*%
%TO.N,/ECHO*%
X177000000Y-107460000D03*
%TO.P,J1,3,Pin_3*%
%TO.N,/TRIG*%
X177000000Y-108730000D03*
%TO.P,J1,4,Pin_4*%
%TO.N,GND*%
X177000000Y-110000000D03*
%TD*%
D12*
%TO.P,U1,39,GND*%
%TO.N,GND*%
X123350000Y-86670000D03*
X123350000Y-88070000D03*
X124050000Y-85970000D03*
X124050000Y-87370000D03*
X124050000Y-88770000D03*
X124725000Y-86670000D03*
X124725000Y-88070000D03*
X125450000Y-85970000D03*
X125450000Y-87370000D03*
X125450000Y-88770000D03*
X126150000Y-86670000D03*
X126150000Y-88070000D03*
%TD*%
D10*
%TO.P,J5,1,Pin_1*%
%TO.N,GND*%
X120000000Y-108000000D03*
%TD*%
%TO.P,J4,1,Pin_1*%
%TO.N,+3.3V*%
X100000000Y-85000000D03*
%TD*%
%TO.P,J3,1,Pin_1*%
%TO.N,+5V*%
X156500000Y-78500000D03*
%TD*%
D13*
%TO.N,/ECHO*%
X145165687Y-83999999D02*
X119085787Y-83999999D01*
X155165686Y-74000000D02*
X145165687Y-83999999D01*
X119085787Y-83999999D02*
X117500000Y-85585786D01*
X175500000Y-74000000D02*
X155165686Y-74000000D01*
X185000001Y-106999999D02*
X185000001Y-83500001D01*
X185000001Y-83500001D02*
X175500000Y-74000000D01*
X180900000Y-111100000D02*
X185000001Y-106999999D01*
X175900000Y-110455635D02*
X176544365Y-111100000D01*
X176544365Y-111100000D02*
X180900000Y-111100000D01*
X175900000Y-107852894D02*
X175900000Y-110455635D01*
X176292894Y-107460000D02*
X175900000Y-107852894D01*
X177000000Y-107460000D02*
X176292894Y-107460000D01*
%TO.N,/TRIG*%
X147800000Y-85000000D02*
X119500000Y-85000000D01*
X184000001Y-84585787D02*
X176814214Y-77400000D01*
X176814214Y-77400000D02*
X155400000Y-77400000D01*
X184000001Y-102015634D02*
X184000001Y-84585787D01*
X177285635Y-108730000D02*
X184000001Y-102015634D01*
X155400000Y-77400000D02*
X147800000Y-85000000D01*
X177000000Y-108730000D02*
X177285635Y-108730000D01*
X119500000Y-85000000D02*
X117500000Y-87000000D01*
%TO.N,/PWM*%
X164100000Y-107774365D02*
X164100000Y-110400000D01*
X135600000Y-110600000D02*
X117500000Y-92500000D01*
X164100000Y-110400000D02*
X163900000Y-110600000D01*
X163285635Y-106960000D02*
X164100000Y-107774365D01*
X163900000Y-110600000D02*
X135600000Y-110600000D01*
X163000000Y-106960000D02*
X163285635Y-106960000D01*
%TO.N,+5V*%
X157000000Y-100000000D02*
X156500000Y-99500000D01*
X168500000Y-100000000D02*
X157000000Y-100000000D01*
X156500000Y-99500000D02*
X156500000Y-88500000D01*
X174690000Y-106190000D02*
X168500000Y-100000000D01*
X156500000Y-102660000D02*
X156500000Y-99500000D01*
X177000000Y-106190000D02*
X174690000Y-106190000D01*
X181000000Y-83000000D02*
X183000000Y-85000000D01*
X175000000Y-83000000D02*
X181000000Y-83000000D01*
X175000000Y-83000000D02*
X175500000Y-83000000D01*
X173500000Y-83000000D02*
X175000000Y-83000000D01*
X173000000Y-83000000D02*
X172500000Y-83000000D01*
X172500000Y-83000000D02*
X173500000Y-83000000D01*
X161500000Y-83000000D02*
X172500000Y-83000000D01*
X173500000Y-83500000D02*
X173000000Y-83000000D01*
X174750000Y-84750000D02*
X177750000Y-87750000D01*
X173500000Y-83000000D02*
X173500000Y-83500000D01*
X173500000Y-83500000D02*
X174750000Y-84750000D01*
X176500000Y-84000000D02*
X178000000Y-85500000D01*
X175500000Y-83000000D02*
X176500000Y-84000000D01*
X161500000Y-83000000D02*
X162500000Y-83000000D01*
X157500000Y-83000000D02*
X161500000Y-83000000D01*
X162500000Y-83000000D02*
X165000000Y-85500000D01*
X157500000Y-83000000D02*
X160000000Y-85500000D01*
X156500000Y-82000000D02*
X157500000Y-83000000D01*
X158500000Y-88500000D02*
X159000000Y-88000000D01*
X156500000Y-88500000D02*
X158500000Y-88500000D01*
X156500000Y-88500000D02*
X156500000Y-78500000D01*
X156500000Y-78500000D02*
X156500000Y-82000000D01*
X162070000Y-108230000D02*
X156500000Y-102660000D01*
X163000000Y-108230000D02*
X162070000Y-108230000D01*
%TO.N,+3.3V*%
X116000000Y-81000000D02*
X116500000Y-81000000D01*
X114500000Y-82500000D02*
X116000000Y-81000000D01*
X114500000Y-82500000D02*
X116500000Y-82500000D01*
X100000000Y-82500000D02*
X114500000Y-82500000D01*
X116500000Y-82500000D02*
X117000000Y-82000000D01*
X100000000Y-85000000D02*
X100000000Y-82500000D01*
%TO.N,GND*%
X120000000Y-98000000D02*
X120500000Y-97500000D01*
X120000000Y-103500000D02*
X120000000Y-98000000D01*
X95000000Y-103500000D02*
X95000000Y-80000000D01*
X116500000Y-80000000D02*
X117000000Y-79500000D01*
X95000000Y-80000000D02*
X116500000Y-80000000D01*
X120000000Y-103500000D02*
X95000000Y-103500000D01*
X120000000Y-108000000D02*
X120000000Y-103500000D01*
%TD*%
M02*
