%TF.GenerationSoftware,KiCad,Pcbnew,8.0.3*%
%TF.CreationDate,2024-06-26T21:10:10-03:00*%
%TF.ProjectId,SmartFeeder,536d6172-7446-4656-9564-65722e6b6963,rev?*%
%TF.SameCoordinates,Original*%
%TF.FileFunction,Paste,Top*%
%TF.FilePolarity,Positive*%
%FSLAX46Y46*%
G04 Gerber Fmt 4.6, Leading zero omitted, Abs format (unit mm)*
G04 Created by KiCad (PCBNEW 8.0.3) date 2024-06-26 21:10:10*
%MOMM*%
%LPD*%
G01*
G04 APERTURE LIST*
G04 Aperture macros list*
%AMRoundRect*
0 Rectangle with rounded corners*
0 $1 Rounding radius*
0 $2 $3 $4 $5 $6 $7 $8 $9 X,Y pos of 4 corners*
0 Add a 4 corners polygon primitive as box body*
4,1,4,$2,$3,$4,$5,$6,$7,$8,$9,$2,$3,0*
0 Add four circle primitives for the rounded corners*
1,1,$1+$1,$2,$3*
1,1,$1+$1,$4,$5*
1,1,$1+$1,$6,$7*
1,1,$1+$1,$8,$9*
0 Add four rect primitives between the rounded corners*
20,1,$1+$1,$2,$3,$4,$5,0*
20,1,$1+$1,$4,$5,$6,$7,0*
20,1,$1+$1,$6,$7,$8,$9,0*
20,1,$1+$1,$8,$9,$2,$3,0*%
G04 Aperture macros list end*
%ADD10RoundRect,0.150000X-0.850000X-0.150000X0.850000X-0.150000X0.850000X0.150000X-0.850000X0.150000X0*%
%ADD11R,1.500000X0.900000*%
%ADD12R,0.900000X1.500000*%
%ADD13R,0.900000X0.900000*%
G04 APERTURE END LIST*
D10*
%TO.C,U3*%
X178000000Y-85460000D03*
X178000000Y-86730000D03*
X178000000Y-88000000D03*
X178000000Y-89270000D03*
X178000000Y-90540000D03*
X178000000Y-91810000D03*
X178000000Y-93080000D03*
X178000000Y-94350000D03*
X183000000Y-94350000D03*
X183000000Y-93080000D03*
X183000000Y-91810000D03*
X183000000Y-90540000D03*
X183000000Y-89270000D03*
X183000000Y-88000000D03*
X183000000Y-86730000D03*
X183000000Y-85460000D03*
%TD*%
%TO.C,U2*%
X160000000Y-85555000D03*
X160000000Y-86825000D03*
X160000000Y-88095000D03*
X160000000Y-89365000D03*
X160000000Y-90635000D03*
X160000000Y-91905000D03*
X160000000Y-93175000D03*
X160000000Y-94445000D03*
X165000000Y-94445000D03*
X165000000Y-93175000D03*
X165000000Y-91905000D03*
X165000000Y-90635000D03*
X165000000Y-89365000D03*
X165000000Y-88095000D03*
X165000000Y-86825000D03*
X165000000Y-85555000D03*
%TD*%
D11*
%TO.C,U1*%
X117500000Y-79650000D03*
X117500000Y-80920000D03*
X117500000Y-82190000D03*
X117500000Y-83460000D03*
X117500000Y-84730000D03*
X117500000Y-86000000D03*
X117500000Y-87270000D03*
X117500000Y-88540000D03*
X117500000Y-89810000D03*
X117500000Y-91080000D03*
X117500000Y-92350000D03*
X117500000Y-93620000D03*
X117500000Y-94890000D03*
X117500000Y-96160000D03*
D12*
X120540000Y-97410000D03*
X121810000Y-97410000D03*
X123080000Y-97410000D03*
X124350000Y-97410000D03*
X125620000Y-97410000D03*
X126890000Y-97410000D03*
X128160000Y-97410000D03*
X129430000Y-97410000D03*
X130700000Y-97410000D03*
X131970000Y-97410000D03*
D11*
X135000000Y-96160000D03*
X135000000Y-94890000D03*
X135000000Y-93620000D03*
X135000000Y-92350000D03*
X135000000Y-91080000D03*
X135000000Y-89810000D03*
X135000000Y-88540000D03*
X135000000Y-87270000D03*
X135000000Y-86000000D03*
X135000000Y-84730000D03*
X135000000Y-83460000D03*
X135000000Y-82190000D03*
X135000000Y-80920000D03*
X135000000Y-79650000D03*
D13*
X123350000Y-85970000D03*
X123350000Y-87370000D03*
X123350000Y-88770000D03*
X124750000Y-85970000D03*
X124750000Y-87370000D03*
X124750000Y-88770000D03*
X126150000Y-85970000D03*
X126150000Y-87370000D03*
X126150000Y-88770000D03*
%TD*%
M02*
