<?xml version="1.0" standalone="no"?>
 <!DOCTYPE svg PUBLIC "-//W3C//DTD SVG 1.1//EN" 
 "http://www.w3.org/Graphics/SVG/1.1/DTD/svg11.dtd"> 
<svg
  xmlns:svg="http://www.w3.org/2000/svg"
  xmlns="http://www.w3.org/2000/svg"
  xmlns:xlink="http://www.w3.org/1999/xlink"
  version="1.1"
  width="297.0022mm" height="210.0072mm" viewBox="0.0000 0.0000 297.0022 210.0072">
<title>SVG Image created as EA075_Optisort-User_Drawings.svg date 2024/06/25 10:20:51 </title>
  <desc>Image generated by PCBNEW </desc>
<g style="fill:#000000; fill-opacity:1.0000;stroke:#000000; stroke-opacity:1.0000;
stroke-linecap:round; stroke-linejoin:round;"
 transform="translate(0 0) scale(1 1)">
</g>
<g style="fill:none; 
stroke:#000000; stroke-width:0.1500; stroke-opacity:1; 
stroke-linecap:round; stroke-linejoin:round;">
<path d="M177.0022 166.0072
L285.0022 166.0072
L285.0022 198.0072
L177.0022 198.0072
L177.0022 166.0072
" />
</g>
<g style="fill:none; 
stroke:#000000; stroke-width:0.1500; stroke-opacity:1; 
stroke-linecap:round; stroke-linejoin:round;">
<path d="M10.0000 10.0000
L287.0022 10.0000
L287.0022 200.0072
L10.0000 200.0072
L10.0000 10.0000
" />
</g>
<g style="fill:none; 
stroke:#000000; stroke-width:0.1500; stroke-opacity:1; 
stroke-linecap:round; stroke-linejoin:round;">
<path d="M12.0000 12.0000
L285.0022 12.0000
L285.0022 198.0072
L12.0000 198.0072
L12.0000 12.0000
" />
</g>
<g style="fill:none; 
stroke:#000000; stroke-width:0.1500; stroke-opacity:1; 
stroke-linecap:round; stroke-linejoin:round;">
<path d="M60.0000 12.0000
L60.0000 10.0000
" />
</g>
<g style="fill:none; 
stroke:#000000; stroke-width:0.1500; stroke-opacity:1; 
stroke-linecap:round; stroke-linejoin:round;">
<path d="M110.0000 12.0000
L110.0000 10.0000
" />
</g>
<g style="fill:none; 
stroke:#000000; stroke-width:0.1500; stroke-opacity:1; 
stroke-linecap:round; stroke-linejoin:round;">
<path d="M160.0000 12.0000
L160.0000 10.0000
" />
</g>
<g style="fill:none; 
stroke:#000000; stroke-width:0.1500; stroke-opacity:1; 
stroke-linecap:round; stroke-linejoin:round;">
<path d="M210.0000 12.0000
L210.0000 10.0000
" />
</g>
<g style="fill:none; 
stroke:#000000; stroke-width:0.1500; stroke-opacity:1; 
stroke-linecap:round; stroke-linejoin:round;">
<path d="M260.0000 12.0000
L260.0000 10.0000
" />
</g>
<g style="fill:none; 
stroke:#000000; stroke-width:0.1500; stroke-opacity:1; 
stroke-linecap:round; stroke-linejoin:round;">
<text x="35.0000" y="11.6500"
textLength="1.4281" font-size="1.7333" lengthAdjust="spacingAndGlyphs"
text-anchor="start" opacity="0">1</text>
<g class="stroked-text"><desc>1</desc>
<path d="M36.0892 11.5936
L35.3463 11.5936
" />
<path d="M35.7177 11.5936
L35.7177 10.2936
" />
<path d="M35.7177 10.2936
L35.5939 10.4793
" />
<path d="M35.5939 10.4793
L35.4701 10.6031
" />
<path d="M35.4701 10.6031
L35.3463 10.6650
" />
</g></g>
<g style="fill:none; 
stroke:#000000; stroke-width:0.1500; stroke-opacity:1; 
stroke-linecap:round; stroke-linejoin:round;">
<text x="85.0000" y="11.6500"
textLength="1.4281" font-size="1.7333" lengthAdjust="spacingAndGlyphs"
text-anchor="start" opacity="0">2</text>
<g class="stroked-text"><desc>2</desc>
<path d="M85.3463 10.4174
L85.4082 10.3555
" />
<path d="M85.4082 10.3555
L85.5320 10.2936
" />
<path d="M85.5320 10.2936
L85.8415 10.2936
" />
<path d="M85.8415 10.2936
L85.9654 10.3555
" />
<path d="M85.9654 10.3555
L86.0273 10.4174
" />
<path d="M86.0273 10.4174
L86.0892 10.5412
" />
<path d="M86.0892 10.5412
L86.0892 10.6650
" />
<path d="M86.0892 10.6650
L86.0273 10.8507
" />
<path d="M86.0273 10.8507
L85.2844 11.5936
" />
<path d="M85.2844 11.5936
L86.0892 11.5936
" />
</g></g>
<g style="fill:none; 
stroke:#000000; stroke-width:0.1500; stroke-opacity:1; 
stroke-linecap:round; stroke-linejoin:round;">
<text x="135.0000" y="11.6500"
textLength="1.4281" font-size="1.7333" lengthAdjust="spacingAndGlyphs"
text-anchor="start" opacity="0">3</text>
<g class="stroked-text"><desc>3</desc>
<path d="M135.2844 10.2936
L136.0892 10.2936
" />
<path d="M136.0892 10.2936
L135.6558 10.7888
" />
<path d="M135.6558 10.7888
L135.8415 10.7888
" />
<path d="M135.8415 10.7888
L135.9654 10.8507
" />
<path d="M135.9654 10.8507
L136.0273 10.9127
" />
<path d="M136.0273 10.9127
L136.0892 11.0365
" />
<path d="M136.0892 11.0365
L136.0892 11.3460
" />
<path d="M136.0892 11.3460
L136.0273 11.4698
" />
<path d="M136.0273 11.4698
L135.9654 11.5317
" />
<path d="M135.9654 11.5317
L135.8415 11.5936
" />
<path d="M135.8415 11.5936
L135.4701 11.5936
" />
<path d="M135.4701 11.5936
L135.3463 11.5317
" />
<path d="M135.3463 11.5317
L135.2844 11.4698
" />
</g></g>
<g style="fill:none; 
stroke:#000000; stroke-width:0.1500; stroke-opacity:1; 
stroke-linecap:round; stroke-linejoin:round;">
<text x="185.0000" y="11.6500"
textLength="1.4281" font-size="1.7333" lengthAdjust="spacingAndGlyphs"
text-anchor="start" opacity="0">4</text>
<g class="stroked-text"><desc>4</desc>
<path d="M185.9654 10.7269
L185.9654 11.5936
" />
<path d="M185.6558 10.2317
L185.3463 11.1603
" />
<path d="M185.3463 11.1603
L186.1511 11.1603
" />
</g></g>
<g style="fill:none; 
stroke:#000000; stroke-width:0.1500; stroke-opacity:1; 
stroke-linecap:round; stroke-linejoin:round;">
<text x="235.0000" y="11.6500"
textLength="1.4281" font-size="1.7333" lengthAdjust="spacingAndGlyphs"
text-anchor="start" opacity="0">5</text>
<g class="stroked-text"><desc>5</desc>
<path d="M236.0273 10.2936
L235.4082 10.2936
" />
<path d="M235.4082 10.2936
L235.3463 10.9127
" />
<path d="M235.3463 10.9127
L235.4082 10.8507
" />
<path d="M235.4082 10.8507
L235.5320 10.7888
" />
<path d="M235.5320 10.7888
L235.8415 10.7888
" />
<path d="M235.8415 10.7888
L235.9654 10.8507
" />
<path d="M235.9654 10.8507
L236.0273 10.9127
" />
<path d="M236.0273 10.9127
L236.0892 11.0365
" />
<path d="M236.0892 11.0365
L236.0892 11.3460
" />
<path d="M236.0892 11.3460
L236.0273 11.4698
" />
<path d="M236.0273 11.4698
L235.9654 11.5317
" />
<path d="M235.9654 11.5317
L235.8415 11.5936
" />
<path d="M235.8415 11.5936
L235.5320 11.5936
" />
<path d="M235.5320 11.5936
L235.4082 11.5317
" />
<path d="M235.4082 11.5317
L235.3463 11.4698
" />
</g></g>
<g style="fill:none; 
stroke:#000000; stroke-width:0.1500; stroke-opacity:1; 
stroke-linecap:round; stroke-linejoin:round;">
<text x="285.0000" y="11.6500"
textLength="1.4281" font-size="1.7333" lengthAdjust="spacingAndGlyphs"
text-anchor="start" opacity="0">6</text>
<g class="stroked-text"><desc>6</desc>
<path d="M285.9654 10.2936
L285.7177 10.2936
" />
<path d="M285.7177 10.2936
L285.5939 10.3555
" />
<path d="M285.5939 10.3555
L285.5320 10.4174
" />
<path d="M285.5320 10.4174
L285.4082 10.6031
" />
<path d="M285.4082 10.6031
L285.3463 10.8507
" />
<path d="M285.3463 10.8507
L285.3463 11.3460
" />
<path d="M285.3463 11.3460
L285.4082 11.4698
" />
<path d="M285.4082 11.4698
L285.4701 11.5317
" />
<path d="M285.4701 11.5317
L285.5939 11.5936
" />
<path d="M285.5939 11.5936
L285.8415 11.5936
" />
<path d="M285.8415 11.5936
L285.9654 11.5317
" />
<path d="M285.9654 11.5317
L286.0273 11.4698
" />
<path d="M286.0273 11.4698
L286.0892 11.3460
" />
<path d="M286.0892 11.3460
L286.0892 11.0365
" />
<path d="M286.0892 11.0365
L286.0273 10.9127
" />
<path d="M286.0273 10.9127
L285.9654 10.8507
" />
<path d="M285.9654 10.8507
L285.8415 10.7888
" />
<path d="M285.8415 10.7888
L285.5939 10.7888
" />
<path d="M285.5939 10.7888
L285.4701 10.8507
" />
<path d="M285.4701 10.8507
L285.4082 10.9127
" />
<path d="M285.4082 10.9127
L285.3463 11.0365
" />
</g></g>
<g style="fill:none; 
stroke:#000000; stroke-width:0.1500; stroke-opacity:1; 
stroke-linecap:round; stroke-linejoin:round;">
<path d="M60.0000 198.0072
L60.0000 200.0072
" />
</g>
<g style="fill:none; 
stroke:#000000; stroke-width:0.1500; stroke-opacity:1; 
stroke-linecap:round; stroke-linejoin:round;">
<path d="M110.0000 198.0072
L110.0000 200.0072
" />
</g>
<g style="fill:none; 
stroke:#000000; stroke-width:0.1500; stroke-opacity:1; 
stroke-linecap:round; stroke-linejoin:round;">
<path d="M160.0000 198.0072
L160.0000 200.0072
" />
</g>
<g style="fill:none; 
stroke:#000000; stroke-width:0.1500; stroke-opacity:1; 
stroke-linecap:round; stroke-linejoin:round;">
<path d="M210.0000 198.0072
L210.0000 200.0072
" />
</g>
<g style="fill:none; 
stroke:#000000; stroke-width:0.1500; stroke-opacity:1; 
stroke-linecap:round; stroke-linejoin:round;">
<path d="M260.0000 198.0072
L260.0000 200.0072
" />
</g>
<g style="fill:none; 
stroke:#000000; stroke-width:0.1500; stroke-opacity:1; 
stroke-linecap:round; stroke-linejoin:round;">
<text x="35.0000" y="199.6572"
textLength="1.4281" font-size="1.7333" lengthAdjust="spacingAndGlyphs"
text-anchor="start" opacity="0">1</text>
<g class="stroked-text"><desc>1</desc>
<path d="M36.0892 199.6008
L35.3463 199.6008
" />
<path d="M35.7177 199.6008
L35.7177 198.3008
" />
<path d="M35.7177 198.3008
L35.5939 198.4865
" />
<path d="M35.5939 198.4865
L35.4701 198.6103
" />
<path d="M35.4701 198.6103
L35.3463 198.6722
" />
</g></g>
<g style="fill:none; 
stroke:#000000; stroke-width:0.1500; stroke-opacity:1; 
stroke-linecap:round; stroke-linejoin:round;">
<text x="85.0000" y="199.6572"
textLength="1.4281" font-size="1.7333" lengthAdjust="spacingAndGlyphs"
text-anchor="start" opacity="0">2</text>
<g class="stroked-text"><desc>2</desc>
<path d="M85.3463 198.4246
L85.4082 198.3627
" />
<path d="M85.4082 198.3627
L85.5320 198.3008
" />
<path d="M85.5320 198.3008
L85.8415 198.3008
" />
<path d="M85.8415 198.3008
L85.9654 198.3627
" />
<path d="M85.9654 198.3627
L86.0273 198.4246
" />
<path d="M86.0273 198.4246
L86.0892 198.5484
" />
<path d="M86.0892 198.5484
L86.0892 198.6722
" />
<path d="M86.0892 198.6722
L86.0273 198.8579
" />
<path d="M86.0273 198.8579
L85.2844 199.6008
" />
<path d="M85.2844 199.6008
L86.0892 199.6008
" />
</g></g>
<g style="fill:none; 
stroke:#000000; stroke-width:0.1500; stroke-opacity:1; 
stroke-linecap:round; stroke-linejoin:round;">
<text x="135.0000" y="199.6572"
textLength="1.4281" font-size="1.7333" lengthAdjust="spacingAndGlyphs"
text-anchor="start" opacity="0">3</text>
<g class="stroked-text"><desc>3</desc>
<path d="M135.2844 198.3008
L136.0892 198.3008
" />
<path d="M136.0892 198.3008
L135.6558 198.7960
" />
<path d="M135.6558 198.7960
L135.8415 198.7960
" />
<path d="M135.8415 198.7960
L135.9654 198.8579
" />
<path d="M135.9654 198.8579
L136.0273 198.9199
" />
<path d="M136.0273 198.9199
L136.0892 199.0437
" />
<path d="M136.0892 199.0437
L136.0892 199.3532
" />
<path d="M136.0892 199.3532
L136.0273 199.4770
" />
<path d="M136.0273 199.4770
L135.9654 199.5389
" />
<path d="M135.9654 199.5389
L135.8415 199.6008
" />
<path d="M135.8415 199.6008
L135.4701 199.6008
" />
<path d="M135.4701 199.6008
L135.3463 199.5389
" />
<path d="M135.3463 199.5389
L135.2844 199.4770
" />
</g></g>
<g style="fill:none; 
stroke:#000000; stroke-width:0.1500; stroke-opacity:1; 
stroke-linecap:round; stroke-linejoin:round;">
<text x="185.0000" y="199.6572"
textLength="1.4281" font-size="1.7333" lengthAdjust="spacingAndGlyphs"
text-anchor="start" opacity="0">4</text>
<g class="stroked-text"><desc>4</desc>
<path d="M185.9654 198.7341
L185.9654 199.6008
" />
<path d="M185.6558 198.2389
L185.3463 199.1675
" />
<path d="M185.3463 199.1675
L186.1511 199.1675
" />
</g></g>
<g style="fill:none; 
stroke:#000000; stroke-width:0.1500; stroke-opacity:1; 
stroke-linecap:round; stroke-linejoin:round;">
<text x="235.0000" y="199.6572"
textLength="1.4281" font-size="1.7333" lengthAdjust="spacingAndGlyphs"
text-anchor="start" opacity="0">5</text>
<g class="stroked-text"><desc>5</desc>
<path d="M236.0273 198.3008
L235.4082 198.3008
" />
<path d="M235.4082 198.3008
L235.3463 198.9199
" />
<path d="M235.3463 198.9199
L235.4082 198.8579
" />
<path d="M235.4082 198.8579
L235.5320 198.7960
" />
<path d="M235.5320 198.7960
L235.8415 198.7960
" />
<path d="M235.8415 198.7960
L235.9654 198.8579
" />
<path d="M235.9654 198.8579
L236.0273 198.9199
" />
<path d="M236.0273 198.9199
L236.0892 199.0437
" />
<path d="M236.0892 199.0437
L236.0892 199.3532
" />
<path d="M236.0892 199.3532
L236.0273 199.4770
" />
<path d="M236.0273 199.4770
L235.9654 199.5389
" />
<path d="M235.9654 199.5389
L235.8415 199.6008
" />
<path d="M235.8415 199.6008
L235.5320 199.6008
" />
<path d="M235.5320 199.6008
L235.4082 199.5389
" />
<path d="M235.4082 199.5389
L235.3463 199.4770
" />
</g></g>
<g style="fill:none; 
stroke:#000000; stroke-width:0.1500; stroke-opacity:1; 
stroke-linecap:round; stroke-linejoin:round;">
<text x="285.0000" y="199.6572"
textLength="1.4281" font-size="1.7333" lengthAdjust="spacingAndGlyphs"
text-anchor="start" opacity="0">6</text>
<g class="stroked-text"><desc>6</desc>
<path d="M285.9654 198.3008
L285.7177 198.3008
" />
<path d="M285.7177 198.3008
L285.5939 198.3627
" />
<path d="M285.5939 198.3627
L285.5320 198.4246
" />
<path d="M285.5320 198.4246
L285.4082 198.6103
" />
<path d="M285.4082 198.6103
L285.3463 198.8579
" />
<path d="M285.3463 198.8579
L285.3463 199.3532
" />
<path d="M285.3463 199.3532
L285.4082 199.4770
" />
<path d="M285.4082 199.4770
L285.4701 199.5389
" />
<path d="M285.4701 199.5389
L285.5939 199.6008
" />
<path d="M285.5939 199.6008
L285.8415 199.6008
" />
<path d="M285.8415 199.6008
L285.9654 199.5389
" />
<path d="M285.9654 199.5389
L286.0273 199.4770
" />
<path d="M286.0273 199.4770
L286.0892 199.3532
" />
<path d="M286.0892 199.3532
L286.0892 199.0437
" />
<path d="M286.0892 199.0437
L286.0273 198.9199
" />
<path d="M286.0273 198.9199
L285.9654 198.8579
" />
<path d="M285.9654 198.8579
L285.8415 198.7960
" />
<path d="M285.8415 198.7960
L285.5939 198.7960
" />
<path d="M285.5939 198.7960
L285.4701 198.8579
" />
<path d="M285.4701 198.8579
L285.4082 198.9199
" />
<path d="M285.4082 198.9199
L285.3463 199.0437
" />
</g></g>
<g style="fill:none; 
stroke:#000000; stroke-width:0.1500; stroke-opacity:1; 
stroke-linecap:round; stroke-linejoin:round;">
<path d="M10.0000 60.0000
L12.0000 60.0000
" />
</g>
<g style="fill:none; 
stroke:#000000; stroke-width:0.1500; stroke-opacity:1; 
stroke-linecap:round; stroke-linejoin:round;">
<path d="M10.0000 110.0000
L12.0000 110.0000
" />
</g>
<g style="fill:none; 
stroke:#000000; stroke-width:0.1500; stroke-opacity:1; 
stroke-linecap:round; stroke-linejoin:round;">
<path d="M10.0000 160.0000
L12.0000 160.0000
" />
</g>
<g style="fill:none; 
stroke:#000000; stroke-width:0.1500; stroke-opacity:1; 
stroke-linecap:round; stroke-linejoin:round;">
<text x="11.0000" y="35.6500"
textLength="1.3043" font-size="1.7333" lengthAdjust="spacingAndGlyphs"
text-anchor="middle" opacity="0">A</text>
<g class="stroked-text"><desc>A</desc>
<path d="M10.6905 35.2222
L11.3095 35.2222
" />
<path d="M10.5667 35.5936
L11.0000 34.2936
" />
<path d="M11.0000 34.2936
L11.4333 35.5936
" />
</g></g>
<g style="fill:none; 
stroke:#000000; stroke-width:0.1500; stroke-opacity:1; 
stroke-linecap:round; stroke-linejoin:round;">
<text x="11.0000" y="85.6500"
textLength="1.4900" font-size="1.7333" lengthAdjust="spacingAndGlyphs"
text-anchor="middle" opacity="0">B</text>
<g class="stroked-text"><desc>B</desc>
<path d="M11.0929 84.9127
L11.2786 84.9746
" />
<path d="M11.2786 84.9746
L11.3405 85.0365
" />
<path d="M11.3405 85.0365
L11.4024 85.1603
" />
<path d="M11.4024 85.1603
L11.4024 85.3460
" />
<path d="M11.4024 85.3460
L11.3405 85.4698
" />
<path d="M11.3405 85.4698
L11.2786 85.5317
" />
<path d="M11.2786 85.5317
L11.1548 85.5936
" />
<path d="M11.1548 85.5936
L10.6595 85.5936
" />
<path d="M10.6595 85.5936
L10.6595 84.2936
" />
<path d="M10.6595 84.2936
L11.0929 84.2936
" />
<path d="M11.0929 84.2936
L11.2167 84.3555
" />
<path d="M11.2167 84.3555
L11.2786 84.4174
" />
<path d="M11.2786 84.4174
L11.3405 84.5412
" />
<path d="M11.3405 84.5412
L11.3405 84.6650
" />
<path d="M11.3405 84.6650
L11.2786 84.7888
" />
<path d="M11.2786 84.7888
L11.2167 84.8507
" />
<path d="M11.2167 84.8507
L11.0929 84.9127
" />
<path d="M11.0929 84.9127
L10.6595 84.9127
" />
</g></g>
<g style="fill:none; 
stroke:#000000; stroke-width:0.1500; stroke-opacity:1; 
stroke-linecap:round; stroke-linejoin:round;">
<text x="11.0000" y="135.6500"
textLength="1.4900" font-size="1.7333" lengthAdjust="spacingAndGlyphs"
text-anchor="middle" opacity="0">C</text>
<g class="stroked-text"><desc>C</desc>
<path d="M11.4024 135.4698
L11.3405 135.5317
" />
<path d="M11.3405 135.5317
L11.1548 135.5936
" />
<path d="M11.1548 135.5936
L11.0310 135.5936
" />
<path d="M11.0310 135.5936
L10.8452 135.5317
" />
<path d="M10.8452 135.5317
L10.7214 135.4079
" />
<path d="M10.7214 135.4079
L10.6595 135.2841
" />
<path d="M10.6595 135.2841
L10.5976 135.0365
" />
<path d="M10.5976 135.0365
L10.5976 134.8507
" />
<path d="M10.5976 134.8507
L10.6595 134.6031
" />
<path d="M10.6595 134.6031
L10.7214 134.4793
" />
<path d="M10.7214 134.4793
L10.8452 134.3555
" />
<path d="M10.8452 134.3555
L11.0310 134.2936
" />
<path d="M11.0310 134.2936
L11.1548 134.2936
" />
<path d="M11.1548 134.2936
L11.3405 134.3555
" />
<path d="M11.3405 134.3555
L11.4024 134.4174
" />
</g></g>
<g style="fill:none; 
stroke:#000000; stroke-width:0.1500; stroke-opacity:1; 
stroke-linecap:round; stroke-linejoin:round;">
<text x="11.0000" y="185.6500"
textLength="1.4900" font-size="1.7333" lengthAdjust="spacingAndGlyphs"
text-anchor="middle" opacity="0">D</text>
<g class="stroked-text"><desc>D</desc>
<path d="M10.6595 185.5936
L10.6595 184.2936
" />
<path d="M10.6595 184.2936
L10.9690 184.2936
" />
<path d="M10.9690 184.2936
L11.1548 184.3555
" />
<path d="M11.1548 184.3555
L11.2786 184.4793
" />
<path d="M11.2786 184.4793
L11.3405 184.6031
" />
<path d="M11.3405 184.6031
L11.4024 184.8507
" />
<path d="M11.4024 184.8507
L11.4024 185.0365
" />
<path d="M11.4024 185.0365
L11.3405 185.2841
" />
<path d="M11.3405 185.2841
L11.2786 185.4079
" />
<path d="M11.2786 185.4079
L11.1548 185.5317
" />
<path d="M11.1548 185.5317
L10.9690 185.5936
" />
<path d="M10.9690 185.5936
L10.6595 185.5936
" />
</g></g>
<g style="fill:none; 
stroke:#000000; stroke-width:0.1500; stroke-opacity:1; 
stroke-linecap:round; stroke-linejoin:round;">
<path d="M287.0022 60.0000
L285.0022 60.0000
" />
</g>
<g style="fill:none; 
stroke:#000000; stroke-width:0.1500; stroke-opacity:1; 
stroke-linecap:round; stroke-linejoin:round;">
<path d="M287.0022 110.0000
L285.0022 110.0000
" />
</g>
<g style="fill:none; 
stroke:#000000; stroke-width:0.1500; stroke-opacity:1; 
stroke-linecap:round; stroke-linejoin:round;">
<path d="M287.0022 160.0000
L285.0022 160.0000
" />
</g>
<g style="fill:none; 
stroke:#000000; stroke-width:0.1500; stroke-opacity:1; 
stroke-linecap:round; stroke-linejoin:round;">
<text x="286.0022" y="35.6500"
textLength="1.3043" font-size="1.7333" lengthAdjust="spacingAndGlyphs"
text-anchor="middle" opacity="0">A</text>
<g class="stroked-text"><desc>A</desc>
<path d="M285.6927 35.2222
L286.3117 35.2222
" />
<path d="M285.5689 35.5936
L286.0022 34.2936
" />
<path d="M286.0022 34.2936
L286.4355 35.5936
" />
</g></g>
<g style="fill:none; 
stroke:#000000; stroke-width:0.1500; stroke-opacity:1; 
stroke-linecap:round; stroke-linejoin:round;">
<text x="286.0022" y="85.6500"
textLength="1.4900" font-size="1.7333" lengthAdjust="spacingAndGlyphs"
text-anchor="middle" opacity="0">B</text>
<g class="stroked-text"><desc>B</desc>
<path d="M286.0951 84.9127
L286.2808 84.9746
" />
<path d="M286.2808 84.9746
L286.3427 85.0365
" />
<path d="M286.3427 85.0365
L286.4046 85.1603
" />
<path d="M286.4046 85.1603
L286.4046 85.3460
" />
<path d="M286.4046 85.3460
L286.3427 85.4698
" />
<path d="M286.3427 85.4698
L286.2808 85.5317
" />
<path d="M286.2808 85.5317
L286.1570 85.5936
" />
<path d="M286.1570 85.5936
L285.6617 85.5936
" />
<path d="M285.6617 85.5936
L285.6617 84.2936
" />
<path d="M285.6617 84.2936
L286.0951 84.2936
" />
<path d="M286.0951 84.2936
L286.2189 84.3555
" />
<path d="M286.2189 84.3555
L286.2808 84.4174
" />
<path d="M286.2808 84.4174
L286.3427 84.5412
" />
<path d="M286.3427 84.5412
L286.3427 84.6650
" />
<path d="M286.3427 84.6650
L286.2808 84.7888
" />
<path d="M286.2808 84.7888
L286.2189 84.8507
" />
<path d="M286.2189 84.8507
L286.0951 84.9127
" />
<path d="M286.0951 84.9127
L285.6617 84.9127
" />
</g></g>
<g style="fill:none; 
stroke:#000000; stroke-width:0.1500; stroke-opacity:1; 
stroke-linecap:round; stroke-linejoin:round;">
<text x="286.0022" y="135.6500"
textLength="1.4900" font-size="1.7333" lengthAdjust="spacingAndGlyphs"
text-anchor="middle" opacity="0">C</text>
<g class="stroked-text"><desc>C</desc>
<path d="M286.4046 135.4698
L286.3427 135.5317
" />
<path d="M286.3427 135.5317
L286.1570 135.5936
" />
<path d="M286.1570 135.5936
L286.0332 135.5936
" />
<path d="M286.0332 135.5936
L285.8474 135.5317
" />
<path d="M285.8474 135.5317
L285.7236 135.4079
" />
<path d="M285.7236 135.4079
L285.6617 135.2841
" />
<path d="M285.6617 135.2841
L285.5998 135.0365
" />
<path d="M285.5998 135.0365
L285.5998 134.8507
" />
<path d="M285.5998 134.8507
L285.6617 134.6031
" />
<path d="M285.6617 134.6031
L285.7236 134.4793
" />
<path d="M285.7236 134.4793
L285.8474 134.3555
" />
<path d="M285.8474 134.3555
L286.0332 134.2936
" />
<path d="M286.0332 134.2936
L286.1570 134.2936
" />
<path d="M286.1570 134.2936
L286.3427 134.3555
" />
<path d="M286.3427 134.3555
L286.4046 134.4174
" />
</g></g>
<g style="fill:none; 
stroke:#000000; stroke-width:0.1500; stroke-opacity:1; 
stroke-linecap:round; stroke-linejoin:round;">
<text x="286.0022" y="185.6500"
textLength="1.4900" font-size="1.7333" lengthAdjust="spacingAndGlyphs"
text-anchor="middle" opacity="0">D</text>
<g class="stroked-text"><desc>D</desc>
<path d="M285.6617 185.5936
L285.6617 184.2936
" />
<path d="M285.6617 184.2936
L285.9712 184.2936
" />
<path d="M285.9712 184.2936
L286.1570 184.3555
" />
<path d="M286.1570 184.3555
L286.2808 184.4793
" />
<path d="M286.2808 184.4793
L286.3427 184.6031
" />
<path d="M286.3427 184.6031
L286.4046 184.8507
" />
<path d="M286.4046 184.8507
L286.4046 185.0365
" />
<path d="M286.4046 185.0365
L286.3427 185.2841
" />
<path d="M286.3427 185.2841
L286.2808 185.4079
" />
<path d="M286.2808 185.4079
L286.1570 185.5317
" />
<path d="M286.1570 185.5317
L285.9712 185.5936
" />
<path d="M285.9712 185.5936
L285.6617 185.5936
" />
</g></g>
<g style="fill:none; 
stroke:#000000; stroke-width:0.1500; stroke-opacity:1; 
stroke-linecap:round; stroke-linejoin:round;">
<text x="200.0022" y="193.8572"
textLength="7.0071" font-size="2.0000" lengthAdjust="spacingAndGlyphs"
text-anchor="start" opacity="0">Date: </text>
<g class="stroked-text"><desc>Date: </desc>
<path d="M200.4580 193.7933
L200.4580 192.2933
" />
<path d="M200.4580 192.2933
L200.8152 192.2933
" />
<path d="M200.8152 192.2933
L201.0295 192.3648
" />
<path d="M201.0295 192.3648
L201.1723 192.5076
" />
<path d="M201.1723 192.5076
L201.2437 192.6505
" />
<path d="M201.2437 192.6505
L201.3152 192.9362
" />
<path d="M201.3152 192.9362
L201.3152 193.1505
" />
<path d="M201.3152 193.1505
L201.2437 193.4362
" />
<path d="M201.2437 193.4362
L201.1723 193.5790
" />
<path d="M201.1723 193.5790
L201.0295 193.7219
" />
<path d="M201.0295 193.7219
L200.8152 193.7933
" />
<path d="M200.8152 193.7933
L200.4580 193.7933
" />
<path d="M202.6009 193.7933
L202.6009 193.0076
" />
<path d="M202.6009 193.0076
L202.5295 192.8648
" />
<path d="M202.5295 192.8648
L202.3866 192.7933
" />
<path d="M202.3866 192.7933
L202.1009 192.7933
" />
<path d="M202.1009 192.7933
L201.9580 192.8648
" />
<path d="M202.6009 193.7219
L202.4580 193.7933
" />
<path d="M202.4580 193.7933
L202.1009 193.7933
" />
<path d="M202.1009 193.7933
L201.9580 193.7219
" />
<path d="M201.9580 193.7219
L201.8866 193.5790
" />
<path d="M201.8866 193.5790
L201.8866 193.4362
" />
<path d="M201.8866 193.4362
L201.9580 193.2933
" />
<path d="M201.9580 193.2933
L202.1009 193.2219
" />
<path d="M202.1009 193.2219
L202.4580 193.2219
" />
<path d="M202.4580 193.2219
L202.6009 193.1505
" />
<path d="M203.1009 192.7933
L203.6723 192.7933
" />
<path d="M203.3152 192.2933
L203.3152 193.5790
" />
<path d="M203.3152 193.5790
L203.3866 193.7219
" />
<path d="M203.3866 193.7219
L203.5295 193.7933
" />
<path d="M203.5295 193.7933
L203.6723 193.7933
" />
<path d="M204.7437 193.7219
L204.6009 193.7933
" />
<path d="M204.6009 193.7933
L204.3152 193.7933
" />
<path d="M204.3152 193.7933
L204.1723 193.7219
" />
<path d="M204.1723 193.7219
L204.1009 193.5790
" />
<path d="M204.1009 193.5790
L204.1009 193.0076
" />
<path d="M204.1009 193.0076
L204.1723 192.8648
" />
<path d="M204.1723 192.8648
L204.3152 192.7933
" />
<path d="M204.3152 192.7933
L204.6009 192.7933
" />
<path d="M204.6009 192.7933
L204.7437 192.8648
" />
<path d="M204.7437 192.8648
L204.8152 193.0076
" />
<path d="M204.8152 193.0076
L204.8152 193.1505
" />
<path d="M204.8152 193.1505
L204.1009 193.2933
" />
<path d="M205.4580 193.6505
L205.5295 193.7219
" />
<path d="M205.5295 193.7219
L205.4580 193.7933
" />
<path d="M205.4580 193.7933
L205.3866 193.7219
" />
<path d="M205.3866 193.7219
L205.4580 193.6505
" />
<path d="M205.4580 193.6505
L205.4580 193.7933
" />
<path d="M205.4580 192.8648
L205.5295 192.9362
" />
<path d="M205.5295 192.9362
L205.4580 193.0076
" />
<path d="M205.4580 193.0076
L205.3866 192.9362
" />
<path d="M205.3866 192.9362
L205.4580 192.8648
" />
<path d="M205.4580 192.8648
L205.4580 193.0076
" />
</g></g>
<g style="fill:none; 
stroke:#000000; stroke-width:0.1500; stroke-opacity:1; 
stroke-linecap:round; stroke-linejoin:round;">
<path d="M177.0022 194.5072
L285.0022 194.5072
" />
</g>
<g style="fill:none; 
stroke:#000000; stroke-width:0.1500; stroke-opacity:1; 
stroke-linecap:round; stroke-linejoin:round;">
<text x="178.0022" y="196.6572"
textLength="20.8643" font-size="2.0000" lengthAdjust="spacingAndGlyphs"
text-anchor="start" opacity="0">KiCad E.D.A. 8.0.1</text>
<g class="stroked-text"><desc>KiCad E.D.A. 8.0.1</desc>
<path d="M178.4580 196.5933
L178.4580 195.0933
" />
<path d="M179.3152 196.5933
L178.6723 195.7362
" />
<path d="M179.3152 195.0933
L178.4580 195.9505
" />
<path d="M179.9580 196.5933
L179.9580 195.5933
" />
<path d="M179.9580 195.0933
L179.8866 195.1648
" />
<path d="M179.8866 195.1648
L179.9580 195.2362
" />
<path d="M179.9580 195.2362
L180.0295 195.1648
" />
<path d="M180.0295 195.1648
L179.9580 195.0933
" />
<path d="M179.9580 195.0933
L179.9580 195.2362
" />
<path d="M181.5295 196.4505
L181.4580 196.5219
" />
<path d="M181.4580 196.5219
L181.2437 196.5933
" />
<path d="M181.2437 196.5933
L181.1009 196.5933
" />
<path d="M181.1009 196.5933
L180.8866 196.5219
" />
<path d="M180.8866 196.5219
L180.7437 196.3790
" />
<path d="M180.7437 196.3790
L180.6723 196.2362
" />
<path d="M180.6723 196.2362
L180.6009 195.9505
" />
<path d="M180.6009 195.9505
L180.6009 195.7362
" />
<path d="M180.6009 195.7362
L180.6723 195.4505
" />
<path d="M180.6723 195.4505
L180.7437 195.3076
" />
<path d="M180.7437 195.3076
L180.8866 195.1648
" />
<path d="M180.8866 195.1648
L181.1009 195.0933
" />
<path d="M181.1009 195.0933
L181.2437 195.0933
" />
<path d="M181.2437 195.0933
L181.4580 195.1648
" />
<path d="M181.4580 195.1648
L181.5295 195.2362
" />
<path d="M182.8152 196.5933
L182.8152 195.8076
" />
<path d="M182.8152 195.8076
L182.7437 195.6648
" />
<path d="M182.7437 195.6648
L182.6009 195.5933
" />
<path d="M182.6009 195.5933
L182.3152 195.5933
" />
<path d="M182.3152 195.5933
L182.1723 195.6648
" />
<path d="M182.8152 196.5219
L182.6723 196.5933
" />
<path d="M182.6723 196.5933
L182.3152 196.5933
" />
<path d="M182.3152 196.5933
L182.1723 196.5219
" />
<path d="M182.1723 196.5219
L182.1009 196.3790
" />
<path d="M182.1009 196.3790
L182.1009 196.2362
" />
<path d="M182.1009 196.2362
L182.1723 196.0933
" />
<path d="M182.1723 196.0933
L182.3152 196.0219
" />
<path d="M182.3152 196.0219
L182.6723 196.0219
" />
<path d="M182.6723 196.0219
L182.8152 195.9505
" />
<path d="M184.1723 196.5933
L184.1723 195.0933
" />
<path d="M184.1723 196.5219
L184.0295 196.5933
" />
<path d="M184.0295 196.5933
L183.7437 196.5933
" />
<path d="M183.7437 196.5933
L183.6009 196.5219
" />
<path d="M183.6009 196.5219
L183.5295 196.4505
" />
<path d="M183.5295 196.4505
L183.4580 196.3076
" />
<path d="M183.4580 196.3076
L183.4580 195.8790
" />
<path d="M183.4580 195.8790
L183.5295 195.7362
" />
<path d="M183.5295 195.7362
L183.6009 195.6648
" />
<path d="M183.6009 195.6648
L183.7437 195.5933
" />
<path d="M183.7437 195.5933
L184.0295 195.5933
" />
<path d="M184.0295 195.5933
L184.1723 195.6648
" />
<path d="M186.0295 195.8076
L186.5295 195.8076
" />
<path d="M186.7437 196.5933
L186.0295 196.5933
" />
<path d="M186.0295 196.5933
L186.0295 195.0933
" />
<path d="M186.0295 195.0933
L186.7437 195.0933
" />
<path d="M187.3866 196.4505
L187.4580 196.5219
" />
<path d="M187.4580 196.5219
L187.3866 196.5933
" />
<path d="M187.3866 196.5933
L187.3152 196.5219
" />
<path d="M187.3152 196.5219
L187.3866 196.4505
" />
<path d="M187.3866 196.4505
L187.3866 196.5933
" />
<path d="M188.1009 196.5933
L188.1009 195.0933
" />
<path d="M188.1009 195.0933
L188.4580 195.0933
" />
<path d="M188.4580 195.0933
L188.6723 195.1648
" />
<path d="M188.6723 195.1648
L188.8152 195.3076
" />
<path d="M188.8152 195.3076
L188.8866 195.4505
" />
<path d="M188.8866 195.4505
L188.9580 195.7362
" />
<path d="M188.9580 195.7362
L188.9580 195.9505
" />
<path d="M188.9580 195.9505
L188.8866 196.2362
" />
<path d="M188.8866 196.2362
L188.8152 196.3790
" />
<path d="M188.8152 196.3790
L188.6723 196.5219
" />
<path d="M188.6723 196.5219
L188.4580 196.5933
" />
<path d="M188.4580 196.5933
L188.1009 196.5933
" />
<path d="M189.6009 196.4505
L189.6723 196.5219
" />
<path d="M189.6723 196.5219
L189.6009 196.5933
" />
<path d="M189.6009 196.5933
L189.5295 196.5219
" />
<path d="M189.5295 196.5219
L189.6009 196.4505
" />
<path d="M189.6009 196.4505
L189.6009 196.5933
" />
<path d="M190.2437 196.1648
L190.9580 196.1648
" />
<path d="M190.1009 196.5933
L190.6009 195.0933
" />
<path d="M190.6009 195.0933
L191.1009 196.5933
" />
<path d="M191.6009 196.4505
L191.6723 196.5219
" />
<path d="M191.6723 196.5219
L191.6009 196.5933
" />
<path d="M191.6009 196.5933
L191.5295 196.5219
" />
<path d="M191.5295 196.5219
L191.6009 196.4505
" />
<path d="M191.6009 196.4505
L191.6009 196.5933
" />
<path d="M193.6723 195.7362
L193.5295 195.6648
" />
<path d="M193.5295 195.6648
L193.4580 195.5933
" />
<path d="M193.4580 195.5933
L193.3866 195.4505
" />
<path d="M193.3866 195.4505
L193.3866 195.3790
" />
<path d="M193.3866 195.3790
L193.4580 195.2362
" />
<path d="M193.4580 195.2362
L193.5295 195.1648
" />
<path d="M193.5295 195.1648
L193.6723 195.0933
" />
<path d="M193.6723 195.0933
L193.9580 195.0933
" />
<path d="M193.9580 195.0933
L194.1009 195.1648
" />
<path d="M194.1009 195.1648
L194.1723 195.2362
" />
<path d="M194.1723 195.2362
L194.2437 195.3790
" />
<path d="M194.2437 195.3790
L194.2437 195.4505
" />
<path d="M194.2437 195.4505
L194.1723 195.5933
" />
<path d="M194.1723 195.5933
L194.1009 195.6648
" />
<path d="M194.1009 195.6648
L193.9580 195.7362
" />
<path d="M193.9580 195.7362
L193.6723 195.7362
" />
<path d="M193.6723 195.7362
L193.5295 195.8076
" />
<path d="M193.5295 195.8076
L193.4580 195.8790
" />
<path d="M193.4580 195.8790
L193.3866 196.0219
" />
<path d="M193.3866 196.0219
L193.3866 196.3076
" />
<path d="M193.3866 196.3076
L193.4580 196.4505
" />
<path d="M193.4580 196.4505
L193.5295 196.5219
" />
<path d="M193.5295 196.5219
L193.6723 196.5933
" />
<path d="M193.6723 196.5933
L193.9580 196.5933
" />
<path d="M193.9580 196.5933
L194.1009 196.5219
" />
<path d="M194.1009 196.5219
L194.1723 196.4505
" />
<path d="M194.1723 196.4505
L194.2437 196.3076
" />
<path d="M194.2437 196.3076
L194.2437 196.0219
" />
<path d="M194.2437 196.0219
L194.1723 195.8790
" />
<path d="M194.1723 195.8790
L194.1009 195.8076
" />
<path d="M194.1009 195.8076
L193.9580 195.7362
" />
<path d="M194.8866 196.4505
L194.9580 196.5219
" />
<path d="M194.9580 196.5219
L194.8866 196.5933
" />
<path d="M194.8866 196.5933
L194.8152 196.5219
" />
<path d="M194.8152 196.5219
L194.8866 196.4505
" />
<path d="M194.8866 196.4505
L194.8866 196.5933
" />
<path d="M195.8866 195.0933
L196.0295 195.0933
" />
<path d="M196.0295 195.0933
L196.1723 195.1648
" />
<path d="M196.1723 195.1648
L196.2437 195.2362
" />
<path d="M196.2437 195.2362
L196.3152 195.3790
" />
<path d="M196.3152 195.3790
L196.3866 195.6648
" />
<path d="M196.3866 195.6648
L196.3866 196.0219
" />
<path d="M196.3866 196.0219
L196.3152 196.3076
" />
<path d="M196.3152 196.3076
L196.2437 196.4505
" />
<path d="M196.2437 196.4505
L196.1723 196.5219
" />
<path d="M196.1723 196.5219
L196.0295 196.5933
" />
<path d="M196.0295 196.5933
L195.8866 196.5933
" />
<path d="M195.8866 196.5933
L195.7437 196.5219
" />
<path d="M195.7437 196.5219
L195.6723 196.4505
" />
<path d="M195.6723 196.4505
L195.6009 196.3076
" />
<path d="M195.6009 196.3076
L195.5295 196.0219
" />
<path d="M195.5295 196.0219
L195.5295 195.6648
" />
<path d="M195.5295 195.6648
L195.6009 195.3790
" />
<path d="M195.6009 195.3790
L195.6723 195.2362
" />
<path d="M195.6723 195.2362
L195.7437 195.1648
" />
<path d="M195.7437 195.1648
L195.8866 195.0933
" />
<path d="M197.0295 196.4505
L197.1009 196.5219
" />
<path d="M197.1009 196.5219
L197.0295 196.5933
" />
<path d="M197.0295 196.5933
L196.9580 196.5219
" />
<path d="M196.9580 196.5219
L197.0295 196.4505
" />
<path d="M197.0295 196.4505
L197.0295 196.5933
" />
<path d="M198.5295 196.5933
L197.6723 196.5933
" />
<path d="M198.1009 196.5933
L198.1009 195.0933
" />
<path d="M198.1009 195.0933
L197.9580 195.3076
" />
<path d="M197.9580 195.3076
L197.8152 195.4505
" />
<path d="M197.8152 195.4505
L197.6723 195.5219
" />
</g></g>
<g style="fill:none; 
stroke:#000000; stroke-width:0.1500; stroke-opacity:1; 
stroke-linecap:round; stroke-linejoin:round;">
<path d="M177.0022 191.5072
L285.0022 191.5072
" />
</g>
<g style="fill:none; 
stroke:#000000; stroke-width:0.3000; stroke-opacity:1; 
stroke-linecap:round; stroke-linejoin:round;">
<text x="263.0022" y="193.8572"
textLength="6.3857" font-size="2.0000" lengthAdjust="spacingAndGlyphs"
text-anchor="start" opacity="0">Rev: </text>
<g class="stroked-text"><desc>Rev: </desc>
<path d="M264.4139 193.7855
L263.9139 193.0712
" />
<path d="M263.5567 193.7855
L263.5567 192.2855
" />
<path d="M263.5567 192.2855
L264.1281 192.2855
" />
<path d="M264.1281 192.2855
L264.2710 192.3570
" />
<path d="M264.2710 192.3570
L264.3424 192.4284
" />
<path d="M264.3424 192.4284
L264.4139 192.5712
" />
<path d="M264.4139 192.5712
L264.4139 192.7855
" />
<path d="M264.4139 192.7855
L264.3424 192.9284
" />
<path d="M264.3424 192.9284
L264.2710 192.9998
" />
<path d="M264.2710 192.9998
L264.1281 193.0712
" />
<path d="M264.1281 193.0712
L263.5567 193.0712
" />
<path d="M265.6281 193.7141
L265.4853 193.7855
" />
<path d="M265.4853 193.7855
L265.1996 193.7855
" />
<path d="M265.1996 193.7855
L265.0567 193.7141
" />
<path d="M265.0567 193.7141
L264.9853 193.5712
" />
<path d="M264.9853 193.5712
L264.9853 192.9998
" />
<path d="M264.9853 192.9998
L265.0567 192.8570
" />
<path d="M265.0567 192.8570
L265.1996 192.7855
" />
<path d="M265.1996 192.7855
L265.4853 192.7855
" />
<path d="M265.4853 192.7855
L265.6281 192.8570
" />
<path d="M265.6281 192.8570
L265.6996 192.9998
" />
<path d="M265.6996 192.9998
L265.6996 193.1427
" />
<path d="M265.6996 193.1427
L264.9853 193.2855
" />
<path d="M266.1996 192.7855
L266.5567 193.7855
" />
<path d="M266.5567 193.7855
L266.9139 192.7855
" />
<path d="M267.4853 193.6427
L267.5567 193.7141
" />
<path d="M267.5567 193.7141
L267.4853 193.7855
" />
<path d="M267.4853 193.7855
L267.4139 193.7141
" />
<path d="M267.4139 193.7141
L267.4853 193.6427
" />
<path d="M267.4853 193.6427
L267.4853 193.7855
" />
<path d="M267.4853 192.8570
L267.5567 192.9284
" />
<path d="M267.5567 192.9284
L267.4853 192.9998
" />
<path d="M267.4853 192.9998
L267.4139 192.9284
" />
<path d="M267.4139 192.9284
L267.4853 192.8570
" />
<path d="M267.4853 192.8570
L267.4853 192.9998
" />
</g></g>
<g style="fill:none; 
stroke:#000000; stroke-width:0.1500; stroke-opacity:1; 
stroke-linecap:round; stroke-linejoin:round;">
<text x="178.0022" y="193.8572"
textLength="9.3643" font-size="2.0000" lengthAdjust="spacingAndGlyphs"
text-anchor="start" opacity="0">Size: A4</text>
<g class="stroked-text"><desc>Size: A4</desc>
<path d="M178.3866 193.7219
L178.6009 193.7933
" />
<path d="M178.6009 193.7933
L178.9580 193.7933
" />
<path d="M178.9580 193.7933
L179.1009 193.7219
" />
<path d="M179.1009 193.7219
L179.1723 193.6505
" />
<path d="M179.1723 193.6505
L179.2437 193.5076
" />
<path d="M179.2437 193.5076
L179.2437 193.3648
" />
<path d="M179.2437 193.3648
L179.1723 193.2219
" />
<path d="M179.1723 193.2219
L179.1009 193.1505
" />
<path d="M179.1009 193.1505
L178.9580 193.0790
" />
<path d="M178.9580 193.0790
L178.6723 193.0076
" />
<path d="M178.6723 193.0076
L178.5295 192.9362
" />
<path d="M178.5295 192.9362
L178.4580 192.8648
" />
<path d="M178.4580 192.8648
L178.3866 192.7219
" />
<path d="M178.3866 192.7219
L178.3866 192.5790
" />
<path d="M178.3866 192.5790
L178.4580 192.4362
" />
<path d="M178.4580 192.4362
L178.5295 192.3648
" />
<path d="M178.5295 192.3648
L178.6723 192.2933
" />
<path d="M178.6723 192.2933
L179.0295 192.2933
" />
<path d="M179.0295 192.2933
L179.2437 192.3648
" />
<path d="M179.8866 193.7933
L179.8866 192.7933
" />
<path d="M179.8866 192.2933
L179.8152 192.3648
" />
<path d="M179.8152 192.3648
L179.8866 192.4362
" />
<path d="M179.8866 192.4362
L179.9580 192.3648
" />
<path d="M179.9580 192.3648
L179.8866 192.2933
" />
<path d="M179.8866 192.2933
L179.8866 192.4362
" />
<path d="M180.4580 192.7933
L181.2437 192.7933
" />
<path d="M181.2437 192.7933
L180.4580 193.7933
" />
<path d="M180.4580 193.7933
L181.2437 193.7933
" />
<path d="M182.3866 193.7219
L182.2437 193.7933
" />
<path d="M182.2437 193.7933
L181.9580 193.7933
" />
<path d="M181.9580 193.7933
L181.8152 193.7219
" />
<path d="M181.8152 193.7219
L181.7437 193.5790
" />
<path d="M181.7437 193.5790
L181.7437 193.0076
" />
<path d="M181.7437 193.0076
L181.8152 192.8648
" />
<path d="M181.8152 192.8648
L181.9580 192.7933
" />
<path d="M181.9580 192.7933
L182.2437 192.7933
" />
<path d="M182.2437 192.7933
L182.3866 192.8648
" />
<path d="M182.3866 192.8648
L182.4580 193.0076
" />
<path d="M182.4580 193.0076
L182.4580 193.1505
" />
<path d="M182.4580 193.1505
L181.7437 193.2933
" />
<path d="M183.1009 193.6505
L183.1723 193.7219
" />
<path d="M183.1723 193.7219
L183.1009 193.7933
" />
<path d="M183.1009 193.7933
L183.0295 193.7219
" />
<path d="M183.0295 193.7219
L183.1009 193.6505
" />
<path d="M183.1009 193.6505
L183.1009 193.7933
" />
<path d="M183.1009 192.8648
L183.1723 192.9362
" />
<path d="M183.1723 192.9362
L183.1009 193.0076
" />
<path d="M183.1009 193.0076
L183.0295 192.9362
" />
<path d="M183.0295 192.9362
L183.1009 192.8648
" />
<path d="M183.1009 192.8648
L183.1009 193.0076
" />
<path d="M184.8866 193.3648
L185.6009 193.3648
" />
<path d="M184.7437 193.7933
L185.2437 192.2933
" />
<path d="M185.2437 192.2933
L185.7437 193.7933
" />
<path d="M186.8866 192.7933
L186.8866 193.7933
" />
<path d="M186.5295 192.2219
L186.1723 193.2933
" />
<path d="M186.1723 193.2933
L187.1009 193.2933
" />
</g></g>
<g style="fill:none; 
stroke:#000000; stroke-width:0.1500; stroke-opacity:1; 
stroke-linecap:round; stroke-linejoin:round;">
<text x="263.0022" y="196.6572"
textLength="8.5071" font-size="2.0000" lengthAdjust="spacingAndGlyphs"
text-anchor="start" opacity="0">Id: 1/1</text>
<g class="stroked-text"><desc>Id: 1/1</desc>
<path d="M263.4580 196.5933
L263.4580 195.0933
" />
<path d="M264.8152 196.5933
L264.8152 195.0933
" />
<path d="M264.8152 196.5219
L264.6723 196.5933
" />
<path d="M264.6723 196.5933
L264.3866 196.5933
" />
<path d="M264.3866 196.5933
L264.2437 196.5219
" />
<path d="M264.2437 196.5219
L264.1723 196.4505
" />
<path d="M264.1723 196.4505
L264.1009 196.3076
" />
<path d="M264.1009 196.3076
L264.1009 195.8790
" />
<path d="M264.1009 195.8790
L264.1723 195.7362
" />
<path d="M264.1723 195.7362
L264.2437 195.6648
" />
<path d="M264.2437 195.6648
L264.3866 195.5933
" />
<path d="M264.3866 195.5933
L264.6723 195.5933
" />
<path d="M264.6723 195.5933
L264.8152 195.6648
" />
<path d="M265.5295 196.4505
L265.6009 196.5219
" />
<path d="M265.6009 196.5219
L265.5295 196.5933
" />
<path d="M265.5295 196.5933
L265.4580 196.5219
" />
<path d="M265.4580 196.5219
L265.5295 196.4505
" />
<path d="M265.5295 196.4505
L265.5295 196.5933
" />
<path d="M265.5295 195.6648
L265.6009 195.7362
" />
<path d="M265.6009 195.7362
L265.5295 195.8076
" />
<path d="M265.5295 195.8076
L265.4580 195.7362
" />
<path d="M265.4580 195.7362
L265.5295 195.6648
" />
<path d="M265.5295 195.6648
L265.5295 195.8076
" />
<path d="M268.1723 196.5933
L267.3152 196.5933
" />
<path d="M267.7437 196.5933
L267.7437 195.0933
" />
<path d="M267.7437 195.0933
L267.6009 195.3076
" />
<path d="M267.6009 195.3076
L267.4580 195.4505
" />
<path d="M267.4580 195.4505
L267.3152 195.5219
" />
<path d="M269.8866 195.0219
L268.6009 196.9505
" />
<path d="M271.1723 196.5933
L270.3152 196.5933
" />
<path d="M270.7437 196.5933
L270.7437 195.0933
" />
<path d="M270.7437 195.0933
L270.6009 195.3076
" />
<path d="M270.6009 195.3076
L270.4580 195.4505
" />
<path d="M270.4580 195.4505
L270.3152 195.5219
" />
</g></g>
<g style="fill:none; 
stroke:#000000; stroke-width:0.1500; stroke-opacity:1; 
stroke-linecap:round; stroke-linejoin:round;">
<path d="M177.0022 187.5072
L285.0022 187.5072
" />
</g>
<g style="fill:none; 
stroke:#000000; stroke-width:0.4000; stroke-opacity:1; 
stroke-linecap:round; stroke-linejoin:round;">
<text x="178.0022" y="190.3072"
textLength="9.6571" font-size="2.6667" lengthAdjust="spacingAndGlyphs"
text-anchor="start" opacity="0">Title: </text>
<g class="stroked-text"><desc>Title: </desc>
<path d="M178.6939 188.2116
L179.8368 188.2116
" />
<path d="M179.0154 190.2116
L179.2654 188.2116
" />
<path d="M180.2535 190.2116
L180.4201 188.8783
" />
<path d="M180.5035 188.2116
L180.3963 188.3069
" />
<path d="M180.3963 188.3069
L180.4796 188.4021
" />
<path d="M180.4796 188.4021
L180.5868 188.3069
" />
<path d="M180.5868 188.3069
L180.5035 188.2116
" />
<path d="M180.5035 188.2116
L180.4796 188.4021
" />
<path d="M181.0868 188.8783
L181.8487 188.8783
" />
<path d="M181.4558 188.2116
L181.2415 189.9259
" />
<path d="M181.2415 189.9259
L181.3130 190.1164
" />
<path d="M181.3130 190.1164
L181.4915 190.2116
" />
<path d="M181.4915 190.2116
L181.6820 190.2116
" />
<path d="M182.6344 190.2116
L182.4558 190.1164
" />
<path d="M182.4558 190.1164
L182.3844 189.9259
" />
<path d="M182.3844 189.9259
L182.5987 188.2116
" />
<path d="M184.1701 190.1164
L183.9677 190.2116
" />
<path d="M183.9677 190.2116
L183.5868 190.2116
" />
<path d="M183.5868 190.2116
L183.4082 190.1164
" />
<path d="M183.4082 190.1164
L183.3368 189.9259
" />
<path d="M183.3368 189.9259
L183.4320 189.1640
" />
<path d="M183.4320 189.1640
L183.5511 188.9735
" />
<path d="M183.5511 188.9735
L183.7535 188.8783
" />
<path d="M183.7535 188.8783
L184.1344 188.8783
" />
<path d="M184.1344 188.8783
L184.3130 188.9735
" />
<path d="M184.3130 188.9735
L184.3844 189.1640
" />
<path d="M184.3844 189.1640
L184.3606 189.3545
" />
<path d="M184.3606 189.3545
L183.3844 189.5450
" />
<path d="M185.1344 190.0212
L185.2177 190.1164
" />
<path d="M185.2177 190.1164
L185.1106 190.2116
" />
<path d="M185.1106 190.2116
L185.0273 190.1164
" />
<path d="M185.0273 190.1164
L185.1344 190.0212
" />
<path d="M185.1344 190.0212
L185.1106 190.2116
" />
<path d="M185.2654 188.9735
L185.3487 189.0688
" />
<path d="M185.3487 189.0688
L185.2415 189.1640
" />
<path d="M185.2415 189.1640
L185.1582 189.0688
" />
<path d="M185.1582 189.0688
L185.2654 188.9735
" />
<path d="M185.2654 188.9735
L185.2415 189.1640
" />
</g></g>
<g style="fill:none; 
stroke:#000000; stroke-width:0.1500; stroke-opacity:1; 
stroke-linecap:round; stroke-linejoin:round;">
<text x="178.0022" y="186.4572"
textLength="34.7929" font-size="2.0000" lengthAdjust="spacingAndGlyphs"
text-anchor="start" opacity="0">File: EA075_Optisort.kicad_pcb</text>
<g class="stroked-text"><desc>File: EA075_Optisort.kicad_pcb</desc>
<path d="M178.9580 185.6076
L178.4580 185.6076
" />
<path d="M178.4580 186.3933
L178.4580 184.8933
" />
<path d="M178.4580 184.8933
L179.1723 184.8933
" />
<path d="M179.7437 186.3933
L179.7437 185.3933
" />
<path d="M179.7437 184.8933
L179.6723 184.9648
" />
<path d="M179.6723 184.9648
L179.7437 185.0362
" />
<path d="M179.7437 185.0362
L179.8152 184.9648
" />
<path d="M179.8152 184.9648
L179.7437 184.8933
" />
<path d="M179.7437 184.8933
L179.7437 185.0362
" />
<path d="M180.6723 186.3933
L180.5295 186.3219
" />
<path d="M180.5295 186.3219
L180.4580 186.1790
" />
<path d="M180.4580 186.1790
L180.4580 184.8933
" />
<path d="M181.8152 186.3219
L181.6723 186.3933
" />
<path d="M181.6723 186.3933
L181.3866 186.3933
" />
<path d="M181.3866 186.3933
L181.2437 186.3219
" />
<path d="M181.2437 186.3219
L181.1723 186.1790
" />
<path d="M181.1723 186.1790
L181.1723 185.6076
" />
<path d="M181.1723 185.6076
L181.2437 185.4648
" />
<path d="M181.2437 185.4648
L181.3866 185.3933
" />
<path d="M181.3866 185.3933
L181.6723 185.3933
" />
<path d="M181.6723 185.3933
L181.8152 185.4648
" />
<path d="M181.8152 185.4648
L181.8866 185.6076
" />
<path d="M181.8866 185.6076
L181.8866 185.7505
" />
<path d="M181.8866 185.7505
L181.1723 185.8933
" />
<path d="M182.5295 186.2505
L182.6009 186.3219
" />
<path d="M182.6009 186.3219
L182.5295 186.3933
" />
<path d="M182.5295 186.3933
L182.4580 186.3219
" />
<path d="M182.4580 186.3219
L182.5295 186.2505
" />
<path d="M182.5295 186.2505
L182.5295 186.3933
" />
<path d="M182.5295 185.4648
L182.6009 185.5362
" />
<path d="M182.6009 185.5362
L182.5295 185.6076
" />
<path d="M182.5295 185.6076
L182.4580 185.5362
" />
<path d="M182.4580 185.5362
L182.5295 185.4648
" />
<path d="M182.5295 185.4648
L182.5295 185.6076
" />
<path d="M184.3866 185.6076
L184.8866 185.6076
" />
<path d="M185.1009 186.3933
L184.3866 186.3933
" />
<path d="M184.3866 186.3933
L184.3866 184.8933
" />
<path d="M184.3866 184.8933
L185.1009 184.8933
" />
<path d="M185.6723 185.9648
L186.3866 185.9648
" />
<path d="M185.5295 186.3933
L186.0295 184.8933
" />
<path d="M186.0295 184.8933
L186.5295 186.3933
" />
<path d="M187.3152 184.8933
L187.4580 184.8933
" />
<path d="M187.4580 184.8933
L187.6009 184.9648
" />
<path d="M187.6009 184.9648
L187.6723 185.0362
" />
<path d="M187.6723 185.0362
L187.7437 185.1790
" />
<path d="M187.7437 185.1790
L187.8152 185.4648
" />
<path d="M187.8152 185.4648
L187.8152 185.8219
" />
<path d="M187.8152 185.8219
L187.7437 186.1076
" />
<path d="M187.7437 186.1076
L187.6723 186.2505
" />
<path d="M187.6723 186.2505
L187.6009 186.3219
" />
<path d="M187.6009 186.3219
L187.4580 186.3933
" />
<path d="M187.4580 186.3933
L187.3152 186.3933
" />
<path d="M187.3152 186.3933
L187.1723 186.3219
" />
<path d="M187.1723 186.3219
L187.1009 186.2505
" />
<path d="M187.1009 186.2505
L187.0295 186.1076
" />
<path d="M187.0295 186.1076
L186.9580 185.8219
" />
<path d="M186.9580 185.8219
L186.9580 185.4648
" />
<path d="M186.9580 185.4648
L187.0295 185.1790
" />
<path d="M187.0295 185.1790
L187.1009 185.0362
" />
<path d="M187.1009 185.0362
L187.1723 184.9648
" />
<path d="M187.1723 184.9648
L187.3152 184.8933
" />
<path d="M188.3152 184.8933
L189.3152 184.8933
" />
<path d="M189.3152 184.8933
L188.6723 186.3933
" />
<path d="M190.6009 184.8933
L189.8866 184.8933
" />
<path d="M189.8866 184.8933
L189.8152 185.6076
" />
<path d="M189.8152 185.6076
L189.8866 185.5362
" />
<path d="M189.8866 185.5362
L190.0295 185.4648
" />
<path d="M190.0295 185.4648
L190.3866 185.4648
" />
<path d="M190.3866 185.4648
L190.5295 185.5362
" />
<path d="M190.5295 185.5362
L190.6009 185.6076
" />
<path d="M190.6009 185.6076
L190.6723 185.7505
" />
<path d="M190.6723 185.7505
L190.6723 186.1076
" />
<path d="M190.6723 186.1076
L190.6009 186.2505
" />
<path d="M190.6009 186.2505
L190.5295 186.3219
" />
<path d="M190.5295 186.3219
L190.3866 186.3933
" />
<path d="M190.3866 186.3933
L190.0295 186.3933
" />
<path d="M190.0295 186.3933
L189.8866 186.3219
" />
<path d="M189.8866 186.3219
L189.8152 186.2505
" />
<path d="M190.9580 186.5362
L192.1009 186.5362
" />
<path d="M192.7437 184.8933
L193.0295 184.8933
" />
<path d="M193.0295 184.8933
L193.1723 184.9648
" />
<path d="M193.1723 184.9648
L193.3152 185.1076
" />
<path d="M193.3152 185.1076
L193.3866 185.3933
" />
<path d="M193.3866 185.3933
L193.3866 185.8933
" />
<path d="M193.3866 185.8933
L193.3152 186.1790
" />
<path d="M193.3152 186.1790
L193.1723 186.3219
" />
<path d="M193.1723 186.3219
L193.0295 186.3933
" />
<path d="M193.0295 186.3933
L192.7437 186.3933
" />
<path d="M192.7437 186.3933
L192.6009 186.3219
" />
<path d="M192.6009 186.3219
L192.4580 186.1790
" />
<path d="M192.4580 186.1790
L192.3866 185.8933
" />
<path d="M192.3866 185.8933
L192.3866 185.3933
" />
<path d="M192.3866 185.3933
L192.4580 185.1076
" />
<path d="M192.4580 185.1076
L192.6009 184.9648
" />
<path d="M192.6009 184.9648
L192.7437 184.8933
" />
<path d="M194.0295 185.3933
L194.0295 186.8933
" />
<path d="M194.0295 185.4648
L194.1723 185.3933
" />
<path d="M194.1723 185.3933
L194.4580 185.3933
" />
<path d="M194.4580 185.3933
L194.6009 185.4648
" />
<path d="M194.6009 185.4648
L194.6723 185.5362
" />
<path d="M194.6723 185.5362
L194.7437 185.6790
" />
<path d="M194.7437 185.6790
L194.7437 186.1076
" />
<path d="M194.7437 186.1076
L194.6723 186.2505
" />
<path d="M194.6723 186.2505
L194.6009 186.3219
" />
<path d="M194.6009 186.3219
L194.4580 186.3933
" />
<path d="M194.4580 186.3933
L194.1723 186.3933
" />
<path d="M194.1723 186.3933
L194.0295 186.3219
" />
<path d="M195.1723 185.3933
L195.7437 185.3933
" />
<path d="M195.3866 184.8933
L195.3866 186.1790
" />
<path d="M195.3866 186.1790
L195.4580 186.3219
" />
<path d="M195.4580 186.3219
L195.6009 186.3933
" />
<path d="M195.6009 186.3933
L195.7437 186.3933
" />
<path d="M196.2437 186.3933
L196.2437 185.3933
" />
<path d="M196.2437 184.8933
L196.1723 184.9648
" />
<path d="M196.1723 184.9648
L196.2437 185.0362
" />
<path d="M196.2437 185.0362
L196.3152 184.9648
" />
<path d="M196.3152 184.9648
L196.2437 184.8933
" />
<path d="M196.2437 184.8933
L196.2437 185.0362
" />
<path d="M196.8866 186.3219
L197.0295 186.3933
" />
<path d="M197.0295 186.3933
L197.3152 186.3933
" />
<path d="M197.3152 186.3933
L197.4580 186.3219
" />
<path d="M197.4580 186.3219
L197.5295 186.1790
" />
<path d="M197.5295 186.1790
L197.5295 186.1076
" />
<path d="M197.5295 186.1076
L197.4580 185.9648
" />
<path d="M197.4580 185.9648
L197.3152 185.8933
" />
<path d="M197.3152 185.8933
L197.1009 185.8933
" />
<path d="M197.1009 185.8933
L196.9580 185.8219
" />
<path d="M196.9580 185.8219
L196.8866 185.6790
" />
<path d="M196.8866 185.6790
L196.8866 185.6076
" />
<path d="M196.8866 185.6076
L196.9580 185.4648
" />
<path d="M196.9580 185.4648
L197.1009 185.3933
" />
<path d="M197.1009 185.3933
L197.3152 185.3933
" />
<path d="M197.3152 185.3933
L197.4580 185.4648
" />
<path d="M198.3866 186.3933
L198.2437 186.3219
" />
<path d="M198.2437 186.3219
L198.1723 186.2505
" />
<path d="M198.1723 186.2505
L198.1009 186.1076
" />
<path d="M198.1009 186.1076
L198.1009 185.6790
" />
<path d="M198.1009 185.6790
L198.1723 185.5362
" />
<path d="M198.1723 185.5362
L198.2437 185.4648
" />
<path d="M198.2437 185.4648
L198.3866 185.3933
" />
<path d="M198.3866 185.3933
L198.6009 185.3933
" />
<path d="M198.6009 185.3933
L198.7437 185.4648
" />
<path d="M198.7437 185.4648
L198.8152 185.5362
" />
<path d="M198.8152 185.5362
L198.8866 185.6790
" />
<path d="M198.8866 185.6790
L198.8866 186.1076
" />
<path d="M198.8866 186.1076
L198.8152 186.2505
" />
<path d="M198.8152 186.2505
L198.7437 186.3219
" />
<path d="M198.7437 186.3219
L198.6009 186.3933
" />
<path d="M198.6009 186.3933
L198.3866 186.3933
" />
<path d="M199.5295 186.3933
L199.5295 185.3933
" />
<path d="M199.5295 185.6790
L199.6009 185.5362
" />
<path d="M199.6009 185.5362
L199.6723 185.4648
" />
<path d="M199.6723 185.4648
L199.8152 185.3933
" />
<path d="M199.8152 185.3933
L199.9580 185.3933
" />
<path d="M200.2437 185.3933
L200.8152 185.3933
" />
<path d="M200.4580 184.8933
L200.4580 186.1790
" />
<path d="M200.4580 186.1790
L200.5295 186.3219
" />
<path d="M200.5295 186.3219
L200.6723 186.3933
" />
<path d="M200.6723 186.3933
L200.8152 186.3933
" />
<path d="M201.3152 186.2505
L201.3866 186.3219
" />
<path d="M201.3866 186.3219
L201.3152 186.3933
" />
<path d="M201.3152 186.3933
L201.2437 186.3219
" />
<path d="M201.2437 186.3219
L201.3152 186.2505
" />
<path d="M201.3152 186.2505
L201.3152 186.3933
" />
<path d="M202.0295 186.3933
L202.0295 184.8933
" />
<path d="M202.1723 185.8219
L202.6009 186.3933
" />
<path d="M202.6009 185.3933
L202.0295 185.9648
" />
<path d="M203.2437 186.3933
L203.2437 185.3933
" />
<path d="M203.2437 184.8933
L203.1723 184.9648
" />
<path d="M203.1723 184.9648
L203.2437 185.0362
" />
<path d="M203.2437 185.0362
L203.3152 184.9648
" />
<path d="M203.3152 184.9648
L203.2437 184.8933
" />
<path d="M203.2437 184.8933
L203.2437 185.0362
" />
<path d="M204.6009 186.3219
L204.4580 186.3933
" />
<path d="M204.4580 186.3933
L204.1723 186.3933
" />
<path d="M204.1723 186.3933
L204.0295 186.3219
" />
<path d="M204.0295 186.3219
L203.9580 186.2505
" />
<path d="M203.9580 186.2505
L203.8866 186.1076
" />
<path d="M203.8866 186.1076
L203.8866 185.6790
" />
<path d="M203.8866 185.6790
L203.9580 185.5362
" />
<path d="M203.9580 185.5362
L204.0295 185.4648
" />
<path d="M204.0295 185.4648
L204.1723 185.3933
" />
<path d="M204.1723 185.3933
L204.4580 185.3933
" />
<path d="M204.4580 185.3933
L204.6009 185.4648
" />
<path d="M205.8866 186.3933
L205.8866 185.6076
" />
<path d="M205.8866 185.6076
L205.8152 185.4648
" />
<path d="M205.8152 185.4648
L205.6723 185.3933
" />
<path d="M205.6723 185.3933
L205.3866 185.3933
" />
<path d="M205.3866 185.3933
L205.2437 185.4648
" />
<path d="M205.8866 186.3219
L205.7437 186.3933
" />
<path d="M205.7437 186.3933
L205.3866 186.3933
" />
<path d="M205.3866 186.3933
L205.2437 186.3219
" />
<path d="M205.2437 186.3219
L205.1723 186.1790
" />
<path d="M205.1723 186.1790
L205.1723 186.0362
" />
<path d="M205.1723 186.0362
L205.2437 185.8933
" />
<path d="M205.2437 185.8933
L205.3866 185.8219
" />
<path d="M205.3866 185.8219
L205.7437 185.8219
" />
<path d="M205.7437 185.8219
L205.8866 185.7505
" />
<path d="M207.2437 186.3933
L207.2437 184.8933
" />
<path d="M207.2437 186.3219
L207.1009 186.3933
" />
<path d="M207.1009 186.3933
L206.8152 186.3933
" />
<path d="M206.8152 186.3933
L206.6723 186.3219
" />
<path d="M206.6723 186.3219
L206.6009 186.2505
" />
<path d="M206.6009 186.2505
L206.5295 186.1076
" />
<path d="M206.5295 186.1076
L206.5295 185.6790
" />
<path d="M206.5295 185.6790
L206.6009 185.5362
" />
<path d="M206.6009 185.5362
L206.6723 185.4648
" />
<path d="M206.6723 185.4648
L206.8152 185.3933
" />
<path d="M206.8152 185.3933
L207.1009 185.3933
" />
<path d="M207.1009 185.3933
L207.2437 185.4648
" />
<path d="M207.6009 186.5362
L208.7437 186.5362
" />
<path d="M209.1009 185.3933
L209.1009 186.8933
" />
<path d="M209.1009 185.4648
L209.2437 185.3933
" />
<path d="M209.2437 185.3933
L209.5295 185.3933
" />
<path d="M209.5295 185.3933
L209.6723 185.4648
" />
<path d="M209.6723 185.4648
L209.7437 185.5362
" />
<path d="M209.7437 185.5362
L209.8152 185.6790
" />
<path d="M209.8152 185.6790
L209.8152 186.1076
" />
<path d="M209.8152 186.1076
L209.7437 186.2505
" />
<path d="M209.7437 186.2505
L209.6723 186.3219
" />
<path d="M209.6723 186.3219
L209.5295 186.3933
" />
<path d="M209.5295 186.3933
L209.2437 186.3933
" />
<path d="M209.2437 186.3933
L209.1009 186.3219
" />
<path d="M211.1009 186.3219
L210.9580 186.3933
" />
<path d="M210.9580 186.3933
L210.6723 186.3933
" />
<path d="M210.6723 186.3933
L210.5295 186.3219
" />
<path d="M210.5295 186.3219
L210.4580 186.2505
" />
<path d="M210.4580 186.2505
L210.3866 186.1076
" />
<path d="M210.3866 186.1076
L210.3866 185.6790
" />
<path d="M210.3866 185.6790
L210.4580 185.5362
" />
<path d="M210.4580 185.5362
L210.5295 185.4648
" />
<path d="M210.5295 185.4648
L210.6723 185.3933
" />
<path d="M210.6723 185.3933
L210.9580 185.3933
" />
<path d="M210.9580 185.3933
L211.1009 185.4648
" />
<path d="M211.7437 186.3933
L211.7437 184.8933
" />
<path d="M211.7437 185.4648
L211.8866 185.3933
" />
<path d="M211.8866 185.3933
L212.1723 185.3933
" />
<path d="M212.1723 185.3933
L212.3152 185.4648
" />
<path d="M212.3152 185.4648
L212.3866 185.5362
" />
<path d="M212.3866 185.5362
L212.4580 185.6790
" />
<path d="M212.4580 185.6790
L212.4580 186.1076
" />
<path d="M212.4580 186.1076
L212.3866 186.2505
" />
<path d="M212.3866 186.2505
L212.3152 186.3219
" />
<path d="M212.3152 186.3219
L212.1723 186.3933
" />
<path d="M212.1723 186.3933
L211.8866 186.3933
" />
<path d="M211.8866 186.3933
L211.7437 186.3219
" />
</g></g>
<g style="fill:none; 
stroke:#000000; stroke-width:0.1500; stroke-opacity:1; 
stroke-linecap:round; stroke-linejoin:round;">
<path d="M177.0022 181.5072
L285.0022 181.5072
" />
</g>
<g style="fill:none; 
stroke:#000000; stroke-width:0.1500; stroke-opacity:1; 
stroke-linecap:round; stroke-linejoin:round;">
<text x="178.0022" y="183.7572"
textLength="8.2214" font-size="2.0000" lengthAdjust="spacingAndGlyphs"
text-anchor="start" opacity="0">Sheet: </text>
<g class="stroked-text"><desc>Sheet: </desc>
<path d="M178.3866 183.6219
L178.6009 183.6933
" />
<path d="M178.6009 183.6933
L178.9580 183.6933
" />
<path d="M178.9580 183.6933
L179.1009 183.6219
" />
<path d="M179.1009 183.6219
L179.1723 183.5505
" />
<path d="M179.1723 183.5505
L179.2437 183.4076
" />
<path d="M179.2437 183.4076
L179.2437 183.2648
" />
<path d="M179.2437 183.2648
L179.1723 183.1219
" />
<path d="M179.1723 183.1219
L179.1009 183.0505
" />
<path d="M179.1009 183.0505
L178.9580 182.9790
" />
<path d="M178.9580 182.9790
L178.6723 182.9076
" />
<path d="M178.6723 182.9076
L178.5295 182.8362
" />
<path d="M178.5295 182.8362
L178.4580 182.7648
" />
<path d="M178.4580 182.7648
L178.3866 182.6219
" />
<path d="M178.3866 182.6219
L178.3866 182.4790
" />
<path d="M178.3866 182.4790
L178.4580 182.3362
" />
<path d="M178.4580 182.3362
L178.5295 182.2648
" />
<path d="M178.5295 182.2648
L178.6723 182.1933
" />
<path d="M178.6723 182.1933
L179.0295 182.1933
" />
<path d="M179.0295 182.1933
L179.2437 182.2648
" />
<path d="M179.8866 183.6933
L179.8866 182.1933
" />
<path d="M180.5295 183.6933
L180.5295 182.9076
" />
<path d="M180.5295 182.9076
L180.4580 182.7648
" />
<path d="M180.4580 182.7648
L180.3152 182.6933
" />
<path d="M180.3152 182.6933
L180.1009 182.6933
" />
<path d="M180.1009 182.6933
L179.9580 182.7648
" />
<path d="M179.9580 182.7648
L179.8866 182.8362
" />
<path d="M181.8152 183.6219
L181.6723 183.6933
" />
<path d="M181.6723 183.6933
L181.3866 183.6933
" />
<path d="M181.3866 183.6933
L181.2437 183.6219
" />
<path d="M181.2437 183.6219
L181.1723 183.4790
" />
<path d="M181.1723 183.4790
L181.1723 182.9076
" />
<path d="M181.1723 182.9076
L181.2437 182.7648
" />
<path d="M181.2437 182.7648
L181.3866 182.6933
" />
<path d="M181.3866 182.6933
L181.6723 182.6933
" />
<path d="M181.6723 182.6933
L181.8152 182.7648
" />
<path d="M181.8152 182.7648
L181.8866 182.9076
" />
<path d="M181.8866 182.9076
L181.8866 183.0505
" />
<path d="M181.8866 183.0505
L181.1723 183.1933
" />
<path d="M183.1009 183.6219
L182.9580 183.6933
" />
<path d="M182.9580 183.6933
L182.6723 183.6933
" />
<path d="M182.6723 183.6933
L182.5295 183.6219
" />
<path d="M182.5295 183.6219
L182.4580 183.4790
" />
<path d="M182.4580 183.4790
L182.4580 182.9076
" />
<path d="M182.4580 182.9076
L182.5295 182.7648
" />
<path d="M182.5295 182.7648
L182.6723 182.6933
" />
<path d="M182.6723 182.6933
L182.9580 182.6933
" />
<path d="M182.9580 182.6933
L183.1009 182.7648
" />
<path d="M183.1009 182.7648
L183.1723 182.9076
" />
<path d="M183.1723 182.9076
L183.1723 183.0505
" />
<path d="M183.1723 183.0505
L182.4580 183.1933
" />
<path d="M183.6009 182.6933
L184.1723 182.6933
" />
<path d="M183.8152 182.1933
L183.8152 183.4790
" />
<path d="M183.8152 183.4790
L183.8866 183.6219
" />
<path d="M183.8866 183.6219
L184.0295 183.6933
" />
<path d="M184.0295 183.6933
L184.1723 183.6933
" />
<path d="M184.6723 183.5505
L184.7437 183.6219
" />
<path d="M184.7437 183.6219
L184.6723 183.6933
" />
<path d="M184.6723 183.6933
L184.6009 183.6219
" />
<path d="M184.6009 183.6219
L184.6723 183.5505
" />
<path d="M184.6723 183.5505
L184.6723 183.6933
" />
<path d="M184.6723 182.7648
L184.7437 182.8362
" />
<path d="M184.7437 182.8362
L184.6723 182.9076
" />
<path d="M184.6723 182.9076
L184.6009 182.8362
" />
<path d="M184.6009 182.8362
L184.6723 182.7648
" />
<path d="M184.6723 182.7648
L184.6723 182.9076
" />
</g></g>
<g style="fill:none; 
stroke:#000000; stroke-width:0.3000; stroke-opacity:1; 
stroke-linecap:round; stroke-linejoin:round;">
<text x="178.0022" y="180.7572"
textLength="0.9000" font-size="2.0000" lengthAdjust="spacingAndGlyphs"
text-anchor="start" opacity="0"></text>
<g class="stroked-text"><desc></desc>
</g></g>
<g style="fill:none; 
stroke:#000000; stroke-width:0.1500; stroke-opacity:1; 
stroke-linecap:round; stroke-linejoin:round;">
<text x="178.0022" y="177.7572"
textLength="0.4500" font-size="2.0000" lengthAdjust="spacingAndGlyphs"
text-anchor="start" opacity="0"></text>
<g class="stroked-text"><desc></desc>
</g></g>
<g style="fill:none; 
stroke:#000000; stroke-width:0.1500; stroke-opacity:1; 
stroke-linecap:round; stroke-linejoin:round;">
<text x="178.0022" y="174.7572"
textLength="0.4500" font-size="2.0000" lengthAdjust="spacingAndGlyphs"
text-anchor="start" opacity="0"></text>
<g class="stroked-text"><desc></desc>
</g></g>
<g style="fill:none; 
stroke:#000000; stroke-width:0.1500; stroke-opacity:1; 
stroke-linecap:round; stroke-linejoin:round;">
<text x="178.0022" y="171.7572"
textLength="0.4500" font-size="2.0000" lengthAdjust="spacingAndGlyphs"
text-anchor="start" opacity="0"></text>
<g class="stroked-text"><desc></desc>
</g></g>
<g style="fill:none; 
stroke:#000000; stroke-width:0.1500; stroke-opacity:1; 
stroke-linecap:round; stroke-linejoin:round;">
<text x="178.0022" y="168.7572"
textLength="0.4500" font-size="2.0000" lengthAdjust="spacingAndGlyphs"
text-anchor="start" opacity="0"></text>
<g class="stroked-text"><desc></desc>
</g></g>
<g style="fill:none; 
stroke:#000000; stroke-width:0.1500; stroke-opacity:1; 
stroke-linecap:round; stroke-linejoin:round;">
<path d="M197.0022 191.5072
L197.0022 194.5072
" />
</g>
<g style="fill:none; 
stroke:#000000; stroke-width:0.1500; stroke-opacity:1; 
stroke-linecap:round; stroke-linejoin:round;">
<path d="M261.0022 191.5072
L261.0022 198.0072
" />
</g>
<g style="fill:none; 
stroke:#C2C2C2; stroke-width:0.0984; stroke-opacity:1; 
stroke-linecap:round; stroke-linejoin:round;">
<text x="122.1675" y="36.4293"
textLength="9.6091" font-size="0.5249" lengthAdjust="spacingAndGlyphs"
text-anchor="middle" opacity="0">PTH Slot 1.15 +/- 0.05 X 0.6</text>
<g class="stroked-text"><desc>PTH Slot 1.15 +/- 0.05 X 0.6</desc>
<path d="M117.5649 36.4095
L117.5649 36.0158
" />
<path d="M117.5649 36.0158
L117.7149 36.0158
" />
<path d="M117.7149 36.0158
L117.7524 36.0346
" />
<path d="M117.7524 36.0346
L117.7712 36.0533
" />
<path d="M117.7712 36.0533
L117.7899 36.0908
" />
<path d="M117.7899 36.0908
L117.7899 36.1470
" />
<path d="M117.7899 36.1470
L117.7712 36.1845
" />
<path d="M117.7712 36.1845
L117.7524 36.2033
" />
<path d="M117.7524 36.2033
L117.7149 36.2220
" />
<path d="M117.7149 36.2220
L117.5649 36.2220
" />
<path d="M117.9024 36.0158
L118.1274 36.0158
" />
<path d="M118.0149 36.4095
L118.0149 36.0158
" />
<path d="M118.2586 36.4095
L118.2586 36.0158
" />
<path d="M118.2586 36.2033
L118.4836 36.2033
" />
<path d="M118.4836 36.4095
L118.4836 36.0158
" />
<path d="M118.9523 36.3908
L119.0085 36.4095
" />
<path d="M119.0085 36.4095
L119.1023 36.4095
" />
<path d="M119.1023 36.4095
L119.1398 36.3908
" />
<path d="M119.1398 36.3908
L119.1585 36.3720
" />
<path d="M119.1585 36.3720
L119.1772 36.3345
" />
<path d="M119.1772 36.3345
L119.1772 36.2970
" />
<path d="M119.1772 36.2970
L119.1585 36.2595
" />
<path d="M119.1585 36.2595
L119.1398 36.2408
" />
<path d="M119.1398 36.2408
L119.1023 36.2220
" />
<path d="M119.1023 36.2220
L119.0273 36.2033
" />
<path d="M119.0273 36.2033
L118.9898 36.1845
" />
<path d="M118.9898 36.1845
L118.9710 36.1658
" />
<path d="M118.9710 36.1658
L118.9523 36.1283
" />
<path d="M118.9523 36.1283
L118.9523 36.0908
" />
<path d="M118.9523 36.0908
L118.9710 36.0533
" />
<path d="M118.9710 36.0533
L118.9898 36.0346
" />
<path d="M118.9898 36.0346
L119.0273 36.0158
" />
<path d="M119.0273 36.0158
L119.1210 36.0158
" />
<path d="M119.1210 36.0158
L119.1772 36.0346
" />
<path d="M119.4022 36.4095
L119.3647 36.3908
" />
<path d="M119.3647 36.3908
L119.3460 36.3533
" />
<path d="M119.3460 36.3533
L119.3460 36.0158
" />
<path d="M119.6084 36.4095
L119.5709 36.3908
" />
<path d="M119.5709 36.3908
L119.5522 36.3720
" />
<path d="M119.5522 36.3720
L119.5335 36.3345
" />
<path d="M119.5335 36.3345
L119.5335 36.2220
" />
<path d="M119.5335 36.2220
L119.5522 36.1845
" />
<path d="M119.5522 36.1845
L119.5709 36.1658
" />
<path d="M119.5709 36.1658
L119.6084 36.1470
" />
<path d="M119.6084 36.1470
L119.6647 36.1470
" />
<path d="M119.6647 36.1470
L119.7022 36.1658
" />
<path d="M119.7022 36.1658
L119.7209 36.1845
" />
<path d="M119.7209 36.1845
L119.7397 36.2220
" />
<path d="M119.7397 36.2220
L119.7397 36.3345
" />
<path d="M119.7397 36.3345
L119.7209 36.3720
" />
<path d="M119.7209 36.3720
L119.7022 36.3908
" />
<path d="M119.7022 36.3908
L119.6647 36.4095
" />
<path d="M119.6647 36.4095
L119.6084 36.4095
" />
<path d="M119.8522 36.1470
L120.0021 36.1470
" />
<path d="M119.9084 36.0158
L119.9084 36.3533
" />
<path d="M119.9084 36.3533
L119.9272 36.3908
" />
<path d="M119.9272 36.3908
L119.9646 36.4095
" />
<path d="M119.9646 36.4095
L120.0021 36.4095
" />
<path d="M120.6396 36.4095
L120.4146 36.4095
" />
<path d="M120.5271 36.4095
L120.5271 36.0158
" />
<path d="M120.5271 36.0158
L120.4896 36.0721
" />
<path d="M120.4896 36.0721
L120.4521 36.1096
" />
<path d="M120.4521 36.1096
L120.4146 36.1283
" />
<path d="M120.8083 36.3720
L120.8270 36.3908
" />
<path d="M120.8270 36.3908
L120.8083 36.4095
" />
<path d="M120.8083 36.4095
L120.7895 36.3908
" />
<path d="M120.7895 36.3908
L120.8083 36.3720
" />
<path d="M120.8083 36.3720
L120.8083 36.4095
" />
<path d="M121.2020 36.4095
L120.9770 36.4095
" />
<path d="M121.0895 36.4095
L121.0895 36.0158
" />
<path d="M121.0895 36.0158
L121.0520 36.0721
" />
<path d="M121.0520 36.0721
L121.0145 36.1096
" />
<path d="M121.0145 36.1096
L120.9770 36.1283
" />
<path d="M121.5582 36.0158
L121.3707 36.0158
" />
<path d="M121.3707 36.0158
L121.3520 36.2033
" />
<path d="M121.3520 36.2033
L121.3707 36.1845
" />
<path d="M121.3707 36.1845
L121.4082 36.1658
" />
<path d="M121.4082 36.1658
L121.5020 36.1658
" />
<path d="M121.5020 36.1658
L121.5395 36.1845
" />
<path d="M121.5395 36.1845
L121.5582 36.2033
" />
<path d="M121.5582 36.2033
L121.5769 36.2408
" />
<path d="M121.5769 36.2408
L121.5769 36.3345
" />
<path d="M121.5769 36.3345
L121.5582 36.3720
" />
<path d="M121.5582 36.3720
L121.5395 36.3908
" />
<path d="M121.5395 36.3908
L121.5020 36.4095
" />
<path d="M121.5020 36.4095
L121.4082 36.4095
" />
<path d="M121.4082 36.4095
L121.3707 36.3908
" />
<path d="M121.3707 36.3908
L121.3520 36.3720
" />
<path d="M122.0456 36.2595
L122.3456 36.2595
" />
<path d="M122.1956 36.4095
L122.1956 36.1096
" />
<path d="M122.8143 35.9971
L122.4768 36.5033
" />
<path d="M122.9455 36.2595
L123.2455 36.2595
" />
<path d="M123.8079 36.0158
L123.8454 36.0158
" />
<path d="M123.8454 36.0158
L123.8829 36.0346
" />
<path d="M123.8829 36.0346
L123.9017 36.0533
" />
<path d="M123.9017 36.0533
L123.9204 36.0908
" />
<path d="M123.9204 36.0908
L123.9392 36.1658
" />
<path d="M123.9392 36.1658
L123.9392 36.2595
" />
<path d="M123.9392 36.2595
L123.9204 36.3345
" />
<path d="M123.9204 36.3345
L123.9017 36.3720
" />
<path d="M123.9017 36.3720
L123.8829 36.3908
" />
<path d="M123.8829 36.3908
L123.8454 36.4095
" />
<path d="M123.8454 36.4095
L123.8079 36.4095
" />
<path d="M123.8079 36.4095
L123.7704 36.3908
" />
<path d="M123.7704 36.3908
L123.7517 36.3720
" />
<path d="M123.7517 36.3720
L123.7329 36.3345
" />
<path d="M123.7329 36.3345
L123.7142 36.2595
" />
<path d="M123.7142 36.2595
L123.7142 36.1658
" />
<path d="M123.7142 36.1658
L123.7329 36.0908
" />
<path d="M123.7329 36.0908
L123.7517 36.0533
" />
<path d="M123.7517 36.0533
L123.7704 36.0346
" />
<path d="M123.7704 36.0346
L123.8079 36.0158
" />
<path d="M124.1079 36.3720
L124.1266 36.3908
" />
<path d="M124.1266 36.3908
L124.1079 36.4095
" />
<path d="M124.1079 36.4095
L124.0891 36.3908
" />
<path d="M124.0891 36.3908
L124.1079 36.3720
" />
<path d="M124.1079 36.3720
L124.1079 36.4095
" />
<path d="M124.3704 36.0158
L124.4078 36.0158
" />
<path d="M124.4078 36.0158
L124.4453 36.0346
" />
<path d="M124.4453 36.0346
L124.4641 36.0533
" />
<path d="M124.4641 36.0533
L124.4828 36.0908
" />
<path d="M124.4828 36.0908
L124.5016 36.1658
" />
<path d="M124.5016 36.1658
L124.5016 36.2595
" />
<path d="M124.5016 36.2595
L124.4828 36.3345
" />
<path d="M124.4828 36.3345
L124.4641 36.3720
" />
<path d="M124.4641 36.3720
L124.4453 36.3908
" />
<path d="M124.4453 36.3908
L124.4078 36.4095
" />
<path d="M124.4078 36.4095
L124.3704 36.4095
" />
<path d="M124.3704 36.4095
L124.3329 36.3908
" />
<path d="M124.3329 36.3908
L124.3141 36.3720
" />
<path d="M124.3141 36.3720
L124.2954 36.3345
" />
<path d="M124.2954 36.3345
L124.2766 36.2595
" />
<path d="M124.2766 36.2595
L124.2766 36.1658
" />
<path d="M124.2766 36.1658
L124.2954 36.0908
" />
<path d="M124.2954 36.0908
L124.3141 36.0533
" />
<path d="M124.3141 36.0533
L124.3329 36.0346
" />
<path d="M124.3329 36.0346
L124.3704 36.0158
" />
<path d="M124.8578 36.0158
L124.6703 36.0158
" />
<path d="M124.6703 36.0158
L124.6516 36.2033
" />
<path d="M124.6516 36.2033
L124.6703 36.1845
" />
<path d="M124.6703 36.1845
L124.7078 36.1658
" />
<path d="M124.7078 36.1658
L124.8015 36.1658
" />
<path d="M124.8015 36.1658
L124.8390 36.1845
" />
<path d="M124.8390 36.1845
L124.8578 36.2033
" />
<path d="M124.8578 36.2033
L124.8765 36.2408
" />
<path d="M124.8765 36.2408
L124.8765 36.3345
" />
<path d="M124.8765 36.3345
L124.8578 36.3720
" />
<path d="M124.8578 36.3720
L124.8390 36.3908
" />
<path d="M124.8390 36.3908
L124.8015 36.4095
" />
<path d="M124.8015 36.4095
L124.7078 36.4095
" />
<path d="M124.7078 36.4095
L124.6703 36.3908
" />
<path d="M124.6703 36.3908
L124.6516 36.3720
" />
<path d="M125.3077 36.0158
L125.5702 36.4095
" />
<path d="M125.5702 36.0158
L125.3077 36.4095
" />
<path d="M126.0951 36.0158
L126.1326 36.0158
" />
<path d="M126.1326 36.0158
L126.1701 36.0346
" />
<path d="M126.1701 36.0346
L126.1889 36.0533
" />
<path d="M126.1889 36.0533
L126.2076 36.0908
" />
<path d="M126.2076 36.0908
L126.2264 36.1658
" />
<path d="M126.2264 36.1658
L126.2264 36.2595
" />
<path d="M126.2264 36.2595
L126.2076 36.3345
" />
<path d="M126.2076 36.3345
L126.1889 36.3720
" />
<path d="M126.1889 36.3720
L126.1701 36.3908
" />
<path d="M126.1701 36.3908
L126.1326 36.4095
" />
<path d="M126.1326 36.4095
L126.0951 36.4095
" />
<path d="M126.0951 36.4095
L126.0576 36.3908
" />
<path d="M126.0576 36.3908
L126.0389 36.3720
" />
<path d="M126.0389 36.3720
L126.0201 36.3345
" />
<path d="M126.0201 36.3345
L126.0014 36.2595
" />
<path d="M126.0014 36.2595
L126.0014 36.1658
" />
<path d="M126.0014 36.1658
L126.0201 36.0908
" />
<path d="M126.0201 36.0908
L126.0389 36.0533
" />
<path d="M126.0389 36.0533
L126.0576 36.0346
" />
<path d="M126.0576 36.0346
L126.0951 36.0158
" />
<path d="M126.3951 36.3720
L126.4138 36.3908
" />
<path d="M126.4138 36.3908
L126.3951 36.4095
" />
<path d="M126.3951 36.4095
L126.3764 36.3908
" />
<path d="M126.3764 36.3908
L126.3951 36.3720
" />
<path d="M126.3951 36.3720
L126.3951 36.4095
" />
<path d="M126.7513 36.0158
L126.6763 36.0158
" />
<path d="M126.6763 36.0158
L126.6388 36.0346
" />
<path d="M126.6388 36.0346
L126.6201 36.0533
" />
<path d="M126.6201 36.0533
L126.5826 36.1096
" />
<path d="M126.5826 36.1096
L126.5638 36.1845
" />
<path d="M126.5638 36.1845
L126.5638 36.3345
" />
<path d="M126.5638 36.3345
L126.5826 36.3720
" />
<path d="M126.5826 36.3720
L126.6013 36.3908
" />
<path d="M126.6013 36.3908
L126.6388 36.4095
" />
<path d="M126.6388 36.4095
L126.7138 36.4095
" />
<path d="M126.7138 36.4095
L126.7513 36.3908
" />
<path d="M126.7513 36.3908
L126.7701 36.3720
" />
<path d="M126.7701 36.3720
L126.7888 36.3345
" />
<path d="M126.7888 36.3345
L126.7888 36.2408
" />
<path d="M126.7888 36.2408
L126.7701 36.2033
" />
<path d="M126.7701 36.2033
L126.7513 36.1845
" />
<path d="M126.7513 36.1845
L126.7138 36.1658
" />
<path d="M126.7138 36.1658
L126.6388 36.1658
" />
<path d="M126.6388 36.1658
L126.6013 36.1845
" />
<path d="M126.6013 36.1845
L126.5826 36.2033
" />
<path d="M126.5826 36.2033
L126.5638 36.2408
" />
</g><text x="129.9300" y="27.9968"
textLength="12.9087" font-size="0.5249" lengthAdjust="spacingAndGlyphs"
text-anchor="middle" opacity="0">PTH Slot 1.55 +/- 0.05 X 0.6 +/- 0.05</text>
<g class="stroked-text"><desc>PTH Slot 1.55 +/- 0.05 X 0.6 +/- 0.05</desc>
<path d="M123.6777 27.9770
L123.6777 27.5833
" />
<path d="M123.6777 27.5833
L123.8276 27.5833
" />
<path d="M123.8276 27.5833
L123.8651 27.6021
" />
<path d="M123.8651 27.6021
L123.8839 27.6208
" />
<path d="M123.8839 27.6208
L123.9026 27.6583
" />
<path d="M123.9026 27.6583
L123.9026 27.7145
" />
<path d="M123.9026 27.7145
L123.8839 27.7520
" />
<path d="M123.8839 27.7520
L123.8651 27.7708
" />
<path d="M123.8651 27.7708
L123.8276 27.7895
" />
<path d="M123.8276 27.7895
L123.6777 27.7895
" />
<path d="M124.0151 27.5833
L124.2401 27.5833
" />
<path d="M124.1276 27.9770
L124.1276 27.5833
" />
<path d="M124.3713 27.9770
L124.3713 27.5833
" />
<path d="M124.3713 27.7708
L124.5963 27.7708
" />
<path d="M124.5963 27.9770
L124.5963 27.5833
" />
<path d="M125.0650 27.9583
L125.1212 27.9770
" />
<path d="M125.1212 27.9770
L125.2150 27.9770
" />
<path d="M125.2150 27.9770
L125.2525 27.9583
" />
<path d="M125.2525 27.9583
L125.2712 27.9395
" />
<path d="M125.2712 27.9395
L125.2900 27.9020
" />
<path d="M125.2900 27.9020
L125.2900 27.8645
" />
<path d="M125.2900 27.8645
L125.2712 27.8270
" />
<path d="M125.2712 27.8270
L125.2525 27.8083
" />
<path d="M125.2525 27.8083
L125.2150 27.7895
" />
<path d="M125.2150 27.7895
L125.1400 27.7708
" />
<path d="M125.1400 27.7708
L125.1025 27.7520
" />
<path d="M125.1025 27.7520
L125.0837 27.7333
" />
<path d="M125.0837 27.7333
L125.0650 27.6958
" />
<path d="M125.0650 27.6958
L125.0650 27.6583
" />
<path d="M125.0650 27.6583
L125.0837 27.6208
" />
<path d="M125.0837 27.6208
L125.1025 27.6021
" />
<path d="M125.1025 27.6021
L125.1400 27.5833
" />
<path d="M125.1400 27.5833
L125.2337 27.5833
" />
<path d="M125.2337 27.5833
L125.2900 27.6021
" />
<path d="M125.5149 27.9770
L125.4774 27.9583
" />
<path d="M125.4774 27.9583
L125.4587 27.9208
" />
<path d="M125.4587 27.9208
L125.4587 27.5833
" />
<path d="M125.7211 27.9770
L125.6837 27.9583
" />
<path d="M125.6837 27.9583
L125.6649 27.9395
" />
<path d="M125.6649 27.9395
L125.6462 27.9020
" />
<path d="M125.6462 27.9020
L125.6462 27.7895
" />
<path d="M125.6462 27.7895
L125.6649 27.7520
" />
<path d="M125.6649 27.7520
L125.6837 27.7333
" />
<path d="M125.6837 27.7333
L125.7211 27.7145
" />
<path d="M125.7211 27.7145
L125.7774 27.7145
" />
<path d="M125.7774 27.7145
L125.8149 27.7333
" />
<path d="M125.8149 27.7333
L125.8336 27.7520
" />
<path d="M125.8336 27.7520
L125.8524 27.7895
" />
<path d="M125.8524 27.7895
L125.8524 27.9020
" />
<path d="M125.8524 27.9020
L125.8336 27.9395
" />
<path d="M125.8336 27.9395
L125.8149 27.9583
" />
<path d="M125.8149 27.9583
L125.7774 27.9770
" />
<path d="M125.7774 27.9770
L125.7211 27.9770
" />
<path d="M125.9649 27.7145
L126.1148 27.7145
" />
<path d="M126.0211 27.5833
L126.0211 27.9208
" />
<path d="M126.0211 27.9208
L126.0399 27.9583
" />
<path d="M126.0399 27.9583
L126.0774 27.9770
" />
<path d="M126.0774 27.9770
L126.1148 27.9770
" />
<path d="M126.7523 27.9770
L126.5273 27.9770
" />
<path d="M126.6398 27.9770
L126.6398 27.5833
" />
<path d="M126.6398 27.5833
L126.6023 27.6396
" />
<path d="M126.6023 27.6396
L126.5648 27.6771
" />
<path d="M126.5648 27.6771
L126.5273 27.6958
" />
<path d="M126.9210 27.9395
L126.9397 27.9583
" />
<path d="M126.9397 27.9583
L126.9210 27.9770
" />
<path d="M126.9210 27.9770
L126.9023 27.9583
" />
<path d="M126.9023 27.9583
L126.9210 27.9395
" />
<path d="M126.9210 27.9395
L126.9210 27.9770
" />
<path d="M127.2960 27.5833
L127.1085 27.5833
" />
<path d="M127.1085 27.5833
L127.0897 27.7708
" />
<path d="M127.0897 27.7708
L127.1085 27.7520
" />
<path d="M127.1085 27.7520
L127.1460 27.7333
" />
<path d="M127.1460 27.7333
L127.2397 27.7333
" />
<path d="M127.2397 27.7333
L127.2772 27.7520
" />
<path d="M127.2772 27.7520
L127.2960 27.7708
" />
<path d="M127.2960 27.7708
L127.3147 27.8083
" />
<path d="M127.3147 27.8083
L127.3147 27.9020
" />
<path d="M127.3147 27.9020
L127.2960 27.9395
" />
<path d="M127.2960 27.9395
L127.2772 27.9583
" />
<path d="M127.2772 27.9583
L127.2397 27.9770
" />
<path d="M127.2397 27.9770
L127.1460 27.9770
" />
<path d="M127.1460 27.9770
L127.1085 27.9583
" />
<path d="M127.1085 27.9583
L127.0897 27.9395
" />
<path d="M127.6709 27.5833
L127.4834 27.5833
" />
<path d="M127.4834 27.5833
L127.4647 27.7708
" />
<path d="M127.4647 27.7708
L127.4834 27.7520
" />
<path d="M127.4834 27.7520
L127.5209 27.7333
" />
<path d="M127.5209 27.7333
L127.6147 27.7333
" />
<path d="M127.6147 27.7333
L127.6522 27.7520
" />
<path d="M127.6522 27.7520
L127.6709 27.7708
" />
<path d="M127.6709 27.7708
L127.6897 27.8083
" />
<path d="M127.6897 27.8083
L127.6897 27.9020
" />
<path d="M127.6897 27.9020
L127.6709 27.9395
" />
<path d="M127.6709 27.9395
L127.6522 27.9583
" />
<path d="M127.6522 27.9583
L127.6147 27.9770
" />
<path d="M127.6147 27.9770
L127.5209 27.9770
" />
<path d="M127.5209 27.9770
L127.4834 27.9583
" />
<path d="M127.4834 27.9583
L127.4647 27.9395
" />
<path d="M128.1583 27.8270
L128.4583 27.8270
" />
<path d="M128.3083 27.9770
L128.3083 27.6771
" />
<path d="M128.9270 27.5646
L128.5895 28.0708
" />
<path d="M129.0582 27.8270
L129.3582 27.8270
" />
<path d="M129.9206 27.5833
L129.9581 27.5833
" />
<path d="M129.9581 27.5833
L129.9956 27.6021
" />
<path d="M129.9956 27.6021
L130.0144 27.6208
" />
<path d="M130.0144 27.6208
L130.0331 27.6583
" />
<path d="M130.0331 27.6583
L130.0519 27.7333
" />
<path d="M130.0519 27.7333
L130.0519 27.8270
" />
<path d="M130.0519 27.8270
L130.0331 27.9020
" />
<path d="M130.0331 27.9020
L130.0144 27.9395
" />
<path d="M130.0144 27.9395
L129.9956 27.9583
" />
<path d="M129.9956 27.9583
L129.9581 27.9770
" />
<path d="M129.9581 27.9770
L129.9206 27.9770
" />
<path d="M129.9206 27.9770
L129.8831 27.9583
" />
<path d="M129.8831 27.9583
L129.8644 27.9395
" />
<path d="M129.8644 27.9395
L129.8456 27.9020
" />
<path d="M129.8456 27.9020
L129.8269 27.8270
" />
<path d="M129.8269 27.8270
L129.8269 27.7333
" />
<path d="M129.8269 27.7333
L129.8456 27.6583
" />
<path d="M129.8456 27.6583
L129.8644 27.6208
" />
<path d="M129.8644 27.6208
L129.8831 27.6021
" />
<path d="M129.8831 27.6021
L129.9206 27.5833
" />
<path d="M130.2206 27.9395
L130.2393 27.9583
" />
<path d="M130.2393 27.9583
L130.2206 27.9770
" />
<path d="M130.2206 27.9770
L130.2018 27.9583
" />
<path d="M130.2018 27.9583
L130.2206 27.9395
" />
<path d="M130.2206 27.9395
L130.2206 27.9770
" />
<path d="M130.4831 27.5833
L130.5206 27.5833
" />
<path d="M130.5206 27.5833
L130.5580 27.6021
" />
<path d="M130.5580 27.6021
L130.5768 27.6208
" />
<path d="M130.5768 27.6208
L130.5955 27.6583
" />
<path d="M130.5955 27.6583
L130.6143 27.7333
" />
<path d="M130.6143 27.7333
L130.6143 27.8270
" />
<path d="M130.6143 27.8270
L130.5955 27.9020
" />
<path d="M130.5955 27.9020
L130.5768 27.9395
" />
<path d="M130.5768 27.9395
L130.5580 27.9583
" />
<path d="M130.5580 27.9583
L130.5206 27.9770
" />
<path d="M130.5206 27.9770
L130.4831 27.9770
" />
<path d="M130.4831 27.9770
L130.4456 27.9583
" />
<path d="M130.4456 27.9583
L130.4268 27.9395
" />
<path d="M130.4268 27.9395
L130.4081 27.9020
" />
<path d="M130.4081 27.9020
L130.3893 27.8270
" />
<path d="M130.3893 27.8270
L130.3893 27.7333
" />
<path d="M130.3893 27.7333
L130.4081 27.6583
" />
<path d="M130.4081 27.6583
L130.4268 27.6208
" />
<path d="M130.4268 27.6208
L130.4456 27.6021
" />
<path d="M130.4456 27.6021
L130.4831 27.5833
" />
<path d="M130.9705 27.5833
L130.7830 27.5833
" />
<path d="M130.7830 27.5833
L130.7643 27.7708
" />
<path d="M130.7643 27.7708
L130.7830 27.7520
" />
<path d="M130.7830 27.7520
L130.8205 27.7333
" />
<path d="M130.8205 27.7333
L130.9143 27.7333
" />
<path d="M130.9143 27.7333
L130.9517 27.7520
" />
<path d="M130.9517 27.7520
L130.9705 27.7708
" />
<path d="M130.9705 27.7708
L130.9892 27.8083
" />
<path d="M130.9892 27.8083
L130.9892 27.9020
" />
<path d="M130.9892 27.9020
L130.9705 27.9395
" />
<path d="M130.9705 27.9395
L130.9517 27.9583
" />
<path d="M130.9517 27.9583
L130.9143 27.9770
" />
<path d="M130.9143 27.9770
L130.8205 27.9770
" />
<path d="M130.8205 27.9770
L130.7830 27.9583
" />
<path d="M130.7830 27.9583
L130.7643 27.9395
" />
<path d="M131.4204 27.5833
L131.6829 27.9770
" />
<path d="M131.6829 27.5833
L131.4204 27.9770
" />
<path d="M132.2078 27.5833
L132.2453 27.5833
" />
<path d="M132.2453 27.5833
L132.2828 27.6021
" />
<path d="M132.2828 27.6021
L132.3016 27.6208
" />
<path d="M132.3016 27.6208
L132.3203 27.6583
" />
<path d="M132.3203 27.6583
L132.3391 27.7333
" />
<path d="M132.3391 27.7333
L132.3391 27.8270
" />
<path d="M132.3391 27.8270
L132.3203 27.9020
" />
<path d="M132.3203 27.9020
L132.3016 27.9395
" />
<path d="M132.3016 27.9395
L132.2828 27.9583
" />
<path d="M132.2828 27.9583
L132.2453 27.9770
" />
<path d="M132.2453 27.9770
L132.2078 27.9770
" />
<path d="M132.2078 27.9770
L132.1703 27.9583
" />
<path d="M132.1703 27.9583
L132.1516 27.9395
" />
<path d="M132.1516 27.9395
L132.1329 27.9020
" />
<path d="M132.1329 27.9020
L132.1141 27.8270
" />
<path d="M132.1141 27.8270
L132.1141 27.7333
" />
<path d="M132.1141 27.7333
L132.1329 27.6583
" />
<path d="M132.1329 27.6583
L132.1516 27.6208
" />
<path d="M132.1516 27.6208
L132.1703 27.6021
" />
<path d="M132.1703 27.6021
L132.2078 27.5833
" />
<path d="M132.5078 27.9395
L132.5266 27.9583
" />
<path d="M132.5266 27.9583
L132.5078 27.9770
" />
<path d="M132.5078 27.9770
L132.4891 27.9583
" />
<path d="M132.4891 27.9583
L132.5078 27.9395
" />
<path d="M132.5078 27.9395
L132.5078 27.9770
" />
<path d="M132.8640 27.5833
L132.7890 27.5833
" />
<path d="M132.7890 27.5833
L132.7515 27.6021
" />
<path d="M132.7515 27.6021
L132.7328 27.6208
" />
<path d="M132.7328 27.6208
L132.6953 27.6771
" />
<path d="M132.6953 27.6771
L132.6765 27.7520
" />
<path d="M132.6765 27.7520
L132.6765 27.9020
" />
<path d="M132.6765 27.9020
L132.6953 27.9395
" />
<path d="M132.6953 27.9395
L132.7140 27.9583
" />
<path d="M132.7140 27.9583
L132.7515 27.9770
" />
<path d="M132.7515 27.9770
L132.8265 27.9770
" />
<path d="M132.8265 27.9770
L132.8640 27.9583
" />
<path d="M132.8640 27.9583
L132.8828 27.9395
" />
<path d="M132.8828 27.9395
L132.9015 27.9020
" />
<path d="M132.9015 27.9020
L132.9015 27.8083
" />
<path d="M132.9015 27.8083
L132.8828 27.7708
" />
<path d="M132.8828 27.7708
L132.8640 27.7520
" />
<path d="M132.8640 27.7520
L132.8265 27.7333
" />
<path d="M132.8265 27.7333
L132.7515 27.7333
" />
<path d="M132.7515 27.7333
L132.7140 27.7520
" />
<path d="M132.7140 27.7520
L132.6953 27.7708
" />
<path d="M132.6953 27.7708
L132.6765 27.8083
" />
<path d="M133.3702 27.8270
L133.6702 27.8270
" />
<path d="M133.5202 27.9770
L133.5202 27.6771
" />
<path d="M134.1389 27.5646
L133.8014 28.0708
" />
<path d="M134.2701 27.8270
L134.5700 27.8270
" />
<path d="M135.1325 27.5833
L135.1700 27.5833
" />
<path d="M135.1700 27.5833
L135.2075 27.6021
" />
<path d="M135.2075 27.6021
L135.2262 27.6208
" />
<path d="M135.2262 27.6208
L135.2450 27.6583
" />
<path d="M135.2450 27.6583
L135.2637 27.7333
" />
<path d="M135.2637 27.7333
L135.2637 27.8270
" />
<path d="M135.2637 27.8270
L135.2450 27.9020
" />
<path d="M135.2450 27.9020
L135.2262 27.9395
" />
<path d="M135.2262 27.9395
L135.2075 27.9583
" />
<path d="M135.2075 27.9583
L135.1700 27.9770
" />
<path d="M135.1700 27.9770
L135.1325 27.9770
" />
<path d="M135.1325 27.9770
L135.0950 27.9583
" />
<path d="M135.0950 27.9583
L135.0762 27.9395
" />
<path d="M135.0762 27.9395
L135.0575 27.9020
" />
<path d="M135.0575 27.9020
L135.0387 27.8270
" />
<path d="M135.0387 27.8270
L135.0387 27.7333
" />
<path d="M135.0387 27.7333
L135.0575 27.6583
" />
<path d="M135.0575 27.6583
L135.0762 27.6208
" />
<path d="M135.0762 27.6208
L135.0950 27.6021
" />
<path d="M135.0950 27.6021
L135.1325 27.5833
" />
<path d="M135.4324 27.9395
L135.4512 27.9583
" />
<path d="M135.4512 27.9583
L135.4324 27.9770
" />
<path d="M135.4324 27.9770
L135.4137 27.9583
" />
<path d="M135.4137 27.9583
L135.4324 27.9395
" />
<path d="M135.4324 27.9395
L135.4324 27.9770
" />
<path d="M135.6949 27.5833
L135.7324 27.5833
" />
<path d="M135.7324 27.5833
L135.7699 27.6021
" />
<path d="M135.7699 27.6021
L135.7886 27.6208
" />
<path d="M135.7886 27.6208
L135.8074 27.6583
" />
<path d="M135.8074 27.6583
L135.8261 27.7333
" />
<path d="M135.8261 27.7333
L135.8261 27.8270
" />
<path d="M135.8261 27.8270
L135.8074 27.9020
" />
<path d="M135.8074 27.9020
L135.7886 27.9395
" />
<path d="M135.7886 27.9395
L135.7699 27.9583
" />
<path d="M135.7699 27.9583
L135.7324 27.9770
" />
<path d="M135.7324 27.9770
L135.6949 27.9770
" />
<path d="M135.6949 27.9770
L135.6574 27.9583
" />
<path d="M135.6574 27.9583
L135.6387 27.9395
" />
<path d="M135.6387 27.9395
L135.6199 27.9020
" />
<path d="M135.6199 27.9020
L135.6012 27.8270
" />
<path d="M135.6012 27.8270
L135.6012 27.7333
" />
<path d="M135.6012 27.7333
L135.6199 27.6583
" />
<path d="M135.6199 27.6583
L135.6387 27.6208
" />
<path d="M135.6387 27.6208
L135.6574 27.6021
" />
<path d="M135.6574 27.6021
L135.6949 27.5833
" />
<path d="M136.1823 27.5833
L135.9949 27.5833
" />
<path d="M135.9949 27.5833
L135.9761 27.7708
" />
<path d="M135.9761 27.7708
L135.9949 27.7520
" />
<path d="M135.9949 27.7520
L136.0324 27.7333
" />
<path d="M136.0324 27.7333
L136.1261 27.7333
" />
<path d="M136.1261 27.7333
L136.1636 27.7520
" />
<path d="M136.1636 27.7520
L136.1823 27.7708
" />
<path d="M136.1823 27.7708
L136.2011 27.8083
" />
<path d="M136.2011 27.8083
L136.2011 27.9020
" />
<path d="M136.2011 27.9020
L136.1823 27.9395
" />
<path d="M136.1823 27.9395
L136.1636 27.9583
" />
<path d="M136.1636 27.9583
L136.1261 27.9770
" />
<path d="M136.1261 27.9770
L136.0324 27.9770
" />
<path d="M136.0324 27.9770
L135.9949 27.9583
" />
<path d="M135.9949 27.9583
L135.9761 27.9395
" />
</g><path style="fill:#C2C2C2; fill-opacity:1.0000; stroke:none;fill-rule:evenodd;"
d="M 129.0250,100.6250
128.7250,100.6250
128.7250,100.1250
129.0250,100.1250
Z" /> 
<path style="fill:#C2C2C2; fill-opacity:1.0000; stroke:none;fill-rule:evenodd;"
d="M 129.0250,101.8250
128.7250,101.8250
128.7250,101.3250
129.0250,101.3250
Z" /> 
<path style="fill:#C2C2C2; fill-opacity:1.0000; stroke:none;fill-rule:evenodd;"
d="M 129.4250,100.6250
129.1250,100.6250
129.1250,100.1250
129.4250,100.1250
Z" /> 
<path style="fill:#C2C2C2; fill-opacity:1.0000; stroke:none;fill-rule:evenodd;"
d="M 129.4250,101.8250
129.1250,101.8250
129.1250,101.3250
129.4250,101.3250
Z" /> 
<path style="fill:#C2C2C2; fill-opacity:1.0000; stroke:none;fill-rule:evenodd;"
d="M 129.8250,100.6250
129.5250,100.6250
129.5250,100.1250
129.8250,100.1250
Z" /> 
<path style="fill:#C2C2C2; fill-opacity:1.0000; stroke:none;fill-rule:evenodd;"
d="M 129.8250,101.8250
129.5250,101.8250
129.5250,101.3250
129.8250,101.3250
Z" /> 
<path style="fill:#C2C2C2; fill-opacity:1.0000; stroke:none;fill-rule:evenodd;"
d="M 130.2250,100.6250
129.9250,100.6250
129.9250,100.1250
130.2250,100.1250
Z" /> 
<path style="fill:#C2C2C2; fill-opacity:1.0000; stroke:none;fill-rule:evenodd;"
d="M 130.2250,101.8250
129.9250,101.8250
129.9250,101.3250
130.2250,101.3250
Z" /> 
<path style="fill:#C2C2C2; fill-opacity:1.0000; stroke:none;fill-rule:evenodd;"
d="M 130.6250,100.6250
130.3250,100.6250
130.3250,100.1250
130.6250,100.1250
Z" /> 
<path style="fill:#C2C2C2; fill-opacity:1.0000; stroke:none;fill-rule:evenodd;"
d="M 130.6250,101.8250
130.3250,101.8250
130.3250,101.3250
130.6250,101.3250
Z" /> 
<path style="fill:#C2C2C2; fill-opacity:1.0000; stroke:none;fill-rule:evenodd;"
d="M 131.0250,100.6250
130.7250,100.6250
130.7250,100.1250
131.0250,100.1250
Z" /> 
<path style="fill:#C2C2C2; fill-opacity:1.0000; stroke:none;fill-rule:evenodd;"
d="M 131.0250,101.8250
130.7250,101.8250
130.7250,101.3250
131.0250,101.3250
Z" /> 
<path style="fill:#C2C2C2; fill-opacity:1.0000; stroke:none;fill-rule:evenodd;"
d="M 131.4250,100.6250
131.1250,100.6250
131.1250,100.1250
131.4250,100.1250
Z" /> 
<path style="fill:#C2C2C2; fill-opacity:1.0000; stroke:none;fill-rule:evenodd;"
d="M 131.4250,101.8250
131.1250,101.8250
131.1250,101.3250
131.4250,101.3250
Z" /> 
<path style="fill:#C2C2C2; fill-opacity:1.0000; stroke:none;fill-rule:evenodd;"
d="M 131.8250,100.6250
131.5250,100.6250
131.5250,100.1250
131.8250,100.1250
Z" /> 
<path style="fill:#C2C2C2; fill-opacity:1.0000; stroke:none;fill-rule:evenodd;"
d="M 131.8250,101.8250
131.5250,101.8250
131.5250,101.3250
131.8250,101.3250
Z" /> 
<path style="fill:#C2C2C2; fill-opacity:1.0000; stroke:none;fill-rule:evenodd;"
d="M 132.2250,100.6250
131.9250,100.6250
131.9250,100.1250
132.2250,100.1250
Z" /> 
<path style="fill:#C2C2C2; fill-opacity:1.0000; stroke:none;fill-rule:evenodd;"
d="M 132.2250,101.8250
131.9250,101.8250
131.9250,101.3250
132.2250,101.3250
Z" /> 
<path style="fill:#C2C2C2; fill-opacity:1.0000; stroke:none;fill-rule:evenodd;"
d="M 132.6250,100.6250
132.3250,100.6250
132.3250,100.1250
132.6250,100.1250
Z" /> 
<path style="fill:#C2C2C2; fill-opacity:1.0000; stroke:none;fill-rule:evenodd;"
d="M 132.6250,101.8250
132.3250,101.8250
132.3250,101.3250
132.6250,101.3250
Z" /> 
<path style="fill:#C2C2C2; fill-opacity:1.0000; stroke:none;fill-rule:evenodd;"
d="M 133.0250,100.6250
132.7250,100.6250
132.7250,100.1250
133.0250,100.1250
Z" /> 
<path style="fill:#C2C2C2; fill-opacity:1.0000; stroke:none;fill-rule:evenodd;"
d="M 133.0250,101.8250
132.7250,101.8250
132.7250,101.3250
133.0250,101.3250
Z" /> 
<path style="fill:#C2C2C2; fill-opacity:1.0000; stroke:none;fill-rule:evenodd;"
d="M 133.4250,100.6250
133.1250,100.6250
133.1250,100.1250
133.4250,100.1250
Z" /> 
<path style="fill:#C2C2C2; fill-opacity:1.0000; stroke:none;fill-rule:evenodd;"
d="M 133.4250,101.8250
133.1250,101.8250
133.1250,101.3250
133.4250,101.3250
Z" /> 
<path style="fill:#C2C2C2; fill-opacity:1.0000; stroke:none;fill-rule:evenodd;"
d="M 132.1950,101.8250
132.1950,102.1750
131.9550,102.1750
131.9550,101.8250
Z" /> 
<path style="fill:none; 
stroke:#D0D2CD; stroke-width:0.0500; stroke-opacity:1; 
stroke-linecap:round; stroke-linejoin:round;fill:none"
d="M 57.5250,24.8000
174.9250,24.8000
174.9250,124.8000
57.5250,124.8000
Z" /> 
</g> 
</svg>
