%TF.GenerationSoftware,KiCad,Pcbnew,8.0.1*%
%TF.CreationDate,2024-06-23T19:51:28-03:00*%
%TF.ProjectId,DogFood,446f6746-6f6f-4642-9e6b-696361645f70,rev?*%
%TF.SameCoordinates,Original*%
%TF.FileFunction,Legend,Top*%
%TF.FilePolarity,Positive*%
%FSLAX46Y46*%
G04 Gerber Fmt 4.6, Leading zero omitted, Abs format (unit mm)*
G04 Created by KiCad (PCBNEW 8.0.1) date 2024-06-23 19:51:28*
%MOMM*%
%LPD*%
G01*
G04 APERTURE LIST*
%ADD10C,0.150000*%
%ADD11C,0.120000*%
G04 APERTURE END LIST*
D10*
X108505714Y-66809104D02*
X108981904Y-66809104D01*
X108410476Y-67094819D02*
X108743809Y-66094819D01*
X108743809Y-66094819D02*
X109077142Y-67094819D01*
X109934285Y-67094819D02*
X109362857Y-67094819D01*
X109648571Y-67094819D02*
X109648571Y-66094819D01*
X109648571Y-66094819D02*
X109553333Y-66237676D01*
X109553333Y-66237676D02*
X109458095Y-66332914D01*
X109458095Y-66332914D02*
X109362857Y-66380533D01*
X107958095Y-106734819D02*
X107958095Y-107544342D01*
X107958095Y-107544342D02*
X108005714Y-107639580D01*
X108005714Y-107639580D02*
X108053333Y-107687200D01*
X108053333Y-107687200D02*
X108148571Y-107734819D01*
X108148571Y-107734819D02*
X108339047Y-107734819D01*
X108339047Y-107734819D02*
X108434285Y-107687200D01*
X108434285Y-107687200D02*
X108481904Y-107639580D01*
X108481904Y-107639580D02*
X108529523Y-107544342D01*
X108529523Y-107544342D02*
X108529523Y-106734819D01*
X108958095Y-107687200D02*
X109100952Y-107734819D01*
X109100952Y-107734819D02*
X109339047Y-107734819D01*
X109339047Y-107734819D02*
X109434285Y-107687200D01*
X109434285Y-107687200D02*
X109481904Y-107639580D01*
X109481904Y-107639580D02*
X109529523Y-107544342D01*
X109529523Y-107544342D02*
X109529523Y-107449104D01*
X109529523Y-107449104D02*
X109481904Y-107353866D01*
X109481904Y-107353866D02*
X109434285Y-107306247D01*
X109434285Y-107306247D02*
X109339047Y-107258628D01*
X109339047Y-107258628D02*
X109148571Y-107211009D01*
X109148571Y-107211009D02*
X109053333Y-107163390D01*
X109053333Y-107163390D02*
X109005714Y-107115771D01*
X109005714Y-107115771D02*
X108958095Y-107020533D01*
X108958095Y-107020533D02*
X108958095Y-106925295D01*
X108958095Y-106925295D02*
X109005714Y-106830057D01*
X109005714Y-106830057D02*
X109053333Y-106782438D01*
X109053333Y-106782438D02*
X109148571Y-106734819D01*
X109148571Y-106734819D02*
X109386666Y-106734819D01*
X109386666Y-106734819D02*
X109529523Y-106782438D01*
X110291428Y-107211009D02*
X110434285Y-107258628D01*
X110434285Y-107258628D02*
X110481904Y-107306247D01*
X110481904Y-107306247D02*
X110529523Y-107401485D01*
X110529523Y-107401485D02*
X110529523Y-107544342D01*
X110529523Y-107544342D02*
X110481904Y-107639580D01*
X110481904Y-107639580D02*
X110434285Y-107687200D01*
X110434285Y-107687200D02*
X110339047Y-107734819D01*
X110339047Y-107734819D02*
X109958095Y-107734819D01*
X109958095Y-107734819D02*
X109958095Y-106734819D01*
X109958095Y-106734819D02*
X110291428Y-106734819D01*
X110291428Y-106734819D02*
X110386666Y-106782438D01*
X110386666Y-106782438D02*
X110434285Y-106830057D01*
X110434285Y-106830057D02*
X110481904Y-106925295D01*
X110481904Y-106925295D02*
X110481904Y-107020533D01*
X110481904Y-107020533D02*
X110434285Y-107115771D01*
X110434285Y-107115771D02*
X110386666Y-107163390D01*
X110386666Y-107163390D02*
X110291428Y-107211009D01*
X110291428Y-107211009D02*
X109958095Y-107211009D01*
X66621066Y-94452619D02*
X66621066Y-95166904D01*
X66621066Y-95166904D02*
X66573447Y-95309761D01*
X66573447Y-95309761D02*
X66478209Y-95405000D01*
X66478209Y-95405000D02*
X66335352Y-95452619D01*
X66335352Y-95452619D02*
X66240114Y-95452619D01*
X67525828Y-94452619D02*
X67335352Y-94452619D01*
X67335352Y-94452619D02*
X67240114Y-94500238D01*
X67240114Y-94500238D02*
X67192495Y-94547857D01*
X67192495Y-94547857D02*
X67097257Y-94690714D01*
X67097257Y-94690714D02*
X67049638Y-94881190D01*
X67049638Y-94881190D02*
X67049638Y-95262142D01*
X67049638Y-95262142D02*
X67097257Y-95357380D01*
X67097257Y-95357380D02*
X67144876Y-95405000D01*
X67144876Y-95405000D02*
X67240114Y-95452619D01*
X67240114Y-95452619D02*
X67430590Y-95452619D01*
X67430590Y-95452619D02*
X67525828Y-95405000D01*
X67525828Y-95405000D02*
X67573447Y-95357380D01*
X67573447Y-95357380D02*
X67621066Y-95262142D01*
X67621066Y-95262142D02*
X67621066Y-95024047D01*
X67621066Y-95024047D02*
X67573447Y-94928809D01*
X67573447Y-94928809D02*
X67525828Y-94881190D01*
X67525828Y-94881190D02*
X67430590Y-94833571D01*
X67430590Y-94833571D02*
X67240114Y-94833571D01*
X67240114Y-94833571D02*
X67144876Y-94881190D01*
X67144876Y-94881190D02*
X67097257Y-94928809D01*
X67097257Y-94928809D02*
X67049638Y-95024047D01*
X89735066Y-108774619D02*
X89735066Y-109488904D01*
X89735066Y-109488904D02*
X89687447Y-109631761D01*
X89687447Y-109631761D02*
X89592209Y-109727000D01*
X89592209Y-109727000D02*
X89449352Y-109774619D01*
X89449352Y-109774619D02*
X89354114Y-109774619D01*
X90687447Y-108774619D02*
X90211257Y-108774619D01*
X90211257Y-108774619D02*
X90163638Y-109250809D01*
X90163638Y-109250809D02*
X90211257Y-109203190D01*
X90211257Y-109203190D02*
X90306495Y-109155571D01*
X90306495Y-109155571D02*
X90544590Y-109155571D01*
X90544590Y-109155571D02*
X90639828Y-109203190D01*
X90639828Y-109203190D02*
X90687447Y-109250809D01*
X90687447Y-109250809D02*
X90735066Y-109346047D01*
X90735066Y-109346047D02*
X90735066Y-109584142D01*
X90735066Y-109584142D02*
X90687447Y-109679380D01*
X90687447Y-109679380D02*
X90639828Y-109727000D01*
X90639828Y-109727000D02*
X90544590Y-109774619D01*
X90544590Y-109774619D02*
X90306495Y-109774619D01*
X90306495Y-109774619D02*
X90211257Y-109727000D01*
X90211257Y-109727000D02*
X90163638Y-109679380D01*
X92158019Y-99088533D02*
X92872304Y-99088533D01*
X92872304Y-99088533D02*
X93015161Y-99136152D01*
X93015161Y-99136152D02*
X93110400Y-99231390D01*
X93110400Y-99231390D02*
X93158019Y-99374247D01*
X93158019Y-99374247D02*
X93158019Y-99469485D01*
X92491352Y-98183771D02*
X93158019Y-98183771D01*
X92110400Y-98421866D02*
X92824685Y-98659961D01*
X92824685Y-98659961D02*
X92824685Y-98040914D01*
X74037866Y-82265619D02*
X74037866Y-82979904D01*
X74037866Y-82979904D02*
X73990247Y-83122761D01*
X73990247Y-83122761D02*
X73895009Y-83218000D01*
X73895009Y-83218000D02*
X73752152Y-83265619D01*
X73752152Y-83265619D02*
X73656914Y-83265619D01*
X74466438Y-82360857D02*
X74514057Y-82313238D01*
X74514057Y-82313238D02*
X74609295Y-82265619D01*
X74609295Y-82265619D02*
X74847390Y-82265619D01*
X74847390Y-82265619D02*
X74942628Y-82313238D01*
X74942628Y-82313238D02*
X74990247Y-82360857D01*
X74990247Y-82360857D02*
X75037866Y-82456095D01*
X75037866Y-82456095D02*
X75037866Y-82551333D01*
X75037866Y-82551333D02*
X74990247Y-82694190D01*
X74990247Y-82694190D02*
X74418819Y-83265619D01*
X74418819Y-83265619D02*
X75037866Y-83265619D01*
X88617466Y-69616419D02*
X88617466Y-70330704D01*
X88617466Y-70330704D02*
X88569847Y-70473561D01*
X88569847Y-70473561D02*
X88474609Y-70568800D01*
X88474609Y-70568800D02*
X88331752Y-70616419D01*
X88331752Y-70616419D02*
X88236514Y-70616419D01*
X89617466Y-70616419D02*
X89046038Y-70616419D01*
X89331752Y-70616419D02*
X89331752Y-69616419D01*
X89331752Y-69616419D02*
X89236514Y-69759276D01*
X89236514Y-69759276D02*
X89141276Y-69854514D01*
X89141276Y-69854514D02*
X89046038Y-69902133D01*
D11*
%TO.C,A1*%
X100200000Y-67780000D02*
X100200000Y-70450000D01*
X100200000Y-72990000D02*
X100200000Y-111220000D01*
X100200000Y-111220000D02*
X105280000Y-111220000D01*
X102870000Y-70450000D02*
X100200000Y-70450000D01*
X102870000Y-72990000D02*
X100200000Y-72990000D01*
X102870000Y-72990000D02*
X102870000Y-70450000D01*
X102870000Y-72990000D02*
X102870000Y-108550000D01*
X102870000Y-108550000D02*
X100200000Y-108550000D01*
X105280000Y-103340000D02*
X113160000Y-103340000D01*
X105280000Y-113760000D02*
X105280000Y-103340000D01*
X113160000Y-103340000D02*
X113160000Y-113760000D01*
X113160000Y-113760000D02*
X105280000Y-113760000D01*
X115570000Y-70450000D02*
X115570000Y-108550000D01*
X115570000Y-70450000D02*
X118240000Y-70450000D01*
X115570000Y-108550000D02*
X118240000Y-108550000D01*
X118240000Y-67780000D02*
X100200000Y-67780000D01*
X118240000Y-111220000D02*
X113160000Y-111220000D01*
X118240000Y-111220000D02*
X118240000Y-67780000D01*
%TO.C,J6*%
X68284400Y-98597800D02*
X68284400Y-101197800D01*
X65624400Y-101197800D02*
X68284400Y-101197800D01*
X65624400Y-98597800D02*
X68284400Y-98597800D01*
X65624400Y-98597800D02*
X65624400Y-101197800D01*
X65624400Y-97327800D02*
X65624400Y-95997800D01*
X65624400Y-95997800D02*
X66954400Y-95997800D01*
%TO.C,J5*%
X91398400Y-108319800D02*
X90068400Y-108319800D01*
X91398400Y-106989800D02*
X91398400Y-108319800D01*
X91398400Y-105719800D02*
X91398400Y-103119800D01*
X91398400Y-105719800D02*
X88738400Y-105719800D01*
X91398400Y-103119800D02*
X88738400Y-103119800D01*
X88738400Y-105719800D02*
X88738400Y-103119800D01*
%TO.C,J4*%
X91703200Y-97425200D02*
X91703200Y-98755200D01*
X90373200Y-97425200D02*
X91703200Y-97425200D01*
X89103200Y-97425200D02*
X83963200Y-97425200D01*
X89103200Y-97425200D02*
X89103200Y-100085200D01*
X83963200Y-97425200D02*
X83963200Y-100085200D01*
X89103200Y-100085200D02*
X83963200Y-100085200D01*
%TO.C,J2*%
X75701200Y-86410800D02*
X75701200Y-94090800D01*
X73041200Y-94090800D02*
X75701200Y-94090800D01*
X73041200Y-86410800D02*
X75701200Y-86410800D01*
X73041200Y-86410800D02*
X73041200Y-94090800D01*
X73041200Y-85140800D02*
X73041200Y-83810800D01*
X73041200Y-83810800D02*
X74371200Y-83810800D01*
%TO.C,J1*%
X86350800Y-71161600D02*
X87680800Y-71161600D01*
X86350800Y-72491600D02*
X86350800Y-71161600D01*
X86350800Y-73761600D02*
X86350800Y-86521600D01*
X86350800Y-73761600D02*
X88950800Y-73761600D01*
X86350800Y-86521600D02*
X91550800Y-86521600D01*
X88950800Y-71161600D02*
X91550800Y-71161600D01*
X88950800Y-73761600D02*
X88950800Y-71161600D01*
X91550800Y-71161600D02*
X91550800Y-86521600D01*
%TD*%
M02*
