%TF.GenerationSoftware,KiCad,Pcbnew,8.0.1*%
%TF.CreationDate,2024-06-25T09:58:30-03:00*%
%TF.ProjectId,EA075_Optisort,45413037-355f-44f7-9074-69736f72742e,rev?*%
%TF.SameCoordinates,Original*%
%TF.FileFunction,Paste,Top*%
%TF.FilePolarity,Positive*%
%FSLAX46Y46*%
G04 Gerber Fmt 4.6, Leading zero omitted, Abs format (unit mm)*
G04 Created by KiCad (PCBNEW 8.0.1) date 2024-06-25 09:58:30*
%MOMM*%
%LPD*%
G01*
G04 APERTURE LIST*
G04 Aperture macros list*
%AMRoundRect*
0 Rectangle with rounded corners*
0 $1 Rounding radius*
0 $2 $3 $4 $5 $6 $7 $8 $9 X,Y pos of 4 corners*
0 Add a 4 corners polygon primitive as box body*
4,1,4,$2,$3,$4,$5,$6,$7,$8,$9,$2,$3,0*
0 Add four circle primitives for the rounded corners*
1,1,$1+$1,$2,$3*
1,1,$1+$1,$4,$5*
1,1,$1+$1,$6,$7*
1,1,$1+$1,$8,$9*
0 Add four rect primitives between the rounded corners*
20,1,$1+$1,$2,$3,$4,$5,0*
20,1,$1+$1,$4,$5,$6,$7,0*
20,1,$1+$1,$6,$7,$8,$9,0*
20,1,$1+$1,$8,$9,$2,$3,0*%
G04 Aperture macros list end*
%ADD10R,0.298000X1.000000*%
%ADD11R,1.100000X0.500000*%
%ADD12R,2.030000X1.820000*%
%ADD13R,0.750000X1.380000*%
%ADD14C,0.270002*%
%ADD15RoundRect,0.200000X-0.200000X-0.275000X0.200000X-0.275000X0.200000X0.275000X-0.200000X0.275000X0*%
%ADD16RoundRect,0.150000X0.825000X0.150000X-0.825000X0.150000X-0.825000X-0.150000X0.825000X-0.150000X0*%
%ADD17RoundRect,0.200000X0.200000X0.275000X-0.200000X0.275000X-0.200000X-0.275000X0.200000X-0.275000X0*%
%ADD18RoundRect,0.200000X0.275000X-0.200000X0.275000X0.200000X-0.275000X0.200000X-0.275000X-0.200000X0*%
%ADD19R,0.900000X1.000000*%
%ADD20RoundRect,0.218750X-0.256250X0.218750X-0.256250X-0.218750X0.256250X-0.218750X0.256250X0.218750X0*%
%ADD21R,0.300000X0.800000*%
%ADD22R,0.400000X0.800000*%
%ADD23R,0.400000X0.950000*%
%ADD24R,0.300000X0.650000*%
%ADD25R,0.240000X0.350000*%
%ADD26R,0.300000X0.420000*%
%ADD27R,1.100000X0.650000*%
%ADD28R,0.650000X0.650000*%
%ADD29R,0.650000X1.100000*%
%ADD30R,0.500000X0.840000*%
%ADD31R,0.840000X0.500000*%
%ADD32R,0.180000X0.230000*%
%ADD33R,2.740000X2.000000*%
%ADD34R,0.350000X0.500000*%
%ADD35RoundRect,0.225000X0.375000X-0.225000X0.375000X0.225000X-0.375000X0.225000X-0.375000X-0.225000X0*%
%ADD36RoundRect,0.140000X0.140000X0.170000X-0.140000X0.170000X-0.140000X-0.170000X0.140000X-0.170000X0*%
%ADD37RoundRect,0.140000X-0.140000X-0.170000X0.140000X-0.170000X0.140000X0.170000X-0.140000X0.170000X0*%
%ADD38RoundRect,0.140000X0.170000X-0.140000X0.170000X0.140000X-0.170000X0.140000X-0.170000X-0.140000X0*%
%ADD39RoundRect,0.140000X-0.170000X0.140000X-0.170000X-0.140000X0.170000X-0.140000X0.170000X0.140000X0*%
G04 APERTURE END LIST*
D10*
%TO.C,J7*%
X116655000Y-31350000D03*
X116155000Y-31350000D03*
X115655000Y-31350000D03*
X115155000Y-31350000D03*
X114655000Y-31350000D03*
X114155000Y-31350000D03*
X119155000Y-31350000D03*
X120655000Y-31350000D03*
X120155000Y-31350000D03*
X119655000Y-31350000D03*
X118655000Y-31350000D03*
X118155000Y-31350000D03*
X117655000Y-31350000D03*
X117155000Y-31350000D03*
X113655000Y-31350000D03*
X121155000Y-31350000D03*
%TD*%
D11*
%TO.C,D2*%
X121425000Y-74085000D03*
D12*
X121425000Y-75490000D03*
D13*
X121425000Y-77800000D03*
%TD*%
D14*
%TO.C,U1*%
X113425000Y-83300000D03*
X113925000Y-83300000D03*
X114425000Y-83300000D03*
X114925000Y-83300000D03*
X115425000Y-83300000D03*
X115925000Y-83300000D03*
X116425000Y-83300000D03*
X116925000Y-83300000D03*
X117425000Y-83300000D03*
X117925000Y-83300000D03*
X118425000Y-83300000D03*
X118925000Y-83300000D03*
X119425000Y-83300000D03*
X113425000Y-83800000D03*
X113925000Y-83800000D03*
X114425000Y-83800000D03*
X114925000Y-83800000D03*
X115425000Y-83800000D03*
X115925000Y-83800000D03*
X116425000Y-83800000D03*
X116925000Y-83800000D03*
X117425000Y-83800000D03*
X117925000Y-83800000D03*
X118425000Y-83800000D03*
X118925000Y-83800000D03*
X119425000Y-83800000D03*
X113425000Y-84300000D03*
X113925000Y-84300000D03*
X114425000Y-84300000D03*
X114925000Y-84300000D03*
X115425000Y-84300000D03*
X115925000Y-84300000D03*
X116425000Y-84300000D03*
X116925000Y-84300000D03*
X117425000Y-84300000D03*
X117925000Y-84300000D03*
X118425000Y-84300000D03*
X118925000Y-84300000D03*
X119425000Y-84300000D03*
X113425000Y-84800000D03*
X113925000Y-84800000D03*
X114425000Y-84800000D03*
X114925000Y-84800000D03*
X115425000Y-84800000D03*
X115925000Y-84800000D03*
X116425000Y-84800000D03*
X116925000Y-84800000D03*
X117425000Y-84800000D03*
X117925000Y-84800000D03*
X118425000Y-84800000D03*
X118925000Y-84800000D03*
X119425000Y-84800000D03*
X113425000Y-85300000D03*
X113925000Y-85300000D03*
X114425000Y-85300000D03*
X114925000Y-85300000D03*
X115425000Y-85300000D03*
X115925000Y-85300000D03*
X116425000Y-85300000D03*
X116925000Y-85300000D03*
X117425000Y-85300000D03*
X117925000Y-85300000D03*
X118425000Y-85300000D03*
X118925000Y-85300000D03*
X119425000Y-85300000D03*
X113425000Y-85800000D03*
X113925000Y-85800000D03*
X114425000Y-85800000D03*
X114925000Y-85800000D03*
X115425000Y-85800000D03*
X115925000Y-85800000D03*
X116425000Y-85800000D03*
X116925000Y-85800000D03*
X117425000Y-85800000D03*
X117925000Y-85800000D03*
X118425000Y-85800000D03*
X118925000Y-85800000D03*
X119425000Y-85800000D03*
X113425000Y-86300000D03*
X113925000Y-86300000D03*
X114425000Y-86300000D03*
X114925000Y-86300000D03*
X115425000Y-86300000D03*
X115925000Y-86300000D03*
X116425000Y-86300000D03*
X116925000Y-86300000D03*
X117425000Y-86300000D03*
X117925000Y-86300000D03*
X118425000Y-86300000D03*
X118925000Y-86300000D03*
X119425000Y-86300000D03*
X113425000Y-86800000D03*
X113925000Y-86800000D03*
X114425000Y-86800000D03*
X114925000Y-86800000D03*
X115425000Y-86800000D03*
X115925000Y-86800000D03*
X116425000Y-86800000D03*
X116925000Y-86800000D03*
X117425000Y-86800000D03*
X117925000Y-86800000D03*
X118425000Y-86800000D03*
X118925000Y-86800000D03*
X119425000Y-86800000D03*
X113425000Y-87300000D03*
X113925000Y-87300000D03*
X114425000Y-87300000D03*
X114925000Y-87300000D03*
X115425000Y-87300000D03*
X115925000Y-87300000D03*
X116425000Y-87300000D03*
X116925000Y-87300000D03*
X117425000Y-87300000D03*
X117925000Y-87300000D03*
X118425000Y-87300000D03*
X118925000Y-87300000D03*
X119425000Y-87300000D03*
X113425000Y-87800000D03*
X113925000Y-87800000D03*
X114425000Y-87800000D03*
X114925000Y-87800000D03*
X115425000Y-87800000D03*
X115925000Y-87800000D03*
X116425000Y-87800000D03*
X116925000Y-87800000D03*
X117425000Y-87800000D03*
X117925000Y-87800000D03*
X118425000Y-87800000D03*
X118925000Y-87800000D03*
X119425000Y-87800000D03*
X113425000Y-88300000D03*
X113925000Y-88300000D03*
X114425000Y-88300000D03*
X114925000Y-88300000D03*
X115425000Y-88300000D03*
X115925000Y-88300000D03*
X116425000Y-88300000D03*
X116925000Y-88300000D03*
X117425000Y-88300000D03*
X117925000Y-88300000D03*
X118425000Y-88300000D03*
X118925000Y-88300000D03*
X119425000Y-88300000D03*
X113425000Y-88800000D03*
X113925000Y-88800000D03*
X114425000Y-88800000D03*
X114925000Y-88800000D03*
X115425000Y-88800000D03*
X115925000Y-88800000D03*
X116425000Y-88800000D03*
X116925000Y-88800000D03*
X117425000Y-88800000D03*
X117925000Y-88800000D03*
X118425000Y-88800000D03*
X118925000Y-88800000D03*
X119425000Y-88800000D03*
X113425000Y-89300000D03*
X113925000Y-89300000D03*
X114425000Y-89300000D03*
X114925000Y-89300000D03*
X115425000Y-89300000D03*
X115925000Y-89300000D03*
X116425000Y-89300000D03*
X116925000Y-89300000D03*
X117425000Y-89300000D03*
X117925000Y-89300000D03*
X118425000Y-89300000D03*
X118925000Y-89300000D03*
X119425000Y-89300000D03*
%TD*%
D15*
%TO.C,R22*%
X68300000Y-104000000D03*
X69950000Y-104000000D03*
%TD*%
D16*
%TO.C,U2*%
X143750000Y-65810000D03*
X143750000Y-64540000D03*
X143750000Y-63270000D03*
X143750000Y-62000000D03*
X148700000Y-62000000D03*
X148700000Y-63270000D03*
X148700000Y-64540000D03*
X148700000Y-65810000D03*
%TD*%
D17*
%TO.C,R25*%
X113775000Y-34600000D03*
X115425000Y-34600000D03*
%TD*%
D15*
%TO.C,R24*%
X119775000Y-35775000D03*
X121425000Y-35775000D03*
%TD*%
%TO.C,R23*%
X105850000Y-78600000D03*
X107500000Y-78600000D03*
%TD*%
D17*
%TO.C,R21*%
X170425000Y-109400000D03*
X168775000Y-109400000D03*
%TD*%
D15*
%TO.C,R20*%
X161125000Y-104000000D03*
X159475000Y-104000000D03*
%TD*%
%TO.C,R19*%
X105775000Y-88810000D03*
X107425000Y-88810000D03*
%TD*%
%TO.C,R18*%
X105775000Y-86300000D03*
X107425000Y-86300000D03*
%TD*%
%TO.C,R17*%
X105775000Y-83790000D03*
X107425000Y-83790000D03*
%TD*%
%TO.C,R16*%
X66100000Y-68075000D03*
X67750000Y-68075000D03*
%TD*%
%TO.C,R15*%
X160525000Y-97300000D03*
X158875000Y-97300000D03*
%TD*%
D17*
%TO.C,R14*%
X166525000Y-97300000D03*
X164875000Y-97300000D03*
%TD*%
D15*
%TO.C,R13*%
X59900000Y-98500000D03*
X61550000Y-98500000D03*
%TD*%
%TO.C,R12*%
X59950000Y-103400000D03*
X61600000Y-103400000D03*
%TD*%
%TO.C,R11*%
X60000000Y-108000000D03*
X61650000Y-108000000D03*
%TD*%
D18*
%TO.C,R10*%
X155800000Y-77100000D03*
X155800000Y-78750000D03*
%TD*%
D17*
%TO.C,R9*%
X160750000Y-64800000D03*
X159100000Y-64800000D03*
%TD*%
D15*
%TO.C,R8*%
X81300000Y-85100000D03*
X82950000Y-85100000D03*
%TD*%
%TO.C,R7*%
X154100000Y-54800000D03*
X155750000Y-54800000D03*
%TD*%
%TO.C,R6*%
X154100000Y-64800000D03*
X155750000Y-64800000D03*
%TD*%
%TO.C,R5*%
X154275000Y-59800000D03*
X155925000Y-59800000D03*
%TD*%
%TO.C,R4*%
X81450000Y-90000000D03*
X83100000Y-90000000D03*
%TD*%
%TO.C,R3*%
X81400000Y-97700000D03*
X83050000Y-97700000D03*
%TD*%
D18*
%TO.C,R2*%
X125200000Y-83525000D03*
X125200000Y-81875000D03*
%TD*%
D15*
%TO.C,R1*%
X154100000Y-69800000D03*
X155750000Y-69800000D03*
%TD*%
D19*
%TO.C,L2*%
X168100000Y-93900000D03*
X169700000Y-93900000D03*
%TD*%
D20*
%TO.C,L1*%
X170200000Y-100775000D03*
X170200000Y-99200000D03*
%TD*%
D21*
%TO.C,J6*%
X68135000Y-108550000D03*
X68635000Y-108550000D03*
X69135000Y-108550000D03*
X69635000Y-108550000D03*
X70135000Y-108550000D03*
X70635000Y-108550000D03*
D22*
X67135000Y-111050000D03*
X71635000Y-111050000D03*
%TD*%
D23*
%TO.C,J4*%
X160625000Y-113825000D03*
X169225000Y-113825000D03*
D21*
X161325000Y-113550000D03*
D24*
X161625000Y-116425000D03*
D21*
X161925000Y-113550000D03*
D24*
X162225000Y-116425000D03*
D21*
X162525000Y-113550000D03*
D24*
X162825000Y-116425000D03*
D21*
X163125000Y-113550000D03*
D24*
X163425000Y-116425000D03*
D21*
X163725000Y-113550000D03*
D24*
X164025000Y-116425000D03*
D21*
X164325000Y-113550000D03*
D24*
X164625000Y-116425000D03*
D21*
X164925000Y-113550000D03*
D24*
X165225000Y-116425000D03*
D21*
X165525000Y-113550000D03*
D24*
X165825000Y-116425000D03*
D21*
X166125000Y-113550000D03*
D24*
X166425000Y-116425000D03*
D21*
X166725000Y-113550000D03*
D24*
X167025000Y-116425000D03*
D21*
X167325000Y-113550000D03*
D24*
X167625000Y-116425000D03*
D21*
X167925000Y-113550000D03*
D24*
X168225000Y-116425000D03*
D21*
X168525000Y-113550000D03*
%TD*%
D25*
%TO.C,J3*%
X128875000Y-101999999D03*
X129275000Y-101999999D03*
X129675000Y-101999999D03*
X130075000Y-101999999D03*
X130475000Y-101999999D03*
X130875000Y-101999999D03*
X131275000Y-101999999D03*
X131675000Y-101999999D03*
X132075000Y-101999999D03*
X132475000Y-101999999D03*
X132875000Y-101999999D03*
X133275000Y-101999999D03*
X133275000Y-99950001D03*
X132875000Y-99950001D03*
X132475000Y-99950001D03*
X132075000Y-99950001D03*
X131675000Y-99950001D03*
X131275000Y-99950001D03*
X130875000Y-99950001D03*
X130475000Y-99950001D03*
X130075000Y-99950001D03*
X129675000Y-99950001D03*
X129275000Y-99950001D03*
X128875000Y-99950001D03*
D26*
X133905000Y-101455000D03*
X128245000Y-101455000D03*
X133905000Y-100495000D03*
X128245000Y-100495000D03*
%TD*%
D27*
%TO.C,J2*%
X69080000Y-87170000D03*
D28*
X70205000Y-87170000D03*
X71105000Y-87170000D03*
X72005000Y-87170000D03*
X72905000Y-87170000D03*
X73805000Y-87170000D03*
X74705000Y-87170000D03*
X75605000Y-87170000D03*
D27*
X76730000Y-87170000D03*
D29*
X78210000Y-88650000D03*
D28*
X78210000Y-89775000D03*
X78210000Y-90675000D03*
X78210000Y-91575000D03*
X78210000Y-92475000D03*
X78210000Y-93375000D03*
X78210000Y-94275000D03*
X78210000Y-95175000D03*
D29*
X78210000Y-96300000D03*
D27*
X76730000Y-97780000D03*
D28*
X75605000Y-97780000D03*
X74705000Y-97780000D03*
X73805000Y-97780000D03*
X72905000Y-97780000D03*
X72005000Y-97780000D03*
X71105000Y-97780000D03*
X70205000Y-97780000D03*
D27*
X69080000Y-97780000D03*
D29*
X67600000Y-96300000D03*
D28*
X67600000Y-95175000D03*
X67600000Y-94275000D03*
X67600000Y-93375000D03*
X67600000Y-92475000D03*
X67600000Y-91575000D03*
X67600000Y-90675000D03*
X67600000Y-89775000D03*
D29*
X67600000Y-88650000D03*
D30*
X69755000Y-88165000D03*
X70655000Y-88165000D03*
X71555000Y-88165000D03*
X72455000Y-88165000D03*
X73355000Y-88165000D03*
X74255000Y-88165000D03*
X75155000Y-88165000D03*
X76055000Y-88165000D03*
D31*
X77215000Y-89325000D03*
X77215000Y-90225000D03*
X77215000Y-91125000D03*
X77215000Y-92025000D03*
X77215000Y-92925000D03*
X77215000Y-93825000D03*
X77215000Y-94725000D03*
X77215000Y-95625000D03*
D30*
X76055000Y-96785000D03*
X75155000Y-96785000D03*
X74255000Y-96785000D03*
X73355000Y-96785000D03*
X72455000Y-96785000D03*
X71555000Y-96785000D03*
X70655000Y-96785000D03*
X69755000Y-96785000D03*
D31*
X68595000Y-95625000D03*
X68595000Y-94725000D03*
X68595000Y-93825000D03*
X68595000Y-92925000D03*
X68595000Y-92025000D03*
X68595000Y-91125000D03*
X68595000Y-90225000D03*
X68595000Y-89325000D03*
%TD*%
D32*
%TO.C,IC1*%
X164780000Y-103050000D03*
X164780000Y-102400000D03*
X167700000Y-102400000D03*
X167700000Y-103050000D03*
D33*
X166240000Y-102725000D03*
D34*
X167215000Y-104025000D03*
X166565000Y-104025000D03*
X165915000Y-104025000D03*
X165265000Y-104025000D03*
X165265000Y-101425000D03*
X165915000Y-101425000D03*
X166565000Y-101425000D03*
X167215000Y-101425000D03*
%TD*%
D35*
%TO.C,D1*%
X160500000Y-76400000D03*
X160500000Y-79700000D03*
%TD*%
D36*
%TO.C,C22*%
X116700000Y-71500000D03*
X117660000Y-71500000D03*
%TD*%
D37*
%TO.C,C21*%
X121115000Y-110650000D03*
X122075000Y-110650000D03*
%TD*%
D36*
%TO.C,C20*%
X165380000Y-108500000D03*
X164420000Y-108500000D03*
%TD*%
D38*
%TO.C,C19*%
X159400000Y-109560000D03*
X159400000Y-108600000D03*
%TD*%
D39*
%TO.C,C18*%
X170100000Y-104760000D03*
X170100000Y-103800000D03*
%TD*%
D37*
%TO.C,C17*%
X164280000Y-92400000D03*
X163320000Y-92400000D03*
%TD*%
%TO.C,C16*%
X72840000Y-104100000D03*
X73800000Y-104100000D03*
%TD*%
%TO.C,C15*%
X113240000Y-76900000D03*
X114200000Y-76900000D03*
%TD*%
%TO.C,C14*%
X109965000Y-86300000D03*
X110925000Y-86300000D03*
%TD*%
%TO.C,C13*%
X109945000Y-87800000D03*
X110905000Y-87800000D03*
%TD*%
%TO.C,C12*%
X109945000Y-84800000D03*
X110905000Y-84800000D03*
%TD*%
%TO.C,C11*%
X109925000Y-81800000D03*
X110885000Y-81800000D03*
%TD*%
D36*
%TO.C,C10*%
X120905000Y-68800000D03*
X121865000Y-68800000D03*
%TD*%
D37*
%TO.C,C9*%
X109445000Y-91800000D03*
X110405000Y-91800000D03*
%TD*%
D39*
%TO.C,C8*%
X135295000Y-102305000D03*
X135295000Y-101345000D03*
%TD*%
D37*
%TO.C,C7*%
X133275000Y-103805000D03*
X132315000Y-103805000D03*
%TD*%
%TO.C,C6*%
X129775000Y-103805000D03*
X128815000Y-103805000D03*
%TD*%
%TO.C,C5*%
X81700000Y-93800000D03*
X82660000Y-93800000D03*
%TD*%
%TO.C,C4*%
X78840000Y-83400000D03*
X79800000Y-83400000D03*
%TD*%
D36*
%TO.C,C3*%
X76600000Y-99400000D03*
X75640000Y-99400000D03*
%TD*%
M02*
