M48
; DRILL file {KiCad 8.0.1} date 2024-06-25T09:58:46-0300
; FORMAT={-:-/ absolute / inch / decimal}
; #@! TF.CreationDate,2024-06-25T09:58:46-03:00
; #@! TF.GenerationSoftware,Kicad,Pcbnew,8.0.1
; #@! TF.FileFunction,Plated,1,2,PTH
FMAT,2
INCH
; #@! TA.AperFunction,Plated,PTH,ViaDrill
T1C0.0024
; #@! TA.AperFunction,Plated,PTH,ComponentDrill
T2C0.0315
; #@! TA.AperFunction,Plated,PTH,ComponentDrill
T3C0.0400
; #@! TA.AperFunction,Plated,PTH,ComponentDrill
T4C0.0433
; #@! TA.AperFunction,Plated,PTH,ComponentDrill
T5C0.0598
%
G90
G05
T1
X2.3807Y-3.8823
X2.381Y-4.0709
X2.3826Y-4.2597
X2.6673Y-4.1051
X2.6811Y-3.9213
X2.6918Y-4.283
X2.6928Y-4.2736
X2.7009Y-4.0709
X2.712Y-4.2728
X2.7367Y-4.1118
X2.7527Y-4.2549
X2.7809Y-4.2549
X2.7817Y-3.7909
X2.7857Y-4.0984
X2.7904Y-3.7133
X2.7942Y-4.3533
X2.916Y-2.7495
X2.916Y-3.2183
X2.9339Y-3.5876
X2.9397Y-3.8104
X2.9449Y-3.83
X2.9596Y-3.497
X2.9596Y-3.5167
X2.9714Y-3.4515
X2.9769Y-3.7909
X2.9783Y-3.9286
X2.984Y-3.83
X2.9944Y-4.0385
X3.0056Y-3.8778
X3.0326Y-3.5699
X3.0575Y-3.5344
X3.0595Y-3.6939
X3.06Y-3.4616
X3.0614Y-3.623
X3.062Y-3.5187
X3.0633Y-3.5699
X3.0633Y-3.6088
X3.097Y-3.6228
X3.1289Y-3.4291
X3.1443Y-3.3504
X3.1511Y-3.5697
X3.1523Y-3.6155
X3.1613Y-3.5779
X3.1801Y-3.4291
X3.1902Y-3.2964
X3.2057Y-3.4291
X3.2132Y-3.3816
X3.242Y-3.3263
X3.2528Y-3.5394
X3.315Y-3.4291
X3.4644Y-2.5152
X3.4907Y-3.9486
X3.4976Y-2.4763
X3.6984Y-3.5315
X3.7777Y-1.4215
X3.8087Y-3.5779
X3.921Y-3.4356
X4.2085Y-1.4606
X4.2387Y-3.5737
X4.2698Y-3.7872
X4.3251Y-3.6142
X4.3414Y-3.4693
X4.3415Y-3.4098
X4.3419Y-3.4176
X4.3441Y-3.4304
X4.3559Y-4.2436
X4.3964Y-1.3745
X4.3977Y-3.0945
X4.399Y-3.6142
X4.4621Y-3.2894
X4.4676Y-3.3484
X4.4739Y-3.2793
X4.4739Y-3.4173
X4.4754Y-3.378
X4.4772Y-3.023
X4.4786Y-3.3292
X4.4811Y-3.5454
X4.4812Y-3.4093
X4.4828Y-3.31
X4.4829Y-1.257
X4.4951Y-3.2844
X4.4951Y-3.3185
X4.4951Y-3.4665
X4.4983Y-1.3622
X4.5041Y-3.2699
X4.5055Y-3.4862
X4.5148Y-3.4574
X4.5148Y-3.518
X4.5202Y-3.5315
X4.5314Y-3.1306
X4.5335Y-3.5026
X4.5344Y-3.3221
X4.5344Y-3.3404
X4.5344Y-3.4361
X4.5345Y-3.3122
X4.5353Y-3.3626
X4.5551Y-3.3524
X4.5556Y-3.4205
X4.5606Y-3.4272
X4.5635Y-2.8302
X4.5636Y-1.3622
X4.573Y-1.257
X4.5738Y-3.3185
X4.5756Y-3.9033
X4.5758Y-3.1683
X4.5935Y-3.3221
X4.5983Y-3.0219
X4.6059Y-3.9121
X4.6087Y-2.815
X4.6096Y-3.5063
X4.6122Y-3.4429
X4.6138Y-3.9251
X4.627Y-1.2766
X4.6316Y-3.2389
X4.6319Y-1.2992
X4.6329Y-3.3594
X4.6329Y-3.4961
X4.6329Y-3.2894
X4.6358Y-1.2618
X4.6365Y-3.3127
X4.6381Y-3.5253
X4.6487Y-3.3839
X4.6506Y-3.3484
X4.651Y-3.4799
X4.6547Y-3.4664
X4.6572Y-3.3299
X4.6575Y-3.4262
X4.6654Y-1.2884
X4.6722Y-3.3969
X4.6734Y-3.378
X4.6741Y-3.3545
X4.6759Y-3.305
X4.6762Y-3.3248
X4.6767Y-3.2896
X4.6781Y-1.3474
X4.6797Y-3.4075
X4.6837Y-3.3878
X4.6864Y-3.4841
X4.687Y-3.247
X4.6886Y-3.4638
X4.6909Y-1.257
X4.6912Y-3.3177
X4.6917Y-3.4496
X4.6919Y-3.3616
X4.6919Y-3.457
X4.7047Y-3.2896
X4.7057Y-3.247
X4.7087Y-3.45
X4.7106Y-3.4698
X4.7145Y-3.4173
X4.7189Y-3.4126
X4.7222Y-3.3031
X4.7222Y-3.3224
X4.7222Y-3.5019
X4.7293Y-3.2707
X4.7314Y-3.536
X4.7345Y-1.4085
X4.7364Y-2.5745
X4.7392Y-3.4852
X4.7439Y-2.606
X4.75Y-1.3337
X4.75Y-1.3583
X4.7538Y-1.3841
X4.7687Y-3.2953
X4.7705Y-3.935
X4.7713Y-3.3299
X4.7743Y-2.7
X4.7863Y-4.3409
X4.792Y-4.3563
X4.7926Y-3.9195
X4.7939Y-4.1557
X4.7971Y-3.6088
X4.7999Y-3.3471
X4.842Y-3.4126
X4.8442Y-2.7795
X4.8597Y-3.8899
X4.8871Y-3.4658
X4.9071Y-3.3681
X4.9092Y-3.4961
X4.9594Y-3.9452
X4.9749Y-2.4144
X4.9789Y-1.3484
X4.9881Y-2.972
X5.0285Y-3.45
X5.0396Y-2.6873
X5.0439Y-3.9121
X5.0621Y-3.4453
X5.0817Y-4.0157
X5.0976Y-3.935
X5.1013Y-4.0257
X5.1131Y-4.0179
X5.1283Y-4.0257
X5.1446Y-3.935
X5.1447Y-4.0157
X5.1485Y-3.5307
X5.1485Y-3.6088
X5.1574Y-4.556
X5.1606Y-3.935
X5.1741Y-3.9249
X5.1762Y-4.0157
X5.1795Y-3.6479
X5.1918Y-4.0157
X5.2124Y-4.5638
X5.2209Y-3.2964
X5.2313Y-3.9248
X5.2548Y-4.0157
X5.2601Y-3.2593
X5.4368Y-4.5995
X5.7923Y-3.0219
X5.8696Y-2.6211
X5.9318Y-2.1957
X5.9318Y-2.3878
X5.9718Y-2.5159
X6.0101Y-2.7495
X6.052Y-2.3762
X6.074Y-3.4272
X6.0793Y-3.437
X6.0954Y-2.1637
X6.1065Y-3.4698
X6.1121Y-2.5419
X6.1121Y-2.55
X6.1129Y-2.7495
X6.1133Y-3.0214
X6.117Y-2.3575
X6.1695Y-3.1011
X6.3033Y-4.5678
X6.3252Y-3.062
X6.3331Y-3.0341
X6.3496Y-3.0079
X6.375Y-4.4892
X6.3824Y-3.8856
X6.3899Y-3.9994
X6.4018Y-3.2964
X6.4061Y-4.1557
X6.43Y-2.6211
X6.4409Y-3.8041
X6.4409Y-4.2756
X6.4441Y-3.6378
X6.4874Y-4.0647
X6.4947Y-4.5603
X6.4966Y-4.5678
X6.497Y-4.3311
X6.5049Y-4.497
X6.5093Y-4.2564
X6.5222Y-4.0955
X6.5255Y-4.1244
X6.5475Y-4.1097
X6.5876Y-4.4892
X6.5974Y-3.6969
X6.5976Y-4.3119
X6.6025Y-4.4517
X6.6405Y-3.9641
T2
X5.122Y-2.7165
X5.122Y-2.8425
X5.2205Y-2.7165
X5.2205Y-2.8425
X5.3189Y-2.7165
X5.3189Y-2.8425
T3
X6.2173Y-3.4291
X6.3173Y-3.4291
X6.4173Y-3.4291
T4
X3.5591Y-3.3031
X3.5591Y-3.4803
X3.815Y-3.3031
X3.815Y-3.4803
T5
X3.1173Y-1.748
X3.3173Y-1.748
X3.5173Y-1.748
X3.7173Y-1.748
X3.9173Y-1.748
X4.1173Y-1.748
X6.5945Y-2.9882
X6.5945Y-3.1882
X6.6112Y-2.1575
X6.6112Y-2.3575
X6.6112Y-2.5575
M30
