%TF.GenerationSoftware,KiCad,Pcbnew,8.0.1*%
%TF.CreationDate,2024-06-25T09:58:30-03:00*%
%TF.ProjectId,EA075_Optisort,45413037-355f-44f7-9074-69736f72742e,rev?*%
%TF.SameCoordinates,Original*%
%TF.FileFunction,Legend,Top*%
%TF.FilePolarity,Positive*%
%FSLAX46Y46*%
G04 Gerber Fmt 4.6, Leading zero omitted, Abs format (unit mm)*
G04 Created by KiCad (PCBNEW 8.0.1) date 2024-06-25 09:58:30*
%MOMM*%
%LPD*%
G01*
G04 APERTURE LIST*
%ADD10C,0.150000*%
%ADD11C,0.254000*%
%ADD12C,0.100000*%
%ADD13C,0.120000*%
%ADD14C,0.010000*%
%ADD15C,0.127000*%
%ADD16C,0.200000*%
%ADD17C,0.250000*%
G04 APERTURE END LIST*
D10*
X114909166Y-32612319D02*
X114909166Y-33326604D01*
X114909166Y-33326604D02*
X114861547Y-33469461D01*
X114861547Y-33469461D02*
X114766309Y-33564700D01*
X114766309Y-33564700D02*
X114623452Y-33612319D01*
X114623452Y-33612319D02*
X114528214Y-33612319D01*
X115290119Y-32612319D02*
X115956785Y-32612319D01*
X115956785Y-32612319D02*
X115528214Y-33612319D01*
D11*
X124574318Y-79012381D02*
X123304318Y-79012381D01*
X123304318Y-79012381D02*
X123304318Y-78710000D01*
X123304318Y-78710000D02*
X123364794Y-78528571D01*
X123364794Y-78528571D02*
X123485746Y-78407619D01*
X123485746Y-78407619D02*
X123606699Y-78347142D01*
X123606699Y-78347142D02*
X123848603Y-78286666D01*
X123848603Y-78286666D02*
X124030032Y-78286666D01*
X124030032Y-78286666D02*
X124271937Y-78347142D01*
X124271937Y-78347142D02*
X124392889Y-78407619D01*
X124392889Y-78407619D02*
X124513842Y-78528571D01*
X124513842Y-78528571D02*
X124574318Y-78710000D01*
X124574318Y-78710000D02*
X124574318Y-79012381D01*
X123425270Y-77802857D02*
X123364794Y-77742381D01*
X123364794Y-77742381D02*
X123304318Y-77621428D01*
X123304318Y-77621428D02*
X123304318Y-77319047D01*
X123304318Y-77319047D02*
X123364794Y-77198095D01*
X123364794Y-77198095D02*
X123425270Y-77137619D01*
X123425270Y-77137619D02*
X123546222Y-77077142D01*
X123546222Y-77077142D02*
X123667175Y-77077142D01*
X123667175Y-77077142D02*
X123848603Y-77137619D01*
X123848603Y-77137619D02*
X124574318Y-77863333D01*
X124574318Y-77863333D02*
X124574318Y-77077142D01*
D10*
X115663095Y-81254819D02*
X115663095Y-82064342D01*
X115663095Y-82064342D02*
X115710714Y-82159580D01*
X115710714Y-82159580D02*
X115758333Y-82207200D01*
X115758333Y-82207200D02*
X115853571Y-82254819D01*
X115853571Y-82254819D02*
X116044047Y-82254819D01*
X116044047Y-82254819D02*
X116139285Y-82207200D01*
X116139285Y-82207200D02*
X116186904Y-82159580D01*
X116186904Y-82159580D02*
X116234523Y-82064342D01*
X116234523Y-82064342D02*
X116234523Y-81254819D01*
X117234523Y-82254819D02*
X116663095Y-82254819D01*
X116948809Y-82254819D02*
X116948809Y-81254819D01*
X116948809Y-81254819D02*
X116853571Y-81397676D01*
X116853571Y-81397676D02*
X116758333Y-81492914D01*
X116758333Y-81492914D02*
X116663095Y-81540533D01*
X68482142Y-103024819D02*
X68148809Y-102548628D01*
X67910714Y-103024819D02*
X67910714Y-102024819D01*
X67910714Y-102024819D02*
X68291666Y-102024819D01*
X68291666Y-102024819D02*
X68386904Y-102072438D01*
X68386904Y-102072438D02*
X68434523Y-102120057D01*
X68434523Y-102120057D02*
X68482142Y-102215295D01*
X68482142Y-102215295D02*
X68482142Y-102358152D01*
X68482142Y-102358152D02*
X68434523Y-102453390D01*
X68434523Y-102453390D02*
X68386904Y-102501009D01*
X68386904Y-102501009D02*
X68291666Y-102548628D01*
X68291666Y-102548628D02*
X67910714Y-102548628D01*
X68863095Y-102120057D02*
X68910714Y-102072438D01*
X68910714Y-102072438D02*
X69005952Y-102024819D01*
X69005952Y-102024819D02*
X69244047Y-102024819D01*
X69244047Y-102024819D02*
X69339285Y-102072438D01*
X69339285Y-102072438D02*
X69386904Y-102120057D01*
X69386904Y-102120057D02*
X69434523Y-102215295D01*
X69434523Y-102215295D02*
X69434523Y-102310533D01*
X69434523Y-102310533D02*
X69386904Y-102453390D01*
X69386904Y-102453390D02*
X68815476Y-103024819D01*
X68815476Y-103024819D02*
X69434523Y-103024819D01*
X69815476Y-102120057D02*
X69863095Y-102072438D01*
X69863095Y-102072438D02*
X69958333Y-102024819D01*
X69958333Y-102024819D02*
X70196428Y-102024819D01*
X70196428Y-102024819D02*
X70291666Y-102072438D01*
X70291666Y-102072438D02*
X70339285Y-102120057D01*
X70339285Y-102120057D02*
X70386904Y-102215295D01*
X70386904Y-102215295D02*
X70386904Y-102310533D01*
X70386904Y-102310533D02*
X70339285Y-102453390D01*
X70339285Y-102453390D02*
X69767857Y-103024819D01*
X69767857Y-103024819D02*
X70386904Y-103024819D01*
X92316667Y-82307200D02*
X92459524Y-82354819D01*
X92459524Y-82354819D02*
X92697619Y-82354819D01*
X92697619Y-82354819D02*
X92792857Y-82307200D01*
X92792857Y-82307200D02*
X92840476Y-82259580D01*
X92840476Y-82259580D02*
X92888095Y-82164342D01*
X92888095Y-82164342D02*
X92888095Y-82069104D01*
X92888095Y-82069104D02*
X92840476Y-81973866D01*
X92840476Y-81973866D02*
X92792857Y-81926247D01*
X92792857Y-81926247D02*
X92697619Y-81878628D01*
X92697619Y-81878628D02*
X92507143Y-81831009D01*
X92507143Y-81831009D02*
X92411905Y-81783390D01*
X92411905Y-81783390D02*
X92364286Y-81735771D01*
X92364286Y-81735771D02*
X92316667Y-81640533D01*
X92316667Y-81640533D02*
X92316667Y-81545295D01*
X92316667Y-81545295D02*
X92364286Y-81450057D01*
X92364286Y-81450057D02*
X92411905Y-81402438D01*
X92411905Y-81402438D02*
X92507143Y-81354819D01*
X92507143Y-81354819D02*
X92745238Y-81354819D01*
X92745238Y-81354819D02*
X92888095Y-81402438D01*
X93221429Y-81354819D02*
X93459524Y-82354819D01*
X93459524Y-82354819D02*
X93650000Y-81640533D01*
X93650000Y-81640533D02*
X93840476Y-82354819D01*
X93840476Y-82354819D02*
X94078572Y-81354819D01*
X94411905Y-81450057D02*
X94459524Y-81402438D01*
X94459524Y-81402438D02*
X94554762Y-81354819D01*
X94554762Y-81354819D02*
X94792857Y-81354819D01*
X94792857Y-81354819D02*
X94888095Y-81402438D01*
X94888095Y-81402438D02*
X94935714Y-81450057D01*
X94935714Y-81450057D02*
X94983333Y-81545295D01*
X94983333Y-81545295D02*
X94983333Y-81640533D01*
X94983333Y-81640533D02*
X94935714Y-81783390D01*
X94935714Y-81783390D02*
X94364286Y-82354819D01*
X94364286Y-82354819D02*
X94983333Y-82354819D01*
X91641666Y-48679819D02*
X91641666Y-49394104D01*
X91641666Y-49394104D02*
X91594047Y-49536961D01*
X91594047Y-49536961D02*
X91498809Y-49632200D01*
X91498809Y-49632200D02*
X91355952Y-49679819D01*
X91355952Y-49679819D02*
X91260714Y-49679819D01*
X92260714Y-49108390D02*
X92165476Y-49060771D01*
X92165476Y-49060771D02*
X92117857Y-49013152D01*
X92117857Y-49013152D02*
X92070238Y-48917914D01*
X92070238Y-48917914D02*
X92070238Y-48870295D01*
X92070238Y-48870295D02*
X92117857Y-48775057D01*
X92117857Y-48775057D02*
X92165476Y-48727438D01*
X92165476Y-48727438D02*
X92260714Y-48679819D01*
X92260714Y-48679819D02*
X92451190Y-48679819D01*
X92451190Y-48679819D02*
X92546428Y-48727438D01*
X92546428Y-48727438D02*
X92594047Y-48775057D01*
X92594047Y-48775057D02*
X92641666Y-48870295D01*
X92641666Y-48870295D02*
X92641666Y-48917914D01*
X92641666Y-48917914D02*
X92594047Y-49013152D01*
X92594047Y-49013152D02*
X92546428Y-49060771D01*
X92546428Y-49060771D02*
X92451190Y-49108390D01*
X92451190Y-49108390D02*
X92260714Y-49108390D01*
X92260714Y-49108390D02*
X92165476Y-49156009D01*
X92165476Y-49156009D02*
X92117857Y-49203628D01*
X92117857Y-49203628D02*
X92070238Y-49298866D01*
X92070238Y-49298866D02*
X92070238Y-49489342D01*
X92070238Y-49489342D02*
X92117857Y-49584580D01*
X92117857Y-49584580D02*
X92165476Y-49632200D01*
X92165476Y-49632200D02*
X92260714Y-49679819D01*
X92260714Y-49679819D02*
X92451190Y-49679819D01*
X92451190Y-49679819D02*
X92546428Y-49632200D01*
X92546428Y-49632200D02*
X92594047Y-49584580D01*
X92594047Y-49584580D02*
X92641666Y-49489342D01*
X92641666Y-49489342D02*
X92641666Y-49298866D01*
X92641666Y-49298866D02*
X92594047Y-49203628D01*
X92594047Y-49203628D02*
X92546428Y-49156009D01*
X92546428Y-49156009D02*
X92451190Y-49108390D01*
X145463095Y-67129819D02*
X145463095Y-67939342D01*
X145463095Y-67939342D02*
X145510714Y-68034580D01*
X145510714Y-68034580D02*
X145558333Y-68082200D01*
X145558333Y-68082200D02*
X145653571Y-68129819D01*
X145653571Y-68129819D02*
X145844047Y-68129819D01*
X145844047Y-68129819D02*
X145939285Y-68082200D01*
X145939285Y-68082200D02*
X145986904Y-68034580D01*
X145986904Y-68034580D02*
X146034523Y-67939342D01*
X146034523Y-67939342D02*
X146034523Y-67129819D01*
X146463095Y-67225057D02*
X146510714Y-67177438D01*
X146510714Y-67177438D02*
X146605952Y-67129819D01*
X146605952Y-67129819D02*
X146844047Y-67129819D01*
X146844047Y-67129819D02*
X146939285Y-67177438D01*
X146939285Y-67177438D02*
X146986904Y-67225057D01*
X146986904Y-67225057D02*
X147034523Y-67320295D01*
X147034523Y-67320295D02*
X147034523Y-67415533D01*
X147034523Y-67415533D02*
X146986904Y-67558390D01*
X146986904Y-67558390D02*
X146415476Y-68129819D01*
X146415476Y-68129819D02*
X147034523Y-68129819D01*
X113957142Y-36484819D02*
X113623809Y-36008628D01*
X113385714Y-36484819D02*
X113385714Y-35484819D01*
X113385714Y-35484819D02*
X113766666Y-35484819D01*
X113766666Y-35484819D02*
X113861904Y-35532438D01*
X113861904Y-35532438D02*
X113909523Y-35580057D01*
X113909523Y-35580057D02*
X113957142Y-35675295D01*
X113957142Y-35675295D02*
X113957142Y-35818152D01*
X113957142Y-35818152D02*
X113909523Y-35913390D01*
X113909523Y-35913390D02*
X113861904Y-35961009D01*
X113861904Y-35961009D02*
X113766666Y-36008628D01*
X113766666Y-36008628D02*
X113385714Y-36008628D01*
X114338095Y-35580057D02*
X114385714Y-35532438D01*
X114385714Y-35532438D02*
X114480952Y-35484819D01*
X114480952Y-35484819D02*
X114719047Y-35484819D01*
X114719047Y-35484819D02*
X114814285Y-35532438D01*
X114814285Y-35532438D02*
X114861904Y-35580057D01*
X114861904Y-35580057D02*
X114909523Y-35675295D01*
X114909523Y-35675295D02*
X114909523Y-35770533D01*
X114909523Y-35770533D02*
X114861904Y-35913390D01*
X114861904Y-35913390D02*
X114290476Y-36484819D01*
X114290476Y-36484819D02*
X114909523Y-36484819D01*
X115814285Y-35484819D02*
X115338095Y-35484819D01*
X115338095Y-35484819D02*
X115290476Y-35961009D01*
X115290476Y-35961009D02*
X115338095Y-35913390D01*
X115338095Y-35913390D02*
X115433333Y-35865771D01*
X115433333Y-35865771D02*
X115671428Y-35865771D01*
X115671428Y-35865771D02*
X115766666Y-35913390D01*
X115766666Y-35913390D02*
X115814285Y-35961009D01*
X115814285Y-35961009D02*
X115861904Y-36056247D01*
X115861904Y-36056247D02*
X115861904Y-36294342D01*
X115861904Y-36294342D02*
X115814285Y-36389580D01*
X115814285Y-36389580D02*
X115766666Y-36437200D01*
X115766666Y-36437200D02*
X115671428Y-36484819D01*
X115671428Y-36484819D02*
X115433333Y-36484819D01*
X115433333Y-36484819D02*
X115338095Y-36437200D01*
X115338095Y-36437200D02*
X115290476Y-36389580D01*
X119957142Y-34799819D02*
X119623809Y-34323628D01*
X119385714Y-34799819D02*
X119385714Y-33799819D01*
X119385714Y-33799819D02*
X119766666Y-33799819D01*
X119766666Y-33799819D02*
X119861904Y-33847438D01*
X119861904Y-33847438D02*
X119909523Y-33895057D01*
X119909523Y-33895057D02*
X119957142Y-33990295D01*
X119957142Y-33990295D02*
X119957142Y-34133152D01*
X119957142Y-34133152D02*
X119909523Y-34228390D01*
X119909523Y-34228390D02*
X119861904Y-34276009D01*
X119861904Y-34276009D02*
X119766666Y-34323628D01*
X119766666Y-34323628D02*
X119385714Y-34323628D01*
X120338095Y-33895057D02*
X120385714Y-33847438D01*
X120385714Y-33847438D02*
X120480952Y-33799819D01*
X120480952Y-33799819D02*
X120719047Y-33799819D01*
X120719047Y-33799819D02*
X120814285Y-33847438D01*
X120814285Y-33847438D02*
X120861904Y-33895057D01*
X120861904Y-33895057D02*
X120909523Y-33990295D01*
X120909523Y-33990295D02*
X120909523Y-34085533D01*
X120909523Y-34085533D02*
X120861904Y-34228390D01*
X120861904Y-34228390D02*
X120290476Y-34799819D01*
X120290476Y-34799819D02*
X120909523Y-34799819D01*
X121766666Y-34133152D02*
X121766666Y-34799819D01*
X121528571Y-33752200D02*
X121290476Y-34466485D01*
X121290476Y-34466485D02*
X121909523Y-34466485D01*
X106032142Y-77624819D02*
X105698809Y-77148628D01*
X105460714Y-77624819D02*
X105460714Y-76624819D01*
X105460714Y-76624819D02*
X105841666Y-76624819D01*
X105841666Y-76624819D02*
X105936904Y-76672438D01*
X105936904Y-76672438D02*
X105984523Y-76720057D01*
X105984523Y-76720057D02*
X106032142Y-76815295D01*
X106032142Y-76815295D02*
X106032142Y-76958152D01*
X106032142Y-76958152D02*
X105984523Y-77053390D01*
X105984523Y-77053390D02*
X105936904Y-77101009D01*
X105936904Y-77101009D02*
X105841666Y-77148628D01*
X105841666Y-77148628D02*
X105460714Y-77148628D01*
X106413095Y-76720057D02*
X106460714Y-76672438D01*
X106460714Y-76672438D02*
X106555952Y-76624819D01*
X106555952Y-76624819D02*
X106794047Y-76624819D01*
X106794047Y-76624819D02*
X106889285Y-76672438D01*
X106889285Y-76672438D02*
X106936904Y-76720057D01*
X106936904Y-76720057D02*
X106984523Y-76815295D01*
X106984523Y-76815295D02*
X106984523Y-76910533D01*
X106984523Y-76910533D02*
X106936904Y-77053390D01*
X106936904Y-77053390D02*
X106365476Y-77624819D01*
X106365476Y-77624819D02*
X106984523Y-77624819D01*
X107317857Y-76624819D02*
X107936904Y-76624819D01*
X107936904Y-76624819D02*
X107603571Y-77005771D01*
X107603571Y-77005771D02*
X107746428Y-77005771D01*
X107746428Y-77005771D02*
X107841666Y-77053390D01*
X107841666Y-77053390D02*
X107889285Y-77101009D01*
X107889285Y-77101009D02*
X107936904Y-77196247D01*
X107936904Y-77196247D02*
X107936904Y-77434342D01*
X107936904Y-77434342D02*
X107889285Y-77529580D01*
X107889285Y-77529580D02*
X107841666Y-77577200D01*
X107841666Y-77577200D02*
X107746428Y-77624819D01*
X107746428Y-77624819D02*
X107460714Y-77624819D01*
X107460714Y-77624819D02*
X107365476Y-77577200D01*
X107365476Y-77577200D02*
X107317857Y-77529580D01*
X168957142Y-111284819D02*
X168623809Y-110808628D01*
X168385714Y-111284819D02*
X168385714Y-110284819D01*
X168385714Y-110284819D02*
X168766666Y-110284819D01*
X168766666Y-110284819D02*
X168861904Y-110332438D01*
X168861904Y-110332438D02*
X168909523Y-110380057D01*
X168909523Y-110380057D02*
X168957142Y-110475295D01*
X168957142Y-110475295D02*
X168957142Y-110618152D01*
X168957142Y-110618152D02*
X168909523Y-110713390D01*
X168909523Y-110713390D02*
X168861904Y-110761009D01*
X168861904Y-110761009D02*
X168766666Y-110808628D01*
X168766666Y-110808628D02*
X168385714Y-110808628D01*
X169338095Y-110380057D02*
X169385714Y-110332438D01*
X169385714Y-110332438D02*
X169480952Y-110284819D01*
X169480952Y-110284819D02*
X169719047Y-110284819D01*
X169719047Y-110284819D02*
X169814285Y-110332438D01*
X169814285Y-110332438D02*
X169861904Y-110380057D01*
X169861904Y-110380057D02*
X169909523Y-110475295D01*
X169909523Y-110475295D02*
X169909523Y-110570533D01*
X169909523Y-110570533D02*
X169861904Y-110713390D01*
X169861904Y-110713390D02*
X169290476Y-111284819D01*
X169290476Y-111284819D02*
X169909523Y-111284819D01*
X170861904Y-111284819D02*
X170290476Y-111284819D01*
X170576190Y-111284819D02*
X170576190Y-110284819D01*
X170576190Y-110284819D02*
X170480952Y-110427676D01*
X170480952Y-110427676D02*
X170385714Y-110522914D01*
X170385714Y-110522914D02*
X170290476Y-110570533D01*
X159657142Y-103024819D02*
X159323809Y-102548628D01*
X159085714Y-103024819D02*
X159085714Y-102024819D01*
X159085714Y-102024819D02*
X159466666Y-102024819D01*
X159466666Y-102024819D02*
X159561904Y-102072438D01*
X159561904Y-102072438D02*
X159609523Y-102120057D01*
X159609523Y-102120057D02*
X159657142Y-102215295D01*
X159657142Y-102215295D02*
X159657142Y-102358152D01*
X159657142Y-102358152D02*
X159609523Y-102453390D01*
X159609523Y-102453390D02*
X159561904Y-102501009D01*
X159561904Y-102501009D02*
X159466666Y-102548628D01*
X159466666Y-102548628D02*
X159085714Y-102548628D01*
X160038095Y-102120057D02*
X160085714Y-102072438D01*
X160085714Y-102072438D02*
X160180952Y-102024819D01*
X160180952Y-102024819D02*
X160419047Y-102024819D01*
X160419047Y-102024819D02*
X160514285Y-102072438D01*
X160514285Y-102072438D02*
X160561904Y-102120057D01*
X160561904Y-102120057D02*
X160609523Y-102215295D01*
X160609523Y-102215295D02*
X160609523Y-102310533D01*
X160609523Y-102310533D02*
X160561904Y-102453390D01*
X160561904Y-102453390D02*
X159990476Y-103024819D01*
X159990476Y-103024819D02*
X160609523Y-103024819D01*
X161228571Y-102024819D02*
X161323809Y-102024819D01*
X161323809Y-102024819D02*
X161419047Y-102072438D01*
X161419047Y-102072438D02*
X161466666Y-102120057D01*
X161466666Y-102120057D02*
X161514285Y-102215295D01*
X161514285Y-102215295D02*
X161561904Y-102405771D01*
X161561904Y-102405771D02*
X161561904Y-102643866D01*
X161561904Y-102643866D02*
X161514285Y-102834342D01*
X161514285Y-102834342D02*
X161466666Y-102929580D01*
X161466666Y-102929580D02*
X161419047Y-102977200D01*
X161419047Y-102977200D02*
X161323809Y-103024819D01*
X161323809Y-103024819D02*
X161228571Y-103024819D01*
X161228571Y-103024819D02*
X161133333Y-102977200D01*
X161133333Y-102977200D02*
X161085714Y-102929580D01*
X161085714Y-102929580D02*
X161038095Y-102834342D01*
X161038095Y-102834342D02*
X160990476Y-102643866D01*
X160990476Y-102643866D02*
X160990476Y-102405771D01*
X160990476Y-102405771D02*
X161038095Y-102215295D01*
X161038095Y-102215295D02*
X161085714Y-102120057D01*
X161085714Y-102120057D02*
X161133333Y-102072438D01*
X161133333Y-102072438D02*
X161228571Y-102024819D01*
X102982142Y-86804819D02*
X102648809Y-86328628D01*
X102410714Y-86804819D02*
X102410714Y-85804819D01*
X102410714Y-85804819D02*
X102791666Y-85804819D01*
X102791666Y-85804819D02*
X102886904Y-85852438D01*
X102886904Y-85852438D02*
X102934523Y-85900057D01*
X102934523Y-85900057D02*
X102982142Y-85995295D01*
X102982142Y-85995295D02*
X102982142Y-86138152D01*
X102982142Y-86138152D02*
X102934523Y-86233390D01*
X102934523Y-86233390D02*
X102886904Y-86281009D01*
X102886904Y-86281009D02*
X102791666Y-86328628D01*
X102791666Y-86328628D02*
X102410714Y-86328628D01*
X103934523Y-86804819D02*
X103363095Y-86804819D01*
X103648809Y-86804819D02*
X103648809Y-85804819D01*
X103648809Y-85804819D02*
X103553571Y-85947676D01*
X103553571Y-85947676D02*
X103458333Y-86042914D01*
X103458333Y-86042914D02*
X103363095Y-86090533D01*
X104410714Y-86804819D02*
X104601190Y-86804819D01*
X104601190Y-86804819D02*
X104696428Y-86757200D01*
X104696428Y-86757200D02*
X104744047Y-86709580D01*
X104744047Y-86709580D02*
X104839285Y-86566723D01*
X104839285Y-86566723D02*
X104886904Y-86376247D01*
X104886904Y-86376247D02*
X104886904Y-85995295D01*
X104886904Y-85995295D02*
X104839285Y-85900057D01*
X104839285Y-85900057D02*
X104791666Y-85852438D01*
X104791666Y-85852438D02*
X104696428Y-85804819D01*
X104696428Y-85804819D02*
X104505952Y-85804819D01*
X104505952Y-85804819D02*
X104410714Y-85852438D01*
X104410714Y-85852438D02*
X104363095Y-85900057D01*
X104363095Y-85900057D02*
X104315476Y-85995295D01*
X104315476Y-85995295D02*
X104315476Y-86233390D01*
X104315476Y-86233390D02*
X104363095Y-86328628D01*
X104363095Y-86328628D02*
X104410714Y-86376247D01*
X104410714Y-86376247D02*
X104505952Y-86423866D01*
X104505952Y-86423866D02*
X104696428Y-86423866D01*
X104696428Y-86423866D02*
X104791666Y-86376247D01*
X104791666Y-86376247D02*
X104839285Y-86328628D01*
X104839285Y-86328628D02*
X104886904Y-86233390D01*
X102957142Y-84304819D02*
X102623809Y-83828628D01*
X102385714Y-84304819D02*
X102385714Y-83304819D01*
X102385714Y-83304819D02*
X102766666Y-83304819D01*
X102766666Y-83304819D02*
X102861904Y-83352438D01*
X102861904Y-83352438D02*
X102909523Y-83400057D01*
X102909523Y-83400057D02*
X102957142Y-83495295D01*
X102957142Y-83495295D02*
X102957142Y-83638152D01*
X102957142Y-83638152D02*
X102909523Y-83733390D01*
X102909523Y-83733390D02*
X102861904Y-83781009D01*
X102861904Y-83781009D02*
X102766666Y-83828628D01*
X102766666Y-83828628D02*
X102385714Y-83828628D01*
X103909523Y-84304819D02*
X103338095Y-84304819D01*
X103623809Y-84304819D02*
X103623809Y-83304819D01*
X103623809Y-83304819D02*
X103528571Y-83447676D01*
X103528571Y-83447676D02*
X103433333Y-83542914D01*
X103433333Y-83542914D02*
X103338095Y-83590533D01*
X104480952Y-83733390D02*
X104385714Y-83685771D01*
X104385714Y-83685771D02*
X104338095Y-83638152D01*
X104338095Y-83638152D02*
X104290476Y-83542914D01*
X104290476Y-83542914D02*
X104290476Y-83495295D01*
X104290476Y-83495295D02*
X104338095Y-83400057D01*
X104338095Y-83400057D02*
X104385714Y-83352438D01*
X104385714Y-83352438D02*
X104480952Y-83304819D01*
X104480952Y-83304819D02*
X104671428Y-83304819D01*
X104671428Y-83304819D02*
X104766666Y-83352438D01*
X104766666Y-83352438D02*
X104814285Y-83400057D01*
X104814285Y-83400057D02*
X104861904Y-83495295D01*
X104861904Y-83495295D02*
X104861904Y-83542914D01*
X104861904Y-83542914D02*
X104814285Y-83638152D01*
X104814285Y-83638152D02*
X104766666Y-83685771D01*
X104766666Y-83685771D02*
X104671428Y-83733390D01*
X104671428Y-83733390D02*
X104480952Y-83733390D01*
X104480952Y-83733390D02*
X104385714Y-83781009D01*
X104385714Y-83781009D02*
X104338095Y-83828628D01*
X104338095Y-83828628D02*
X104290476Y-83923866D01*
X104290476Y-83923866D02*
X104290476Y-84114342D01*
X104290476Y-84114342D02*
X104338095Y-84209580D01*
X104338095Y-84209580D02*
X104385714Y-84257200D01*
X104385714Y-84257200D02*
X104480952Y-84304819D01*
X104480952Y-84304819D02*
X104671428Y-84304819D01*
X104671428Y-84304819D02*
X104766666Y-84257200D01*
X104766666Y-84257200D02*
X104814285Y-84209580D01*
X104814285Y-84209580D02*
X104861904Y-84114342D01*
X104861904Y-84114342D02*
X104861904Y-83923866D01*
X104861904Y-83923866D02*
X104814285Y-83828628D01*
X104814285Y-83828628D02*
X104766666Y-83781009D01*
X104766666Y-83781009D02*
X104671428Y-83733390D01*
X105957142Y-82814819D02*
X105623809Y-82338628D01*
X105385714Y-82814819D02*
X105385714Y-81814819D01*
X105385714Y-81814819D02*
X105766666Y-81814819D01*
X105766666Y-81814819D02*
X105861904Y-81862438D01*
X105861904Y-81862438D02*
X105909523Y-81910057D01*
X105909523Y-81910057D02*
X105957142Y-82005295D01*
X105957142Y-82005295D02*
X105957142Y-82148152D01*
X105957142Y-82148152D02*
X105909523Y-82243390D01*
X105909523Y-82243390D02*
X105861904Y-82291009D01*
X105861904Y-82291009D02*
X105766666Y-82338628D01*
X105766666Y-82338628D02*
X105385714Y-82338628D01*
X106909523Y-82814819D02*
X106338095Y-82814819D01*
X106623809Y-82814819D02*
X106623809Y-81814819D01*
X106623809Y-81814819D02*
X106528571Y-81957676D01*
X106528571Y-81957676D02*
X106433333Y-82052914D01*
X106433333Y-82052914D02*
X106338095Y-82100533D01*
X107242857Y-81814819D02*
X107909523Y-81814819D01*
X107909523Y-81814819D02*
X107480952Y-82814819D01*
X66282142Y-67099819D02*
X65948809Y-66623628D01*
X65710714Y-67099819D02*
X65710714Y-66099819D01*
X65710714Y-66099819D02*
X66091666Y-66099819D01*
X66091666Y-66099819D02*
X66186904Y-66147438D01*
X66186904Y-66147438D02*
X66234523Y-66195057D01*
X66234523Y-66195057D02*
X66282142Y-66290295D01*
X66282142Y-66290295D02*
X66282142Y-66433152D01*
X66282142Y-66433152D02*
X66234523Y-66528390D01*
X66234523Y-66528390D02*
X66186904Y-66576009D01*
X66186904Y-66576009D02*
X66091666Y-66623628D01*
X66091666Y-66623628D02*
X65710714Y-66623628D01*
X67234523Y-67099819D02*
X66663095Y-67099819D01*
X66948809Y-67099819D02*
X66948809Y-66099819D01*
X66948809Y-66099819D02*
X66853571Y-66242676D01*
X66853571Y-66242676D02*
X66758333Y-66337914D01*
X66758333Y-66337914D02*
X66663095Y-66385533D01*
X68091666Y-66099819D02*
X67901190Y-66099819D01*
X67901190Y-66099819D02*
X67805952Y-66147438D01*
X67805952Y-66147438D02*
X67758333Y-66195057D01*
X67758333Y-66195057D02*
X67663095Y-66337914D01*
X67663095Y-66337914D02*
X67615476Y-66528390D01*
X67615476Y-66528390D02*
X67615476Y-66909342D01*
X67615476Y-66909342D02*
X67663095Y-67004580D01*
X67663095Y-67004580D02*
X67710714Y-67052200D01*
X67710714Y-67052200D02*
X67805952Y-67099819D01*
X67805952Y-67099819D02*
X67996428Y-67099819D01*
X67996428Y-67099819D02*
X68091666Y-67052200D01*
X68091666Y-67052200D02*
X68139285Y-67004580D01*
X68139285Y-67004580D02*
X68186904Y-66909342D01*
X68186904Y-66909342D02*
X68186904Y-66671247D01*
X68186904Y-66671247D02*
X68139285Y-66576009D01*
X68139285Y-66576009D02*
X68091666Y-66528390D01*
X68091666Y-66528390D02*
X67996428Y-66480771D01*
X67996428Y-66480771D02*
X67805952Y-66480771D01*
X67805952Y-66480771D02*
X67710714Y-66528390D01*
X67710714Y-66528390D02*
X67663095Y-66576009D01*
X67663095Y-66576009D02*
X67615476Y-66671247D01*
X159057142Y-96324819D02*
X158723809Y-95848628D01*
X158485714Y-96324819D02*
X158485714Y-95324819D01*
X158485714Y-95324819D02*
X158866666Y-95324819D01*
X158866666Y-95324819D02*
X158961904Y-95372438D01*
X158961904Y-95372438D02*
X159009523Y-95420057D01*
X159009523Y-95420057D02*
X159057142Y-95515295D01*
X159057142Y-95515295D02*
X159057142Y-95658152D01*
X159057142Y-95658152D02*
X159009523Y-95753390D01*
X159009523Y-95753390D02*
X158961904Y-95801009D01*
X158961904Y-95801009D02*
X158866666Y-95848628D01*
X158866666Y-95848628D02*
X158485714Y-95848628D01*
X160009523Y-96324819D02*
X159438095Y-96324819D01*
X159723809Y-96324819D02*
X159723809Y-95324819D01*
X159723809Y-95324819D02*
X159628571Y-95467676D01*
X159628571Y-95467676D02*
X159533333Y-95562914D01*
X159533333Y-95562914D02*
X159438095Y-95610533D01*
X160914285Y-95324819D02*
X160438095Y-95324819D01*
X160438095Y-95324819D02*
X160390476Y-95801009D01*
X160390476Y-95801009D02*
X160438095Y-95753390D01*
X160438095Y-95753390D02*
X160533333Y-95705771D01*
X160533333Y-95705771D02*
X160771428Y-95705771D01*
X160771428Y-95705771D02*
X160866666Y-95753390D01*
X160866666Y-95753390D02*
X160914285Y-95801009D01*
X160914285Y-95801009D02*
X160961904Y-95896247D01*
X160961904Y-95896247D02*
X160961904Y-96134342D01*
X160961904Y-96134342D02*
X160914285Y-96229580D01*
X160914285Y-96229580D02*
X160866666Y-96277200D01*
X160866666Y-96277200D02*
X160771428Y-96324819D01*
X160771428Y-96324819D02*
X160533333Y-96324819D01*
X160533333Y-96324819D02*
X160438095Y-96277200D01*
X160438095Y-96277200D02*
X160390476Y-96229580D01*
X165057142Y-99184819D02*
X164723809Y-98708628D01*
X164485714Y-99184819D02*
X164485714Y-98184819D01*
X164485714Y-98184819D02*
X164866666Y-98184819D01*
X164866666Y-98184819D02*
X164961904Y-98232438D01*
X164961904Y-98232438D02*
X165009523Y-98280057D01*
X165009523Y-98280057D02*
X165057142Y-98375295D01*
X165057142Y-98375295D02*
X165057142Y-98518152D01*
X165057142Y-98518152D02*
X165009523Y-98613390D01*
X165009523Y-98613390D02*
X164961904Y-98661009D01*
X164961904Y-98661009D02*
X164866666Y-98708628D01*
X164866666Y-98708628D02*
X164485714Y-98708628D01*
X166009523Y-99184819D02*
X165438095Y-99184819D01*
X165723809Y-99184819D02*
X165723809Y-98184819D01*
X165723809Y-98184819D02*
X165628571Y-98327676D01*
X165628571Y-98327676D02*
X165533333Y-98422914D01*
X165533333Y-98422914D02*
X165438095Y-98470533D01*
X166866666Y-98518152D02*
X166866666Y-99184819D01*
X166628571Y-98137200D02*
X166390476Y-98851485D01*
X166390476Y-98851485D02*
X167009523Y-98851485D01*
X60082142Y-97524819D02*
X59748809Y-97048628D01*
X59510714Y-97524819D02*
X59510714Y-96524819D01*
X59510714Y-96524819D02*
X59891666Y-96524819D01*
X59891666Y-96524819D02*
X59986904Y-96572438D01*
X59986904Y-96572438D02*
X60034523Y-96620057D01*
X60034523Y-96620057D02*
X60082142Y-96715295D01*
X60082142Y-96715295D02*
X60082142Y-96858152D01*
X60082142Y-96858152D02*
X60034523Y-96953390D01*
X60034523Y-96953390D02*
X59986904Y-97001009D01*
X59986904Y-97001009D02*
X59891666Y-97048628D01*
X59891666Y-97048628D02*
X59510714Y-97048628D01*
X61034523Y-97524819D02*
X60463095Y-97524819D01*
X60748809Y-97524819D02*
X60748809Y-96524819D01*
X60748809Y-96524819D02*
X60653571Y-96667676D01*
X60653571Y-96667676D02*
X60558333Y-96762914D01*
X60558333Y-96762914D02*
X60463095Y-96810533D01*
X61367857Y-96524819D02*
X61986904Y-96524819D01*
X61986904Y-96524819D02*
X61653571Y-96905771D01*
X61653571Y-96905771D02*
X61796428Y-96905771D01*
X61796428Y-96905771D02*
X61891666Y-96953390D01*
X61891666Y-96953390D02*
X61939285Y-97001009D01*
X61939285Y-97001009D02*
X61986904Y-97096247D01*
X61986904Y-97096247D02*
X61986904Y-97334342D01*
X61986904Y-97334342D02*
X61939285Y-97429580D01*
X61939285Y-97429580D02*
X61891666Y-97477200D01*
X61891666Y-97477200D02*
X61796428Y-97524819D01*
X61796428Y-97524819D02*
X61510714Y-97524819D01*
X61510714Y-97524819D02*
X61415476Y-97477200D01*
X61415476Y-97477200D02*
X61367857Y-97429580D01*
X60132142Y-102424819D02*
X59798809Y-101948628D01*
X59560714Y-102424819D02*
X59560714Y-101424819D01*
X59560714Y-101424819D02*
X59941666Y-101424819D01*
X59941666Y-101424819D02*
X60036904Y-101472438D01*
X60036904Y-101472438D02*
X60084523Y-101520057D01*
X60084523Y-101520057D02*
X60132142Y-101615295D01*
X60132142Y-101615295D02*
X60132142Y-101758152D01*
X60132142Y-101758152D02*
X60084523Y-101853390D01*
X60084523Y-101853390D02*
X60036904Y-101901009D01*
X60036904Y-101901009D02*
X59941666Y-101948628D01*
X59941666Y-101948628D02*
X59560714Y-101948628D01*
X61084523Y-102424819D02*
X60513095Y-102424819D01*
X60798809Y-102424819D02*
X60798809Y-101424819D01*
X60798809Y-101424819D02*
X60703571Y-101567676D01*
X60703571Y-101567676D02*
X60608333Y-101662914D01*
X60608333Y-101662914D02*
X60513095Y-101710533D01*
X61465476Y-101520057D02*
X61513095Y-101472438D01*
X61513095Y-101472438D02*
X61608333Y-101424819D01*
X61608333Y-101424819D02*
X61846428Y-101424819D01*
X61846428Y-101424819D02*
X61941666Y-101472438D01*
X61941666Y-101472438D02*
X61989285Y-101520057D01*
X61989285Y-101520057D02*
X62036904Y-101615295D01*
X62036904Y-101615295D02*
X62036904Y-101710533D01*
X62036904Y-101710533D02*
X61989285Y-101853390D01*
X61989285Y-101853390D02*
X61417857Y-102424819D01*
X61417857Y-102424819D02*
X62036904Y-102424819D01*
X60182142Y-107024819D02*
X59848809Y-106548628D01*
X59610714Y-107024819D02*
X59610714Y-106024819D01*
X59610714Y-106024819D02*
X59991666Y-106024819D01*
X59991666Y-106024819D02*
X60086904Y-106072438D01*
X60086904Y-106072438D02*
X60134523Y-106120057D01*
X60134523Y-106120057D02*
X60182142Y-106215295D01*
X60182142Y-106215295D02*
X60182142Y-106358152D01*
X60182142Y-106358152D02*
X60134523Y-106453390D01*
X60134523Y-106453390D02*
X60086904Y-106501009D01*
X60086904Y-106501009D02*
X59991666Y-106548628D01*
X59991666Y-106548628D02*
X59610714Y-106548628D01*
X61134523Y-107024819D02*
X60563095Y-107024819D01*
X60848809Y-107024819D02*
X60848809Y-106024819D01*
X60848809Y-106024819D02*
X60753571Y-106167676D01*
X60753571Y-106167676D02*
X60658333Y-106262914D01*
X60658333Y-106262914D02*
X60563095Y-106310533D01*
X62086904Y-107024819D02*
X61515476Y-107024819D01*
X61801190Y-107024819D02*
X61801190Y-106024819D01*
X61801190Y-106024819D02*
X61705952Y-106167676D01*
X61705952Y-106167676D02*
X61610714Y-106262914D01*
X61610714Y-106262914D02*
X61515476Y-106310533D01*
X154824819Y-78567857D02*
X154348628Y-78901190D01*
X154824819Y-79139285D02*
X153824819Y-79139285D01*
X153824819Y-79139285D02*
X153824819Y-78758333D01*
X153824819Y-78758333D02*
X153872438Y-78663095D01*
X153872438Y-78663095D02*
X153920057Y-78615476D01*
X153920057Y-78615476D02*
X154015295Y-78567857D01*
X154015295Y-78567857D02*
X154158152Y-78567857D01*
X154158152Y-78567857D02*
X154253390Y-78615476D01*
X154253390Y-78615476D02*
X154301009Y-78663095D01*
X154301009Y-78663095D02*
X154348628Y-78758333D01*
X154348628Y-78758333D02*
X154348628Y-79139285D01*
X154824819Y-77615476D02*
X154824819Y-78186904D01*
X154824819Y-77901190D02*
X153824819Y-77901190D01*
X153824819Y-77901190D02*
X153967676Y-77996428D01*
X153967676Y-77996428D02*
X154062914Y-78091666D01*
X154062914Y-78091666D02*
X154110533Y-78186904D01*
X153824819Y-76996428D02*
X153824819Y-76901190D01*
X153824819Y-76901190D02*
X153872438Y-76805952D01*
X153872438Y-76805952D02*
X153920057Y-76758333D01*
X153920057Y-76758333D02*
X154015295Y-76710714D01*
X154015295Y-76710714D02*
X154205771Y-76663095D01*
X154205771Y-76663095D02*
X154443866Y-76663095D01*
X154443866Y-76663095D02*
X154634342Y-76710714D01*
X154634342Y-76710714D02*
X154729580Y-76758333D01*
X154729580Y-76758333D02*
X154777200Y-76805952D01*
X154777200Y-76805952D02*
X154824819Y-76901190D01*
X154824819Y-76901190D02*
X154824819Y-76996428D01*
X154824819Y-76996428D02*
X154777200Y-77091666D01*
X154777200Y-77091666D02*
X154729580Y-77139285D01*
X154729580Y-77139285D02*
X154634342Y-77186904D01*
X154634342Y-77186904D02*
X154443866Y-77234523D01*
X154443866Y-77234523D02*
X154205771Y-77234523D01*
X154205771Y-77234523D02*
X154015295Y-77186904D01*
X154015295Y-77186904D02*
X153920057Y-77139285D01*
X153920057Y-77139285D02*
X153872438Y-77091666D01*
X153872438Y-77091666D02*
X153824819Y-76996428D01*
X159758333Y-66684819D02*
X159425000Y-66208628D01*
X159186905Y-66684819D02*
X159186905Y-65684819D01*
X159186905Y-65684819D02*
X159567857Y-65684819D01*
X159567857Y-65684819D02*
X159663095Y-65732438D01*
X159663095Y-65732438D02*
X159710714Y-65780057D01*
X159710714Y-65780057D02*
X159758333Y-65875295D01*
X159758333Y-65875295D02*
X159758333Y-66018152D01*
X159758333Y-66018152D02*
X159710714Y-66113390D01*
X159710714Y-66113390D02*
X159663095Y-66161009D01*
X159663095Y-66161009D02*
X159567857Y-66208628D01*
X159567857Y-66208628D02*
X159186905Y-66208628D01*
X160234524Y-66684819D02*
X160425000Y-66684819D01*
X160425000Y-66684819D02*
X160520238Y-66637200D01*
X160520238Y-66637200D02*
X160567857Y-66589580D01*
X160567857Y-66589580D02*
X160663095Y-66446723D01*
X160663095Y-66446723D02*
X160710714Y-66256247D01*
X160710714Y-66256247D02*
X160710714Y-65875295D01*
X160710714Y-65875295D02*
X160663095Y-65780057D01*
X160663095Y-65780057D02*
X160615476Y-65732438D01*
X160615476Y-65732438D02*
X160520238Y-65684819D01*
X160520238Y-65684819D02*
X160329762Y-65684819D01*
X160329762Y-65684819D02*
X160234524Y-65732438D01*
X160234524Y-65732438D02*
X160186905Y-65780057D01*
X160186905Y-65780057D02*
X160139286Y-65875295D01*
X160139286Y-65875295D02*
X160139286Y-66113390D01*
X160139286Y-66113390D02*
X160186905Y-66208628D01*
X160186905Y-66208628D02*
X160234524Y-66256247D01*
X160234524Y-66256247D02*
X160329762Y-66303866D01*
X160329762Y-66303866D02*
X160520238Y-66303866D01*
X160520238Y-66303866D02*
X160615476Y-66256247D01*
X160615476Y-66256247D02*
X160663095Y-66208628D01*
X160663095Y-66208628D02*
X160710714Y-66113390D01*
X81958333Y-84124819D02*
X81625000Y-83648628D01*
X81386905Y-84124819D02*
X81386905Y-83124819D01*
X81386905Y-83124819D02*
X81767857Y-83124819D01*
X81767857Y-83124819D02*
X81863095Y-83172438D01*
X81863095Y-83172438D02*
X81910714Y-83220057D01*
X81910714Y-83220057D02*
X81958333Y-83315295D01*
X81958333Y-83315295D02*
X81958333Y-83458152D01*
X81958333Y-83458152D02*
X81910714Y-83553390D01*
X81910714Y-83553390D02*
X81863095Y-83601009D01*
X81863095Y-83601009D02*
X81767857Y-83648628D01*
X81767857Y-83648628D02*
X81386905Y-83648628D01*
X82529762Y-83553390D02*
X82434524Y-83505771D01*
X82434524Y-83505771D02*
X82386905Y-83458152D01*
X82386905Y-83458152D02*
X82339286Y-83362914D01*
X82339286Y-83362914D02*
X82339286Y-83315295D01*
X82339286Y-83315295D02*
X82386905Y-83220057D01*
X82386905Y-83220057D02*
X82434524Y-83172438D01*
X82434524Y-83172438D02*
X82529762Y-83124819D01*
X82529762Y-83124819D02*
X82720238Y-83124819D01*
X82720238Y-83124819D02*
X82815476Y-83172438D01*
X82815476Y-83172438D02*
X82863095Y-83220057D01*
X82863095Y-83220057D02*
X82910714Y-83315295D01*
X82910714Y-83315295D02*
X82910714Y-83362914D01*
X82910714Y-83362914D02*
X82863095Y-83458152D01*
X82863095Y-83458152D02*
X82815476Y-83505771D01*
X82815476Y-83505771D02*
X82720238Y-83553390D01*
X82720238Y-83553390D02*
X82529762Y-83553390D01*
X82529762Y-83553390D02*
X82434524Y-83601009D01*
X82434524Y-83601009D02*
X82386905Y-83648628D01*
X82386905Y-83648628D02*
X82339286Y-83743866D01*
X82339286Y-83743866D02*
X82339286Y-83934342D01*
X82339286Y-83934342D02*
X82386905Y-84029580D01*
X82386905Y-84029580D02*
X82434524Y-84077200D01*
X82434524Y-84077200D02*
X82529762Y-84124819D01*
X82529762Y-84124819D02*
X82720238Y-84124819D01*
X82720238Y-84124819D02*
X82815476Y-84077200D01*
X82815476Y-84077200D02*
X82863095Y-84029580D01*
X82863095Y-84029580D02*
X82910714Y-83934342D01*
X82910714Y-83934342D02*
X82910714Y-83743866D01*
X82910714Y-83743866D02*
X82863095Y-83648628D01*
X82863095Y-83648628D02*
X82815476Y-83601009D01*
X82815476Y-83601009D02*
X82720238Y-83553390D01*
X154758333Y-53824819D02*
X154425000Y-53348628D01*
X154186905Y-53824819D02*
X154186905Y-52824819D01*
X154186905Y-52824819D02*
X154567857Y-52824819D01*
X154567857Y-52824819D02*
X154663095Y-52872438D01*
X154663095Y-52872438D02*
X154710714Y-52920057D01*
X154710714Y-52920057D02*
X154758333Y-53015295D01*
X154758333Y-53015295D02*
X154758333Y-53158152D01*
X154758333Y-53158152D02*
X154710714Y-53253390D01*
X154710714Y-53253390D02*
X154663095Y-53301009D01*
X154663095Y-53301009D02*
X154567857Y-53348628D01*
X154567857Y-53348628D02*
X154186905Y-53348628D01*
X155091667Y-52824819D02*
X155758333Y-52824819D01*
X155758333Y-52824819D02*
X155329762Y-53824819D01*
X154758333Y-63824819D02*
X154425000Y-63348628D01*
X154186905Y-63824819D02*
X154186905Y-62824819D01*
X154186905Y-62824819D02*
X154567857Y-62824819D01*
X154567857Y-62824819D02*
X154663095Y-62872438D01*
X154663095Y-62872438D02*
X154710714Y-62920057D01*
X154710714Y-62920057D02*
X154758333Y-63015295D01*
X154758333Y-63015295D02*
X154758333Y-63158152D01*
X154758333Y-63158152D02*
X154710714Y-63253390D01*
X154710714Y-63253390D02*
X154663095Y-63301009D01*
X154663095Y-63301009D02*
X154567857Y-63348628D01*
X154567857Y-63348628D02*
X154186905Y-63348628D01*
X155615476Y-62824819D02*
X155425000Y-62824819D01*
X155425000Y-62824819D02*
X155329762Y-62872438D01*
X155329762Y-62872438D02*
X155282143Y-62920057D01*
X155282143Y-62920057D02*
X155186905Y-63062914D01*
X155186905Y-63062914D02*
X155139286Y-63253390D01*
X155139286Y-63253390D02*
X155139286Y-63634342D01*
X155139286Y-63634342D02*
X155186905Y-63729580D01*
X155186905Y-63729580D02*
X155234524Y-63777200D01*
X155234524Y-63777200D02*
X155329762Y-63824819D01*
X155329762Y-63824819D02*
X155520238Y-63824819D01*
X155520238Y-63824819D02*
X155615476Y-63777200D01*
X155615476Y-63777200D02*
X155663095Y-63729580D01*
X155663095Y-63729580D02*
X155710714Y-63634342D01*
X155710714Y-63634342D02*
X155710714Y-63396247D01*
X155710714Y-63396247D02*
X155663095Y-63301009D01*
X155663095Y-63301009D02*
X155615476Y-63253390D01*
X155615476Y-63253390D02*
X155520238Y-63205771D01*
X155520238Y-63205771D02*
X155329762Y-63205771D01*
X155329762Y-63205771D02*
X155234524Y-63253390D01*
X155234524Y-63253390D02*
X155186905Y-63301009D01*
X155186905Y-63301009D02*
X155139286Y-63396247D01*
X154933333Y-58824819D02*
X154600000Y-58348628D01*
X154361905Y-58824819D02*
X154361905Y-57824819D01*
X154361905Y-57824819D02*
X154742857Y-57824819D01*
X154742857Y-57824819D02*
X154838095Y-57872438D01*
X154838095Y-57872438D02*
X154885714Y-57920057D01*
X154885714Y-57920057D02*
X154933333Y-58015295D01*
X154933333Y-58015295D02*
X154933333Y-58158152D01*
X154933333Y-58158152D02*
X154885714Y-58253390D01*
X154885714Y-58253390D02*
X154838095Y-58301009D01*
X154838095Y-58301009D02*
X154742857Y-58348628D01*
X154742857Y-58348628D02*
X154361905Y-58348628D01*
X155838095Y-57824819D02*
X155361905Y-57824819D01*
X155361905Y-57824819D02*
X155314286Y-58301009D01*
X155314286Y-58301009D02*
X155361905Y-58253390D01*
X155361905Y-58253390D02*
X155457143Y-58205771D01*
X155457143Y-58205771D02*
X155695238Y-58205771D01*
X155695238Y-58205771D02*
X155790476Y-58253390D01*
X155790476Y-58253390D02*
X155838095Y-58301009D01*
X155838095Y-58301009D02*
X155885714Y-58396247D01*
X155885714Y-58396247D02*
X155885714Y-58634342D01*
X155885714Y-58634342D02*
X155838095Y-58729580D01*
X155838095Y-58729580D02*
X155790476Y-58777200D01*
X155790476Y-58777200D02*
X155695238Y-58824819D01*
X155695238Y-58824819D02*
X155457143Y-58824819D01*
X155457143Y-58824819D02*
X155361905Y-58777200D01*
X155361905Y-58777200D02*
X155314286Y-58729580D01*
X82108333Y-89024819D02*
X81775000Y-88548628D01*
X81536905Y-89024819D02*
X81536905Y-88024819D01*
X81536905Y-88024819D02*
X81917857Y-88024819D01*
X81917857Y-88024819D02*
X82013095Y-88072438D01*
X82013095Y-88072438D02*
X82060714Y-88120057D01*
X82060714Y-88120057D02*
X82108333Y-88215295D01*
X82108333Y-88215295D02*
X82108333Y-88358152D01*
X82108333Y-88358152D02*
X82060714Y-88453390D01*
X82060714Y-88453390D02*
X82013095Y-88501009D01*
X82013095Y-88501009D02*
X81917857Y-88548628D01*
X81917857Y-88548628D02*
X81536905Y-88548628D01*
X82965476Y-88358152D02*
X82965476Y-89024819D01*
X82727381Y-87977200D02*
X82489286Y-88691485D01*
X82489286Y-88691485D02*
X83108333Y-88691485D01*
X82058333Y-96724819D02*
X81725000Y-96248628D01*
X81486905Y-96724819D02*
X81486905Y-95724819D01*
X81486905Y-95724819D02*
X81867857Y-95724819D01*
X81867857Y-95724819D02*
X81963095Y-95772438D01*
X81963095Y-95772438D02*
X82010714Y-95820057D01*
X82010714Y-95820057D02*
X82058333Y-95915295D01*
X82058333Y-95915295D02*
X82058333Y-96058152D01*
X82058333Y-96058152D02*
X82010714Y-96153390D01*
X82010714Y-96153390D02*
X81963095Y-96201009D01*
X81963095Y-96201009D02*
X81867857Y-96248628D01*
X81867857Y-96248628D02*
X81486905Y-96248628D01*
X82391667Y-95724819D02*
X83010714Y-95724819D01*
X83010714Y-95724819D02*
X82677381Y-96105771D01*
X82677381Y-96105771D02*
X82820238Y-96105771D01*
X82820238Y-96105771D02*
X82915476Y-96153390D01*
X82915476Y-96153390D02*
X82963095Y-96201009D01*
X82963095Y-96201009D02*
X83010714Y-96296247D01*
X83010714Y-96296247D02*
X83010714Y-96534342D01*
X83010714Y-96534342D02*
X82963095Y-96629580D01*
X82963095Y-96629580D02*
X82915476Y-96677200D01*
X82915476Y-96677200D02*
X82820238Y-96724819D01*
X82820238Y-96724819D02*
X82534524Y-96724819D01*
X82534524Y-96724819D02*
X82439286Y-96677200D01*
X82439286Y-96677200D02*
X82391667Y-96629580D01*
X124224819Y-82866666D02*
X123748628Y-83199999D01*
X124224819Y-83438094D02*
X123224819Y-83438094D01*
X123224819Y-83438094D02*
X123224819Y-83057142D01*
X123224819Y-83057142D02*
X123272438Y-82961904D01*
X123272438Y-82961904D02*
X123320057Y-82914285D01*
X123320057Y-82914285D02*
X123415295Y-82866666D01*
X123415295Y-82866666D02*
X123558152Y-82866666D01*
X123558152Y-82866666D02*
X123653390Y-82914285D01*
X123653390Y-82914285D02*
X123701009Y-82961904D01*
X123701009Y-82961904D02*
X123748628Y-83057142D01*
X123748628Y-83057142D02*
X123748628Y-83438094D01*
X123320057Y-82485713D02*
X123272438Y-82438094D01*
X123272438Y-82438094D02*
X123224819Y-82342856D01*
X123224819Y-82342856D02*
X123224819Y-82104761D01*
X123224819Y-82104761D02*
X123272438Y-82009523D01*
X123272438Y-82009523D02*
X123320057Y-81961904D01*
X123320057Y-81961904D02*
X123415295Y-81914285D01*
X123415295Y-81914285D02*
X123510533Y-81914285D01*
X123510533Y-81914285D02*
X123653390Y-81961904D01*
X123653390Y-81961904D02*
X124224819Y-82533332D01*
X124224819Y-82533332D02*
X124224819Y-81914285D01*
X154758333Y-68824819D02*
X154425000Y-68348628D01*
X154186905Y-68824819D02*
X154186905Y-67824819D01*
X154186905Y-67824819D02*
X154567857Y-67824819D01*
X154567857Y-67824819D02*
X154663095Y-67872438D01*
X154663095Y-67872438D02*
X154710714Y-67920057D01*
X154710714Y-67920057D02*
X154758333Y-68015295D01*
X154758333Y-68015295D02*
X154758333Y-68158152D01*
X154758333Y-68158152D02*
X154710714Y-68253390D01*
X154710714Y-68253390D02*
X154663095Y-68301009D01*
X154663095Y-68301009D02*
X154567857Y-68348628D01*
X154567857Y-68348628D02*
X154186905Y-68348628D01*
X155710714Y-68824819D02*
X155139286Y-68824819D01*
X155425000Y-68824819D02*
X155425000Y-67824819D01*
X155425000Y-67824819D02*
X155329762Y-67967676D01*
X155329762Y-67967676D02*
X155234524Y-68062914D01*
X155234524Y-68062914D02*
X155139286Y-68110533D01*
X158459047Y-90522409D02*
X158363774Y-90474773D01*
X158363774Y-90474773D02*
X158268502Y-90379501D01*
X158268502Y-90379501D02*
X158125593Y-90236592D01*
X158125593Y-90236592D02*
X158030320Y-90188955D01*
X158030320Y-90188955D02*
X157935048Y-90188955D01*
X157982684Y-90427137D02*
X157887412Y-90379501D01*
X157887412Y-90379501D02*
X157792139Y-90284228D01*
X157792139Y-90284228D02*
X157744503Y-90093683D01*
X157744503Y-90093683D02*
X157744503Y-89760229D01*
X157744503Y-89760229D02*
X157792139Y-89569684D01*
X157792139Y-89569684D02*
X157887412Y-89474411D01*
X157887412Y-89474411D02*
X157982684Y-89426775D01*
X157982684Y-89426775D02*
X158173229Y-89426775D01*
X158173229Y-89426775D02*
X158268502Y-89474411D01*
X158268502Y-89474411D02*
X158363774Y-89569684D01*
X158363774Y-89569684D02*
X158411411Y-89760229D01*
X158411411Y-89760229D02*
X158411411Y-90093683D01*
X158411411Y-90093683D02*
X158363774Y-90284228D01*
X158363774Y-90284228D02*
X158268502Y-90379501D01*
X158268502Y-90379501D02*
X158173229Y-90427137D01*
X158173229Y-90427137D02*
X157982684Y-90427137D01*
X159364136Y-90427137D02*
X158792501Y-90427137D01*
X159078318Y-90427137D02*
X159078318Y-89426775D01*
X159078318Y-89426775D02*
X158983046Y-89569684D01*
X158983046Y-89569684D02*
X158887773Y-89664956D01*
X158887773Y-89664956D02*
X158792501Y-89712593D01*
D11*
X171663333Y-94549318D02*
X171058571Y-94549318D01*
X171058571Y-94549318D02*
X171058571Y-93279318D01*
X172026190Y-93400270D02*
X172086666Y-93339794D01*
X172086666Y-93339794D02*
X172207619Y-93279318D01*
X172207619Y-93279318D02*
X172510000Y-93279318D01*
X172510000Y-93279318D02*
X172630952Y-93339794D01*
X172630952Y-93339794D02*
X172691428Y-93400270D01*
X172691428Y-93400270D02*
X172751905Y-93521222D01*
X172751905Y-93521222D02*
X172751905Y-93642175D01*
X172751905Y-93642175D02*
X172691428Y-93823603D01*
X172691428Y-93823603D02*
X171965714Y-94549318D01*
X171965714Y-94549318D02*
X172751905Y-94549318D01*
D10*
X172084819Y-100154166D02*
X172084819Y-100630356D01*
X172084819Y-100630356D02*
X171084819Y-100630356D01*
X172084819Y-99297023D02*
X172084819Y-99868451D01*
X172084819Y-99582737D02*
X171084819Y-99582737D01*
X171084819Y-99582737D02*
X171227676Y-99677975D01*
X171227676Y-99677975D02*
X171322914Y-99773213D01*
X171322914Y-99773213D02*
X171370533Y-99868451D01*
D11*
X68961667Y-109104318D02*
X68961667Y-110011461D01*
X68961667Y-110011461D02*
X68901190Y-110192889D01*
X68901190Y-110192889D02*
X68780238Y-110313842D01*
X68780238Y-110313842D02*
X68598809Y-110374318D01*
X68598809Y-110374318D02*
X68477857Y-110374318D01*
X70110714Y-109104318D02*
X69868809Y-109104318D01*
X69868809Y-109104318D02*
X69747857Y-109164794D01*
X69747857Y-109164794D02*
X69687381Y-109225270D01*
X69687381Y-109225270D02*
X69566428Y-109406699D01*
X69566428Y-109406699D02*
X69505952Y-109648603D01*
X69505952Y-109648603D02*
X69505952Y-110132413D01*
X69505952Y-110132413D02*
X69566428Y-110253365D01*
X69566428Y-110253365D02*
X69626905Y-110313842D01*
X69626905Y-110313842D02*
X69747857Y-110374318D01*
X69747857Y-110374318D02*
X69989762Y-110374318D01*
X69989762Y-110374318D02*
X70110714Y-110313842D01*
X70110714Y-110313842D02*
X70171190Y-110253365D01*
X70171190Y-110253365D02*
X70231667Y-110132413D01*
X70231667Y-110132413D02*
X70231667Y-109830032D01*
X70231667Y-109830032D02*
X70171190Y-109709080D01*
X70171190Y-109709080D02*
X70110714Y-109648603D01*
X70110714Y-109648603D02*
X69989762Y-109588127D01*
X69989762Y-109588127D02*
X69747857Y-109588127D01*
X69747857Y-109588127D02*
X69626905Y-109648603D01*
X69626905Y-109648603D02*
X69566428Y-109709080D01*
X69566428Y-109709080D02*
X69505952Y-109830032D01*
D10*
X161874819Y-78773333D02*
X162589104Y-78773333D01*
X162589104Y-78773333D02*
X162731961Y-78820952D01*
X162731961Y-78820952D02*
X162827200Y-78916190D01*
X162827200Y-78916190D02*
X162874819Y-79059047D01*
X162874819Y-79059047D02*
X162874819Y-79154285D01*
X161874819Y-77820952D02*
X161874819Y-78297142D01*
X161874819Y-78297142D02*
X162351009Y-78344761D01*
X162351009Y-78344761D02*
X162303390Y-78297142D01*
X162303390Y-78297142D02*
X162255771Y-78201904D01*
X162255771Y-78201904D02*
X162255771Y-77963809D01*
X162255771Y-77963809D02*
X162303390Y-77868571D01*
X162303390Y-77868571D02*
X162351009Y-77820952D01*
X162351009Y-77820952D02*
X162446247Y-77773333D01*
X162446247Y-77773333D02*
X162684342Y-77773333D01*
X162684342Y-77773333D02*
X162779580Y-77820952D01*
X162779580Y-77820952D02*
X162827200Y-77868571D01*
X162827200Y-77868571D02*
X162874819Y-77963809D01*
X162874819Y-77963809D02*
X162874819Y-78201904D01*
X162874819Y-78201904D02*
X162827200Y-78297142D01*
X162827200Y-78297142D02*
X162779580Y-78344761D01*
D11*
X164351667Y-114379318D02*
X164351667Y-115286461D01*
X164351667Y-115286461D02*
X164291190Y-115467889D01*
X164291190Y-115467889D02*
X164170238Y-115588842D01*
X164170238Y-115588842D02*
X163988809Y-115649318D01*
X163988809Y-115649318D02*
X163867857Y-115649318D01*
X165500714Y-114802651D02*
X165500714Y-115649318D01*
X165198333Y-114318842D02*
X164895952Y-115225984D01*
X164895952Y-115225984D02*
X165682143Y-115225984D01*
D10*
X126372493Y-101779819D02*
X126372493Y-102494104D01*
X126372493Y-102494104D02*
X126324874Y-102636961D01*
X126324874Y-102636961D02*
X126229636Y-102732200D01*
X126229636Y-102732200D02*
X126086779Y-102779819D01*
X126086779Y-102779819D02*
X125991541Y-102779819D01*
X126753446Y-101779819D02*
X127372493Y-101779819D01*
X127372493Y-101779819D02*
X127039160Y-102160771D01*
X127039160Y-102160771D02*
X127182017Y-102160771D01*
X127182017Y-102160771D02*
X127277255Y-102208390D01*
X127277255Y-102208390D02*
X127324874Y-102256009D01*
X127324874Y-102256009D02*
X127372493Y-102351247D01*
X127372493Y-102351247D02*
X127372493Y-102589342D01*
X127372493Y-102589342D02*
X127324874Y-102684580D01*
X127324874Y-102684580D02*
X127277255Y-102732200D01*
X127277255Y-102732200D02*
X127182017Y-102779819D01*
X127182017Y-102779819D02*
X126896303Y-102779819D01*
X126896303Y-102779819D02*
X126801065Y-102732200D01*
X126801065Y-102732200D02*
X126753446Y-102684580D01*
X69640666Y-85284819D02*
X69640666Y-85999104D01*
X69640666Y-85999104D02*
X69593047Y-86141961D01*
X69593047Y-86141961D02*
X69497809Y-86237200D01*
X69497809Y-86237200D02*
X69354952Y-86284819D01*
X69354952Y-86284819D02*
X69259714Y-86284819D01*
X70069238Y-85380057D02*
X70116857Y-85332438D01*
X70116857Y-85332438D02*
X70212095Y-85284819D01*
X70212095Y-85284819D02*
X70450190Y-85284819D01*
X70450190Y-85284819D02*
X70545428Y-85332438D01*
X70545428Y-85332438D02*
X70593047Y-85380057D01*
X70593047Y-85380057D02*
X70640666Y-85475295D01*
X70640666Y-85475295D02*
X70640666Y-85570533D01*
X70640666Y-85570533D02*
X70593047Y-85713390D01*
X70593047Y-85713390D02*
X70021619Y-86284819D01*
X70021619Y-86284819D02*
X70640666Y-86284819D01*
X172029819Y-60183333D02*
X172744104Y-60183333D01*
X172744104Y-60183333D02*
X172886961Y-60230952D01*
X172886961Y-60230952D02*
X172982200Y-60326190D01*
X172982200Y-60326190D02*
X173029819Y-60469047D01*
X173029819Y-60469047D02*
X173029819Y-60564285D01*
X173029819Y-59183333D02*
X173029819Y-59754761D01*
X173029819Y-59469047D02*
X172029819Y-59469047D01*
X172029819Y-59469047D02*
X172172676Y-59564285D01*
X172172676Y-59564285D02*
X172267914Y-59659523D01*
X172267914Y-59659523D02*
X172315533Y-59754761D01*
D11*
X166410237Y-106949318D02*
X166410237Y-105679318D01*
X167740714Y-106828365D02*
X167680238Y-106888842D01*
X167680238Y-106888842D02*
X167498809Y-106949318D01*
X167498809Y-106949318D02*
X167377857Y-106949318D01*
X167377857Y-106949318D02*
X167196428Y-106888842D01*
X167196428Y-106888842D02*
X167075476Y-106767889D01*
X167075476Y-106767889D02*
X167014999Y-106646937D01*
X167014999Y-106646937D02*
X166954523Y-106405032D01*
X166954523Y-106405032D02*
X166954523Y-106223603D01*
X166954523Y-106223603D02*
X167014999Y-105981699D01*
X167014999Y-105981699D02*
X167075476Y-105860746D01*
X167075476Y-105860746D02*
X167196428Y-105739794D01*
X167196428Y-105739794D02*
X167377857Y-105679318D01*
X167377857Y-105679318D02*
X167498809Y-105679318D01*
X167498809Y-105679318D02*
X167680238Y-105739794D01*
X167680238Y-105739794D02*
X167740714Y-105800270D01*
X168950238Y-106949318D02*
X168224523Y-106949318D01*
X168587380Y-106949318D02*
X168587380Y-105679318D01*
X168587380Y-105679318D02*
X168466428Y-105860746D01*
X168466428Y-105860746D02*
X168345476Y-105981699D01*
X168345476Y-105981699D02*
X168224523Y-106042175D01*
D10*
X158954819Y-78788094D02*
X157954819Y-78788094D01*
X157954819Y-78788094D02*
X157954819Y-78549999D01*
X157954819Y-78549999D02*
X158002438Y-78407142D01*
X158002438Y-78407142D02*
X158097676Y-78311904D01*
X158097676Y-78311904D02*
X158192914Y-78264285D01*
X158192914Y-78264285D02*
X158383390Y-78216666D01*
X158383390Y-78216666D02*
X158526247Y-78216666D01*
X158526247Y-78216666D02*
X158716723Y-78264285D01*
X158716723Y-78264285D02*
X158811961Y-78311904D01*
X158811961Y-78311904D02*
X158907200Y-78407142D01*
X158907200Y-78407142D02*
X158954819Y-78549999D01*
X158954819Y-78549999D02*
X158954819Y-78788094D01*
X158954819Y-77264285D02*
X158954819Y-77835713D01*
X158954819Y-77549999D02*
X157954819Y-77549999D01*
X157954819Y-77549999D02*
X158097676Y-77645237D01*
X158097676Y-77645237D02*
X158192914Y-77740475D01*
X158192914Y-77740475D02*
X158240533Y-77835713D01*
X116507142Y-73284580D02*
X116459523Y-73332200D01*
X116459523Y-73332200D02*
X116316666Y-73379819D01*
X116316666Y-73379819D02*
X116221428Y-73379819D01*
X116221428Y-73379819D02*
X116078571Y-73332200D01*
X116078571Y-73332200D02*
X115983333Y-73236961D01*
X115983333Y-73236961D02*
X115935714Y-73141723D01*
X115935714Y-73141723D02*
X115888095Y-72951247D01*
X115888095Y-72951247D02*
X115888095Y-72808390D01*
X115888095Y-72808390D02*
X115935714Y-72617914D01*
X115935714Y-72617914D02*
X115983333Y-72522676D01*
X115983333Y-72522676D02*
X116078571Y-72427438D01*
X116078571Y-72427438D02*
X116221428Y-72379819D01*
X116221428Y-72379819D02*
X116316666Y-72379819D01*
X116316666Y-72379819D02*
X116459523Y-72427438D01*
X116459523Y-72427438D02*
X116507142Y-72475057D01*
X116888095Y-72475057D02*
X116935714Y-72427438D01*
X116935714Y-72427438D02*
X117030952Y-72379819D01*
X117030952Y-72379819D02*
X117269047Y-72379819D01*
X117269047Y-72379819D02*
X117364285Y-72427438D01*
X117364285Y-72427438D02*
X117411904Y-72475057D01*
X117411904Y-72475057D02*
X117459523Y-72570295D01*
X117459523Y-72570295D02*
X117459523Y-72665533D01*
X117459523Y-72665533D02*
X117411904Y-72808390D01*
X117411904Y-72808390D02*
X116840476Y-73379819D01*
X116840476Y-73379819D02*
X117459523Y-73379819D01*
X117840476Y-72475057D02*
X117888095Y-72427438D01*
X117888095Y-72427438D02*
X117983333Y-72379819D01*
X117983333Y-72379819D02*
X118221428Y-72379819D01*
X118221428Y-72379819D02*
X118316666Y-72427438D01*
X118316666Y-72427438D02*
X118364285Y-72475057D01*
X118364285Y-72475057D02*
X118411904Y-72570295D01*
X118411904Y-72570295D02*
X118411904Y-72665533D01*
X118411904Y-72665533D02*
X118364285Y-72808390D01*
X118364285Y-72808390D02*
X117792857Y-73379819D01*
X117792857Y-73379819D02*
X118411904Y-73379819D01*
X120952142Y-109849580D02*
X120904523Y-109897200D01*
X120904523Y-109897200D02*
X120761666Y-109944819D01*
X120761666Y-109944819D02*
X120666428Y-109944819D01*
X120666428Y-109944819D02*
X120523571Y-109897200D01*
X120523571Y-109897200D02*
X120428333Y-109801961D01*
X120428333Y-109801961D02*
X120380714Y-109706723D01*
X120380714Y-109706723D02*
X120333095Y-109516247D01*
X120333095Y-109516247D02*
X120333095Y-109373390D01*
X120333095Y-109373390D02*
X120380714Y-109182914D01*
X120380714Y-109182914D02*
X120428333Y-109087676D01*
X120428333Y-109087676D02*
X120523571Y-108992438D01*
X120523571Y-108992438D02*
X120666428Y-108944819D01*
X120666428Y-108944819D02*
X120761666Y-108944819D01*
X120761666Y-108944819D02*
X120904523Y-108992438D01*
X120904523Y-108992438D02*
X120952142Y-109040057D01*
X121333095Y-109040057D02*
X121380714Y-108992438D01*
X121380714Y-108992438D02*
X121475952Y-108944819D01*
X121475952Y-108944819D02*
X121714047Y-108944819D01*
X121714047Y-108944819D02*
X121809285Y-108992438D01*
X121809285Y-108992438D02*
X121856904Y-109040057D01*
X121856904Y-109040057D02*
X121904523Y-109135295D01*
X121904523Y-109135295D02*
X121904523Y-109230533D01*
X121904523Y-109230533D02*
X121856904Y-109373390D01*
X121856904Y-109373390D02*
X121285476Y-109944819D01*
X121285476Y-109944819D02*
X121904523Y-109944819D01*
X122856904Y-109944819D02*
X122285476Y-109944819D01*
X122571190Y-109944819D02*
X122571190Y-108944819D01*
X122571190Y-108944819D02*
X122475952Y-109087676D01*
X122475952Y-109087676D02*
X122380714Y-109182914D01*
X122380714Y-109182914D02*
X122285476Y-109230533D01*
X164257142Y-110019580D02*
X164209523Y-110067200D01*
X164209523Y-110067200D02*
X164066666Y-110114819D01*
X164066666Y-110114819D02*
X163971428Y-110114819D01*
X163971428Y-110114819D02*
X163828571Y-110067200D01*
X163828571Y-110067200D02*
X163733333Y-109971961D01*
X163733333Y-109971961D02*
X163685714Y-109876723D01*
X163685714Y-109876723D02*
X163638095Y-109686247D01*
X163638095Y-109686247D02*
X163638095Y-109543390D01*
X163638095Y-109543390D02*
X163685714Y-109352914D01*
X163685714Y-109352914D02*
X163733333Y-109257676D01*
X163733333Y-109257676D02*
X163828571Y-109162438D01*
X163828571Y-109162438D02*
X163971428Y-109114819D01*
X163971428Y-109114819D02*
X164066666Y-109114819D01*
X164066666Y-109114819D02*
X164209523Y-109162438D01*
X164209523Y-109162438D02*
X164257142Y-109210057D01*
X164638095Y-109210057D02*
X164685714Y-109162438D01*
X164685714Y-109162438D02*
X164780952Y-109114819D01*
X164780952Y-109114819D02*
X165019047Y-109114819D01*
X165019047Y-109114819D02*
X165114285Y-109162438D01*
X165114285Y-109162438D02*
X165161904Y-109210057D01*
X165161904Y-109210057D02*
X165209523Y-109305295D01*
X165209523Y-109305295D02*
X165209523Y-109400533D01*
X165209523Y-109400533D02*
X165161904Y-109543390D01*
X165161904Y-109543390D02*
X164590476Y-110114819D01*
X164590476Y-110114819D02*
X165209523Y-110114819D01*
X165828571Y-109114819D02*
X165923809Y-109114819D01*
X165923809Y-109114819D02*
X166019047Y-109162438D01*
X166019047Y-109162438D02*
X166066666Y-109210057D01*
X166066666Y-109210057D02*
X166114285Y-109305295D01*
X166114285Y-109305295D02*
X166161904Y-109495771D01*
X166161904Y-109495771D02*
X166161904Y-109733866D01*
X166161904Y-109733866D02*
X166114285Y-109924342D01*
X166114285Y-109924342D02*
X166066666Y-110019580D01*
X166066666Y-110019580D02*
X166019047Y-110067200D01*
X166019047Y-110067200D02*
X165923809Y-110114819D01*
X165923809Y-110114819D02*
X165828571Y-110114819D01*
X165828571Y-110114819D02*
X165733333Y-110067200D01*
X165733333Y-110067200D02*
X165685714Y-110019580D01*
X165685714Y-110019580D02*
X165638095Y-109924342D01*
X165638095Y-109924342D02*
X165590476Y-109733866D01*
X165590476Y-109733866D02*
X165590476Y-109495771D01*
X165590476Y-109495771D02*
X165638095Y-109305295D01*
X165638095Y-109305295D02*
X165685714Y-109210057D01*
X165685714Y-109210057D02*
X165733333Y-109162438D01*
X165733333Y-109162438D02*
X165828571Y-109114819D01*
X158599580Y-109722857D02*
X158647200Y-109770476D01*
X158647200Y-109770476D02*
X158694819Y-109913333D01*
X158694819Y-109913333D02*
X158694819Y-110008571D01*
X158694819Y-110008571D02*
X158647200Y-110151428D01*
X158647200Y-110151428D02*
X158551961Y-110246666D01*
X158551961Y-110246666D02*
X158456723Y-110294285D01*
X158456723Y-110294285D02*
X158266247Y-110341904D01*
X158266247Y-110341904D02*
X158123390Y-110341904D01*
X158123390Y-110341904D02*
X157932914Y-110294285D01*
X157932914Y-110294285D02*
X157837676Y-110246666D01*
X157837676Y-110246666D02*
X157742438Y-110151428D01*
X157742438Y-110151428D02*
X157694819Y-110008571D01*
X157694819Y-110008571D02*
X157694819Y-109913333D01*
X157694819Y-109913333D02*
X157742438Y-109770476D01*
X157742438Y-109770476D02*
X157790057Y-109722857D01*
X158694819Y-108770476D02*
X158694819Y-109341904D01*
X158694819Y-109056190D02*
X157694819Y-109056190D01*
X157694819Y-109056190D02*
X157837676Y-109151428D01*
X157837676Y-109151428D02*
X157932914Y-109246666D01*
X157932914Y-109246666D02*
X157980533Y-109341904D01*
X158694819Y-108294285D02*
X158694819Y-108103809D01*
X158694819Y-108103809D02*
X158647200Y-108008571D01*
X158647200Y-108008571D02*
X158599580Y-107960952D01*
X158599580Y-107960952D02*
X158456723Y-107865714D01*
X158456723Y-107865714D02*
X158266247Y-107818095D01*
X158266247Y-107818095D02*
X157885295Y-107818095D01*
X157885295Y-107818095D02*
X157790057Y-107865714D01*
X157790057Y-107865714D02*
X157742438Y-107913333D01*
X157742438Y-107913333D02*
X157694819Y-108008571D01*
X157694819Y-108008571D02*
X157694819Y-108199047D01*
X157694819Y-108199047D02*
X157742438Y-108294285D01*
X157742438Y-108294285D02*
X157790057Y-108341904D01*
X157790057Y-108341904D02*
X157885295Y-108389523D01*
X157885295Y-108389523D02*
X158123390Y-108389523D01*
X158123390Y-108389523D02*
X158218628Y-108341904D01*
X158218628Y-108341904D02*
X158266247Y-108294285D01*
X158266247Y-108294285D02*
X158313866Y-108199047D01*
X158313866Y-108199047D02*
X158313866Y-108008571D01*
X158313866Y-108008571D02*
X158266247Y-107913333D01*
X158266247Y-107913333D02*
X158218628Y-107865714D01*
X158218628Y-107865714D02*
X158123390Y-107818095D01*
X171619580Y-104922857D02*
X171667200Y-104970476D01*
X171667200Y-104970476D02*
X171714819Y-105113333D01*
X171714819Y-105113333D02*
X171714819Y-105208571D01*
X171714819Y-105208571D02*
X171667200Y-105351428D01*
X171667200Y-105351428D02*
X171571961Y-105446666D01*
X171571961Y-105446666D02*
X171476723Y-105494285D01*
X171476723Y-105494285D02*
X171286247Y-105541904D01*
X171286247Y-105541904D02*
X171143390Y-105541904D01*
X171143390Y-105541904D02*
X170952914Y-105494285D01*
X170952914Y-105494285D02*
X170857676Y-105446666D01*
X170857676Y-105446666D02*
X170762438Y-105351428D01*
X170762438Y-105351428D02*
X170714819Y-105208571D01*
X170714819Y-105208571D02*
X170714819Y-105113333D01*
X170714819Y-105113333D02*
X170762438Y-104970476D01*
X170762438Y-104970476D02*
X170810057Y-104922857D01*
X171714819Y-103970476D02*
X171714819Y-104541904D01*
X171714819Y-104256190D02*
X170714819Y-104256190D01*
X170714819Y-104256190D02*
X170857676Y-104351428D01*
X170857676Y-104351428D02*
X170952914Y-104446666D01*
X170952914Y-104446666D02*
X171000533Y-104541904D01*
X171143390Y-103399047D02*
X171095771Y-103494285D01*
X171095771Y-103494285D02*
X171048152Y-103541904D01*
X171048152Y-103541904D02*
X170952914Y-103589523D01*
X170952914Y-103589523D02*
X170905295Y-103589523D01*
X170905295Y-103589523D02*
X170810057Y-103541904D01*
X170810057Y-103541904D02*
X170762438Y-103494285D01*
X170762438Y-103494285D02*
X170714819Y-103399047D01*
X170714819Y-103399047D02*
X170714819Y-103208571D01*
X170714819Y-103208571D02*
X170762438Y-103113333D01*
X170762438Y-103113333D02*
X170810057Y-103065714D01*
X170810057Y-103065714D02*
X170905295Y-103018095D01*
X170905295Y-103018095D02*
X170952914Y-103018095D01*
X170952914Y-103018095D02*
X171048152Y-103065714D01*
X171048152Y-103065714D02*
X171095771Y-103113333D01*
X171095771Y-103113333D02*
X171143390Y-103208571D01*
X171143390Y-103208571D02*
X171143390Y-103399047D01*
X171143390Y-103399047D02*
X171191009Y-103494285D01*
X171191009Y-103494285D02*
X171238628Y-103541904D01*
X171238628Y-103541904D02*
X171333866Y-103589523D01*
X171333866Y-103589523D02*
X171524342Y-103589523D01*
X171524342Y-103589523D02*
X171619580Y-103541904D01*
X171619580Y-103541904D02*
X171667200Y-103494285D01*
X171667200Y-103494285D02*
X171714819Y-103399047D01*
X171714819Y-103399047D02*
X171714819Y-103208571D01*
X171714819Y-103208571D02*
X171667200Y-103113333D01*
X171667200Y-103113333D02*
X171619580Y-103065714D01*
X171619580Y-103065714D02*
X171524342Y-103018095D01*
X171524342Y-103018095D02*
X171333866Y-103018095D01*
X171333866Y-103018095D02*
X171238628Y-103065714D01*
X171238628Y-103065714D02*
X171191009Y-103113333D01*
X171191009Y-103113333D02*
X171143390Y-103208571D01*
X163157142Y-91599580D02*
X163109523Y-91647200D01*
X163109523Y-91647200D02*
X162966666Y-91694819D01*
X162966666Y-91694819D02*
X162871428Y-91694819D01*
X162871428Y-91694819D02*
X162728571Y-91647200D01*
X162728571Y-91647200D02*
X162633333Y-91551961D01*
X162633333Y-91551961D02*
X162585714Y-91456723D01*
X162585714Y-91456723D02*
X162538095Y-91266247D01*
X162538095Y-91266247D02*
X162538095Y-91123390D01*
X162538095Y-91123390D02*
X162585714Y-90932914D01*
X162585714Y-90932914D02*
X162633333Y-90837676D01*
X162633333Y-90837676D02*
X162728571Y-90742438D01*
X162728571Y-90742438D02*
X162871428Y-90694819D01*
X162871428Y-90694819D02*
X162966666Y-90694819D01*
X162966666Y-90694819D02*
X163109523Y-90742438D01*
X163109523Y-90742438D02*
X163157142Y-90790057D01*
X164109523Y-91694819D02*
X163538095Y-91694819D01*
X163823809Y-91694819D02*
X163823809Y-90694819D01*
X163823809Y-90694819D02*
X163728571Y-90837676D01*
X163728571Y-90837676D02*
X163633333Y-90932914D01*
X163633333Y-90932914D02*
X163538095Y-90980533D01*
X164442857Y-90694819D02*
X165109523Y-90694819D01*
X165109523Y-90694819D02*
X164680952Y-91694819D01*
X72677142Y-103299580D02*
X72629523Y-103347200D01*
X72629523Y-103347200D02*
X72486666Y-103394819D01*
X72486666Y-103394819D02*
X72391428Y-103394819D01*
X72391428Y-103394819D02*
X72248571Y-103347200D01*
X72248571Y-103347200D02*
X72153333Y-103251961D01*
X72153333Y-103251961D02*
X72105714Y-103156723D01*
X72105714Y-103156723D02*
X72058095Y-102966247D01*
X72058095Y-102966247D02*
X72058095Y-102823390D01*
X72058095Y-102823390D02*
X72105714Y-102632914D01*
X72105714Y-102632914D02*
X72153333Y-102537676D01*
X72153333Y-102537676D02*
X72248571Y-102442438D01*
X72248571Y-102442438D02*
X72391428Y-102394819D01*
X72391428Y-102394819D02*
X72486666Y-102394819D01*
X72486666Y-102394819D02*
X72629523Y-102442438D01*
X72629523Y-102442438D02*
X72677142Y-102490057D01*
X73629523Y-103394819D02*
X73058095Y-103394819D01*
X73343809Y-103394819D02*
X73343809Y-102394819D01*
X73343809Y-102394819D02*
X73248571Y-102537676D01*
X73248571Y-102537676D02*
X73153333Y-102632914D01*
X73153333Y-102632914D02*
X73058095Y-102680533D01*
X74486666Y-102394819D02*
X74296190Y-102394819D01*
X74296190Y-102394819D02*
X74200952Y-102442438D01*
X74200952Y-102442438D02*
X74153333Y-102490057D01*
X74153333Y-102490057D02*
X74058095Y-102632914D01*
X74058095Y-102632914D02*
X74010476Y-102823390D01*
X74010476Y-102823390D02*
X74010476Y-103204342D01*
X74010476Y-103204342D02*
X74058095Y-103299580D01*
X74058095Y-103299580D02*
X74105714Y-103347200D01*
X74105714Y-103347200D02*
X74200952Y-103394819D01*
X74200952Y-103394819D02*
X74391428Y-103394819D01*
X74391428Y-103394819D02*
X74486666Y-103347200D01*
X74486666Y-103347200D02*
X74534285Y-103299580D01*
X74534285Y-103299580D02*
X74581904Y-103204342D01*
X74581904Y-103204342D02*
X74581904Y-102966247D01*
X74581904Y-102966247D02*
X74534285Y-102871009D01*
X74534285Y-102871009D02*
X74486666Y-102823390D01*
X74486666Y-102823390D02*
X74391428Y-102775771D01*
X74391428Y-102775771D02*
X74200952Y-102775771D01*
X74200952Y-102775771D02*
X74105714Y-102823390D01*
X74105714Y-102823390D02*
X74058095Y-102871009D01*
X74058095Y-102871009D02*
X74010476Y-102966247D01*
X113077142Y-76099580D02*
X113029523Y-76147200D01*
X113029523Y-76147200D02*
X112886666Y-76194819D01*
X112886666Y-76194819D02*
X112791428Y-76194819D01*
X112791428Y-76194819D02*
X112648571Y-76147200D01*
X112648571Y-76147200D02*
X112553333Y-76051961D01*
X112553333Y-76051961D02*
X112505714Y-75956723D01*
X112505714Y-75956723D02*
X112458095Y-75766247D01*
X112458095Y-75766247D02*
X112458095Y-75623390D01*
X112458095Y-75623390D02*
X112505714Y-75432914D01*
X112505714Y-75432914D02*
X112553333Y-75337676D01*
X112553333Y-75337676D02*
X112648571Y-75242438D01*
X112648571Y-75242438D02*
X112791428Y-75194819D01*
X112791428Y-75194819D02*
X112886666Y-75194819D01*
X112886666Y-75194819D02*
X113029523Y-75242438D01*
X113029523Y-75242438D02*
X113077142Y-75290057D01*
X114029523Y-76194819D02*
X113458095Y-76194819D01*
X113743809Y-76194819D02*
X113743809Y-75194819D01*
X113743809Y-75194819D02*
X113648571Y-75337676D01*
X113648571Y-75337676D02*
X113553333Y-75432914D01*
X113553333Y-75432914D02*
X113458095Y-75480533D01*
X114934285Y-75194819D02*
X114458095Y-75194819D01*
X114458095Y-75194819D02*
X114410476Y-75671009D01*
X114410476Y-75671009D02*
X114458095Y-75623390D01*
X114458095Y-75623390D02*
X114553333Y-75575771D01*
X114553333Y-75575771D02*
X114791428Y-75575771D01*
X114791428Y-75575771D02*
X114886666Y-75623390D01*
X114886666Y-75623390D02*
X114934285Y-75671009D01*
X114934285Y-75671009D02*
X114981904Y-75766247D01*
X114981904Y-75766247D02*
X114981904Y-76004342D01*
X114981904Y-76004342D02*
X114934285Y-76099580D01*
X114934285Y-76099580D02*
X114886666Y-76147200D01*
X114886666Y-76147200D02*
X114791428Y-76194819D01*
X114791428Y-76194819D02*
X114553333Y-76194819D01*
X114553333Y-76194819D02*
X114458095Y-76147200D01*
X114458095Y-76147200D02*
X114410476Y-76099580D01*
X109762142Y-80999580D02*
X109714523Y-81047200D01*
X109714523Y-81047200D02*
X109571666Y-81094819D01*
X109571666Y-81094819D02*
X109476428Y-81094819D01*
X109476428Y-81094819D02*
X109333571Y-81047200D01*
X109333571Y-81047200D02*
X109238333Y-80951961D01*
X109238333Y-80951961D02*
X109190714Y-80856723D01*
X109190714Y-80856723D02*
X109143095Y-80666247D01*
X109143095Y-80666247D02*
X109143095Y-80523390D01*
X109143095Y-80523390D02*
X109190714Y-80332914D01*
X109190714Y-80332914D02*
X109238333Y-80237676D01*
X109238333Y-80237676D02*
X109333571Y-80142438D01*
X109333571Y-80142438D02*
X109476428Y-80094819D01*
X109476428Y-80094819D02*
X109571666Y-80094819D01*
X109571666Y-80094819D02*
X109714523Y-80142438D01*
X109714523Y-80142438D02*
X109762142Y-80190057D01*
X110714523Y-81094819D02*
X110143095Y-81094819D01*
X110428809Y-81094819D02*
X110428809Y-80094819D01*
X110428809Y-80094819D02*
X110333571Y-80237676D01*
X110333571Y-80237676D02*
X110238333Y-80332914D01*
X110238333Y-80332914D02*
X110143095Y-80380533D01*
X111666904Y-81094819D02*
X111095476Y-81094819D01*
X111381190Y-81094819D02*
X111381190Y-80094819D01*
X111381190Y-80094819D02*
X111285952Y-80237676D01*
X111285952Y-80237676D02*
X111190714Y-80332914D01*
X111190714Y-80332914D02*
X111095476Y-80380533D01*
X120732142Y-70584580D02*
X120684523Y-70632200D01*
X120684523Y-70632200D02*
X120541666Y-70679819D01*
X120541666Y-70679819D02*
X120446428Y-70679819D01*
X120446428Y-70679819D02*
X120303571Y-70632200D01*
X120303571Y-70632200D02*
X120208333Y-70536961D01*
X120208333Y-70536961D02*
X120160714Y-70441723D01*
X120160714Y-70441723D02*
X120113095Y-70251247D01*
X120113095Y-70251247D02*
X120113095Y-70108390D01*
X120113095Y-70108390D02*
X120160714Y-69917914D01*
X120160714Y-69917914D02*
X120208333Y-69822676D01*
X120208333Y-69822676D02*
X120303571Y-69727438D01*
X120303571Y-69727438D02*
X120446428Y-69679819D01*
X120446428Y-69679819D02*
X120541666Y-69679819D01*
X120541666Y-69679819D02*
X120684523Y-69727438D01*
X120684523Y-69727438D02*
X120732142Y-69775057D01*
X121684523Y-70679819D02*
X121113095Y-70679819D01*
X121398809Y-70679819D02*
X121398809Y-69679819D01*
X121398809Y-69679819D02*
X121303571Y-69822676D01*
X121303571Y-69822676D02*
X121208333Y-69917914D01*
X121208333Y-69917914D02*
X121113095Y-69965533D01*
X122303571Y-69679819D02*
X122398809Y-69679819D01*
X122398809Y-69679819D02*
X122494047Y-69727438D01*
X122494047Y-69727438D02*
X122541666Y-69775057D01*
X122541666Y-69775057D02*
X122589285Y-69870295D01*
X122589285Y-69870295D02*
X122636904Y-70060771D01*
X122636904Y-70060771D02*
X122636904Y-70298866D01*
X122636904Y-70298866D02*
X122589285Y-70489342D01*
X122589285Y-70489342D02*
X122541666Y-70584580D01*
X122541666Y-70584580D02*
X122494047Y-70632200D01*
X122494047Y-70632200D02*
X122398809Y-70679819D01*
X122398809Y-70679819D02*
X122303571Y-70679819D01*
X122303571Y-70679819D02*
X122208333Y-70632200D01*
X122208333Y-70632200D02*
X122160714Y-70584580D01*
X122160714Y-70584580D02*
X122113095Y-70489342D01*
X122113095Y-70489342D02*
X122065476Y-70298866D01*
X122065476Y-70298866D02*
X122065476Y-70060771D01*
X122065476Y-70060771D02*
X122113095Y-69870295D01*
X122113095Y-69870295D02*
X122160714Y-69775057D01*
X122160714Y-69775057D02*
X122208333Y-69727438D01*
X122208333Y-69727438D02*
X122303571Y-69679819D01*
X109758333Y-90999580D02*
X109710714Y-91047200D01*
X109710714Y-91047200D02*
X109567857Y-91094819D01*
X109567857Y-91094819D02*
X109472619Y-91094819D01*
X109472619Y-91094819D02*
X109329762Y-91047200D01*
X109329762Y-91047200D02*
X109234524Y-90951961D01*
X109234524Y-90951961D02*
X109186905Y-90856723D01*
X109186905Y-90856723D02*
X109139286Y-90666247D01*
X109139286Y-90666247D02*
X109139286Y-90523390D01*
X109139286Y-90523390D02*
X109186905Y-90332914D01*
X109186905Y-90332914D02*
X109234524Y-90237676D01*
X109234524Y-90237676D02*
X109329762Y-90142438D01*
X109329762Y-90142438D02*
X109472619Y-90094819D01*
X109472619Y-90094819D02*
X109567857Y-90094819D01*
X109567857Y-90094819D02*
X109710714Y-90142438D01*
X109710714Y-90142438D02*
X109758333Y-90190057D01*
X110234524Y-91094819D02*
X110425000Y-91094819D01*
X110425000Y-91094819D02*
X110520238Y-91047200D01*
X110520238Y-91047200D02*
X110567857Y-90999580D01*
X110567857Y-90999580D02*
X110663095Y-90856723D01*
X110663095Y-90856723D02*
X110710714Y-90666247D01*
X110710714Y-90666247D02*
X110710714Y-90285295D01*
X110710714Y-90285295D02*
X110663095Y-90190057D01*
X110663095Y-90190057D02*
X110615476Y-90142438D01*
X110615476Y-90142438D02*
X110520238Y-90094819D01*
X110520238Y-90094819D02*
X110329762Y-90094819D01*
X110329762Y-90094819D02*
X110234524Y-90142438D01*
X110234524Y-90142438D02*
X110186905Y-90190057D01*
X110186905Y-90190057D02*
X110139286Y-90285295D01*
X110139286Y-90285295D02*
X110139286Y-90523390D01*
X110139286Y-90523390D02*
X110186905Y-90618628D01*
X110186905Y-90618628D02*
X110234524Y-90666247D01*
X110234524Y-90666247D02*
X110329762Y-90713866D01*
X110329762Y-90713866D02*
X110520238Y-90713866D01*
X110520238Y-90713866D02*
X110615476Y-90666247D01*
X110615476Y-90666247D02*
X110663095Y-90618628D01*
X110663095Y-90618628D02*
X110710714Y-90523390D01*
X137254580Y-101971666D02*
X137302200Y-102019285D01*
X137302200Y-102019285D02*
X137349819Y-102162142D01*
X137349819Y-102162142D02*
X137349819Y-102257380D01*
X137349819Y-102257380D02*
X137302200Y-102400237D01*
X137302200Y-102400237D02*
X137206961Y-102495475D01*
X137206961Y-102495475D02*
X137111723Y-102543094D01*
X137111723Y-102543094D02*
X136921247Y-102590713D01*
X136921247Y-102590713D02*
X136778390Y-102590713D01*
X136778390Y-102590713D02*
X136587914Y-102543094D01*
X136587914Y-102543094D02*
X136492676Y-102495475D01*
X136492676Y-102495475D02*
X136397438Y-102400237D01*
X136397438Y-102400237D02*
X136349819Y-102257380D01*
X136349819Y-102257380D02*
X136349819Y-102162142D01*
X136349819Y-102162142D02*
X136397438Y-102019285D01*
X136397438Y-102019285D02*
X136445057Y-101971666D01*
X136778390Y-101400237D02*
X136730771Y-101495475D01*
X136730771Y-101495475D02*
X136683152Y-101543094D01*
X136683152Y-101543094D02*
X136587914Y-101590713D01*
X136587914Y-101590713D02*
X136540295Y-101590713D01*
X136540295Y-101590713D02*
X136445057Y-101543094D01*
X136445057Y-101543094D02*
X136397438Y-101495475D01*
X136397438Y-101495475D02*
X136349819Y-101400237D01*
X136349819Y-101400237D02*
X136349819Y-101209761D01*
X136349819Y-101209761D02*
X136397438Y-101114523D01*
X136397438Y-101114523D02*
X136445057Y-101066904D01*
X136445057Y-101066904D02*
X136540295Y-101019285D01*
X136540295Y-101019285D02*
X136587914Y-101019285D01*
X136587914Y-101019285D02*
X136683152Y-101066904D01*
X136683152Y-101066904D02*
X136730771Y-101114523D01*
X136730771Y-101114523D02*
X136778390Y-101209761D01*
X136778390Y-101209761D02*
X136778390Y-101400237D01*
X136778390Y-101400237D02*
X136826009Y-101495475D01*
X136826009Y-101495475D02*
X136873628Y-101543094D01*
X136873628Y-101543094D02*
X136968866Y-101590713D01*
X136968866Y-101590713D02*
X137159342Y-101590713D01*
X137159342Y-101590713D02*
X137254580Y-101543094D01*
X137254580Y-101543094D02*
X137302200Y-101495475D01*
X137302200Y-101495475D02*
X137349819Y-101400237D01*
X137349819Y-101400237D02*
X137349819Y-101209761D01*
X137349819Y-101209761D02*
X137302200Y-101114523D01*
X137302200Y-101114523D02*
X137254580Y-101066904D01*
X137254580Y-101066904D02*
X137159342Y-101019285D01*
X137159342Y-101019285D02*
X136968866Y-101019285D01*
X136968866Y-101019285D02*
X136873628Y-101066904D01*
X136873628Y-101066904D02*
X136826009Y-101114523D01*
X136826009Y-101114523D02*
X136778390Y-101209761D01*
X132858333Y-105384580D02*
X132810714Y-105432200D01*
X132810714Y-105432200D02*
X132667857Y-105479819D01*
X132667857Y-105479819D02*
X132572619Y-105479819D01*
X132572619Y-105479819D02*
X132429762Y-105432200D01*
X132429762Y-105432200D02*
X132334524Y-105336961D01*
X132334524Y-105336961D02*
X132286905Y-105241723D01*
X132286905Y-105241723D02*
X132239286Y-105051247D01*
X132239286Y-105051247D02*
X132239286Y-104908390D01*
X132239286Y-104908390D02*
X132286905Y-104717914D01*
X132286905Y-104717914D02*
X132334524Y-104622676D01*
X132334524Y-104622676D02*
X132429762Y-104527438D01*
X132429762Y-104527438D02*
X132572619Y-104479819D01*
X132572619Y-104479819D02*
X132667857Y-104479819D01*
X132667857Y-104479819D02*
X132810714Y-104527438D01*
X132810714Y-104527438D02*
X132858333Y-104575057D01*
X133191667Y-104479819D02*
X133858333Y-104479819D01*
X133858333Y-104479819D02*
X133429762Y-105479819D01*
X129128333Y-105434580D02*
X129080714Y-105482200D01*
X129080714Y-105482200D02*
X128937857Y-105529819D01*
X128937857Y-105529819D02*
X128842619Y-105529819D01*
X128842619Y-105529819D02*
X128699762Y-105482200D01*
X128699762Y-105482200D02*
X128604524Y-105386961D01*
X128604524Y-105386961D02*
X128556905Y-105291723D01*
X128556905Y-105291723D02*
X128509286Y-105101247D01*
X128509286Y-105101247D02*
X128509286Y-104958390D01*
X128509286Y-104958390D02*
X128556905Y-104767914D01*
X128556905Y-104767914D02*
X128604524Y-104672676D01*
X128604524Y-104672676D02*
X128699762Y-104577438D01*
X128699762Y-104577438D02*
X128842619Y-104529819D01*
X128842619Y-104529819D02*
X128937857Y-104529819D01*
X128937857Y-104529819D02*
X129080714Y-104577438D01*
X129080714Y-104577438D02*
X129128333Y-104625057D01*
X129985476Y-104529819D02*
X129795000Y-104529819D01*
X129795000Y-104529819D02*
X129699762Y-104577438D01*
X129699762Y-104577438D02*
X129652143Y-104625057D01*
X129652143Y-104625057D02*
X129556905Y-104767914D01*
X129556905Y-104767914D02*
X129509286Y-104958390D01*
X129509286Y-104958390D02*
X129509286Y-105339342D01*
X129509286Y-105339342D02*
X129556905Y-105434580D01*
X129556905Y-105434580D02*
X129604524Y-105482200D01*
X129604524Y-105482200D02*
X129699762Y-105529819D01*
X129699762Y-105529819D02*
X129890238Y-105529819D01*
X129890238Y-105529819D02*
X129985476Y-105482200D01*
X129985476Y-105482200D02*
X130033095Y-105434580D01*
X130033095Y-105434580D02*
X130080714Y-105339342D01*
X130080714Y-105339342D02*
X130080714Y-105101247D01*
X130080714Y-105101247D02*
X130033095Y-105006009D01*
X130033095Y-105006009D02*
X129985476Y-104958390D01*
X129985476Y-104958390D02*
X129890238Y-104910771D01*
X129890238Y-104910771D02*
X129699762Y-104910771D01*
X129699762Y-104910771D02*
X129604524Y-104958390D01*
X129604524Y-104958390D02*
X129556905Y-105006009D01*
X129556905Y-105006009D02*
X129509286Y-105101247D01*
X82013333Y-92999580D02*
X81965714Y-93047200D01*
X81965714Y-93047200D02*
X81822857Y-93094819D01*
X81822857Y-93094819D02*
X81727619Y-93094819D01*
X81727619Y-93094819D02*
X81584762Y-93047200D01*
X81584762Y-93047200D02*
X81489524Y-92951961D01*
X81489524Y-92951961D02*
X81441905Y-92856723D01*
X81441905Y-92856723D02*
X81394286Y-92666247D01*
X81394286Y-92666247D02*
X81394286Y-92523390D01*
X81394286Y-92523390D02*
X81441905Y-92332914D01*
X81441905Y-92332914D02*
X81489524Y-92237676D01*
X81489524Y-92237676D02*
X81584762Y-92142438D01*
X81584762Y-92142438D02*
X81727619Y-92094819D01*
X81727619Y-92094819D02*
X81822857Y-92094819D01*
X81822857Y-92094819D02*
X81965714Y-92142438D01*
X81965714Y-92142438D02*
X82013333Y-92190057D01*
X82918095Y-92094819D02*
X82441905Y-92094819D01*
X82441905Y-92094819D02*
X82394286Y-92571009D01*
X82394286Y-92571009D02*
X82441905Y-92523390D01*
X82441905Y-92523390D02*
X82537143Y-92475771D01*
X82537143Y-92475771D02*
X82775238Y-92475771D01*
X82775238Y-92475771D02*
X82870476Y-92523390D01*
X82870476Y-92523390D02*
X82918095Y-92571009D01*
X82918095Y-92571009D02*
X82965714Y-92666247D01*
X82965714Y-92666247D02*
X82965714Y-92904342D01*
X82965714Y-92904342D02*
X82918095Y-92999580D01*
X82918095Y-92999580D02*
X82870476Y-93047200D01*
X82870476Y-93047200D02*
X82775238Y-93094819D01*
X82775238Y-93094819D02*
X82537143Y-93094819D01*
X82537143Y-93094819D02*
X82441905Y-93047200D01*
X82441905Y-93047200D02*
X82394286Y-92999580D01*
X79153333Y-82599580D02*
X79105714Y-82647200D01*
X79105714Y-82647200D02*
X78962857Y-82694819D01*
X78962857Y-82694819D02*
X78867619Y-82694819D01*
X78867619Y-82694819D02*
X78724762Y-82647200D01*
X78724762Y-82647200D02*
X78629524Y-82551961D01*
X78629524Y-82551961D02*
X78581905Y-82456723D01*
X78581905Y-82456723D02*
X78534286Y-82266247D01*
X78534286Y-82266247D02*
X78534286Y-82123390D01*
X78534286Y-82123390D02*
X78581905Y-81932914D01*
X78581905Y-81932914D02*
X78629524Y-81837676D01*
X78629524Y-81837676D02*
X78724762Y-81742438D01*
X78724762Y-81742438D02*
X78867619Y-81694819D01*
X78867619Y-81694819D02*
X78962857Y-81694819D01*
X78962857Y-81694819D02*
X79105714Y-81742438D01*
X79105714Y-81742438D02*
X79153333Y-81790057D01*
X80010476Y-82028152D02*
X80010476Y-82694819D01*
X79772381Y-81647200D02*
X79534286Y-82361485D01*
X79534286Y-82361485D02*
X80153333Y-82361485D01*
X75953333Y-100919580D02*
X75905714Y-100967200D01*
X75905714Y-100967200D02*
X75762857Y-101014819D01*
X75762857Y-101014819D02*
X75667619Y-101014819D01*
X75667619Y-101014819D02*
X75524762Y-100967200D01*
X75524762Y-100967200D02*
X75429524Y-100871961D01*
X75429524Y-100871961D02*
X75381905Y-100776723D01*
X75381905Y-100776723D02*
X75334286Y-100586247D01*
X75334286Y-100586247D02*
X75334286Y-100443390D01*
X75334286Y-100443390D02*
X75381905Y-100252914D01*
X75381905Y-100252914D02*
X75429524Y-100157676D01*
X75429524Y-100157676D02*
X75524762Y-100062438D01*
X75524762Y-100062438D02*
X75667619Y-100014819D01*
X75667619Y-100014819D02*
X75762857Y-100014819D01*
X75762857Y-100014819D02*
X75905714Y-100062438D01*
X75905714Y-100062438D02*
X75953333Y-100110057D01*
X76286667Y-100014819D02*
X76905714Y-100014819D01*
X76905714Y-100014819D02*
X76572381Y-100395771D01*
X76572381Y-100395771D02*
X76715238Y-100395771D01*
X76715238Y-100395771D02*
X76810476Y-100443390D01*
X76810476Y-100443390D02*
X76858095Y-100491009D01*
X76858095Y-100491009D02*
X76905714Y-100586247D01*
X76905714Y-100586247D02*
X76905714Y-100824342D01*
X76905714Y-100824342D02*
X76858095Y-100919580D01*
X76858095Y-100919580D02*
X76810476Y-100967200D01*
X76810476Y-100967200D02*
X76715238Y-101014819D01*
X76715238Y-101014819D02*
X76429524Y-101014819D01*
X76429524Y-101014819D02*
X76334286Y-100967200D01*
X76334286Y-100967200D02*
X76286667Y-100919580D01*
%TO.C,J7*%
X121555000Y-32450000D02*
X120755000Y-32450000D01*
X120755000Y-32450000D02*
X121155000Y-33150000D01*
X121155000Y-33150000D02*
X121555000Y-32450000D01*
D12*
%TO.C,D2*%
X122375000Y-76690000D02*
X120475000Y-76690000D01*
D13*
%TO.C,U1*%
X112815000Y-89910000D02*
X112815000Y-83690000D01*
X113815000Y-82690000D02*
X120035000Y-82690000D01*
X120035000Y-82690000D02*
X120035000Y-89910000D01*
X120035000Y-89910000D02*
X112815000Y-89910000D01*
X112815000Y-82690000D02*
X112315000Y-82690000D01*
X112815000Y-82190000D01*
X112815000Y-82690000D01*
G36*
X112815000Y-82690000D02*
G01*
X112315000Y-82690000D01*
X112815000Y-82190000D01*
X112815000Y-82690000D01*
G37*
%TO.C,R22*%
X68887742Y-103477500D02*
X69362258Y-103477500D01*
X68887742Y-104522500D02*
X69362258Y-104522500D01*
%TO.C,SW2*%
X90150000Y-85400000D02*
X90150000Y-86900000D01*
X91400000Y-89400000D02*
X95900000Y-89400000D01*
X95900000Y-82900000D02*
X91400000Y-82900000D01*
X97150000Y-86900000D02*
X97150000Y-85400000D01*
%TO.C,J8*%
X107120000Y-48210000D02*
X107120000Y-40590000D01*
X107120000Y-48210000D02*
X76640000Y-48210000D01*
X107120000Y-41860000D02*
X76640000Y-41860000D01*
X107120000Y-40590000D02*
X76640000Y-40590000D01*
X76640000Y-40590000D02*
X76640000Y-48210000D01*
%TO.C,U2*%
X149165000Y-66700000D02*
X148685000Y-66700000D01*
X148925000Y-66370000D01*
X149165000Y-66700000D01*
G36*
X149165000Y-66700000D02*
G01*
X148685000Y-66700000D01*
X148925000Y-66370000D01*
X149165000Y-66700000D01*
G37*
X146225000Y-61345000D02*
X144275000Y-61345000D01*
X146225000Y-61345000D02*
X148175000Y-61345000D01*
X146225000Y-66465000D02*
X144275000Y-66465000D01*
X146225000Y-66465000D02*
X148175000Y-66465000D01*
%TO.C,SW1*%
X137250000Y-72750000D02*
X136250000Y-72750000D01*
X137250000Y-71750000D02*
X137250000Y-72750000D01*
X136950000Y-72450000D02*
X136100000Y-72450000D01*
X136950000Y-68750000D02*
X136950000Y-72450000D01*
X136070000Y-68750000D02*
X136950000Y-68750000D01*
X134100000Y-72450000D02*
X133570000Y-72450000D01*
X133570000Y-68750000D02*
X134130000Y-68750000D01*
X131630000Y-72450000D02*
X131070000Y-72450000D01*
X131080000Y-68750000D02*
X131630000Y-68750000D01*
X129130000Y-72450000D02*
X128250000Y-72450000D01*
X128250000Y-72450000D02*
X128250000Y-68750000D01*
X128250000Y-68750000D02*
X129120000Y-68750000D01*
%TO.C,R25*%
X114837258Y-34077500D02*
X114362742Y-34077500D01*
X114837258Y-35122500D02*
X114362742Y-35122500D01*
%TO.C,R24*%
X120362742Y-35252500D02*
X120837258Y-35252500D01*
X120362742Y-36297500D02*
X120837258Y-36297500D01*
%TO.C,R23*%
X106437742Y-78077500D02*
X106912258Y-78077500D01*
X106437742Y-79122500D02*
X106912258Y-79122500D01*
%TO.C,R21*%
X169837258Y-109922500D02*
X169362742Y-109922500D01*
X169837258Y-108877500D02*
X169362742Y-108877500D01*
%TO.C,R20*%
X160062742Y-104522500D02*
X160537258Y-104522500D01*
X160062742Y-103477500D02*
X160537258Y-103477500D01*
%TO.C,R19*%
X106362742Y-88287500D02*
X106837258Y-88287500D01*
X106362742Y-89332500D02*
X106837258Y-89332500D01*
%TO.C,R18*%
X106362742Y-85777500D02*
X106837258Y-85777500D01*
X106362742Y-86822500D02*
X106837258Y-86822500D01*
%TO.C,R17*%
X106362742Y-83267500D02*
X106837258Y-83267500D01*
X106362742Y-84312500D02*
X106837258Y-84312500D01*
%TO.C,R16*%
X66687742Y-67552500D02*
X67162258Y-67552500D01*
X66687742Y-68597500D02*
X67162258Y-68597500D01*
%TO.C,R15*%
X159462742Y-97822500D02*
X159937258Y-97822500D01*
X159462742Y-96777500D02*
X159937258Y-96777500D01*
%TO.C,R14*%
X165937258Y-97822500D02*
X165462742Y-97822500D01*
X165937258Y-96777500D02*
X165462742Y-96777500D01*
%TO.C,R13*%
X60487742Y-97977500D02*
X60962258Y-97977500D01*
X60487742Y-99022500D02*
X60962258Y-99022500D01*
%TO.C,R12*%
X60537742Y-102877500D02*
X61012258Y-102877500D01*
X60537742Y-103922500D02*
X61012258Y-103922500D01*
%TO.C,R11*%
X60587742Y-107477500D02*
X61062258Y-107477500D01*
X60587742Y-108522500D02*
X61062258Y-108522500D01*
%TO.C,R10*%
X156322500Y-78162258D02*
X156322500Y-77687742D01*
X155277500Y-78162258D02*
X155277500Y-77687742D01*
%TO.C,R9*%
X160162258Y-65322500D02*
X159687742Y-65322500D01*
X160162258Y-64277500D02*
X159687742Y-64277500D01*
%TO.C,R8*%
X81887742Y-84577500D02*
X82362258Y-84577500D01*
X81887742Y-85622500D02*
X82362258Y-85622500D01*
%TO.C,R7*%
X154687742Y-54277500D02*
X155162258Y-54277500D01*
X154687742Y-55322500D02*
X155162258Y-55322500D01*
%TO.C,R6*%
X154687742Y-64277500D02*
X155162258Y-64277500D01*
X154687742Y-65322500D02*
X155162258Y-65322500D01*
%TO.C,R5*%
X154862742Y-59277500D02*
X155337258Y-59277500D01*
X154862742Y-60322500D02*
X155337258Y-60322500D01*
%TO.C,R4*%
X82037742Y-89477500D02*
X82512258Y-89477500D01*
X82037742Y-90522500D02*
X82512258Y-90522500D01*
%TO.C,R3*%
X81987742Y-97177500D02*
X82462258Y-97177500D01*
X81987742Y-98222500D02*
X82462258Y-98222500D01*
%TO.C,R2*%
X124677500Y-82937258D02*
X124677500Y-82462742D01*
X125722500Y-82937258D02*
X125722500Y-82462742D01*
%TO.C,R1*%
X154687742Y-69277500D02*
X155162258Y-69277500D01*
X154687742Y-70322500D02*
X155162258Y-70322500D01*
D14*
%TO.C,Q1*%
X165794000Y-85830960D02*
X163891580Y-85830960D01*
X163891580Y-85322000D01*
X165794000Y-85322000D01*
X165794000Y-85830960D01*
G36*
X165794000Y-85830960D02*
G01*
X163891580Y-85830960D01*
X163891580Y-85322000D01*
X165794000Y-85322000D01*
X165794000Y-85830960D01*
G37*
X162111000Y-85831000D02*
X161349697Y-85831000D01*
X161349697Y-85322000D01*
X162111000Y-85322000D01*
X162111000Y-85831000D01*
G36*
X162111000Y-85831000D02*
G01*
X161349697Y-85831000D01*
X161349697Y-85322000D01*
X162111000Y-85322000D01*
X162111000Y-85831000D01*
G37*
X159571000Y-85831960D02*
X158806460Y-85831960D01*
X158806460Y-85322000D01*
X159571000Y-85322000D01*
X159571000Y-85831960D01*
G36*
X159571000Y-85831960D02*
G01*
X158806460Y-85831960D01*
X158806460Y-85322000D01*
X159571000Y-85322000D01*
X159571000Y-85831960D01*
G37*
X157031000Y-85830650D02*
X155123280Y-85830650D01*
X155123280Y-85322000D01*
X157031000Y-85322000D01*
X157031000Y-85830650D01*
G36*
X157031000Y-85830650D02*
G01*
X155123280Y-85830650D01*
X155123280Y-85322000D01*
X157031000Y-85322000D01*
X157031000Y-85830650D01*
G37*
X165794000Y-85322919D02*
X155119560Y-85322919D01*
X155119560Y-84560000D01*
X165794000Y-84560000D01*
X165794000Y-85322919D01*
G36*
X165794000Y-85322919D02*
G01*
X155119560Y-85322919D01*
X155119560Y-84560000D01*
X165794000Y-84560000D01*
X165794000Y-85322919D01*
G37*
D15*
X156218200Y-88268400D02*
G75*
G02*
X155710200Y-88268400I-254000J0D01*
G01*
X155710200Y-88268400D02*
G75*
G02*
X156218200Y-88268400I254000J0D01*
G01*
X165540000Y-85703000D02*
X165413000Y-88624000D01*
X165159000Y-88878000D02*
X165413000Y-88624000D01*
X165159000Y-88878000D02*
X155761000Y-88878000D01*
X155507000Y-88624000D02*
X155761000Y-88878000D01*
X155507000Y-88624000D02*
X155380000Y-85703000D01*
D16*
%TO.C,L2*%
X168900000Y-93600000D02*
X168900000Y-94200000D01*
D13*
%TO.C,L1*%
X169690000Y-99824721D02*
X169690000Y-100150279D01*
X170710000Y-99824721D02*
X170710000Y-100150279D01*
D12*
%TO.C,J6*%
X67385000Y-108800000D02*
X66885000Y-108800000D01*
X66885000Y-108800000D02*
X66885000Y-110300000D01*
X67885000Y-111450000D02*
X70885000Y-111450000D01*
X71885000Y-110300000D02*
X71885000Y-108800000D01*
X71885000Y-108800000D02*
X71385000Y-108800000D01*
D13*
%TO.C,J5*%
X171310000Y-73360000D02*
X163690000Y-73360000D01*
X170040000Y-73360000D02*
X170040000Y-83520000D01*
X163690000Y-73360000D02*
X163690000Y-83520000D01*
X171310000Y-83520000D02*
X171310000Y-73360000D01*
X163690000Y-83520000D02*
X171310000Y-83520000D01*
D16*
%TO.C,J4*%
X168525000Y-112600000D02*
G75*
G02*
X168525000Y-112500000I0J50000D01*
G01*
X168525000Y-112500000D02*
G75*
G02*
X168525000Y-112600000I0J-50000D01*
G01*
X168525000Y-112600000D02*
G75*
G02*
X168525000Y-112500000I0J50000D01*
G01*
X168525000Y-112500000D02*
X168525000Y-112500000D01*
X168525000Y-112600000D02*
X168525000Y-112600000D01*
X168525000Y-112500000D02*
X168525000Y-112500000D01*
D12*
X160425000Y-116550000D02*
X160425000Y-114550000D01*
X161175000Y-116550000D02*
X160425000Y-116550000D01*
X169425000Y-116550000D02*
X168675000Y-116550000D01*
X169425000Y-114800000D02*
X169425000Y-116550000D01*
D10*
%TO.C,J3*%
X134475000Y-100155000D02*
X134475000Y-101795000D01*
X127675000Y-101795000D02*
X127675000Y-100155000D01*
D17*
X132960000Y-102599999D02*
G75*
G02*
X132710000Y-102599999I-125000J0D01*
G01*
X132710000Y-102599999D02*
G75*
G02*
X132960000Y-102599999I125000J0D01*
G01*
D16*
%TO.C,J2*%
X66583000Y-89321000D02*
G75*
G02*
X66383000Y-89321000I-100000J0D01*
G01*
X66383000Y-89321000D02*
G75*
G02*
X66583000Y-89321000I100000J0D01*
G01*
D15*
X78205000Y-97175000D02*
X78205000Y-97775000D01*
X78205000Y-87775000D02*
X78205000Y-87175000D01*
X77605000Y-97775000D02*
X78205000Y-97775000D01*
X77605000Y-87175000D02*
X78205000Y-87175000D01*
X68205000Y-97775000D02*
X67605000Y-97775000D01*
X68205000Y-87175000D02*
X67605000Y-87175000D01*
X67605000Y-97175000D02*
X67605000Y-97775000D01*
X67605000Y-87775000D02*
X67605000Y-87175000D01*
D13*
%TO.C,J1*%
X171735000Y-52260000D02*
X171735000Y-67500000D01*
X165385000Y-52260000D02*
X165385000Y-67500000D01*
X164115000Y-52260000D02*
X171735000Y-52260000D01*
X164115000Y-52260000D02*
X164115000Y-67500000D01*
X164115000Y-67500000D02*
X171735000Y-67500000D01*
D12*
%TO.C,IC1*%
X167215000Y-100625000D02*
G75*
G02*
X167215000Y-100725000I0J-50000D01*
G01*
X167215000Y-100725000D02*
G75*
G02*
X167215000Y-100625000I0J50000D01*
G01*
X167215000Y-100725000D02*
X167215000Y-100725000D01*
X167215000Y-100625000D02*
X167215000Y-100625000D01*
D13*
%TO.C,D1*%
X161500000Y-80410000D02*
X161500000Y-76400000D01*
X159500000Y-80410000D02*
X159500000Y-76400000D01*
X159500000Y-80410000D02*
X161500000Y-80410000D01*
%TO.C,C22*%
X117287836Y-71140000D02*
X117072164Y-71140000D01*
X117287836Y-71860000D02*
X117072164Y-71860000D01*
%TO.C,C21*%
X121487164Y-110290000D02*
X121702836Y-110290000D01*
X121487164Y-111010000D02*
X121702836Y-111010000D01*
%TO.C,C20*%
X165007836Y-108860000D02*
X164792164Y-108860000D01*
X165007836Y-108140000D02*
X164792164Y-108140000D01*
%TO.C,C19*%
X159040000Y-109187836D02*
X159040000Y-108972164D01*
X159760000Y-109187836D02*
X159760000Y-108972164D01*
%TO.C,C18*%
X169740000Y-104172164D02*
X169740000Y-104387836D01*
X170460000Y-104172164D02*
X170460000Y-104387836D01*
%TO.C,C17*%
X163692164Y-92760000D02*
X163907836Y-92760000D01*
X163692164Y-92040000D02*
X163907836Y-92040000D01*
%TO.C,C16*%
X73212164Y-103740000D02*
X73427836Y-103740000D01*
X73212164Y-104460000D02*
X73427836Y-104460000D01*
%TO.C,C15*%
X113612164Y-76540000D02*
X113827836Y-76540000D01*
X113612164Y-77260000D02*
X113827836Y-77260000D01*
%TO.C,C14*%
X110337164Y-85940000D02*
X110552836Y-85940000D01*
X110337164Y-86660000D02*
X110552836Y-86660000D01*
%TO.C,C13*%
X110317164Y-87440000D02*
X110532836Y-87440000D01*
X110317164Y-88160000D02*
X110532836Y-88160000D01*
%TO.C,C12*%
X110317164Y-84440000D02*
X110532836Y-84440000D01*
X110317164Y-85160000D02*
X110532836Y-85160000D01*
%TO.C,C11*%
X110297164Y-81440000D02*
X110512836Y-81440000D01*
X110297164Y-82160000D02*
X110512836Y-82160000D01*
%TO.C,C10*%
X121492836Y-68440000D02*
X121277164Y-68440000D01*
X121492836Y-69160000D02*
X121277164Y-69160000D01*
%TO.C,C9*%
X109817164Y-91440000D02*
X110032836Y-91440000D01*
X109817164Y-92160000D02*
X110032836Y-92160000D01*
%TO.C,C8*%
X134935000Y-101717164D02*
X134935000Y-101932836D01*
X135655000Y-101717164D02*
X135655000Y-101932836D01*
%TO.C,C7*%
X132687164Y-104165000D02*
X132902836Y-104165000D01*
X132687164Y-103445000D02*
X132902836Y-103445000D01*
%TO.C,C6*%
X129187164Y-104165000D02*
X129402836Y-104165000D01*
X129187164Y-103445000D02*
X129402836Y-103445000D01*
%TO.C,C5*%
X82072164Y-93440000D02*
X82287836Y-93440000D01*
X82072164Y-94160000D02*
X82287836Y-94160000D01*
%TO.C,C4*%
X79212164Y-83040000D02*
X79427836Y-83040000D01*
X79212164Y-83760000D02*
X79427836Y-83760000D01*
%TO.C,C3*%
X76227836Y-99760000D02*
X76012164Y-99760000D01*
X76227836Y-99040000D02*
X76012164Y-99040000D01*
%TD*%
M02*
