%TF.GenerationSoftware,KiCad,Pcbnew,8.0.1*%
%TF.CreationDate,2024-06-24T22:12:18-03:00*%
%TF.ProjectId,House_Project,486f7573-655f-4507-926f-6a6563742e6b,rev?*%
%TF.SameCoordinates,Original*%
%TF.FileFunction,Soldermask,Bot*%
%TF.FilePolarity,Negative*%
%FSLAX46Y46*%
G04 Gerber Fmt 4.6, Leading zero omitted, Abs format (unit mm)*
G04 Created by KiCad (PCBNEW 8.0.1) date 2024-06-24 22:12:18*
%MOMM*%
%LPD*%
G01*
G04 APERTURE LIST*
G04 Aperture macros list*
%AMRoundRect*
0 Rectangle with rounded corners*
0 $1 Rounding radius*
0 $2 $3 $4 $5 $6 $7 $8 $9 X,Y pos of 4 corners*
0 Add a 4 corners polygon primitive as box body*
4,1,4,$2,$3,$4,$5,$6,$7,$8,$9,$2,$3,0*
0 Add four circle primitives for the rounded corners*
1,1,$1+$1,$2,$3*
1,1,$1+$1,$4,$5*
1,1,$1+$1,$6,$7*
1,1,$1+$1,$8,$9*
0 Add four rect primitives between the rounded corners*
20,1,$1+$1,$2,$3,$4,$5,0*
20,1,$1+$1,$4,$5,$6,$7,0*
20,1,$1+$1,$6,$7,$8,$9,0*
20,1,$1+$1,$8,$9,$2,$3,0*%
G04 Aperture macros list end*
%ADD10R,1.600000X1.600000*%
%ADD11O,1.600000X1.600000*%
%ADD12C,1.600000*%
%ADD13R,1.050000X1.500000*%
%ADD14O,1.050000X1.500000*%
%ADD15R,3.000000X3.000000*%
%ADD16C,3.000000*%
%ADD17R,1.800000X1.800000*%
%ADD18C,1.800000*%
%ADD19O,2.030000X1.730000*%
%ADD20R,2.030000X1.730000*%
%ADD21O,1.730000X2.030000*%
%ADD22R,1.730000X2.030000*%
%ADD23O,3.200000X1.900000*%
%ADD24C,1.100000*%
%ADD25RoundRect,0.250000X-0.980000X-1.150000X0.980000X-1.150000X0.980000X1.150000X-0.980000X1.150000X0*%
%ADD26C,1.700000*%
%ADD27R,1.200000X1.200000*%
%ADD28C,1.200000*%
G04 APERTURE END LIST*
D10*
%TO.C,U1*%
X107760000Y-72720000D03*
D11*
X107760000Y-75260000D03*
X107760000Y-77800000D03*
X107760000Y-80340000D03*
X107760000Y-82880000D03*
X107760000Y-85420000D03*
X107760000Y-87960000D03*
X107760000Y-90500000D03*
X107760000Y-93040000D03*
X107760000Y-95580000D03*
X107760000Y-98120000D03*
X107760000Y-100660000D03*
X107760000Y-103200000D03*
X107760000Y-105740000D03*
X107760000Y-108280000D03*
X107760000Y-110820000D03*
X107760000Y-113360000D03*
X107760000Y-115900000D03*
X107760000Y-118440000D03*
X107760000Y-120980000D03*
X123000000Y-120980000D03*
X123000000Y-118440000D03*
X123000000Y-115900000D03*
X123000000Y-113360000D03*
X123000000Y-110820000D03*
X123000000Y-108280000D03*
X123000000Y-105740000D03*
X123000000Y-103200000D03*
X123000000Y-100660000D03*
X123000000Y-98120000D03*
X123000000Y-95580000D03*
X123000000Y-93040000D03*
X123000000Y-90500000D03*
X123000000Y-87960000D03*
X123000000Y-85420000D03*
X123000000Y-82880000D03*
X123000000Y-80340000D03*
X123000000Y-77800000D03*
X123000000Y-75260000D03*
X123000000Y-72720000D03*
%TD*%
D12*
%TO.C,R9-10KOhm1*%
X114310000Y-136000000D03*
D11*
X106690000Y-136000000D03*
%TD*%
D13*
%TO.C,Temperatura1*%
X109040000Y-127000000D03*
D14*
X107770000Y-127000000D03*
X106500000Y-127000000D03*
%TD*%
D15*
%TO.C,Rel\u00E9_AltoFalante1*%
X138000000Y-116380000D03*
D16*
X138000000Y-112500000D03*
%TD*%
D12*
%TO.C,R8-10KOhm1*%
X118690000Y-136000000D03*
D11*
X126310000Y-136000000D03*
%TD*%
D12*
%TO.C,R7-10Khm1*%
X129500000Y-136000000D03*
D11*
X137120000Y-136000000D03*
%TD*%
D12*
%TO.C,R6-220Ohm1*%
X106000000Y-66310000D03*
D11*
X106000000Y-58690000D03*
%TD*%
D12*
%TO.C,R5-220Ohm1*%
X99000000Y-66310000D03*
D11*
X99000000Y-58690000D03*
%TD*%
D12*
%TO.C,R4-220Ohm1*%
X83500000Y-66505000D03*
D11*
X83500000Y-58885000D03*
%TD*%
D12*
%TO.C,R3-220Ohm1*%
X88000000Y-66310000D03*
D11*
X88000000Y-58690000D03*
%TD*%
D12*
%TO.C,R2-220Ohm1*%
X93500000Y-66310000D03*
D11*
X93500000Y-58690000D03*
%TD*%
D12*
%TO.C,R1-4\u002C7kOhm1*%
X101810000Y-127500000D03*
D11*
X94190000Y-127500000D03*
%TD*%
D17*
%TO.C,Quintal1*%
X109460000Y-46000000D03*
D18*
X112000000Y-46000000D03*
%TD*%
D17*
%TO.C,Quarto2*%
X86725000Y-46000000D03*
D18*
X89265000Y-46000000D03*
%TD*%
D17*
%TO.C,Quarto1*%
X93960000Y-46000000D03*
D18*
X96500000Y-46000000D03*
%TD*%
D19*
%TO.C,Presen6*%
X85875000Y-127185000D03*
X85875000Y-124645000D03*
D20*
X85875000Y-122105000D03*
%TD*%
D19*
%TO.C,Presen5*%
X86000000Y-117655000D03*
X86000000Y-115115000D03*
D20*
X86000000Y-112575000D03*
%TD*%
D19*
%TO.C,Presen4*%
X86000000Y-107695000D03*
X86000000Y-105155000D03*
D20*
X86000000Y-102615000D03*
%TD*%
D19*
%TO.C,Presen3*%
X86000000Y-97695000D03*
X86000000Y-95155000D03*
D20*
X86000000Y-92615000D03*
%TD*%
D19*
%TO.C,Presen2*%
X86000000Y-87735000D03*
X86000000Y-85195000D03*
D20*
X86000000Y-82655000D03*
%TD*%
D21*
%TO.C,Presen1*%
X97000000Y-136500000D03*
X99540000Y-136500000D03*
D22*
X102080000Y-136500000D03*
%TD*%
D23*
%TO.C,Ligar/Desligar_Alarme1*%
X127250000Y-151000000D03*
X114750000Y-151000000D03*
X127250000Y-146000000D03*
X114750000Y-146000000D03*
%TD*%
D24*
%TO.C,LCD16x2*%
X135040000Y-124720000D03*
D20*
X137200000Y-129800000D03*
D19*
X137200000Y-127260000D03*
X137200000Y-124720000D03*
X137200000Y-122180000D03*
%TD*%
D12*
%TO.C,GND1*%
X128500000Y-169250000D03*
D25*
X130000000Y-166000000D03*
%TD*%
D20*
%TO.C,Gas5*%
X138500000Y-62000000D03*
D19*
X138500000Y-64540000D03*
X138500000Y-67080000D03*
%TD*%
D20*
%TO.C,Gas4*%
X137750000Y-77655000D03*
D19*
X137750000Y-75115000D03*
X137750000Y-72575000D03*
%TD*%
D20*
%TO.C,Gas3*%
X138500000Y-82500000D03*
D19*
X138500000Y-85040000D03*
X138500000Y-87580000D03*
%TD*%
D20*
%TO.C,Gas2*%
X137750000Y-98080000D03*
D19*
X137750000Y-95540000D03*
X137750000Y-93000000D03*
%TD*%
D20*
%TO.C,Gas1*%
X138000000Y-107500000D03*
D19*
X138000000Y-104960000D03*
X138000000Y-102420000D03*
%TD*%
D23*
%TO.C,Desligar_AlarmeSonoro1*%
X110250000Y-151000000D03*
X97750000Y-151000000D03*
X110250000Y-146000000D03*
X97750000Y-146000000D03*
%TD*%
D26*
%TO.C,Cristal-16MHz1*%
X98000000Y-101000000D03*
X98000000Y-98500000D03*
X98000000Y-96000000D03*
%TD*%
D17*
%TO.C,Cozinha1*%
X101460000Y-46000000D03*
D18*
X104000000Y-46000000D03*
%TD*%
D27*
%TO.C,C4-22pF1*%
X98000000Y-89000000D03*
D28*
X98000000Y-87000000D03*
%TD*%
D27*
%TO.C,C3-22pF1*%
X98500000Y-110472600D03*
D28*
X98500000Y-108472600D03*
%TD*%
D27*
%TO.C,C2-100nF1*%
X98000000Y-78500000D03*
D28*
X98000000Y-80500000D03*
%TD*%
D27*
%TO.C,C1-100nF1*%
X98500000Y-119000000D03*
D28*
X98500000Y-121000000D03*
%TD*%
D15*
%TO.C,Buzzer_Gas1*%
X127500000Y-51000000D03*
D16*
X131380000Y-51000000D03*
%TD*%
D17*
%TO.C,Banheiro1*%
X79225000Y-46000000D03*
D18*
X81765000Y-46000000D03*
%TD*%
D23*
%TO.C,Alterar_Temp1*%
X144750000Y-151000000D03*
X132250000Y-151000000D03*
X144750000Y-146000000D03*
X132250000Y-146000000D03*
%TD*%
D12*
%TO.C,+5*%
X111500000Y-168750000D03*
D25*
X113000000Y-165500000D03*
%TD*%
M02*
