M48
; DRILL file {KiCad 8.0.1} date 2024-06-24T22:11:51-0300
; FORMAT={-:-/ absolute / inch / decimal}
; #@! TF.CreationDate,2024-06-24T22:11:51-03:00
; #@! TF.GenerationSoftware,Kicad,Pcbnew,8.0.1
; #@! TF.FileFunction,Plated,1,2,PTH
FMAT,2
INCH
; #@! TA.AperFunction,Plated,PTH,ComponentDrill
T1C0.0236
; #@! TA.AperFunction,Plated,PTH,ComponentDrill
T2C0.0295
; #@! TA.AperFunction,Plated,PTH,ComponentDrill
T3C0.0315
; #@! TA.AperFunction,Plated,PTH,ComponentDrill
T4C0.0354
; #@! TA.AperFunction,Plated,PTH,ComponentDrill
T5C0.0394
; #@! TA.AperFunction,Plated,PTH,ComponentDrill
T6C0.0402
; #@! TA.AperFunction,Plated,PTH,ComponentDrill
T7C0.0512
; #@! TA.AperFunction,Plated,PTH,ComponentDrill
T8C0.0689
; #@! TA.AperFunction,Plated,PTH,ComponentDrill
T9C0.0709
%
G90
G05
T1
X3.8583Y-3.0906
X3.8583Y-3.1693
X3.8583Y-3.4252
X3.8583Y-3.5039
X3.878Y-4.2706
X3.878Y-4.3493
X3.878Y-4.685
X3.878Y-4.7638
T2
X4.1929Y-5.0
X4.2429Y-5.0
X4.2929Y-5.0
T3
X3.2874Y-2.3183
X3.2874Y-2.6183
X3.4646Y-2.3106
X3.4646Y-2.6106
X3.6811Y-2.3106
X3.6811Y-2.6106
X3.7083Y-5.0197
X3.8976Y-2.3106
X3.8976Y-2.6106
X4.0083Y-5.0197
X4.1732Y-2.3106
X4.1732Y-2.6106
X4.2004Y-5.3543
X4.2425Y-2.863
X4.2425Y-2.963
X4.2425Y-3.063
X4.2425Y-3.163
X4.2425Y-3.263
X4.2425Y-3.363
X4.2425Y-3.463
X4.2425Y-3.563
X4.2425Y-3.663
X4.2425Y-3.763
X4.2425Y-3.863
X4.2425Y-3.963
X4.2425Y-4.063
X4.2425Y-4.163
X4.2425Y-4.263
X4.2425Y-4.363
X4.2425Y-4.463
X4.2425Y-4.563
X4.2425Y-4.663
X4.2425Y-4.763
X4.5004Y-5.3543
X4.6728Y-5.3543
X4.8425Y-2.863
X4.8425Y-2.963
X4.8425Y-3.063
X4.8425Y-3.163
X4.8425Y-3.263
X4.8425Y-3.363
X4.8425Y-3.463
X4.8425Y-3.563
X4.8425Y-3.663
X4.8425Y-3.763
X4.8425Y-3.863
X4.8425Y-3.963
X4.8425Y-4.063
X4.8425Y-4.163
X4.8425Y-4.263
X4.8425Y-4.363
X4.8425Y-4.463
X4.8425Y-4.563
X4.8425Y-4.663
X4.8425Y-4.763
X4.9728Y-5.3543
X5.0984Y-5.3543
X5.3984Y-5.3543
T4
X3.1191Y-1.811
X3.2191Y-1.811
X3.4144Y-1.811
X3.5144Y-1.811
X3.6992Y-1.811
X3.7992Y-1.811
X3.9945Y-1.811
X4.0945Y-1.811
X4.3094Y-1.811
X4.4094Y-1.811
T5
X3.8583Y-3.7795
X3.8583Y-3.878
X3.8583Y-3.9764
T6
X3.3809Y-4.8073
X3.3809Y-4.9073
X3.3809Y-5.0073
X3.3858Y-3.2541
X3.3858Y-3.3541
X3.3858Y-3.4541
X3.3858Y-3.6463
X3.3858Y-3.7463
X3.3858Y-3.8463
X3.3858Y-4.04
X3.3858Y-4.14
X3.3858Y-4.24
X3.3858Y-4.4321
X3.3858Y-4.5321
X3.3858Y-4.6321
X3.8189Y-5.374
X3.9189Y-5.374
X4.0189Y-5.374
X5.4016Y-4.8102
X5.4016Y-4.9102
X5.4016Y-5.0102
X5.4016Y-5.1102
X5.4232Y-2.8573
X5.4232Y-2.9573
X5.4232Y-3.0573
X5.4232Y-3.6614
X5.4232Y-3.7614
X5.4232Y-3.8614
X5.4331Y-4.0323
X5.4331Y-4.1323
X5.4331Y-4.2323
X5.4528Y-2.4409
X5.4528Y-2.5409
X5.4528Y-2.6409
X5.4528Y-3.248
X5.4528Y-3.348
X5.4528Y-3.448
T7
X3.8484Y-5.748
X3.8484Y-5.9449
X4.3406Y-5.748
X4.3406Y-5.9449
X4.5177Y-5.748
X4.5177Y-5.9449
X5.0098Y-5.748
X5.0098Y-5.9449
X5.2067Y-5.748
X5.2067Y-5.9449
X5.6988Y-5.748
X5.6988Y-5.9449
T8
X5.0197Y-2.0079
X5.1724Y-2.0079
X5.4331Y-4.4291
X5.4331Y-4.5819
T9
X4.4488Y-6.5157
X5.1181Y-6.5354
M30
